<svg id="Layer_1" data-name="Layer 1" xmlns="http://www.w3.org/2000/svg" viewBox="0 0 504 159.5"><title>blankutenstrek</title><path d="M149.09,141.48c0-2.22-.14-141.48-0.14-141.48h-2.48S135,7.64,111,13.44V18h6.39c5.67,0,5.61,5.4,5.61,13.25V140.44c0,9.34-6,10.82-11,10.82V158h48v-6.76C156,151.24,149.09,150.48,149.09,141.48Z"/><path d="M64.36,58.77C51.51,58.77,43,64.92,38,72.38V0H35.32S24,7.64,0,13.44V18H6.25c6,0,5.47,5,5.47,13.53l0.16,102.75c0,13.47-3.88,19.56-3.88,19.56V158H50c32.89,0,53-28.38,53-54.48C102.92,81.14,90.05,58.77,64.36,58.77ZM48,147.67c-6.42,0-10-2.07-10-2.07V78.25a35,35,0,0,1,13.26-3.11c17.2,0,24.16,17.82,24.16,35.23C75.42,130.47,66.22,147.67,48,147.67Z"/><path d="M368,141.22V88.16c0-20.1-9.48-28-23.78-28C329.09,60.19,314,72.76,309,79.89V60h-2.68S296,68.32,272,74.12V78h6.15c6,0,5.85,5.45,5.85,13.95v49.25c0,7.06-5,10.17-11,10V158h47v-6.76c-5,0-11-1.61-11-10V86.09c6-5.18,15-7.67,21.83-7.67,8.08,0,11.55,3.32,11.55,17.82,0,0,.21,43.37.22,45,0,7.77-5.6,10.11-10.6,10.11V158h47v-6.69C373,151.28,368,149,368,141.22Z"/><path d="M502.63,153.64c-4.86-.42-13-5.43-21-15.57L449.21,96.2l21.15-18.76C477.61,70.8,491.1,67,491.1,67l0.09-4H452v5.09c4,1,6.24,2,6.43,4.6s-2,4.78-8.24,10.62c0,0-21.32,17.26-22.17,18s-3.35.55-3.35-1.29c0-1.64.13-100,.13-100h-2.57S412,7.64,388,13.44V18h5.82c6,0,5.18,8.56,5.18,17.06v106c0,7-3,10.16-11,10.16v6.48l48,0v-6.45c-6,0-11-1.72-11-9.93,0-1.43-.2-29.68-0.2-30.54s2.45-1.53,3.25-.41c1,1.43,27.48,32.74,28.24,33.62,5.41,6.21,10,14,14.37,14H504v-4.15Z"/><path d="M252.59,147.8c-3.47,0-4.59-3.5-4.59-9v-44c2-25.34-7.76-34.3-28.32-34.18-3.14,0-3.63,0-5.52,0-7.57,0-29.07,16-32.72,18.46-2.22,1.66-4.1,2.87-4.38,4.67-0.24,1.55.9,4.21,2.51,6.61l3.95,6.31,2.73-1.21,0.21-.07c2.84-1.27,2.27-1,4.33-2a3.91,3.91,0,0,0,1.72-1.32,8.79,8.79,0,0,0,1-3.16c0.45-2.68,1-11,9.58-13.23,2.86-.75,9.93-1,13.55.34,7.56,2.84,8.34,11.05,8.34,14.16v11.63l-12.33,4.57c-14,5.18-41.09,11.68-41.09,29.77,0,15.54,10.88,22.74,23.1,23,17.61,0.35,30.33-14.56,31.33-15.35v3.42c0,7.86,5.9,12.24,15.22,12.24,13.71,0,22.6-9.87,22.6-9.87l-3.06-4.93S256.43,147.8,252.59,147.8Zm-46.22-3.13c-7,0-11.13-5.3-11.13-11.72,0-11.81,11.45-17.3,21.84-20.87,4.16-1.43,8-2.68,8-2.68l0,24.9C220,141.23,212,144.68,206.38,144.68Z"/></svg>