<?xml version="1.0" encoding="UTF-8" standalone="no"?>
<svg width="704px" height="232px" viewBox="0 0 704 232" version="1.1" xmlns="http://www.w3.org/2000/svg" xmlns:xlink="http://www.w3.org/1999/xlink">
    <!-- Generator: Sketch 39.1 (31720) - http://www.bohemiancoding.com/sketch -->
    <title>bonus</title>
    <desc>Created with Sketch.</desc>
    <defs></defs>
    <g id="Page-1" stroke="none" stroke-width="1" fill="none" fill-rule="evenodd">
        <g id="bonus">
            <g id="bg" fill="#FDD757">
                <rect id="Rectangle-Copy-324" x="0" y="0" width="704" height="232"></rect>
            </g>
            <g id="graph_bar" transform="translate(32.000000, 32.000000)">
                <g id="bar_bonus_4" transform="translate(0.000000, 7.000000)">
                    <rect id="Rectangle-Copy-365" fill="#FFFFFF" x="0" y="0" width="46" height="32"></rect>
                    <text id="Bonus-Q4" font-family="MuseoSans-700, Museo Sans" font-size="8" font-weight="500" line-spacing="8" fill="#262626">
                        <tspan x="4" y="12">Bonus</tspan>
                        <tspan x="4" y="20">Q4</tspan>
                    </text>
                </g>
                <g id="bar_bonus_1" transform="translate(162.000000, 7.000000)">
                    <rect id="Rectangle-Copy-364" fill="#FFFFFF" x="0" y="0" width="46" height="32"></rect>
                    <text id="Bonus-Q1" font-family="MuseoSans-700, Museo Sans" font-size="8" font-weight="500" line-spacing="8" fill="#262626">
                        <tspan x="4" y="12">Bonus</tspan>
                        <tspan x="4" y="20">Q1</tspan>
                    </text>
                </g>
                <g id="bar_bonus_2" transform="translate(324.000000, 7.000000)">
                    <rect id="Rectangle-Copy-362" fill="#FFFFFF" x="0" y="0" width="46" height="32"></rect>
                    <text id="Bonus-Q2" font-family="MuseoSans-700, Museo Sans" font-size="8" font-weight="500" line-spacing="8" fill="#262626">
                        <tspan x="4" y="12">Bonus</tspan>
                        <tspan x="4" y="20">Q2</tspan>
                    </text>
                </g>
                <g id="bar_bonus_3" transform="translate(486.000000, 7.000000)">
                    <rect id="Rectangle-Copy-363" fill="#FFFFFF" x="0" y="0" width="46" height="32"></rect>
                    <text id="Bonus-Q3" font-family="MuseoSans-700, Museo Sans" font-size="8" font-weight="500" line-spacing="8" fill="#262626">
                        <tspan x="4" y="12">Bonus</tspan>
                        <tspan x="4" y="20">Q3</tspan>
                    </text>
                </g>
                <g id="12" transform="translate(594.000000, 24.000000)">
                    <rect id="Rectangle-Copy-361" fill="#FFBF3F" x="0" y="0" width="46" height="144"></rect>
                    <g id="icon_snow" transform="translate(4.000000, 4.000000)">
                        <rect id="bg" x="0" y="0" width="16" height="16"></rect>
                        <path d="M4.8011334,10.4242168 L7.5,8.8660254 L7.5,11.9824081 L5.4726499,13.3339749 L6.0273501,14.1660251 L7.5,13.1842585 L7.5,15 L8.5,15 L8.5,13.1842585 L9.9726499,14.1660251 L10.5273501,13.3339749 L8.5,11.9824081 L8.5,8.8660254 L10.9823602,10.2992168 L11.1391763,12.7307368 L12.1371031,12.6663775 L12.0231932,10.900142 L13.8121778,11.9330127 L14.3121778,11.0669873 L12.5231932,10.0341166 L14.109753,9.24964765 L13.6665264,8.35323804 L11.4823602,9.43319136 L9,8 L11.4823602,6.56680864 L13.6665264,7.64676196 L14.109753,6.75035235 L12.5231932,5.96588343 L14.3121778,4.9330127 L13.8121778,4.0669873 L12.0231932,5.09985803 L12.1371031,3.3336225 L11.1391763,3.26926318 L10.9823602,5.70078324 L8.5,7.1339746 L8.5,4.26759188 L10.5273501,2.91602515 L9.9726499,2.08397485 L8.5,3.06574145 L8.5,1 L7.5,1 L7.5,3.06574145 L6.0273501,2.08397485 L5.4726499,2.91602515 L7.5,4.26759188 L7.5,7.1339746 L4.8011334,5.57578324 L4.64431732,3.14426318 L3.64639053,3.2086225 L3.7603004,4.97485803 L2.18782217,4.0669873 L1.68782217,4.9330127 L3.2603004,5.84088343 L1.67374063,6.62535235 L2.11696723,7.52176196 L4.3011334,6.44180864 L7,8 L4.3011334,9.55819136 L2.11696723,8.47823804 L1.67374063,9.37464765 L3.2603004,10.1591166 L1.68782217,11.0669873 L2.18782217,11.9330127 L3.7603004,11.025142 L3.64639053,12.7913775 L4.64431732,12.8557368 L4.8011334,10.4242168 Z" id="Combined-Shape" fill="#262626"></path>
                    </g>
                    <text id="DES" font-family="MuseoSans-300, Museo Sans" font-size="6" font-weight="300" line-spacing="8" fill="#262626">
                        <tspan x="4" y="138">DES</tspan>
                    </text>
                    <text id="Halv-skatt" font-family="MuseoSans-700, Museo Sans" font-size="6" font-weight="500" line-spacing="8" fill="#262626">
                        <tspan x="4" y="30">Halv</tspan>
                        <tspan x="4" y="38">skatt</tspan>
                    </text>
                </g>
                <g id="11" transform="translate(540.000000, 48.000000)">
                    <rect id="Rectangle-Copy-359" fill="#FFBF3F" x="0" y="0" width="46" height="120"></rect>
                    <text id="NOV" font-family="MuseoSans-300, Museo Sans" font-size="6" font-weight="300" line-spacing="8" fill="#262626">
                        <tspan x="4" y="114">NOV</tspan>
                    </text>
                </g>
                <g id="10" transform="translate(486.000000, 48.000000)">
                    <rect id="Rectangle-Copy-360" fill="#FFBF3F" x="0" y="0" width="46" height="120"></rect>
                    <text id="OKT" font-family="MuseoSans-300, Museo Sans" font-size="6" font-weight="300" line-spacing="8" fill="#262626">
                        <tspan x="4" y="114">OKT</tspan>
                    </text>
                </g>
                <g id="9" transform="translate(432.000000, 48.000000)">
                    <rect id="Rectangle-Copy-358" fill="#FFBF3F" x="0" y="0" width="46" height="120"></rect>
                    <text id="SEP" font-family="MuseoSans-300, Museo Sans" font-size="6" font-weight="300" line-spacing="8" fill="#262626">
                        <tspan x="4" y="114">SEP</tspan>
                    </text>
                </g>
                <g id="8" transform="translate(378.000000, 48.000000)">
                    <rect id="Rectangle-Copy-357" fill="#FFBF3F" x="0" y="0" width="46" height="120"></rect>
                    <text id="AUG" font-family="MuseoSans-300, Museo Sans" font-size="6" font-weight="300" line-spacing="8" fill="#262626">
                        <tspan x="4" y="114">AUG</tspan>
                    </text>
                </g>
                <g id="7" transform="translate(324.000000, 48.000000)">
                    <rect id="Rectangle-Copy-355" fill="#FFBF3F" x="0" y="0" width="46" height="120"></rect>
                    <text id="JUL" font-family="MuseoSans-300, Museo Sans" font-size="6" font-weight="300" line-spacing="8" fill="#262626">
                        <tspan x="4" y="114">JUL</tspan>
                    </text>
                </g>
                <g id="6" transform="translate(270.000000, 0.000000)">
                    <rect id="Rectangle-Copy-356" fill="#FFBF3F" x="0" y="0" width="46" height="168"></rect>
                    <text id="Ferie--penger" font-family="MuseoSans-700, Museo Sans" font-size="6" font-weight="500" line-spacing="8" fill="#262626">
                        <tspan x="4" y="30">Ferie-</tspan>
                        <tspan x="4" y="38">penger</tspan>
                    </text>
                    <g id="icon_sun" transform="translate(4.000000, 4.000000)">
                        <rect id="bg" x="0" y="0" width="16" height="16"></rect>
                        <g id="Group" transform="translate(1.000000, 1.000000)" fill="#262626">
                            <path d="M1.42895882,5.57104118 L1.33226763e-15,7 L1.42895882,8.42895882 C1.31211812,7.97207803 1.25,7.49329325 1.25,7 C1.25,6.50670675 1.31211812,6.02792197 1.42895882,5.57104118 Z M5.57104118,1.42895882 L7,1.77635684e-15 L8.42895882,1.42895882 C7.97207803,1.31211812 7.49329325,1.25 7,1.25 C6.50670675,1.25 6.02792197,1.31211812 5.57104118,1.42895882 Z M12.5710412,5.57104118 L14,7 L12.5710412,8.42895882 C12.6878819,7.97207803 12.75,7.49329325 12.75,7 C12.75,6.50670675 12.6878819,6.02792197 12.5710412,5.57104118 Z M8.42895882,12.5710412 L7,14 L5.57104118,12.5710412 C6.02792197,12.6878819 6.50670675,12.75 7,12.75 C7.49329325,12.75 7.97207803,12.6878819 8.42895882,12.5710412 Z" id="Combined-Shape"></path>
                            <path d="M4.15853331,2 L2,2 L2,4.15853331 C2.51201283,3.25950542 3.25950542,2.51201283 4.15853331,2 Z M9.84146669,2 L12,2 L12,4.15853331 C11.4879872,3.25950542 10.7404946,2.51201283 9.84146669,2 Z M12,9.84146669 L12,12 L9.84146669,12 C10.7404946,11.4879872 11.4879872,10.7404946 12,9.84146669 Z M4.15853331,12 L2,12 L2,9.84146669 C2.51201283,10.7404946 3.25950542,11.4879872 4.15853331,12 Z" id="Combined-Shape"></path>
                            <g id="Group-3" transform="translate(2.000000, 2.000000)">
                                <path d="M9,5 C9,2.790861 7.209139,1 5,1 C2.790861,1 1,2.790861 1,5 C1,7.209139 2.790861,9 5,9 C7.209139,9 9,7.209139 9,5 Z M0,5 C0,2.23857625 2.23857625,0 5,0 C7.76142375,0 10,2.23857625 10,5 C10,7.76142375 7.76142375,10 5,10 C2.23857625,10 0,7.76142375 0,5 Z" id="Oval"></path>
                            </g>
                        </g>
                    </g>
                    <text id="JUN" font-family="MuseoSans-300, Museo Sans" font-size="6" font-weight="300" line-spacing="8" fill="#262626">
                        <tspan x="4" y="162">JUN</tspan>
                    </text>
                </g>
                <g id="5" transform="translate(216.000000, 48.000000)">
                    <rect id="Rectangle-Copy-354" fill="#FFBF3F" x="0" y="0" width="46" height="120"></rect>
                    <text id="MAI" font-family="MuseoSans-300, Museo Sans" font-size="6" font-weight="300" line-spacing="8" fill="#262626">
                        <tspan x="4" y="114">MAI</tspan>
                    </text>
                </g>
                <g id="4" transform="translate(162.000000, 48.000000)">
                    <rect id="Rectangle-Copy-326" fill="#FFBF3F" x="0" y="0" width="46" height="120"></rect>
                    <text id="APR" font-family="MuseoSans-300, Museo Sans" font-size="6" font-weight="300" line-spacing="8" fill="#262626">
                        <tspan x="4" y="114">APR</tspan>
                    </text>
                </g>
                <g id="3" transform="translate(108.000000, 48.000000)">
                    <rect id="Rectangle-Copy-325" fill="#FFBF3F" x="0" y="0" width="46" height="120"></rect>
                    <text id="MAR" font-family="MuseoSans-300, Museo Sans" font-size="6" font-weight="300" line-spacing="8" fill="#262626">
                        <tspan x="4" y="114">MAR</tspan>
                    </text>
                </g>
                <g id="2" transform="translate(54.000000, 48.000000)">
                    <rect id="Rectangle-Copy-323" fill="#FFBF3F" x="0" y="0" width="46" height="120"></rect>
                    <text id="FEB" font-family="MuseoSans-300, Museo Sans" font-size="6" font-weight="300" line-spacing="8" fill="#262626">
                        <tspan x="4" y="114">FEB</tspan>
                    </text>
                </g>
                <g id="1" transform="translate(0.000000, 48.000000)">
                    <rect id="Rectangle-Copy-123" fill="#FFBF3F" x="0" y="0" width="46" height="120"></rect>
                    <text id="JAN" font-family="MuseoSans-300, Museo Sans" font-size="6" font-weight="300" line-spacing="8" fill="#262626">
                        <tspan x="4" y="114">JAN</tspan>
                    </text>
                </g>
            </g>
        </g>
    </g>
</svg>