<?xml version="1.0" encoding="UTF-8" standalone="no"?>
<svg width="384px" height="320px" viewBox="0 0 384 320" version="1.1" xmlns="http://www.w3.org/2000/svg" xmlns:xlink="http://www.w3.org/1999/xlink">
    <!-- Generator: Sketch 39.1 (31720) - http://www.bohemiancoding.com/sketch -->
    <title>graph_salary_small</title>
    <desc>Created with Sketch.</desc>
    <defs></defs>
    <g id="Page-1" stroke="none" stroke-width="1" fill="none" fill-rule="evenodd">
        <g id="graph_salary_small">
            <g id="salary_labels-copy">
                <polyline id="graph_path_tekna" stroke-opacity="0.5" stroke="#262626" stroke-width="2" points="16 252 32 244.800003 48 235.199997 64 223.199997 80 208.800003 96 196.800003 112 184.800003 128 168 144 156 160 151.199997 176 129.599998 192 122.400002 208 108 224 93.5999985 240 100.800003 256 88.8000031 272 72 288 67.2000008 304 55.2000008 320 55 336 55.2000008"></polyline>
                <polyline id="graph_line_average" stroke="#F5F5F5" stroke-width="4" stroke-linecap="round" stroke-linejoin="round" opacity="0.75" points="15.9999994 252 31.9999994 244 47.9999994 235 63.9999994 223 79.9999994 211 95.9999994 196 111.999999 182 127.999999 168 143.999999 156 159.999999 144 175.999999 132 191.999999 122 207.999999 112 223.999999 103 239.999999 91 255.999999 84 271.999999 76 287.999999 67 304 60 319.999999 55 336 50"></polyline>
                <g id="graph_points_employees" transform="translate(8.000000, 76.000000)" fill-opacity="0.25" fill="#F5F5F5">
                    <circle id="Oval-Copy-21" cx="8" cy="171" r="8"></circle>
                    <circle id="Oval-Copy-23" cx="8" cy="171" r="8"></circle>
                    <circle id="Oval-Copy-24" cx="40" cy="169" r="8"></circle>
                    <circle id="Oval-Copy-25" cx="56" cy="147" r="8"></circle>
                    <circle id="Oval-Copy-27" cx="72" cy="135" r="16"></circle>
                    <circle id="Oval-Copy-28" cx="72" cy="135" r="12"></circle>
                    <circle id="Oval-Copy-26" cx="72" cy="135" r="8"></circle>
                    <circle id="Oval-Copy-29" cx="88" cy="154" r="8"></circle>
                    <circle id="Oval-Copy-32" cx="104" cy="87" r="8"></circle>
                    <circle id="Oval-Copy-40" cx="120" cy="92" r="8"></circle>
                    <circle id="Oval-Copy-33" cx="120" cy="92" r="16"></circle>
                    <circle id="Oval-Copy-33" cx="120" cy="92" r="12"></circle>
                    <circle id="Oval-Copy-33" cx="136" cy="68" r="8"></circle>
                    <circle id="Oval-Copy-34" cx="136" cy="80" r="8"></circle>
                    <circle id="Oval-Copy-35" cx="152" cy="13" r="8"></circle>
                    <circle id="Oval-Copy-36" cx="152" cy="20" r="8"></circle>
                    <circle id="Oval-Copy-37" cx="168" cy="27" r="8"></circle>
                    <circle id="Oval-Copy-38" cx="184" cy="27" r="8"></circle>
                    <circle id="Oval-Copy-39" cx="328" cy="8" r="8"></circle>
                    <circle id="Oval-Copy-30" cx="88" cy="135" r="8"></circle>
                    <circle id="Oval-Copy-31" cx="88" cy="120.800003" r="8"></circle>
                    <circle id="Oval-Copy-22" cx="8" cy="180.800003" r="8"></circle>
                </g>
            </g>
            <g id="label_y" transform="translate(16.000000, 0.000000)">
                <g id="lines" transform="translate(0.000000, 63.000000)" fill="#FFFFFF" opacity="0.2">
                    <rect id="Rectangle-Copy-5" x="0" y="200" width="332.5" height="1"></rect>
                    <rect id="Rectangle-Copy-5" x="0" y="100" width="332.5" height="1"></rect>
                    <rect id="Rectangle-Copy-5" x="0" y="0" width="332.5" height="1"></rect>
                </g>
                <path d="M327.904,64 L333.112,64 L333.112,62.668 L331.264,62.668 L331.264,55.48 L329.908,55.48 L327.772,57.532 L328.684,58.492 L329.368,57.844 C329.644,57.568 329.74,57.364 329.74,57.364 L329.764,57.364 C329.764,57.364 329.752,57.652 329.752,57.94 L329.752,62.668 L327.904,62.668 L327.904,64 Z M340.084,64.144 C342.412,64.144 343.18,62.176 343.18,59.728 C343.18,57.28 342.412,55.336 340.084,55.336 C337.756,55.336 337,57.28 337,59.728 C337,62.176 337.756,64.144 340.084,64.144 L340.084,64.144 Z M340.084,62.728 C338.92,62.728 338.584,61.408 338.584,59.728 C338.584,58.072 338.92,56.764 340.084,56.764 C341.248,56.764 341.584,58.072 341.584,59.728 C341.584,61.408 341.248,62.728 340.084,62.728 L340.084,62.728 Z M347.632,64.144 C349.96,64.144 350.728,62.176 350.728,59.728 C350.728,57.28 349.96,55.336 347.632,55.336 C345.304,55.336 344.548,57.28 344.548,59.728 C344.548,62.176 345.304,64.144 347.632,64.144 L347.632,64.144 Z M347.632,62.728 C346.468,62.728 346.132,61.408 346.132,59.728 C346.132,58.072 346.468,56.764 347.632,56.764 C348.796,56.764 349.132,58.072 349.132,59.728 C349.132,61.408 348.796,62.728 347.632,62.728 L347.632,62.728 Z M355.18,64.144 C357.508,64.144 358.276,62.176 358.276,59.728 C358.276,57.28 357.508,55.336 355.18,55.336 C352.852,55.336 352.096,57.28 352.096,59.728 C352.096,62.176 352.852,64.144 355.18,64.144 L355.18,64.144 Z M355.18,62.728 C354.016,62.728 353.68,61.408 353.68,59.728 C353.68,58.072 354.016,56.764 355.18,56.764 C356.344,56.764 356.68,58.072 356.68,59.728 C356.68,61.408 356.344,62.728 355.18,62.728 L355.18,62.728 Z M362.716,64 L364.24,64 L364.24,61.324 L365.032,61.324 L366.652,64 L368.404,64 L366.232,60.64 L366.232,60.616 L368.164,57.88 L366.472,57.88 L364.996,60.04 L364.24,60.04 L364.24,55.48 L362.716,55.48 L362.716,64 Z" id="1-000-k" fill="#F5F5F5"></path>
                <path d="M338.992,164 L340.6,164 L344.332,156.56 L344.332,155.48 L338.476,155.48 L338.476,156.812 L342.112,156.812 C342.532,156.812 342.7,156.788 342.7,156.788 L342.7,156.812 C342.7,156.812 342.448,157.064 342.184,157.592 L338.992,164 Z M345.1,162.992 C345.1,162.992 346.024,164.144 347.824,164.144 C349.6,164.144 350.896,162.896 350.896,161.216 C350.896,159.68 349.78,158.42 347.896,158.42 C347.38,158.42 346.984,158.612 346.984,158.612 L346.96,158.612 C346.96,158.612 346.996,158.444 347.02,158.216 L347.152,156.812 L350.296,156.812 L350.296,155.48 L345.82,155.48 L345.424,159.8 L346.276,160.112 C346.276,160.112 346.84,159.752 347.596,159.752 C348.568,159.752 349.312,160.34 349.312,161.228 C349.312,162.128 348.532,162.68 347.704,162.68 C346.6,162.68 345.892,161.828 345.892,161.828 L345.1,162.992 Z M355.18,164.144 C357.508,164.144 358.276,162.176 358.276,159.728 C358.276,157.28 357.508,155.336 355.18,155.336 C352.852,155.336 352.096,157.28 352.096,159.728 C352.096,162.176 352.852,164.144 355.18,164.144 L355.18,164.144 Z M355.18,162.728 C354.016,162.728 353.68,161.408 353.68,159.728 C353.68,158.072 354.016,156.764 355.18,156.764 C356.344,156.764 356.68,158.072 356.68,159.728 C356.68,161.408 356.344,162.728 355.18,162.728 L355.18,162.728 Z M362.716,164 L364.24,164 L364.24,161.324 L365.032,161.324 L366.652,164 L368.404,164 L366.232,160.64 L366.232,160.616 L368.164,157.88 L366.472,157.88 L364.996,160.04 L364.24,160.04 L364.24,155.48 L362.716,155.48 L362.716,164 Z" id="750-k" fill="#F5F5F5"></path>
                <path d="M337.552,262.992 C337.552,262.992 338.476,264.144 340.276,264.144 C342.052,264.144 343.348,262.896 343.348,261.216 C343.348,259.68 342.232,258.42 340.348,258.42 C339.832,258.42 339.436,258.612 339.436,258.612 L339.412,258.612 C339.412,258.612 339.448,258.444 339.472,258.216 L339.604,256.812 L342.748,256.812 L342.748,255.48 L338.272,255.48 L337.876,259.8 L338.728,260.112 C338.728,260.112 339.292,259.752 340.048,259.752 C341.02,259.752 341.764,260.34 341.764,261.228 C341.764,262.128 340.984,262.68 340.156,262.68 C339.052,262.68 338.344,261.828 338.344,261.828 L337.552,262.992 Z M347.632,264.144 C349.96,264.144 350.728,262.176 350.728,259.728 C350.728,257.28 349.96,255.336 347.632,255.336 C345.304,255.336 344.548,257.28 344.548,259.728 C344.548,262.176 345.304,264.144 347.632,264.144 L347.632,264.144 Z M347.632,262.728 C346.468,262.728 346.132,261.408 346.132,259.728 C346.132,258.072 346.468,256.764 347.632,256.764 C348.796,256.764 349.132,258.072 349.132,259.728 C349.132,261.408 348.796,262.728 347.632,262.728 L347.632,262.728 Z M355.18,264.144 C357.508,264.144 358.276,262.176 358.276,259.728 C358.276,257.28 357.508,255.336 355.18,255.336 C352.852,255.336 352.096,257.28 352.096,259.728 C352.096,262.176 352.852,264.144 355.18,264.144 L355.18,264.144 Z M355.18,262.728 C354.016,262.728 353.68,261.408 353.68,259.728 C353.68,258.072 354.016,256.764 355.18,256.764 C356.344,256.764 356.68,258.072 356.68,259.728 C356.68,261.408 356.344,262.728 355.18,262.728 L355.18,262.728 Z M362.716,264 L364.24,264 L364.24,261.324 L365.032,261.324 L366.652,264 L368.404,264 L366.232,260.64 L366.232,260.616 L368.164,257.88 L366.472,257.88 L364.996,260.04 L364.24,260.04 L364.24,255.48 L362.716,255.48 L362.716,264 Z" id="500-k" fill="#F5F5F5"></path>
            </g>
            <g id="label_x" transform="translate(0.000000, 288.000000)" fill="#F5F5F5">
                <g id="2015" transform="translate(16.000000, 0.000000)">
                    <rect id="Rectangle-Copy-5" x="0" y="0" width="2" height="12"></rect>
                    <path d="M6.672,12 L12.324,12 L12.324,10.668 L8.34,10.668 C8.376,9.06 12.192,8.592 12.192,5.856 C12.192,4.248 10.92,3.336 9.42,3.336 C7.38,3.336 6.6,5.04 6.6,5.04 L7.752,5.808 C7.752,5.808 8.292,4.8 9.288,4.8 C10.008,4.8 10.584,5.244 10.584,5.988 C10.584,7.68 6.6,8.172 6.6,11.244 C6.6,11.484 6.636,11.724 6.672,12 L6.672,12 Z M16.728,12.144 C19.056,12.144 19.824,10.176 19.824,7.728 C19.824,5.28 19.056,3.336 16.728,3.336 C14.4,3.336 13.644,5.28 13.644,7.728 C13.644,10.176 14.4,12.144 16.728,12.144 L16.728,12.144 Z M16.728,10.728 C15.564,10.728 15.228,9.408 15.228,7.728 C15.228,6.072 15.564,4.764 16.728,4.764 C17.892,4.764 18.228,6.072 18.228,7.728 C18.228,9.408 17.892,10.728 16.728,10.728 L16.728,10.728 Z M21.156,12 L26.364,12 L26.364,10.668 L24.516,10.668 L24.516,3.48 L23.16,3.48 L21.024,5.532 L21.936,6.492 L22.62,5.844 C22.896,5.568 22.992,5.364 22.992,5.364 L23.016,5.364 C23.016,5.364 23.004,5.652 23.004,5.94 L23.004,10.668 L21.156,10.668 L21.156,12 Z M27.168,10.992 C27.168,10.992 28.092,12.144 29.892,12.144 C31.668,12.144 32.964,10.896 32.964,9.216 C32.964,7.68 31.848,6.42 29.964,6.42 C29.448,6.42 29.052,6.612 29.052,6.612 L29.028,6.612 C29.028,6.612 29.064,6.444 29.088,6.216 L29.22,4.812 L32.364,4.812 L32.364,3.48 L27.888,3.48 L27.492,7.8 L28.344,8.112 C28.344,8.112 28.908,7.752 29.664,7.752 C30.636,7.752 31.38,8.34 31.38,9.228 C31.38,10.128 30.6,10.68 29.772,10.68 C28.668,10.68 27.96,9.828 27.96,9.828 L27.168,10.992 Z"></path>
                </g>
                <g id="2010" transform="translate(96.000000, 0.000000)">
                    <rect id="Rectangle-Copy-5" x="0" y="0" width="2" height="12"></rect>
                    <path d="M6.672,12 L12.324,12 L12.324,10.668 L8.34,10.668 C8.376,9.06 12.192,8.592 12.192,5.856 C12.192,4.248 10.92,3.336 9.42,3.336 C7.38,3.336 6.6,5.04 6.6,5.04 L7.752,5.808 C7.752,5.808 8.292,4.8 9.288,4.8 C10.008,4.8 10.584,5.244 10.584,5.988 C10.584,7.68 6.6,8.172 6.6,11.244 C6.6,11.484 6.636,11.724 6.672,12 L6.672,12 Z M16.728,12.144 C19.056,12.144 19.824,10.176 19.824,7.728 C19.824,5.28 19.056,3.336 16.728,3.336 C14.4,3.336 13.644,5.28 13.644,7.728 C13.644,10.176 14.4,12.144 16.728,12.144 L16.728,12.144 Z M16.728,10.728 C15.564,10.728 15.228,9.408 15.228,7.728 C15.228,6.072 15.564,4.764 16.728,4.764 C17.892,4.764 18.228,6.072 18.228,7.728 C18.228,9.408 17.892,10.728 16.728,10.728 L16.728,10.728 Z M21.156,12 L26.364,12 L26.364,10.668 L24.516,10.668 L24.516,3.48 L23.16,3.48 L21.024,5.532 L21.936,6.492 L22.62,5.844 C22.896,5.568 22.992,5.364 22.992,5.364 L23.016,5.364 C23.016,5.364 23.004,5.652 23.004,5.94 L23.004,10.668 L21.156,10.668 L21.156,12 Z M30.42,12.144 C32.748,12.144 33.516,10.176 33.516,7.728 C33.516,5.28 32.748,3.336 30.42,3.336 C28.092,3.336 27.336,5.28 27.336,7.728 C27.336,10.176 28.092,12.144 30.42,12.144 L30.42,12.144 Z M30.42,10.728 C29.256,10.728 28.92,9.408 28.92,7.728 C28.92,6.072 29.256,4.764 30.42,4.764 C31.584,4.764 31.92,6.072 31.92,7.728 C31.92,9.408 31.584,10.728 30.42,10.728 L30.42,10.728 Z"></path>
                </g>
                <g id="2005" transform="translate(176.000000, 0.000000)">
                    <rect id="Rectangle-Copy-5" x="0" y="0" width="2" height="12"></rect>
                    <path d="M6.672,12 L12.324,12 L12.324,10.668 L8.34,10.668 C8.376,9.06 12.192,8.592 12.192,5.856 C12.192,4.248 10.92,3.336 9.42,3.336 C7.38,3.336 6.6,5.04 6.6,5.04 L7.752,5.808 C7.752,5.808 8.292,4.8 9.288,4.8 C10.008,4.8 10.584,5.244 10.584,5.988 C10.584,7.68 6.6,8.172 6.6,11.244 C6.6,11.484 6.636,11.724 6.672,12 L6.672,12 Z M16.728,12.144 C19.056,12.144 19.824,10.176 19.824,7.728 C19.824,5.28 19.056,3.336 16.728,3.336 C14.4,3.336 13.644,5.28 13.644,7.728 C13.644,10.176 14.4,12.144 16.728,12.144 L16.728,12.144 Z M16.728,10.728 C15.564,10.728 15.228,9.408 15.228,7.728 C15.228,6.072 15.564,4.764 16.728,4.764 C17.892,4.764 18.228,6.072 18.228,7.728 C18.228,9.408 17.892,10.728 16.728,10.728 L16.728,10.728 Z M24.276,12.144 C26.604,12.144 27.372,10.176 27.372,7.728 C27.372,5.28 26.604,3.336 24.276,3.336 C21.948,3.336 21.192,5.28 21.192,7.728 C21.192,10.176 21.948,12.144 24.276,12.144 L24.276,12.144 Z M24.276,10.728 C23.112,10.728 22.776,9.408 22.776,7.728 C22.776,6.072 23.112,4.764 24.276,4.764 C25.44,4.764 25.776,6.072 25.776,7.728 C25.776,9.408 25.44,10.728 24.276,10.728 L24.276,10.728 Z M28.572,10.992 C28.572,10.992 29.496,12.144 31.296,12.144 C33.072,12.144 34.368,10.896 34.368,9.216 C34.368,7.68 33.252,6.42 31.368,6.42 C30.852,6.42 30.456,6.612 30.456,6.612 L30.432,6.612 C30.432,6.612 30.468,6.444 30.492,6.216 L30.624,4.812 L33.768,4.812 L33.768,3.48 L29.292,3.48 L28.896,7.8 L29.748,8.112 C29.748,8.112 30.312,7.752 31.068,7.752 C32.04,7.752 32.784,8.34 32.784,9.228 C32.784,10.128 32.004,10.68 31.176,10.68 C30.072,10.68 29.364,9.828 29.364,9.828 L28.572,10.992 Z"></path>
                </g>
                <g id="2000" transform="translate(255.500000, 0.000000)">
                    <rect id="Rectangle-Copy-5" x="0.5" y="0" width="2" height="12"></rect>
                    <path d="M7.172,12 L12.824,12 L12.824,10.668 L8.84,10.668 C8.876,9.06 12.692,8.592 12.692,5.856 C12.692,4.248 11.42,3.336 9.92,3.336 C7.88,3.336 7.1,5.04 7.1,5.04 L8.252,5.808 C8.252,5.808 8.792,4.8 9.788,4.8 C10.508,4.8 11.084,5.244 11.084,5.988 C11.084,7.68 7.1,8.172 7.1,11.244 C7.1,11.484 7.136,11.724 7.172,12 L7.172,12 Z M17.228,12.144 C19.556,12.144 20.324,10.176 20.324,7.728 C20.324,5.28 19.556,3.336 17.228,3.336 C14.9,3.336 14.144,5.28 14.144,7.728 C14.144,10.176 14.9,12.144 17.228,12.144 L17.228,12.144 Z M17.228,10.728 C16.064,10.728 15.728,9.408 15.728,7.728 C15.728,6.072 16.064,4.764 17.228,4.764 C18.392,4.764 18.728,6.072 18.728,7.728 C18.728,9.408 18.392,10.728 17.228,10.728 L17.228,10.728 Z M24.776,12.144 C27.104,12.144 27.872,10.176 27.872,7.728 C27.872,5.28 27.104,3.336 24.776,3.336 C22.448,3.336 21.692,5.28 21.692,7.728 C21.692,10.176 22.448,12.144 24.776,12.144 L24.776,12.144 Z M24.776,10.728 C23.612,10.728 23.276,9.408 23.276,7.728 C23.276,6.072 23.612,4.764 24.776,4.764 C25.94,4.764 26.276,6.072 26.276,7.728 C26.276,9.408 25.94,10.728 24.776,10.728 L24.776,10.728 Z M32.324,12.144 C34.652,12.144 35.42,10.176 35.42,7.728 C35.42,5.28 34.652,3.336 32.324,3.336 C29.996,3.336 29.24,5.28 29.24,7.728 C29.24,10.176 29.996,12.144 32.324,12.144 L32.324,12.144 Z M32.324,10.728 C31.16,10.728 30.824,9.408 30.824,7.728 C30.824,6.072 31.16,4.764 32.324,4.764 C33.488,4.764 33.824,6.072 33.824,7.728 C33.824,9.408 33.488,10.728 32.324,10.728 L32.324,10.728 Z"></path>
                </g>
                <g id="1995" transform="translate(336.000000, 0.000000)">
                    <rect id="Rectangle-Copy-5" x="0" y="0" width="2" height="12"></rect>
                    <path d="M6.648,12 L11.856,12 L11.856,10.668 L10.008,10.668 L10.008,3.48 L8.652,3.48 L6.516,5.532 L7.428,6.492 L8.112,5.844 C8.388,5.568 8.484,5.364 8.484,5.364 L8.508,5.364 C8.508,5.364 8.496,5.652 8.496,5.94 L8.496,10.668 L6.648,10.668 L6.648,12 Z M14.832,12.144 C17.472,12.144 18.756,9.612 18.756,7.38 C18.756,4.812 17.244,3.336 15.468,3.336 C13.776,3.336 12.66,4.62 12.66,6.192 C12.66,7.728 13.704,9.048 15.384,9.048 C15.996,9.048 16.692,8.796 16.992,8.448 L17.016,8.448 C16.8,9.612 16.08,10.728 14.736,10.728 C14.088,10.728 13.548,10.452 13.548,10.452 L13.092,11.784 C13.092,11.784 13.752,12.144 14.832,12.144 L14.832,12.144 Z M15.756,7.776 C14.724,7.776 14.184,7.056 14.184,6.192 C14.184,5.388 14.676,4.764 15.468,4.764 C16.356,4.764 17.148,5.784 17.148,6.852 C17.148,7.368 16.524,7.776 15.756,7.776 L15.756,7.776 Z M22.08,12.144 C24.72,12.144 26.004,9.612 26.004,7.38 C26.004,4.812 24.492,3.336 22.716,3.336 C21.024,3.336 19.908,4.62 19.908,6.192 C19.908,7.728 20.952,9.048 22.632,9.048 C23.244,9.048 23.94,8.796 24.24,8.448 L24.264,8.448 C24.048,9.612 23.328,10.728 21.984,10.728 C21.336,10.728 20.796,10.452 20.796,10.452 L20.34,11.784 C20.34,11.784 21,12.144 22.08,12.144 L22.08,12.144 Z M23.004,7.776 C21.972,7.776 21.432,7.056 21.432,6.192 C21.432,5.388 21.924,4.764 22.716,4.764 C23.604,4.764 24.396,5.784 24.396,6.852 C24.396,7.368 23.772,7.776 23.004,7.776 L23.004,7.776 Z M27.156,10.992 C27.156,10.992 28.08,12.144 29.88,12.144 C31.656,12.144 32.952,10.896 32.952,9.216 C32.952,7.68 31.836,6.42 29.952,6.42 C29.436,6.42 29.04,6.612 29.04,6.612 L29.016,6.612 C29.016,6.612 29.052,6.444 29.076,6.216 L29.208,4.812 L32.352,4.812 L32.352,3.48 L27.876,3.48 L27.48,7.8 L28.332,8.112 C28.332,8.112 28.896,7.752 29.652,7.752 C30.624,7.752 31.368,8.34 31.368,9.228 C31.368,10.128 30.588,10.68 29.76,10.68 C28.656,10.68 27.948,9.828 27.948,9.828 L27.156,10.992 Z"></path>
                </g>
            </g>
        </g>
    </g>
</svg>