<?xml version="1.0" encoding="UTF-8" standalone="no"?>
<svg width="768px" height="320px" viewBox="0 0 768 320" version="1.1" xmlns="http://www.w3.org/2000/svg" xmlns:xlink="http://www.w3.org/1999/xlink">
    <!-- Generator: Sketch 39.1 (31720) - http://www.bohemiancoding.com/sketch -->
    <title>graph_salary_large</title>
    <desc>Created with Sketch.</desc>
    <defs></defs>
    <g id="Page-1" stroke="none" stroke-width="1" fill="none" fill-rule="evenodd">
        <g id="graph_salary_large">
            <g id="salary_labels-copy">
                <g id="bg"></g>
                <polyline id="graph_path_tekna" stroke-opacity="0.5" stroke="#262626" stroke-width="2" points="32 252 64 244.800003 96 235.199997 128 223.199997 160 208.800003 192 196.800003 224 184.800003 256 168 288 156 320 151.199997 352 129.599998 384 122.400002 416 108 448 93.5999985 480 100.800003 512 88.8000031 544 72 576 67.2000008 608 55.2000008 640 55 672 55.2000008"></polyline>
                <polyline id="graph_line_average" stroke="#FFFFFF" stroke-width="4" stroke-linecap="round" stroke-linejoin="round" opacity="0.75" points="31.9999988 252 63.9999988 244 95.9999988 235 127.999999 223 159.999999 211 191.999999 196 223.999999 182 255.999999 168 287.999999 156 319.999999 144 351.999999 132 383.999999 122 415.999999 112 447.999999 103 479.999999 91 511.999999 84 543.999999 76 575.999999 67 608 60 639.999999 55 672 50"></polyline>
                <g id="graph_points_employees" transform="translate(24.000000, 76.000000)" fill="#FFFFFF" opacity="0.25">
                    <circle id="Oval-Copy-21" cx="8" cy="171" r="8"></circle>
                    <circle id="Oval-Copy-23" cx="8" cy="171" r="8"></circle>
                    <circle id="Oval-Copy-24" cx="72" cy="169" r="8"></circle>
                    <circle id="Oval-Copy-25" cx="104" cy="147" r="8"></circle>
                    <circle id="Oval-Copy-27" cx="136" cy="135" r="16"></circle>
                    <circle id="Oval-Copy-28" cx="136" cy="135" r="12"></circle>
                    <circle id="Oval-Copy-26" cx="136" cy="135" r="8"></circle>
                    <circle id="Oval-Copy-29" cx="168" cy="154" r="8"></circle>
                    <circle id="Oval-Copy-32" cx="200" cy="87" r="8"></circle>
                    <circle id="Oval-Copy-33" cx="232" cy="92" r="16"></circle>
                    <circle id="Oval-Copy-33" cx="232" cy="92" r="12"></circle>
                    <circle id="Oval-Copy-33" cx="264" cy="68" r="8"></circle>
                    <circle id="Oval-Copy-34" cx="264" cy="80" r="8"></circle>
                    <circle id="Oval-Copy-35" cx="296" cy="13" r="8"></circle>
                    <circle id="Oval-Copy-36" cx="296" cy="20" r="8"></circle>
                    <circle id="Oval-Copy-37" cx="328" cy="27" r="8"></circle>
                    <circle id="Oval-Copy-38" cx="360" cy="27" r="8"></circle>
                    <circle id="Oval-Copy-39" cx="648" cy="8" r="8"></circle>
                    <circle id="Oval-Copy-30" cx="168" cy="135" r="8"></circle>
                    <circle id="Oval-Copy-31" cx="168" cy="120.800003" r="8"></circle>
                    <circle id="Oval-Copy-22" cx="8" cy="180.800003" r="8"></circle>
                </g>
                <g id="label_y" transform="translate(31.000000, 0.000000)" fill="#FFFFFF" opacity="0.2">
                    <g id="lines" transform="translate(0.000000, 63.000000)">
                        <rect id="Rectangle-Copy-5" x="0" y="200" width="665" height="1"></rect>
                        <rect id="Rectangle-Copy-5" x="0" y="100" width="665" height="1"></rect>
                        <rect id="Rectangle-Copy-5" x="0" y="0" width="665" height="1"></rect>
                    </g>
                </g>
                <g id="label_x" transform="translate(0.000000, 23.000000)">
                    <g id="2015" transform="translate(30.000000, 265.000000)">
                        <rect id="Rectangle-Copy-5" fill="#FFFFFF" x="0" y="0" width="2" height="12"></rect>
                        <path d="M6.672,12 L12.324,12 L12.324,10.668 L8.34,10.668 C8.376,9.06 12.192,8.592 12.192,5.856 C12.192,4.248 10.92,3.336 9.42,3.336 C7.38,3.336 6.6,5.04 6.6,5.04 L7.752,5.808 C7.752,5.808 8.292,4.8 9.288,4.8 C10.008,4.8 10.584,5.244 10.584,5.988 C10.584,7.68 6.6,8.172 6.6,11.244 C6.6,11.484 6.636,11.724 6.672,12 L6.672,12 Z M16.728,12.144 C19.056,12.144 19.824,10.176 19.824,7.728 C19.824,5.28 19.056,3.336 16.728,3.336 C14.4,3.336 13.644,5.28 13.644,7.728 C13.644,10.176 14.4,12.144 16.728,12.144 L16.728,12.144 Z M16.728,10.728 C15.564,10.728 15.228,9.408 15.228,7.728 C15.228,6.072 15.564,4.764 16.728,4.764 C17.892,4.764 18.228,6.072 18.228,7.728 C18.228,9.408 17.892,10.728 16.728,10.728 L16.728,10.728 Z M21.156,12 L26.364,12 L26.364,10.668 L24.516,10.668 L24.516,3.48 L23.16,3.48 L21.024,5.532 L21.936,6.492 L22.62,5.844 C22.896,5.568 22.992,5.364 22.992,5.364 L23.016,5.364 C23.016,5.364 23.004,5.652 23.004,5.94 L23.004,10.668 L21.156,10.668 L21.156,12 Z M27.168,10.992 C27.168,10.992 28.092,12.144 29.892,12.144 C31.668,12.144 32.964,10.896 32.964,9.216 C32.964,7.68 31.848,6.42 29.964,6.42 C29.448,6.42 29.052,6.612 29.052,6.612 L29.028,6.612 C29.028,6.612 29.064,6.444 29.088,6.216 L29.22,4.812 L32.364,4.812 L32.364,3.48 L27.888,3.48 L27.492,7.8 L28.344,8.112 C28.344,8.112 28.908,7.752 29.664,7.752 C30.636,7.752 31.38,8.34 31.38,9.228 C31.38,10.128 30.6,10.68 29.772,10.68 C28.668,10.68 27.96,9.828 27.96,9.828 L27.168,10.992 Z" fill="#F5F5F5"></path>
                    </g>
                    <g id="2010" transform="translate(190.000000, 265.000000)">
                        <rect id="Rectangle-Copy-5" fill="#FFFFFF" x="0" y="0" width="2" height="12"></rect>
                        <path d="M6.672,12 L12.324,12 L12.324,10.668 L8.34,10.668 C8.376,9.06 12.192,8.592 12.192,5.856 C12.192,4.248 10.92,3.336 9.42,3.336 C7.38,3.336 6.6,5.04 6.6,5.04 L7.752,5.808 C7.752,5.808 8.292,4.8 9.288,4.8 C10.008,4.8 10.584,5.244 10.584,5.988 C10.584,7.68 6.6,8.172 6.6,11.244 C6.6,11.484 6.636,11.724 6.672,12 L6.672,12 Z M16.728,12.144 C19.056,12.144 19.824,10.176 19.824,7.728 C19.824,5.28 19.056,3.336 16.728,3.336 C14.4,3.336 13.644,5.28 13.644,7.728 C13.644,10.176 14.4,12.144 16.728,12.144 L16.728,12.144 Z M16.728,10.728 C15.564,10.728 15.228,9.408 15.228,7.728 C15.228,6.072 15.564,4.764 16.728,4.764 C17.892,4.764 18.228,6.072 18.228,7.728 C18.228,9.408 17.892,10.728 16.728,10.728 L16.728,10.728 Z M21.156,12 L26.364,12 L26.364,10.668 L24.516,10.668 L24.516,3.48 L23.16,3.48 L21.024,5.532 L21.936,6.492 L22.62,5.844 C22.896,5.568 22.992,5.364 22.992,5.364 L23.016,5.364 C23.016,5.364 23.004,5.652 23.004,5.94 L23.004,10.668 L21.156,10.668 L21.156,12 Z M30.42,12.144 C32.748,12.144 33.516,10.176 33.516,7.728 C33.516,5.28 32.748,3.336 30.42,3.336 C28.092,3.336 27.336,5.28 27.336,7.728 C27.336,10.176 28.092,12.144 30.42,12.144 L30.42,12.144 Z M30.42,10.728 C29.256,10.728 28.92,9.408 28.92,7.728 C28.92,6.072 29.256,4.764 30.42,4.764 C31.584,4.764 31.92,6.072 31.92,7.728 C31.92,9.408 31.584,10.728 30.42,10.728 L30.42,10.728 Z" fill="#F5F5F5"></path>
                    </g>
                    <g id="2005" transform="translate(350.000000, 265.000000)">
                        <rect id="Rectangle-Copy-5" fill="#FFFFFF" x="0" y="0" width="2" height="12"></rect>
                        <path d="M6.672,12 L12.324,12 L12.324,10.668 L8.34,10.668 C8.376,9.06 12.192,8.592 12.192,5.856 C12.192,4.248 10.92,3.336 9.42,3.336 C7.38,3.336 6.6,5.04 6.6,5.04 L7.752,5.808 C7.752,5.808 8.292,4.8 9.288,4.8 C10.008,4.8 10.584,5.244 10.584,5.988 C10.584,7.68 6.6,8.172 6.6,11.244 C6.6,11.484 6.636,11.724 6.672,12 L6.672,12 Z M16.728,12.144 C19.056,12.144 19.824,10.176 19.824,7.728 C19.824,5.28 19.056,3.336 16.728,3.336 C14.4,3.336 13.644,5.28 13.644,7.728 C13.644,10.176 14.4,12.144 16.728,12.144 L16.728,12.144 Z M16.728,10.728 C15.564,10.728 15.228,9.408 15.228,7.728 C15.228,6.072 15.564,4.764 16.728,4.764 C17.892,4.764 18.228,6.072 18.228,7.728 C18.228,9.408 17.892,10.728 16.728,10.728 L16.728,10.728 Z M24.276,12.144 C26.604,12.144 27.372,10.176 27.372,7.728 C27.372,5.28 26.604,3.336 24.276,3.336 C21.948,3.336 21.192,5.28 21.192,7.728 C21.192,10.176 21.948,12.144 24.276,12.144 L24.276,12.144 Z M24.276,10.728 C23.112,10.728 22.776,9.408 22.776,7.728 C22.776,6.072 23.112,4.764 24.276,4.764 C25.44,4.764 25.776,6.072 25.776,7.728 C25.776,9.408 25.44,10.728 24.276,10.728 L24.276,10.728 Z M28.572,10.992 C28.572,10.992 29.496,12.144 31.296,12.144 C33.072,12.144 34.368,10.896 34.368,9.216 C34.368,7.68 33.252,6.42 31.368,6.42 C30.852,6.42 30.456,6.612 30.456,6.612 L30.432,6.612 C30.432,6.612 30.468,6.444 30.492,6.216 L30.624,4.812 L33.768,4.812 L33.768,3.48 L29.292,3.48 L28.896,7.8 L29.748,8.112 C29.748,8.112 30.312,7.752 31.068,7.752 C32.04,7.752 32.784,8.34 32.784,9.228 C32.784,10.128 32.004,10.68 31.176,10.68 C30.072,10.68 29.364,9.828 29.364,9.828 L28.572,10.992 Z" fill="#F5F5F5"></path>
                    </g>
                    <g id="2000" transform="translate(511.000000, 265.000000)">
                        <rect id="Rectangle-Copy-5" fill="#FFFFFF" x="0" y="0" width="2" height="12"></rect>
                        <path d="M6.672,12 L12.324,12 L12.324,10.668 L8.34,10.668 C8.376,9.06 12.192,8.592 12.192,5.856 C12.192,4.248 10.92,3.336 9.42,3.336 C7.38,3.336 6.6,5.04 6.6,5.04 L7.752,5.808 C7.752,5.808 8.292,4.8 9.288,4.8 C10.008,4.8 10.584,5.244 10.584,5.988 C10.584,7.68 6.6,8.172 6.6,11.244 C6.6,11.484 6.636,11.724 6.672,12 L6.672,12 Z M16.728,12.144 C19.056,12.144 19.824,10.176 19.824,7.728 C19.824,5.28 19.056,3.336 16.728,3.336 C14.4,3.336 13.644,5.28 13.644,7.728 C13.644,10.176 14.4,12.144 16.728,12.144 L16.728,12.144 Z M16.728,10.728 C15.564,10.728 15.228,9.408 15.228,7.728 C15.228,6.072 15.564,4.764 16.728,4.764 C17.892,4.764 18.228,6.072 18.228,7.728 C18.228,9.408 17.892,10.728 16.728,10.728 L16.728,10.728 Z M24.276,12.144 C26.604,12.144 27.372,10.176 27.372,7.728 C27.372,5.28 26.604,3.336 24.276,3.336 C21.948,3.336 21.192,5.28 21.192,7.728 C21.192,10.176 21.948,12.144 24.276,12.144 L24.276,12.144 Z M24.276,10.728 C23.112,10.728 22.776,9.408 22.776,7.728 C22.776,6.072 23.112,4.764 24.276,4.764 C25.44,4.764 25.776,6.072 25.776,7.728 C25.776,9.408 25.44,10.728 24.276,10.728 L24.276,10.728 Z M31.824,12.144 C34.152,12.144 34.92,10.176 34.92,7.728 C34.92,5.28 34.152,3.336 31.824,3.336 C29.496,3.336 28.74,5.28 28.74,7.728 C28.74,10.176 29.496,12.144 31.824,12.144 L31.824,12.144 Z M31.824,10.728 C30.66,10.728 30.324,9.408 30.324,7.728 C30.324,6.072 30.66,4.764 31.824,4.764 C32.988,4.764 33.324,6.072 33.324,7.728 C33.324,9.408 32.988,10.728 31.824,10.728 L31.824,10.728 Z" fill="#F5F5F5"></path>
                    </g>
                    <g id="1995" transform="translate(670.000000, 265.000000)">
                        <rect id="Rectangle-Copy-5" fill="#FFFFFF" x="0" y="0" width="2" height="12"></rect>
                        <path d="M6.648,12 L11.856,12 L11.856,10.668 L10.008,10.668 L10.008,3.48 L8.652,3.48 L6.516,5.532 L7.428,6.492 L8.112,5.844 C8.388,5.568 8.484,5.364 8.484,5.364 L8.508,5.364 C8.508,5.364 8.496,5.652 8.496,5.94 L8.496,10.668 L6.648,10.668 L6.648,12 Z M14.832,12.144 C17.472,12.144 18.756,9.612 18.756,7.38 C18.756,4.812 17.244,3.336 15.468,3.336 C13.776,3.336 12.66,4.62 12.66,6.192 C12.66,7.728 13.704,9.048 15.384,9.048 C15.996,9.048 16.692,8.796 16.992,8.448 L17.016,8.448 C16.8,9.612 16.08,10.728 14.736,10.728 C14.088,10.728 13.548,10.452 13.548,10.452 L13.092,11.784 C13.092,11.784 13.752,12.144 14.832,12.144 L14.832,12.144 Z M15.756,7.776 C14.724,7.776 14.184,7.056 14.184,6.192 C14.184,5.388 14.676,4.764 15.468,4.764 C16.356,4.764 17.148,5.784 17.148,6.852 C17.148,7.368 16.524,7.776 15.756,7.776 L15.756,7.776 Z M22.08,12.144 C24.72,12.144 26.004,9.612 26.004,7.38 C26.004,4.812 24.492,3.336 22.716,3.336 C21.024,3.336 19.908,4.62 19.908,6.192 C19.908,7.728 20.952,9.048 22.632,9.048 C23.244,9.048 23.94,8.796 24.24,8.448 L24.264,8.448 C24.048,9.612 23.328,10.728 21.984,10.728 C21.336,10.728 20.796,10.452 20.796,10.452 L20.34,11.784 C20.34,11.784 21,12.144 22.08,12.144 L22.08,12.144 Z M23.004,7.776 C21.972,7.776 21.432,7.056 21.432,6.192 C21.432,5.388 21.924,4.764 22.716,4.764 C23.604,4.764 24.396,5.784 24.396,6.852 C24.396,7.368 23.772,7.776 23.004,7.776 L23.004,7.776 Z M27.156,10.992 C27.156,10.992 28.08,12.144 29.88,12.144 C31.656,12.144 32.952,10.896 32.952,9.216 C32.952,7.68 31.836,6.42 29.952,6.42 C29.436,6.42 29.04,6.612 29.04,6.612 L29.016,6.612 C29.016,6.612 29.052,6.444 29.076,6.216 L29.208,4.812 L32.352,4.812 L32.352,3.48 L27.876,3.48 L27.48,7.8 L28.332,8.112 C28.332,8.112 28.896,7.752 29.652,7.752 C30.624,7.752 31.368,8.34 31.368,9.228 C31.368,10.128 30.588,10.68 29.76,10.68 C28.656,10.68 27.948,9.828 27.948,9.828 L27.156,10.992 Z" fill="#F5F5F5"></path>
                    </g>
                </g>
                <path d="M704.648,64 L709.856,64 L709.856,62.668 L708.008,62.668 L708.008,55.48 L706.652,55.48 L704.516,57.532 L705.428,58.492 L706.112,57.844 C706.388,57.568 706.484,57.364 706.484,57.364 L706.508,57.364 C706.508,57.364 706.496,57.652 706.496,57.94 L706.496,62.668 L704.648,62.668 L704.648,64 Z M716.828,64.144 C719.156,64.144 719.924,62.176 719.924,59.728 C719.924,57.28 719.156,55.336 716.828,55.336 C714.5,55.336 713.744,57.28 713.744,59.728 C713.744,62.176 714.5,64.144 716.828,64.144 L716.828,64.144 Z M716.828,62.728 C715.664,62.728 715.328,61.408 715.328,59.728 C715.328,58.072 715.664,56.764 716.828,56.764 C717.992,56.764 718.328,58.072 718.328,59.728 C718.328,61.408 717.992,62.728 716.828,62.728 L716.828,62.728 Z M724.376,64.144 C726.704,64.144 727.472,62.176 727.472,59.728 C727.472,57.28 726.704,55.336 724.376,55.336 C722.048,55.336 721.292,57.28 721.292,59.728 C721.292,62.176 722.048,64.144 724.376,64.144 L724.376,64.144 Z M724.376,62.728 C723.212,62.728 722.876,61.408 722.876,59.728 C722.876,58.072 723.212,56.764 724.376,56.764 C725.54,56.764 725.876,58.072 725.876,59.728 C725.876,61.408 725.54,62.728 724.376,62.728 L724.376,62.728 Z M731.924,64.144 C734.252,64.144 735.02,62.176 735.02,59.728 C735.02,57.28 734.252,55.336 731.924,55.336 C729.596,55.336 728.84,57.28 728.84,59.728 C728.84,62.176 729.596,64.144 731.924,64.144 L731.924,64.144 Z M731.924,62.728 C730.76,62.728 730.424,61.408 730.424,59.728 C730.424,58.072 730.76,56.764 731.924,56.764 C733.088,56.764 733.424,58.072 733.424,59.728 C733.424,61.408 733.088,62.728 731.924,62.728 L731.924,62.728 Z M739.46,64 L740.984,64 L740.984,61.324 L741.776,61.324 L743.396,64 L745.148,64 L742.976,60.64 L742.976,60.616 L744.908,57.88 L743.216,57.88 L741.74,60.04 L740.984,60.04 L740.984,55.48 L739.46,55.48 L739.46,64 Z" id="1-000-k" fill="#F5F5F5"></path>
                <path d="M704.936,164 L706.544,164 L710.276,156.56 L710.276,155.48 L704.42,155.48 L704.42,156.812 L708.056,156.812 C708.476,156.812 708.644,156.788 708.644,156.788 L708.644,156.812 C708.644,156.812 708.392,157.064 708.128,157.592 L704.936,164 Z M711.044,162.992 C711.044,162.992 711.968,164.144 713.768,164.144 C715.544,164.144 716.84,162.896 716.84,161.216 C716.84,159.68 715.724,158.42 713.84,158.42 C713.324,158.42 712.928,158.612 712.928,158.612 L712.904,158.612 C712.904,158.612 712.94,158.444 712.964,158.216 L713.096,156.812 L716.24,156.812 L716.24,155.48 L711.764,155.48 L711.368,159.8 L712.22,160.112 C712.22,160.112 712.784,159.752 713.54,159.752 C714.512,159.752 715.256,160.34 715.256,161.228 C715.256,162.128 714.476,162.68 713.648,162.68 C712.544,162.68 711.836,161.828 711.836,161.828 L711.044,162.992 Z M721.124,164.144 C723.452,164.144 724.22,162.176 724.22,159.728 C724.22,157.28 723.452,155.336 721.124,155.336 C718.796,155.336 718.04,157.28 718.04,159.728 C718.04,162.176 718.796,164.144 721.124,164.144 L721.124,164.144 Z M721.124,162.728 C719.96,162.728 719.624,161.408 719.624,159.728 C719.624,158.072 719.96,156.764 721.124,156.764 C722.288,156.764 722.624,158.072 722.624,159.728 C722.624,161.408 722.288,162.728 721.124,162.728 L721.124,162.728 Z M728.66,164 L730.184,164 L730.184,161.324 L730.976,161.324 L732.596,164 L734.348,164 L732.176,160.64 L732.176,160.616 L734.108,157.88 L732.416,157.88 L730.94,160.04 L730.184,160.04 L730.184,155.48 L728.66,155.48 L728.66,164 Z" id="750-k" fill="#F5F5F5"></path>
                <path d="M704.516,262.992 C704.516,262.992 705.44,264.144 707.24,264.144 C709.016,264.144 710.312,262.896 710.312,261.216 C710.312,259.68 709.196,258.42 707.312,258.42 C706.796,258.42 706.4,258.612 706.4,258.612 L706.376,258.612 C706.376,258.612 706.412,258.444 706.436,258.216 L706.568,256.812 L709.712,256.812 L709.712,255.48 L705.236,255.48 L704.84,259.8 L705.692,260.112 C705.692,260.112 706.256,259.752 707.012,259.752 C707.984,259.752 708.728,260.34 708.728,261.228 C708.728,262.128 707.948,262.68 707.12,262.68 C706.016,262.68 705.308,261.828 705.308,261.828 L704.516,262.992 Z M714.596,264.144 C716.924,264.144 717.692,262.176 717.692,259.728 C717.692,257.28 716.924,255.336 714.596,255.336 C712.268,255.336 711.512,257.28 711.512,259.728 C711.512,262.176 712.268,264.144 714.596,264.144 L714.596,264.144 Z M714.596,262.728 C713.432,262.728 713.096,261.408 713.096,259.728 C713.096,258.072 713.432,256.764 714.596,256.764 C715.76,256.764 716.096,258.072 716.096,259.728 C716.096,261.408 715.76,262.728 714.596,262.728 L714.596,262.728 Z M722.144,264.144 C724.472,264.144 725.24,262.176 725.24,259.728 C725.24,257.28 724.472,255.336 722.144,255.336 C719.816,255.336 719.06,257.28 719.06,259.728 C719.06,262.176 719.816,264.144 722.144,264.144 L722.144,264.144 Z M722.144,262.728 C720.98,262.728 720.644,261.408 720.644,259.728 C720.644,258.072 720.98,256.764 722.144,256.764 C723.308,256.764 723.644,258.072 723.644,259.728 C723.644,261.408 723.308,262.728 722.144,262.728 L722.144,262.728 Z M729.68,264 L731.204,264 L731.204,261.324 L731.996,261.324 L733.616,264 L735.368,264 L733.196,260.64 L733.196,260.616 L735.128,257.88 L733.436,257.88 L731.96,260.04 L731.204,260.04 L731.204,255.48 L729.68,255.48 L729.68,264 Z" id="500-k" fill="#F5F5F5"></path>
            </g>
        </g>
    </g>
</svg>