<?xml version="1.0" encoding="UTF-8" standalone="no"?>
<svg width="216px" height="352px" viewBox="0 0 216 352" version="1.1" xmlns="http://www.w3.org/2000/svg" xmlns:xlink="http://www.w3.org/1999/xlink">
    <!-- Generator: Sketch 39.1 (31720) - http://www.bohemiancoding.com/sketch -->
    <title>graph_bonus_small</title>
    <desc>Created with Sketch.</desc>
    <defs>
        <rect id="path-1" x="128" y="-4.97379915e-14" width="56" height="20"></rect>
        <filter x="-50%" y="-50%" width="200%" height="200%" filterUnits="objectBoundingBox" id="filter-2">
            <feOffset dx="-2" dy="0" in="SourceAlpha" result="shadowOffsetOuter1"></feOffset>
            <feGaussianBlur stdDeviation="1" in="shadowOffsetOuter1" result="shadowBlurOuter1"></feGaussianBlur>
            <feColorMatrix values="0 0 0 0 0.149019608   0 0 0 0 0.149019608   0 0 0 0 0.149019608  0 0 0 0.1 0" type="matrix" in="shadowBlurOuter1"></feColorMatrix>
        </filter>
        <rect id="path-3" x="128" y="73" width="56" height="20"></rect>
        <filter x="-50%" y="-50%" width="200%" height="200%" filterUnits="objectBoundingBox" id="filter-4">
            <feOffset dx="-2" dy="0" in="SourceAlpha" result="shadowOffsetOuter1"></feOffset>
            <feGaussianBlur stdDeviation="1" in="shadowOffsetOuter1" result="shadowBlurOuter1"></feGaussianBlur>
            <feColorMatrix values="0 0 0 0 0.149019608   0 0 0 0 0.149019608   0 0 0 0 0.149019608  0 0 0 0.1 0" type="matrix" in="shadowBlurOuter1"></feColorMatrix>
        </filter>
        <rect id="path-5" x="128" y="146" width="56" height="20"></rect>
        <filter x="-50%" y="-50%" width="200%" height="200%" filterUnits="objectBoundingBox" id="filter-6">
            <feOffset dx="-2" dy="0" in="SourceAlpha" result="shadowOffsetOuter1"></feOffset>
            <feGaussianBlur stdDeviation="1" in="shadowOffsetOuter1" result="shadowBlurOuter1"></feGaussianBlur>
            <feColorMatrix values="0 0 0 0 0.149019608   0 0 0 0 0.149019608   0 0 0 0 0.149019608  0 0 0 0.1 0" type="matrix" in="shadowBlurOuter1"></feColorMatrix>
        </filter>
        <rect id="path-7" x="128" y="220" width="56" height="20"></rect>
        <filter x="-50%" y="-50%" width="200%" height="200%" filterUnits="objectBoundingBox" id="filter-8">
            <feOffset dx="-2" dy="0" in="SourceAlpha" result="shadowOffsetOuter1"></feOffset>
            <feGaussianBlur stdDeviation="1" in="shadowOffsetOuter1" result="shadowBlurOuter1"></feGaussianBlur>
            <feColorMatrix values="0 0 0 0 0.149019608   0 0 0 0 0.149019608   0 0 0 0 0.149019608  0 0 0 0.1 0" type="matrix" in="shadowBlurOuter1"></feColorMatrix>
        </filter>
    </defs>
    <g id="Page-1" stroke="none" stroke-width="1" fill="none" fill-rule="evenodd">
        <g id="graph_bonus_small">
            <g id="Group-10" transform="translate(16.000000, 32.000000)">
                <rect id="Rectangle-7" fill="#FFBF3F" transform="translate(64.000000, 10.000000) rotate(-360.000000) translate(-64.000000, -10.000000) " x="0" y="1.59872116e-14" width="128" height="20"></rect>
                <rect id="Rectangle-7-Copy-4" fill="#FFBF3F" transform="translate(64.000000, 107.000000) rotate(-360.000000) translate(-64.000000, -107.000000) " x="0" y="97" width="128" height="20"></rect>
                <rect id="Rectangle-7-Copy-8" fill="#FFBF3F" transform="translate(64.000000, 205.000000) rotate(-360.000000) translate(-64.000000, -205.000000) " x="0" y="195" width="128" height="20"></rect>
                <rect id="Rectangle-7-Copy" fill="#FFBF3F" transform="translate(64.000000, 35.000000) rotate(-360.000000) translate(-64.000000, -35.000000) " x="0" y="25" width="128" height="20"></rect>
                <rect id="Rectangle-7-Copy-5" fill="#FFBF3F" transform="translate(92.000000, 132.000000) rotate(-360.000000) translate(-92.000000, -132.000000) " x="0" y="122" width="184" height="20"></rect>
                <rect id="Rectangle-7-Copy-9" fill="#FFBF3F" transform="translate(64.000000, 230.000000) rotate(-360.000000) translate(-64.000000, -230.000000) " x="0" y="220" width="128" height="20"></rect>
                <rect id="Rectangle-7-Copy-2" fill="#FFBF3F" transform="translate(64.000000, 59.000000) rotate(-360.000000) translate(-64.000000, -59.000000) " x="0" y="49" width="128" height="20"></rect>
                <rect id="Rectangle-7-Copy-6" fill="#FFBF3F" transform="translate(64.000000, 156.000000) rotate(-360.000000) translate(-64.000000, -156.000000) " x="0" y="146" width="128" height="20"></rect>
                <rect id="Rectangle-7-Copy-10" fill="#FFBF3F" transform="translate(64.000000, 254.000000) rotate(-360.000000) translate(-64.000000, -254.000000) " x="0" y="244" width="128" height="20"></rect>
                <rect id="Rectangle-7-Copy-3" fill="#FFBF3F" transform="translate(64.000000, 83.000000) rotate(-360.000000) translate(-64.000000, -83.000000) " x="0" y="73" width="128" height="20"></rect>
                <rect id="Rectangle-7-Copy-7" fill="#FFBF3F" transform="translate(64.000000, 180.000000) rotate(-360.000000) translate(-64.000000, -180.000000) " x="0" y="170" width="128" height="20"></rect>
                <rect id="Rectangle-7-Copy-11" fill="#FFBF3F" transform="translate(92.000000, 278.000000) rotate(-360.000000) translate(-92.000000, -278.000000) " x="0" y="268" width="184" height="20"></rect>
                <g id="Rectangle-5-Copy-28" transform="translate(156.000000, 10.000000) rotate(-360.000000) translate(-156.000000, -10.000000) ">
                    <use fill="black" fill-opacity="1" filter="url(#filter-2)" xlink:href="#path-1"></use>
                    <use fill="#F5F5F5" fill-rule="evenodd" xlink:href="#path-1"></use>
                </g>
                <g id="Rectangle-5-Copy-28" transform="translate(156.000000, 83.000000) rotate(-360.000000) translate(-156.000000, -83.000000) ">
                    <use fill="black" fill-opacity="1" filter="url(#filter-4)" xlink:href="#path-3"></use>
                    <use fill="#F5F5F5" fill-rule="evenodd" xlink:href="#path-3"></use>
                </g>
                <g id="Rectangle-5-Copy-28" transform="translate(156.000000, 156.000000) rotate(-360.000000) translate(-156.000000, -156.000000) ">
                    <use fill="black" fill-opacity="1" filter="url(#filter-6)" xlink:href="#path-5"></use>
                    <use fill="#F5F5F5" fill-rule="evenodd" xlink:href="#path-5"></use>
                </g>
                <g id="Rectangle-5-Copy-28" transform="translate(156.000000, 230.000000) rotate(-360.000000) translate(-156.000000, -230.000000) ">
                    <use fill="black" fill-opacity="1" filter="url(#filter-8)" xlink:href="#path-7"></use>
                    <use fill="#F5F5F5" fill-rule="evenodd" xlink:href="#path-7"></use>
                </g>
                <path d="M144.956,159 L147.012,159 C148.06,159 148.972,158.488 148.972,157.352 C148.972,156.776 148.676,156.2 148.052,156.016 L148.052,156 C148.484,155.768 148.74,155.312 148.74,154.784 C148.74,153.848 148.012,153.32 146.988,153.32 L144.956,153.32 L144.956,159 Z M145.988,155.64 L145.988,154.208 L146.972,154.208 C147.452,154.208 147.692,154.504 147.692,154.912 C147.692,155.32 147.436,155.64 146.988,155.64 L145.988,155.64 Z M145.988,158.112 L145.988,156.472 L147.092,156.472 C147.612,156.472 147.916,156.816 147.916,157.288 C147.916,157.768 147.62,158.112 147.092,158.112 L145.988,158.112 Z M149.628,156.96 C149.628,158.216 150.628,159.096 151.876,159.096 C153.116,159.096 154.116,158.216 154.116,156.96 C154.116,155.712 153.116,154.824 151.868,154.824 C150.628,154.824 149.628,155.712 149.628,156.96 L149.628,156.96 Z M150.66,156.96 C150.66,156.208 151.212,155.688 151.876,155.688 C152.532,155.688 153.084,156.208 153.084,156.96 C153.084,157.72 152.532,158.232 151.876,158.232 C151.212,158.232 150.66,157.72 150.66,156.96 L150.66,156.96 Z M154.932,159 L155.948,159 L155.948,157.128 C155.948,156.936 155.964,156.752 156.02,156.584 C156.172,156.096 156.572,155.752 157.116,155.752 C157.636,155.752 157.764,156.088 157.764,156.584 L157.764,159 L158.772,159 L158.772,156.376 C158.772,155.296 158.26,154.824 157.356,154.824 C156.532,154.824 156.084,155.328 155.908,155.672 L155.892,155.672 C155.892,155.672 155.908,155.544 155.908,155.392 L155.908,154.92 L154.932,154.92 L154.932,159 Z M159.78,157.544 C159.78,158.656 160.324,159.096 161.196,159.096 C161.892,159.096 162.412,158.672 162.612,158.248 L162.628,158.248 C162.628,158.248 162.612,158.376 162.612,158.536 L162.612,159 L163.588,159 L163.588,154.92 L162.572,154.92 L162.572,156.792 C162.572,157.52 162.164,158.168 161.428,158.168 C160.924,158.168 160.796,157.832 160.796,157.336 L160.796,154.92 L159.78,154.92 L159.78,157.544 Z M164.364,158.496 C164.364,158.496 164.932,159.096 165.948,159.096 C166.916,159.096 167.508,158.552 167.508,157.872 C167.508,156.56 165.524,156.632 165.524,156.056 C165.524,155.8 165.78,155.688 166.044,155.688 C166.668,155.688 167.044,156.04 167.044,156.04 L167.42,155.288 C167.42,155.288 166.972,154.824 166.052,154.824 C165.172,154.824 164.492,155.264 164.492,156.024 C164.492,157.336 166.476,157.256 166.476,157.864 C166.476,158.104 166.228,158.232 165.94,158.232 C165.276,158.232 164.828,157.784 164.828,157.784 L164.364,158.496 Z" id="Bonus-Copy-4" fill="#262626" transform="translate(156.360000, 156.208000) rotate(-360.000000) translate(-156.360000, -156.208000) "></path>
                <path d="M144.956,86 L147.012,86 C148.06,86 148.972,85.488 148.972,84.352 C148.972,83.776 148.676,83.2 148.052,83.016 L148.052,83 C148.484,82.768 148.74,82.312 148.74,81.784 C148.74,80.848 148.012,80.32 146.988,80.32 L144.956,80.32 L144.956,86 Z M145.988,82.64 L145.988,81.208 L146.972,81.208 C147.452,81.208 147.692,81.504 147.692,81.912 C147.692,82.32 147.436,82.64 146.988,82.64 L145.988,82.64 Z M145.988,85.112 L145.988,83.472 L147.092,83.472 C147.612,83.472 147.916,83.816 147.916,84.288 C147.916,84.768 147.62,85.112 147.092,85.112 L145.988,85.112 Z M149.628,83.96 C149.628,85.216 150.628,86.096 151.876,86.096 C153.116,86.096 154.116,85.216 154.116,83.96 C154.116,82.712 153.116,81.824 151.868,81.824 C150.628,81.824 149.628,82.712 149.628,83.96 L149.628,83.96 Z M150.66,83.96 C150.66,83.208 151.212,82.688 151.876,82.688 C152.532,82.688 153.084,83.208 153.084,83.96 C153.084,84.72 152.532,85.232 151.876,85.232 C151.212,85.232 150.66,84.72 150.66,83.96 L150.66,83.96 Z M154.932,86 L155.948,86 L155.948,84.128 C155.948,83.936 155.964,83.752 156.02,83.584 C156.172,83.096 156.572,82.752 157.116,82.752 C157.636,82.752 157.764,83.088 157.764,83.584 L157.764,86 L158.772,86 L158.772,83.376 C158.772,82.296 158.26,81.824 157.356,81.824 C156.532,81.824 156.084,82.328 155.908,82.672 L155.892,82.672 C155.892,82.672 155.908,82.544 155.908,82.392 L155.908,81.92 L154.932,81.92 L154.932,86 Z M159.78,84.544 C159.78,85.656 160.324,86.096 161.196,86.096 C161.892,86.096 162.412,85.672 162.612,85.248 L162.628,85.248 C162.628,85.248 162.612,85.376 162.612,85.536 L162.612,86 L163.588,86 L163.588,81.92 L162.572,81.92 L162.572,83.792 C162.572,84.52 162.164,85.168 161.428,85.168 C160.924,85.168 160.796,84.832 160.796,84.336 L160.796,81.92 L159.78,81.92 L159.78,84.544 Z M164.364,85.496 C164.364,85.496 164.932,86.096 165.948,86.096 C166.916,86.096 167.508,85.552 167.508,84.872 C167.508,83.56 165.524,83.632 165.524,83.056 C165.524,82.8 165.78,82.688 166.044,82.688 C166.668,82.688 167.044,83.04 167.044,83.04 L167.42,82.288 C167.42,82.288 166.972,81.824 166.052,81.824 C165.172,81.824 164.492,82.264 164.492,83.024 C164.492,84.336 166.476,84.256 166.476,84.864 C166.476,85.104 166.228,85.232 165.94,85.232 C165.276,85.232 164.828,84.784 164.828,84.784 L164.364,85.496 Z" id="Bonus-Copy-4" fill="#262626" transform="translate(156.360000, 83.208000) rotate(-360.000000) translate(-156.360000, -83.208000) "></path>
                <path d="M144.956,13 L147.012,13 C148.06,13 148.972,12.488 148.972,11.352 C148.972,10.776 148.676,10.2 148.052,10.016 L148.052,10 C148.484,9.768 148.74,9.312 148.74,8.784 C148.74,7.848 148.012,7.32 146.988,7.32 L144.956,7.32 L144.956,13 Z M145.988,9.64 L145.988,8.208 L146.972,8.208 C147.452,8.208 147.692,8.504 147.692,8.912 C147.692,9.32 147.436,9.64 146.988,9.64 L145.988,9.64 Z M145.988,12.112 L145.988,10.472 L147.092,10.472 C147.612,10.472 147.916,10.816 147.916,11.288 C147.916,11.768 147.62,12.112 147.092,12.112 L145.988,12.112 Z M149.628,10.96 C149.628,12.216 150.628,13.096 151.876,13.096 C153.116,13.096 154.116,12.216 154.116,10.96 C154.116,9.712 153.116,8.824 151.868,8.824 C150.628,8.824 149.628,9.712 149.628,10.96 L149.628,10.96 Z M150.66,10.96 C150.66,10.208 151.212,9.688 151.876,9.688 C152.532,9.688 153.084,10.208 153.084,10.96 C153.084,11.72 152.532,12.232 151.876,12.232 C151.212,12.232 150.66,11.72 150.66,10.96 L150.66,10.96 Z M154.932,13 L155.948,13 L155.948,11.128 C155.948,10.936 155.964,10.752 156.02,10.584 C156.172,10.096 156.572,9.752 157.116,9.752 C157.636,9.752 157.764,10.088 157.764,10.584 L157.764,13 L158.772,13 L158.772,10.376 C158.772,9.296 158.26,8.824 157.356,8.824 C156.532,8.824 156.084,9.328 155.908,9.672 L155.892,9.672 C155.892,9.672 155.908,9.544 155.908,9.392 L155.908,8.92 L154.932,8.92 L154.932,13 Z M159.78,11.544 C159.78,12.656 160.324,13.096 161.196,13.096 C161.892,13.096 162.412,12.672 162.612,12.248 L162.628,12.248 C162.628,12.248 162.612,12.376 162.612,12.536 L162.612,13 L163.588,13 L163.588,8.92 L162.572,8.92 L162.572,10.792 C162.572,11.52 162.164,12.168 161.428,12.168 C160.924,12.168 160.796,11.832 160.796,11.336 L160.796,8.92 L159.78,8.92 L159.78,11.544 Z M164.364,12.496 C164.364,12.496 164.932,13.096 165.948,13.096 C166.916,13.096 167.508,12.552 167.508,11.872 C167.508,10.56 165.524,10.632 165.524,10.056 C165.524,9.8 165.78,9.688 166.044,9.688 C166.668,9.688 167.044,10.04 167.044,10.04 L167.42,9.288 C167.42,9.288 166.972,8.824 166.052,8.824 C165.172,8.824 164.492,9.264 164.492,10.024 C164.492,11.336 166.476,11.256 166.476,11.864 C166.476,12.104 166.228,12.232 165.94,12.232 C165.276,12.232 164.828,11.784 164.828,11.784 L164.364,12.496 Z" id="Bonus-Copy-4" fill="#262626" transform="translate(156.360000, 10.208000) rotate(-360.000000) translate(-156.360000, -10.208000) "></path>
                <path d="M144.956,233 L147.012,233 C148.06,233 148.972,232.488 148.972,231.352 C148.972,230.776 148.676,230.2 148.052,230.016 L148.052,230 C148.484,229.768 148.74,229.312 148.74,228.784 C148.74,227.848 148.012,227.32 146.988,227.32 L144.956,227.32 L144.956,233 Z M145.988,229.64 L145.988,228.208 L146.972,228.208 C147.452,228.208 147.692,228.504 147.692,228.912 C147.692,229.32 147.436,229.64 146.988,229.64 L145.988,229.64 Z M145.988,232.112 L145.988,230.472 L147.092,230.472 C147.612,230.472 147.916,230.816 147.916,231.288 C147.916,231.768 147.62,232.112 147.092,232.112 L145.988,232.112 Z M149.628,230.96 C149.628,232.216 150.628,233.096 151.876,233.096 C153.116,233.096 154.116,232.216 154.116,230.96 C154.116,229.712 153.116,228.824 151.868,228.824 C150.628,228.824 149.628,229.712 149.628,230.96 L149.628,230.96 Z M150.66,230.96 C150.66,230.208 151.212,229.688 151.876,229.688 C152.532,229.688 153.084,230.208 153.084,230.96 C153.084,231.72 152.532,232.232 151.876,232.232 C151.212,232.232 150.66,231.72 150.66,230.96 L150.66,230.96 Z M154.932,233 L155.948,233 L155.948,231.128 C155.948,230.936 155.964,230.752 156.02,230.584 C156.172,230.096 156.572,229.752 157.116,229.752 C157.636,229.752 157.764,230.088 157.764,230.584 L157.764,233 L158.772,233 L158.772,230.376 C158.772,229.296 158.26,228.824 157.356,228.824 C156.532,228.824 156.084,229.328 155.908,229.672 L155.892,229.672 C155.892,229.672 155.908,229.544 155.908,229.392 L155.908,228.92 L154.932,228.92 L154.932,233 Z M159.78,231.544 C159.78,232.656 160.324,233.096 161.196,233.096 C161.892,233.096 162.412,232.672 162.612,232.248 L162.628,232.248 C162.628,232.248 162.612,232.376 162.612,232.536 L162.612,233 L163.588,233 L163.588,228.92 L162.572,228.92 L162.572,230.792 C162.572,231.52 162.164,232.168 161.428,232.168 C160.924,232.168 160.796,231.832 160.796,231.336 L160.796,228.92 L159.78,228.92 L159.78,231.544 Z M164.364,232.496 C164.364,232.496 164.932,233.096 165.948,233.096 C166.916,233.096 167.508,232.552 167.508,231.872 C167.508,230.56 165.524,230.632 165.524,230.056 C165.524,229.8 165.78,229.688 166.044,229.688 C166.668,229.688 167.044,230.04 167.044,230.04 L167.42,229.288 C167.42,229.288 166.972,228.824 166.052,228.824 C165.172,228.824 164.492,229.264 164.492,230.024 C164.492,231.336 166.476,231.256 166.476,231.864 C166.476,232.104 166.228,232.232 165.94,232.232 C165.276,232.232 164.828,231.784 164.828,231.784 L164.364,232.496 Z" id="Bonus-Copy-4" fill="#262626" transform="translate(156.360000, 230.208000) rotate(-360.000000) translate(-156.360000, -230.208000) "></path>
                <path d="M4.28,11.424 C4.28,12.632 5.088,13.096 5.856,13.096 C6.632,13.096 7.44,12.64 7.44,11.424 L7.44,7.376 L5.512,7.376 L5.512,7.872 L6.888,7.872 L6.888,11.424 C6.888,12.296 6.36,12.584 5.864,12.584 C5.352,12.584 4.832,12.272 4.832,11.408 L4.832,11.2 L4.28,11.2 L4.28,11.424 Z M8.52,11.904 C8.52,12.704 9.216,13.096 9.888,13.096 C10.896,13.096 11.232,12.224 11.232,12.224 L11.248,12.224 C11.248,12.224 11.232,12.36 11.232,12.56 L11.232,13 L11.752,13 L11.752,10.424 C11.752,9.416 11.216,8.88 10.248,8.88 C9.344,8.88 8.816,9.336 8.816,9.336 L9.072,9.752 C9.072,9.752 9.544,9.368 10.208,9.368 C10.784,9.368 11.208,9.632 11.208,10.408 L11.208,10.512 L10.984,10.512 C10.288,10.512 8.52,10.544 8.52,11.904 L8.52,11.904 Z M9.08,11.872 C9.08,10.984 10.344,10.96 10.976,10.96 L11.208,10.96 L11.208,11.136 C11.208,11.832 10.744,12.632 9.976,12.632 C9.376,12.632 9.08,12.248 9.08,11.872 L9.08,11.872 Z M13.008,13 L13.552,13 L13.552,11.072 C13.552,10.88 13.568,10.696 13.616,10.528 C13.8,9.864 14.392,9.392 15.08,9.392 C15.856,9.392 15.952,9.952 15.952,10.584 L15.952,13 L16.496,13 L16.496,10.44 C16.496,9.448 16.144,8.88 15.152,8.88 C14.2,8.88 13.688,9.528 13.544,9.896 L13.528,9.896 C13.528,9.896 13.544,9.752 13.544,9.576 L13.544,8.976 L13.008,8.976 L13.008,13 Z" id="Jan-Copy" fill="#262626" transform="translate(10.688000, 10.236000) rotate(-360.000000) translate(-10.688000, -10.236000) "></path>
                <path d="M4.64,110 L5.192,110 L5.504,106.064 C5.528,105.76 5.52,105.264 5.52,105.264 L5.536,105.264 C5.536,105.264 5.712,105.784 5.84,106.064 L7.16,108.952 L7.68,108.952 L9,106.064 C9.128,105.776 9.296,105.28 9.296,105.28 L9.312,105.28 C9.312,105.28 9.304,105.76 9.328,106.064 L9.64,110 L10.192,110 L9.744,104.376 L9.176,104.376 L7.704,107.68 C7.576,107.968 7.424,108.368 7.424,108.368 L7.408,108.368 C7.408,108.368 7.264,107.968 7.136,107.68 L5.664,104.376 L5.088,104.376 L4.64,110 Z M11.16,108.904 C11.16,109.704 11.856,110.096 12.528,110.096 C13.536,110.096 13.872,109.224 13.872,109.224 L13.888,109.224 C13.888,109.224 13.872,109.36 13.872,109.56 L13.872,110 L14.392,110 L14.392,107.424 C14.392,106.416 13.856,105.88 12.888,105.88 C11.984,105.88 11.456,106.336 11.456,106.336 L11.712,106.752 C11.712,106.752 12.184,106.368 12.848,106.368 C13.424,106.368 13.848,106.632 13.848,107.408 L13.848,107.512 L13.624,107.512 C12.928,107.512 11.16,107.544 11.16,108.904 L11.16,108.904 Z M11.72,108.872 C11.72,107.984 12.984,107.96 13.616,107.96 L13.848,107.96 L13.848,108.136 C13.848,108.832 13.384,109.632 12.616,109.632 C12.016,109.632 11.72,109.248 11.72,108.872 L11.72,108.872 Z M15.632,105.056 L16.2,105.056 L16.2,104.376 L15.632,104.376 L15.632,105.056 Z M15.648,110 L16.192,110 L16.192,105.976 L15.648,105.976 L15.648,110 Z" id="Mai" fill="#262626" transform="translate(10.744000, 107.236000) rotate(-360.000000) translate(-10.744000, -107.236000) "></path>
                <path d="M4.4,207.376 C4.4,207.376 5.032,208.096 6.184,208.096 C7.24,208.096 7.888,207.416 7.888,206.576 C7.888,204.728 5.08,205.112 5.08,203.776 C5.08,203.28 5.544,202.808 6.264,202.808 C7,202.808 7.496,203.288 7.496,203.288 L7.768,202.824 C7.768,202.824 7.24,202.28 6.264,202.28 C5.224,202.28 4.512,202.984 4.512,203.792 C4.512,205.536 7.32,205.176 7.32,206.592 C7.32,207.2 6.816,207.568 6.2,207.568 C5.312,207.568 4.728,206.952 4.728,206.952 L4.4,207.376 Z M8.68,205.992 C8.68,207.232 9.584,208.096 10.784,208.096 C11.688,208.096 12.272,207.536 12.272,207.536 L12.024,207.12 C12.024,207.12 11.536,207.608 10.8,207.608 C9.968,207.608 9.264,207.048 9.24,206.016 L12.328,206.016 C12.328,206.016 12.344,205.832 12.344,205.736 C12.344,204.736 11.776,203.88 10.664,203.88 C9.576,203.88 8.68,204.672 8.68,205.992 L8.68,205.992 Z M9.264,205.568 C9.392,204.76 9.976,204.336 10.648,204.336 C11.248,204.336 11.76,204.728 11.792,205.568 L9.264,205.568 Z M13.384,209.6 L13.928,209.6 L13.928,207.68 C13.928,207.472 13.912,207.328 13.912,207.328 L13.928,207.328 C13.928,207.328 14.28,208.096 15.248,208.096 C16.288,208.096 17.048,207.264 17.048,205.992 C17.048,204.744 16.376,203.88 15.296,203.88 C14.232,203.88 13.904,204.68 13.904,204.68 L13.888,204.68 C13.888,204.68 13.904,204.544 13.904,204.368 L13.904,203.976 L13.384,203.976 L13.384,209.6 Z M13.912,206 C13.912,204.856 14.544,204.376 15.216,204.376 C15.968,204.376 16.488,205.008 16.488,205.992 C16.488,207.016 15.904,207.616 15.192,207.616 C14.36,207.616 13.912,206.808 13.912,206 L13.912,206 Z" id="Sep" fill="#262626" transform="translate(10.920000, 205.940000) rotate(-360.000000) translate(-10.920000, -205.940000) "></path>
                <path d="M4.64,61 L5.192,61 L5.504,57.064 C5.528,56.76 5.52,56.264 5.52,56.264 L5.536,56.264 C5.536,56.264 5.712,56.784 5.84,57.064 L7.16,59.952 L7.68,59.952 L9,57.064 C9.128,56.776 9.296,56.28 9.296,56.28 L9.312,56.28 C9.312,56.28 9.304,56.76 9.328,57.064 L9.64,61 L10.192,61 L9.744,55.376 L9.176,55.376 L7.704,58.68 C7.576,58.968 7.424,59.368 7.424,59.368 L7.408,59.368 C7.408,59.368 7.264,58.968 7.136,58.68 L5.664,55.376 L5.088,55.376 L4.64,61 Z M11.16,59.904 C11.16,60.704 11.856,61.096 12.528,61.096 C13.536,61.096 13.872,60.224 13.872,60.224 L13.888,60.224 C13.888,60.224 13.872,60.36 13.872,60.56 L13.872,61 L14.392,61 L14.392,58.424 C14.392,57.416 13.856,56.88 12.888,56.88 C11.984,56.88 11.456,57.336 11.456,57.336 L11.712,57.752 C11.712,57.752 12.184,57.368 12.848,57.368 C13.424,57.368 13.848,57.632 13.848,58.408 L13.848,58.512 L13.624,58.512 C12.928,58.512 11.16,58.544 11.16,59.904 L11.16,59.904 Z M11.72,59.872 C11.72,58.984 12.984,58.96 13.616,58.96 L13.848,58.96 L13.848,59.136 C13.848,59.832 13.384,60.632 12.616,60.632 C12.016,60.632 11.72,60.248 11.72,59.872 L11.72,59.872 Z M15.648,61 L16.192,61 L16.192,59.304 C16.192,59.048 16.224,58.776 16.304,58.52 C16.48,57.928 16.904,57.48 17.472,57.48 C17.576,57.48 17.672,57.496 17.672,57.496 L17.672,56.96 C17.672,56.96 17.568,56.936 17.456,56.936 C16.824,56.936 16.376,57.4 16.184,58.008 L16.168,58.008 C16.168,58.008 16.184,57.864 16.184,57.688 L16.184,56.976 L15.648,56.976 L15.648,61 Z" id="Mar" fill="#262626" transform="translate(11.240000, 58.236000) rotate(-360.000000) translate(-11.240000, -58.236000) "></path>
                <path d="M4.28,157.424 C4.28,158.632 5.088,159.096 5.856,159.096 C6.632,159.096 7.44,158.64 7.44,157.424 L7.44,153.376 L5.512,153.376 L5.512,153.872 L6.888,153.872 L6.888,157.424 C6.888,158.296 6.36,158.584 5.864,158.584 C5.352,158.584 4.832,158.272 4.832,157.408 L4.832,157.2 L4.28,157.2 L4.28,157.424 Z M8.792,157.536 C8.792,158.584 9.192,159.096 10.136,159.096 C11.024,159.096 11.552,158.472 11.712,158.08 L11.728,158.08 C11.728,158.08 11.712,158.224 11.712,158.4 L11.712,159 L12.24,159 L12.24,154.976 L11.696,154.976 L11.696,156.904 C11.696,157.776 11.128,158.584 10.208,158.584 C9.432,158.584 9.336,158.024 9.336,157.392 L9.336,154.976 L8.792,154.976 L8.792,157.536 Z M13.512,158.048 C13.512,158.928 14.104,159.032 14.44,159.032 C14.544,159.032 14.64,159.016 14.64,159.016 L14.64,158.528 C14.64,158.528 14.576,158.536 14.504,158.536 C14.296,158.536 14.056,158.456 14.056,157.928 L14.056,153.376 L13.512,153.376 L13.512,158.048 Z" id="Jul" fill="#262626" transform="translate(9.576000, 156.236000) rotate(-360.000000) translate(-9.576000, -156.236000) "></path>
                <path d="M4.816,257 L5.368,257 L5.368,252.952 C5.368,252.656 5.32,252.192 5.32,252.192 L5.336,252.192 C5.336,252.192 5.608,252.672 5.8,252.952 L8.672,257 L9.208,257 L9.208,251.376 L8.656,251.376 L8.656,255.424 C8.656,255.72 8.704,256.184 8.704,256.184 L8.688,256.184 C8.688,256.184 8.416,255.704 8.224,255.424 L5.352,251.376 L4.816,251.376 L4.816,257 Z M10.384,254.968 C10.384,256.184 11.336,257.096 12.512,257.096 C13.688,257.096 14.64,256.184 14.64,254.968 C14.64,253.776 13.688,252.88 12.512,252.88 C11.336,252.88 10.384,253.776 10.384,254.968 L10.384,254.968 Z M10.944,254.968 C10.944,254.056 11.648,253.376 12.512,253.376 C13.376,253.376 14.08,254.056 14.08,254.968 C14.08,255.904 13.376,256.608 12.512,256.608 C11.648,256.608 10.944,255.904 10.944,254.968 L10.944,254.968 Z M16.648,257 L17.24,257 L18.776,252.976 L18.208,252.976 L17.096,255.928 C17.016,256.136 16.952,256.408 16.952,256.408 L16.936,256.408 C16.936,256.408 16.872,256.128 16.8,255.928 L15.68,252.976 L15.104,252.976 L16.648,257 Z" id="Nov" fill="#262626" transform="translate(11.848000, 254.236000) rotate(-360.000000) translate(-11.848000, -254.236000) "></path>
                <path d="M4.816,37 L5.368,37 L5.368,34.48 L7.432,34.48 L7.432,33.984 L5.368,33.984 L5.368,31.872 L7.776,31.872 L7.776,31.376 L4.816,31.376 L4.816,37 Z M8.488,34.992 C8.488,36.232 9.392,37.096 10.592,37.096 C11.496,37.096 12.08,36.536 12.08,36.536 L11.832,36.12 C11.832,36.12 11.344,36.608 10.608,36.608 C9.776,36.608 9.072,36.048 9.048,35.016 L12.136,35.016 C12.136,35.016 12.152,34.832 12.152,34.736 C12.152,33.736 11.584,32.88 10.472,32.88 C9.384,32.88 8.488,33.672 8.488,34.992 L8.488,34.992 Z M9.072,34.568 C9.2,33.76 9.784,33.336 10.456,33.336 C11.056,33.336 11.568,33.728 11.6,34.568 L9.072,34.568 Z M13.192,37 L13.72,37 L13.72,36.64 C13.72,36.448 13.704,36.312 13.704,36.312 L13.72,36.312 C13.72,36.312 14.08,37.096 15.04,37.096 C16.096,37.096 16.856,36.264 16.856,34.992 C16.856,33.744 16.184,32.88 15.104,32.88 C14.072,32.88 13.736,33.656 13.736,33.656 L13.72,33.656 C13.72,33.656 13.736,33.512 13.736,33.328 L13.736,31.376 L13.192,31.376 L13.192,37 Z M13.72,35 C13.72,33.856 14.352,33.376 15.024,33.376 C15.776,33.376 16.296,34.008 16.296,34.992 C16.296,36.016 15.712,36.616 15,36.616 C14.136,36.616 13.72,35.808 13.72,35 L13.72,35 Z" id="Feb" fill="#262626" transform="translate(11.032000, 34.236000) rotate(-360.000000) translate(-11.032000, -34.236000) "></path>
                <path d="M4.28,133.424 C4.28,134.632 5.088,135.096 5.856,135.096 C6.632,135.096 7.44,134.64 7.44,133.424 L7.44,129.376 L5.512,129.376 L5.512,129.872 L6.888,129.872 L6.888,133.424 C6.888,134.296 6.36,134.584 5.864,134.584 C5.352,134.584 4.832,134.272 4.832,133.408 L4.832,133.2 L4.28,133.2 L4.28,133.424 Z M8.792,133.536 C8.792,134.584 9.192,135.096 10.136,135.096 C11.024,135.096 11.552,134.472 11.712,134.08 L11.728,134.08 C11.728,134.08 11.712,134.224 11.712,134.4 L11.712,135 L12.24,135 L12.24,130.976 L11.696,130.976 L11.696,132.904 C11.696,133.776 11.128,134.584 10.208,134.584 C9.432,134.584 9.336,134.024 9.336,133.392 L9.336,130.976 L8.792,130.976 L8.792,133.536 Z M13.552,135 L14.096,135 L14.096,133.072 C14.096,132.88 14.112,132.696 14.16,132.528 C14.344,131.864 14.936,131.392 15.624,131.392 C16.4,131.392 16.496,131.952 16.496,132.584 L16.496,135 L17.04,135 L17.04,132.44 C17.04,131.448 16.688,130.88 15.696,130.88 C14.744,130.88 14.232,131.528 14.088,131.896 L14.072,131.896 C14.072,131.896 14.088,131.752 14.088,131.576 L14.088,130.976 L13.552,130.976 L13.552,135 Z" id="Jun" fill="#262626" transform="translate(10.960000, 132.236000) rotate(-360.000000) translate(-10.960000, -132.236000) "></path>
                <path d="M4.432,230.152 C4.432,231.8 5.704,233.096 7.296,233.096 C8.888,233.096 10.16,231.8 10.16,230.152 C10.16,228.536 8.888,227.28 7.296,227.28 C5.704,227.28 4.432,228.536 4.432,230.152 L4.432,230.152 Z M5.008,230.152 C5.008,228.808 6.024,227.792 7.296,227.792 C8.56,227.792 9.584,228.808 9.584,230.152 C9.584,231.528 8.56,232.584 7.296,232.584 C6.024,232.584 5.008,231.528 5.008,230.152 L5.008,230.152 Z M11.248,233 L11.792,233 L11.792,230.984 L12.44,230.984 L13.784,233 L14.432,233 L12.896,230.744 L12.896,230.728 L14.296,228.976 L13.64,228.976 L12.432,230.512 L11.792,230.512 L11.792,227.376 L11.248,227.376 L11.248,233 Z M15.416,231.536 C15.416,232.88 16.352,233.032 16.816,233.032 C16.96,233.032 17.048,233.016 17.048,233.016 L17.048,232.528 C17.048,232.528 16.976,232.544 16.864,232.544 C16.56,232.544 15.96,232.424 15.96,231.48 L15.96,229.48 L16.968,229.48 L16.968,229.024 L15.96,229.024 L15.96,227.864 L15.424,227.864 L15.424,229.024 L14.888,229.024 L14.888,229.48 L15.416,229.48 L15.416,231.536 Z" id="Okt" fill="#262626" transform="translate(10.860000, 230.188000) rotate(-360.000000) translate(-10.860000, -230.188000) "></path>
                <path d="M8.24,85 L8.824,85 L6.76,79.376 L6.168,79.376 L4.104,85 L4.688,85 L5.328,83.208 L7.592,83.208 L8.24,85 Z M6.472,79.96 C6.472,79.96 6.592,80.424 6.688,80.688 L7.424,82.728 L5.488,82.728 L6.24,80.688 C6.336,80.424 6.456,79.96 6.456,79.96 L6.472,79.96 Z M9.584,86.6 L10.128,86.6 L10.128,84.68 C10.128,84.472 10.112,84.328 10.112,84.328 L10.128,84.328 C10.128,84.328 10.48,85.096 11.448,85.096 C12.488,85.096 13.248,84.264 13.248,82.992 C13.248,81.744 12.576,80.88 11.496,80.88 C10.432,80.88 10.104,81.68 10.104,81.68 L10.088,81.68 C10.088,81.68 10.104,81.544 10.104,81.368 L10.104,80.976 L9.584,80.976 L9.584,86.6 Z M10.112,83 C10.112,81.856 10.744,81.376 11.416,81.376 C12.168,81.376 12.688,82.008 12.688,82.992 C12.688,84.016 12.104,84.616 11.392,84.616 C10.56,84.616 10.112,83.808 10.112,83 L10.112,83 Z M14.296,85 L14.84,85 L14.84,83.304 C14.84,83.048 14.872,82.776 14.952,82.52 C15.128,81.928 15.552,81.48 16.12,81.48 C16.224,81.48 16.32,81.496 16.32,81.496 L16.32,80.96 C16.32,80.96 16.216,80.936 16.104,80.936 C15.472,80.936 15.024,81.4 14.832,82.008 L14.816,82.008 C14.816,82.008 14.832,81.864 14.832,81.688 L14.832,80.976 L14.296,80.976 L14.296,85 Z" id="Apr" fill="#262626" transform="translate(10.296000, 82.988000) rotate(-360.000000) translate(-10.296000, -82.988000) "></path>
                <path d="M8.24,183 L8.824,183 L6.76,177.376 L6.168,177.376 L4.104,183 L4.688,183 L5.328,181.208 L7.592,181.208 L8.24,183 Z M6.472,177.96 C6.472,177.96 6.592,178.424 6.688,178.688 L7.424,180.728 L5.488,180.728 L6.24,178.688 C6.336,178.424 6.456,177.96 6.456,177.96 L6.472,177.96 Z M9.528,181.536 C9.528,182.584 9.928,183.096 10.872,183.096 C11.76,183.096 12.288,182.472 12.448,182.08 L12.464,182.08 C12.464,182.08 12.448,182.224 12.448,182.4 L12.448,183 L12.976,183 L12.976,178.976 L12.432,178.976 L12.432,180.904 C12.432,181.776 11.864,182.584 10.944,182.584 C10.168,182.584 10.072,182.024 10.072,181.392 L10.072,178.976 L9.528,178.976 L9.528,181.536 Z M14.592,183.912 L14.384,184.36 C14.776,184.56 15.24,184.68 15.704,184.68 C16.688,184.68 17.632,184.184 17.632,182.904 L17.632,178.976 L17.104,178.976 L17.104,179.416 C17.104,179.504 17.112,179.552 17.112,179.552 L17.096,179.552 C17.096,179.552 16.832,178.88 15.768,178.88 C14.688,178.88 14.024,179.704 14.024,180.912 C14.024,182.12 14.736,182.976 15.816,182.976 C16.44,182.976 16.848,182.72 17.088,182.272 L17.104,182.272 C17.104,182.272 17.088,182.408 17.088,182.56 L17.088,182.928 C17.088,183.824 16.464,184.192 15.68,184.192 C15.088,184.192 14.592,183.912 14.592,183.912 L14.592,183.912 Z M15.904,182.488 C15.104,182.488 14.584,181.864 14.584,180.904 C14.584,179.944 15.04,179.376 15.824,179.376 C16.536,179.376 17.096,179.736 17.096,180.912 C17.096,182.096 16.536,182.488 15.904,182.488 L15.904,182.488 Z" id="Aug" fill="#262626" transform="translate(11.196000, 181.028000) rotate(-360.000000) translate(-11.196000, -181.028000) "></path>
                <path d="M4.816,281 L6.632,281 C8.32,281 9.456,279.976 9.456,278.184 C9.456,276.408 8.32,275.376 6.632,275.376 L4.816,275.376 L4.816,281 Z M5.368,280.504 L5.368,275.872 L6.576,275.872 C7.952,275.872 8.88,276.688 8.88,278.184 C8.88,279.688 7.96,280.504 6.576,280.504 L5.368,280.504 Z M10.296,278.992 C10.296,280.232 11.2,281.096 12.4,281.096 C13.304,281.096 13.888,280.536 13.888,280.536 L13.64,280.12 C13.64,280.12 13.152,280.608 12.416,280.608 C11.584,280.608 10.88,280.048 10.856,279.016 L13.944,279.016 C13.944,279.016 13.96,278.832 13.96,278.736 C13.96,277.736 13.392,276.88 12.28,276.88 C11.192,276.88 10.296,277.672 10.296,278.992 L10.296,278.992 Z M10.88,278.568 C11.008,277.76 11.592,277.336 12.264,277.336 C12.864,277.336 13.376,277.728 13.408,278.568 L10.88,278.568 Z M14.672,280.512 C14.672,280.512 15.184,281.096 16.16,281.096 C16.968,281.096 17.536,280.624 17.536,279.968 C17.536,278.64 15.368,278.88 15.368,277.992 C15.368,277.544 15.76,277.368 16.168,277.368 C16.832,277.368 17.176,277.736 17.176,277.736 L17.424,277.32 C17.424,277.32 17.032,276.88 16.184,276.88 C15.456,276.88 14.808,277.272 14.808,277.992 C14.808,279.304 16.976,279.088 16.976,279.968 C16.976,280.392 16.6,280.608 16.168,280.608 C15.416,280.608 14.968,280.12 14.968,280.12 L14.672,280.512 Z" id="Des" fill="#262626" transform="translate(11.352000, 278.236000) rotate(-360.000000) translate(-11.352000, -278.236000) "></path>
                <path d="M117.408,135 L117.96,135 L117.96,132.48 L120.024,132.48 L120.024,131.984 L117.96,131.984 L117.96,129.872 L120.368,129.872 L120.368,129.376 L117.408,129.376 L117.408,135 Z M121.08,132.992 C121.08,134.232 121.984,135.096 123.184,135.096 C124.088,135.096 124.672,134.536 124.672,134.536 L124.424,134.12 C124.424,134.12 123.936,134.608 123.2,134.608 C122.368,134.608 121.664,134.048 121.64,133.016 L124.728,133.016 C124.728,133.016 124.744,132.832 124.744,132.736 C124.744,131.736 124.176,130.88 123.064,130.88 C121.976,130.88 121.08,131.672 121.08,132.992 L121.08,132.992 Z M121.664,132.568 C121.792,131.76 122.376,131.336 123.048,131.336 C123.648,131.336 124.16,131.728 124.192,132.568 L121.664,132.568 Z M125.784,135 L126.328,135 L126.328,133.304 C126.328,133.048 126.36,132.776 126.44,132.52 C126.616,131.928 127.04,131.48 127.608,131.48 C127.712,131.48 127.808,131.496 127.808,131.496 L127.808,130.96 C127.808,130.96 127.704,130.936 127.592,130.936 C126.96,130.936 126.512,131.4 126.32,132.008 L126.304,132.008 C126.304,132.008 126.32,131.864 126.32,131.688 L126.32,130.976 L125.784,130.976 L125.784,135 Z M128.616,130.056 L129.184,130.056 L129.184,129.376 L128.616,129.376 L128.616,130.056 Z M128.632,135 L129.176,135 L129.176,130.976 L128.632,130.976 L128.632,135 Z M130.208,132.992 C130.208,134.232 131.112,135.096 132.312,135.096 C133.216,135.096 133.8,134.536 133.8,134.536 L133.552,134.12 C133.552,134.12 133.064,134.608 132.328,134.608 C131.496,134.608 130.792,134.048 130.768,133.016 L133.856,133.016 C133.856,133.016 133.872,132.832 133.872,132.736 C133.872,131.736 133.304,130.88 132.192,130.88 C131.104,130.88 130.208,131.672 130.208,132.992 L130.208,132.992 Z M130.792,132.568 C130.92,131.76 131.504,131.336 132.176,131.336 C132.776,131.336 133.288,131.728 133.32,132.568 L130.792,132.568 Z M135.088,132.976 L137.36,132.976 L137.36,132.48 L135.088,132.48 L135.088,132.976 Z M138.848,136.6 L139.392,136.6 L139.392,134.68 C139.392,134.472 139.376,134.328 139.376,134.328 L139.392,134.328 C139.392,134.328 139.744,135.096 140.712,135.096 C141.752,135.096 142.512,134.264 142.512,132.992 C142.512,131.744 141.84,130.88 140.76,130.88 C139.696,130.88 139.368,131.68 139.368,131.68 L139.352,131.68 C139.352,131.68 139.368,131.544 139.368,131.368 L139.368,130.976 L138.848,130.976 L138.848,136.6 Z M139.376,133 C139.376,131.856 140.008,131.376 140.68,131.376 C141.432,131.376 141.952,132.008 141.952,132.992 C141.952,134.016 141.368,134.616 140.656,134.616 C139.824,134.616 139.376,133.808 139.376,133 L139.376,133 Z M143.28,132.992 C143.28,134.232 144.184,135.096 145.384,135.096 C146.288,135.096 146.872,134.536 146.872,134.536 L146.624,134.12 C146.624,134.12 146.136,134.608 145.4,134.608 C144.568,134.608 143.864,134.048 143.84,133.016 L146.928,133.016 C146.928,133.016 146.944,132.832 146.944,132.736 C146.944,131.736 146.376,130.88 145.264,130.88 C144.176,130.88 143.28,131.672 143.28,132.992 L143.28,132.992 Z M143.864,132.568 C143.992,131.76 144.576,131.336 145.248,131.336 C145.848,131.336 146.36,131.728 146.392,132.568 L143.864,132.568 Z M147.984,135 L148.528,135 L148.528,133.072 C148.528,132.88 148.544,132.696 148.592,132.528 C148.776,131.864 149.368,131.392 150.056,131.392 C150.832,131.392 150.928,131.952 150.928,132.584 L150.928,135 L151.472,135 L151.472,132.44 C151.472,131.448 151.12,130.88 150.128,130.88 C149.176,130.88 148.664,131.528 148.52,131.896 L148.504,131.896 C148.504,131.896 148.52,131.752 148.52,131.576 L148.52,130.976 L147.984,130.976 L147.984,135 Z M153.032,135.912 L152.824,136.36 C153.216,136.56 153.68,136.68 154.144,136.68 C155.128,136.68 156.072,136.184 156.072,134.904 L156.072,130.976 L155.544,130.976 L155.544,131.416 C155.544,131.504 155.552,131.552 155.552,131.552 L155.536,131.552 C155.536,131.552 155.272,130.88 154.208,130.88 C153.128,130.88 152.464,131.704 152.464,132.912 C152.464,134.12 153.176,134.976 154.256,134.976 C154.88,134.976 155.288,134.72 155.528,134.272 L155.544,134.272 C155.544,134.272 155.528,134.408 155.528,134.56 L155.528,134.928 C155.528,135.824 154.904,136.192 154.12,136.192 C153.528,136.192 153.032,135.912 153.032,135.912 L153.032,135.912 Z M154.344,134.488 C153.544,134.488 153.024,133.864 153.024,132.904 C153.024,131.944 153.48,131.376 154.264,131.376 C154.976,131.376 155.536,131.736 155.536,132.912 C155.536,134.096 154.976,134.488 154.344,134.488 L154.344,134.488 Z M157.104,132.992 C157.104,134.232 158.008,135.096 159.208,135.096 C160.112,135.096 160.696,134.536 160.696,134.536 L160.448,134.12 C160.448,134.12 159.96,134.608 159.224,134.608 C158.392,134.608 157.688,134.048 157.664,133.016 L160.752,133.016 C160.752,133.016 160.768,132.832 160.768,132.736 C160.768,131.736 160.2,130.88 159.088,130.88 C158,130.88 157.104,131.672 157.104,132.992 L157.104,132.992 Z M157.688,132.568 C157.816,131.76 158.4,131.336 159.072,131.336 C159.672,131.336 160.184,131.728 160.216,132.568 L157.688,132.568 Z M161.808,135 L162.352,135 L162.352,133.304 C162.352,133.048 162.384,132.776 162.464,132.52 C162.64,131.928 163.064,131.48 163.632,131.48 C163.736,131.48 163.832,131.496 163.832,131.496 L163.832,130.96 C163.832,130.96 163.728,130.936 163.616,130.936 C162.984,130.936 162.536,131.4 162.344,132.008 L162.328,132.008 C162.328,132.008 162.344,131.864 162.344,131.688 L162.344,130.976 L161.808,130.976 L161.808,135 Z" id="Ferie-penger-Copy" fill="#262626" transform="translate(140.704000, 133.028000) rotate(-360.000000) translate(-140.704000, -133.028000) "></path>
                <path d="M129.616,281 L130.168,281 L130.168,278.432 L133.432,278.432 L133.432,281 L133.984,281 L133.984,275.376 L133.432,275.376 L133.432,277.936 L130.168,277.936 L130.168,275.376 L129.616,275.376 L129.616,281 Z M135.128,279.904 C135.128,280.704 135.824,281.096 136.496,281.096 C137.504,281.096 137.84,280.224 137.84,280.224 L137.856,280.224 C137.856,280.224 137.84,280.36 137.84,280.56 L137.84,281 L138.36,281 L138.36,278.424 C138.36,277.416 137.824,276.88 136.856,276.88 C135.952,276.88 135.424,277.336 135.424,277.336 L135.68,277.752 C135.68,277.752 136.152,277.368 136.816,277.368 C137.392,277.368 137.816,277.632 137.816,278.408 L137.816,278.512 L137.592,278.512 C136.896,278.512 135.128,278.544 135.128,279.904 L135.128,279.904 Z M135.688,279.872 C135.688,278.984 136.952,278.96 137.584,278.96 L137.816,278.96 L137.816,279.136 C137.816,279.832 137.352,280.632 136.584,280.632 C135.984,280.632 135.688,280.248 135.688,279.872 L135.688,279.872 Z M139.576,280.048 C139.576,280.928 140.168,281.032 140.504,281.032 C140.608,281.032 140.704,281.016 140.704,281.016 L140.704,280.528 C140.704,280.528 140.64,280.536 140.568,280.536 C140.36,280.536 140.12,280.456 140.12,279.928 L140.12,275.376 L139.576,275.376 L139.576,280.048 Z M142.584,281 L143.176,281 L144.712,276.976 L144.144,276.976 L143.032,279.928 C142.952,280.136 142.888,280.408 142.888,280.408 L142.872,280.408 C142.872,280.408 142.808,280.128 142.736,279.928 L141.616,276.976 L141.04,276.976 L142.584,281 Z M147.296,280.512 C147.296,280.512 147.808,281.096 148.784,281.096 C149.592,281.096 150.16,280.624 150.16,279.968 C150.16,278.64 147.992,278.88 147.992,277.992 C147.992,277.544 148.384,277.368 148.792,277.368 C149.456,277.368 149.8,277.736 149.8,277.736 L150.048,277.32 C150.048,277.32 149.656,276.88 148.808,276.88 C148.08,276.88 147.432,277.272 147.432,277.992 C147.432,279.304 149.6,279.088 149.6,279.968 C149.6,280.392 149.224,280.608 148.792,280.608 C148.04,280.608 147.592,280.12 147.592,280.12 L147.296,280.512 Z M151.168,281 L151.712,281 L151.712,278.984 L152.36,278.984 L153.704,281 L154.352,281 L152.816,278.744 L152.816,278.728 L154.216,276.976 L153.56,276.976 L152.352,278.512 L151.712,278.512 L151.712,275.376 L151.168,275.376 L151.168,281 Z M154.832,279.904 C154.832,280.704 155.528,281.096 156.2,281.096 C157.208,281.096 157.544,280.224 157.544,280.224 L157.56,280.224 C157.56,280.224 157.544,280.36 157.544,280.56 L157.544,281 L158.064,281 L158.064,278.424 C158.064,277.416 157.528,276.88 156.56,276.88 C155.656,276.88 155.128,277.336 155.128,277.336 L155.384,277.752 C155.384,277.752 155.856,277.368 156.52,277.368 C157.096,277.368 157.52,277.632 157.52,278.408 L157.52,278.512 L157.296,278.512 C156.6,278.512 154.832,278.544 154.832,279.904 L154.832,279.904 Z M155.392,279.872 C155.392,278.984 156.656,278.96 157.288,278.96 L157.52,278.96 L157.52,279.136 C157.52,279.832 157.056,280.632 156.288,280.632 C155.688,280.632 155.392,280.248 155.392,279.872 L155.392,279.872 Z M159.448,279.536 C159.448,280.88 160.384,281.032 160.848,281.032 C160.992,281.032 161.08,281.016 161.08,281.016 L161.08,280.528 C161.08,280.528 161.008,280.544 160.896,280.544 C160.592,280.544 159.992,280.424 159.992,279.48 L159.992,277.48 L161,277.48 L161,277.024 L159.992,277.024 L159.992,275.864 L159.456,275.864 L159.456,277.024 L158.92,277.024 L158.92,277.48 L159.448,277.48 L159.448,279.536 Z M162.128,279.536 C162.128,280.88 163.064,281.032 163.528,281.032 C163.672,281.032 163.76,281.016 163.76,281.016 L163.76,280.528 C163.76,280.528 163.688,280.544 163.576,280.544 C163.272,280.544 162.672,280.424 162.672,279.48 L162.672,277.48 L163.68,277.48 L163.68,277.024 L162.672,277.024 L162.672,275.864 L162.136,275.864 L162.136,277.024 L161.6,277.024 L161.6,277.48 L162.128,277.48 L162.128,279.536 Z" id="Halv-skatt" fill="#262626" transform="translate(146.808000, 278.236000) rotate(-360.000000) translate(-146.808000, -278.236000) "></path>
                <g id="icon_snow-copy" transform="translate(174.000000, 278.000000) rotate(-270.000000) translate(-174.000000, -278.000000) translate(168.000000, 272.000000)">
                    <rect id="bg" x="0" y="0" width="12" height="12"></rect>
                    <path d="M3.60085005,7.81816257 L5.625,6.64951905 L5.625,8.98680609 L4.10448743,10.0004811 L4.52051257,10.6245189 L5.625,9.88819391 L5.625,11.25 L6.375,11.25 L6.375,9.88819391 L7.47948743,10.6245189 L7.89551257,10.0004811 L6.375,8.98680609 L6.375,6.64951905 L8.23677019,7.72441257 L8.35438224,9.54805261 L9.10282734,9.49978313 L9.01739494,8.17510648 L10.3591334,8.94975953 L10.7341334,8.30024047 L9.39239494,7.52558743 L10.5823148,6.93723573 L10.2498948,6.26492853 L8.61177019,7.07489352 L6.75,6 L8.61177019,4.92510648 L10.2498948,5.73507147 L10.5823148,5.06276427 L9.39239494,4.47441257 L10.7341334,3.69975953 L10.3591334,3.05024047 L9.01739494,3.82489352 L9.10282734,2.50021687 L8.35438224,2.45194739 L8.23677019,4.27558743 L6.375,5.35048095 L6.375,3.20069391 L7.89551257,2.18701886 L7.47948743,1.56298114 L6.375,2.29930609 L6.375,0.75 L5.625,0.75 L5.625,2.29930609 L4.52051257,1.56298114 L4.10448743,2.18701886 L5.625,3.20069391 L5.625,5.35048095 L3.60085005,4.18183743 L3.48323799,2.35819739 L2.7347929,2.40646687 L2.8202253,3.73114352 L1.64086663,3.05024047 L1.26586663,3.69975953 L2.4452253,4.38066257 L1.25530547,4.96901427 L1.58772542,5.64132147 L3.22585005,4.83135648 L5.25,6 L3.22585005,7.16864352 L1.58772542,6.35867853 L1.25530547,7.03098573 L2.4452253,7.61933743 L1.26586663,8.30024047 L1.64086663,8.94975953 L2.8202253,8.26885648 L2.7347929,9.59353313 L3.48323799,9.64180261 L3.60085005,7.81816257 Z" id="Combined-Shape" fill="#262626"></path>
                </g>
                <g id="icon_sun-copy" transform="translate(174.000000, 132.000000) rotate(-270.000000) translate(-174.000000, -132.000000) translate(168.000000, 126.000000)">
                    <rect id="bg" x="0" y="0" width="12" height="12"></rect>
                    <g id="Group" transform="translate(0.750000, 0.750000)" fill="#262626">
                        <path d="M1.07171477,4.17828523 L-3.55271368e-15,5.25 L1.07171477,6.32171477 C0.984088588,5.97905852 0.9375,5.61996994 0.9375,5.25 C0.9375,4.88003006 0.984088588,4.52094148 1.07171912,4.17828088 Z M4.17828523,1.07171477 L5.25,-1.3500312e-13 L6.32171477,1.07171477 C5.97905852,0.984088588 5.61996994,0.9375 5.25,0.9375 C4.88003006,0.9375 4.52094148,0.984088588 4.17828088,1.07171912 Z M9.42828523,4.17828523 L10.5,5.25 L9.42828523,6.32171477 C9.51591141,5.97905852 9.5625,5.61996994 9.5625,5.25 C9.5625,4.88003006 9.51591141,4.52094148 9.42828088,4.17828088 Z M6.32171477,9.42828523 L5.25,10.5 L4.17828523,9.42828523 C4.52094148,9.51591141 4.88003006,9.5625 5.25,9.5625 C5.61996994,9.5625 5.97905852,9.51591141 6.32171912,9.42828088 Z" id="Combined-Shape"></path>
                        <path d="M3.11889999,1.5 L1.5,1.5 L1.5,3.11889999 C1.88400962,2.44462906 2.44462906,1.88400962 3.11889999,1.5 Z M7.38110001,1.5 L9,1.5 L9,3.11889999 C8.61599038,2.44462906 8.05537094,1.88400962 7.38110001,1.5 Z M9,7.38110001 L9,9 L7.38110001,9 C8.05537094,8.61599038 8.61599038,8.05537094 9,7.38110001 Z M3.11889999,9 L1.5,9 L1.5,7.38110001 C1.88400962,8.05537094 2.44462906,8.61599038 3.11889999,9 Z" id="Combined-Shape"></path>
                        <g id="Group-3" transform="translate(1.500000, 1.500000)">
                            <path d="M6.75,3.75 C6.75,2.09314575 5.40685425,0.75 3.75,0.75 C2.09314575,0.75 0.75,2.09314575 0.75,3.75 C0.75,5.40685425 2.09314575,6.75 3.75,6.75 C5.40685425,6.75 6.75,5.40685425 6.75,3.75 Z M0,3.75 C0,1.67893219 1.67893219,0 3.75,0 C5.82106781,0 7.5,1.67893219 7.5,3.75 C7.5,5.82106781 5.82106781,7.5 3.75,7.5 C1.67893219,7.5 0,5.82106781 0,3.75 Z" id="Oval"></path>
                        </g>
                    </g>
                </g>
            </g>
        </g>
    </g>
</svg>