<?xml version="1.0" encoding="UTF-8" standalone="no"?>
<svg width="768px" height="192px" viewBox="0 0 768 192" version="1.1" xmlns="http://www.w3.org/2000/svg" xmlns:xlink="http://www.w3.org/1999/xlink">
    <!-- Generator: Sketch 39.1 (31720) - http://www.bohemiancoding.com/sketch -->
    <title>graph_bonus_large</title>
    <desc>Created with Sketch.</desc>
    <defs>
        <rect id="path-1" x="4" y="32" width="56" height="32"></rect>
        <filter x="-50%" y="-50%" width="200%" height="200%" filterUnits="objectBoundingBox" id="filter-2">
            <feOffset dx="0" dy="2" in="SourceAlpha" result="shadowOffsetOuter1"></feOffset>
            <feGaussianBlur stdDeviation="1" in="shadowOffsetOuter1" result="shadowBlurOuter1"></feGaussianBlur>
            <feColorMatrix values="0 0 0 0 0.149019608   0 0 0 0 0.149019608   0 0 0 0 0.149019608  0 0 0 0.1 0" type="matrix" in="shadowBlurOuter1"></feColorMatrix>
        </filter>
        <rect id="path-3" x="196" y="32" width="56" height="32"></rect>
        <filter x="-50%" y="-50%" width="200%" height="200%" filterUnits="objectBoundingBox" id="filter-4">
            <feOffset dx="0" dy="2" in="SourceAlpha" result="shadowOffsetOuter1"></feOffset>
            <feGaussianBlur stdDeviation="1" in="shadowOffsetOuter1" result="shadowBlurOuter1"></feGaussianBlur>
            <feColorMatrix values="0 0 0 0 0.149019608   0 0 0 0 0.149019608   0 0 0 0 0.149019608  0 0 0 0.1 0" type="matrix" in="shadowBlurOuter1"></feColorMatrix>
        </filter>
        <rect id="path-5" x="388" y="32" width="56" height="32"></rect>
        <filter x="-50%" y="-50%" width="200%" height="200%" filterUnits="objectBoundingBox" id="filter-6">
            <feOffset dx="0" dy="2" in="SourceAlpha" result="shadowOffsetOuter1"></feOffset>
            <feGaussianBlur stdDeviation="1" in="shadowOffsetOuter1" result="shadowBlurOuter1"></feGaussianBlur>
            <feColorMatrix values="0 0 0 0 0.149019608   0 0 0 0 0.149019608   0 0 0 0 0.149019608  0 0 0 0.1 0" type="matrix" in="shadowBlurOuter1"></feColorMatrix>
        </filter>
        <rect id="path-7" x="580" y="32" width="56" height="32"></rect>
        <filter x="-50%" y="-50%" width="200%" height="200%" filterUnits="objectBoundingBox" id="filter-8">
            <feOffset dx="0" dy="2" in="SourceAlpha" result="shadowOffsetOuter1"></feOffset>
            <feGaussianBlur stdDeviation="1" in="shadowOffsetOuter1" result="shadowBlurOuter1"></feGaussianBlur>
            <feColorMatrix values="0 0 0 0 0.149019608   0 0 0 0 0.149019608   0 0 0 0 0.149019608  0 0 0 0.1 0" type="matrix" in="shadowBlurOuter1"></feColorMatrix>
        </filter>
        <path d="M0,6.75 C0,3.02207794 3.02207794,0 6.75,0 C10.4779221,0 13.5,3.02207794 13.5,6.75 C13.5,10.4779221 10.4779221,13.5 6.75,13.5 C3.02207794,13.5 0,10.4779221 0,6.75 Z" id="path-9"></path>
    </defs>
    <g id="Page-1" stroke="none" stroke-width="1" fill="none" fill-rule="evenodd">
        <g id="graph_bonus_large">
            <rect id="Rectangle-5" fill="#FFBF3F" x="4" y="64" width="56" height="128"></rect>
            <rect id="Rectangle-5-Copy-3" fill="#FFBF3F" x="196" y="64" width="56" height="128"></rect>
            <rect id="Rectangle-5-Copy-6" fill="#FFBF3F" x="388" y="64" width="56" height="128"></rect>
            <rect id="Rectangle-5-Copy-9" fill="#FFBF3F" x="580" y="64" width="56" height="128"></rect>
            <rect id="Rectangle-5-Copy" fill="#FFBF3F" x="68" y="64" width="56" height="128"></rect>
            <rect id="Rectangle-5-Copy-4" fill="#FFBF3F" x="260" y="64" width="56" height="128"></rect>
            <rect id="Rectangle-5-Copy-7" fill="#FFBF3F" x="452" y="64" width="56" height="128"></rect>
            <rect id="Rectangle-5-Copy-10" fill="#FFBF3F" x="644" y="64" width="56" height="128"></rect>
            <rect id="Rectangle-5-Copy-2" fill="#FFBF3F" x="132" y="64" width="56" height="128"></rect>
            <rect id="Rectangle-5-Copy-5" fill="#FFBF3F" x="324" y="0" width="56" height="192"></rect>
            <rect id="Rectangle-5-Copy-8" fill="#FFBF3F" x="516" y="64" width="56" height="128"></rect>
            <rect id="Rectangle-5-Copy-11" fill="#FFBF3F" x="708" y="32" width="56" height="160"></rect>
            <path d="M713.224,76 L714.052,76 L714.052,72.148 L718.948,72.148 L718.948,76 L719.776,76 L719.776,67.564 L718.948,67.564 L718.948,71.404 L714.052,71.404 L714.052,67.564 L713.224,67.564 L713.224,76 Z M721.492,74.356 C721.492,75.556 722.536,76.144 723.544,76.144 C725.056,76.144 725.56,74.836 725.56,74.836 L725.584,74.836 C725.584,74.836 725.56,75.04 725.56,75.34 L725.56,76 L726.34,76 L726.34,72.136 C726.34,70.624 725.536,69.82 724.084,69.82 C722.728,69.82 721.936,70.504 721.936,70.504 L722.32,71.128 C722.32,71.128 723.028,70.552 724.024,70.552 C724.888,70.552 725.524,70.948 725.524,72.112 L725.524,72.268 L725.188,72.268 C724.144,72.268 721.492,72.316 721.492,74.356 L721.492,74.356 Z M722.332,74.308 C722.332,72.976 724.228,72.94 725.176,72.94 L725.524,72.94 L725.524,73.204 C725.524,74.248 724.828,75.448 723.676,75.448 C722.776,75.448 722.332,74.872 722.332,74.308 L722.332,74.308 Z M728.164,74.572 C728.164,75.892 729.052,76.048 729.556,76.048 C729.712,76.048 729.856,76.024 729.856,76.024 L729.856,75.292 C729.856,75.292 729.76,75.304 729.652,75.304 C729.34,75.304 728.98,75.184 728.98,74.392 L728.98,67.564 L728.164,67.564 L728.164,74.572 Z M732.676,76 L733.564,76 L735.868,69.964 L735.016,69.964 L733.348,74.392 C733.228,74.704 733.132,75.112 733.132,75.112 L733.108,75.112 C733.108,75.112 733.012,74.692 732.904,74.392 L731.224,69.964 L730.36,69.964 L732.676,76 Z M712.492,87.268 C712.492,87.268 713.26,88.144 714.724,88.144 C715.936,88.144 716.788,87.436 716.788,86.452 C716.788,84.46 713.536,84.82 713.536,83.488 C713.536,82.816 714.124,82.552 714.736,82.552 C715.732,82.552 716.248,83.104 716.248,83.104 L716.62,82.48 C716.62,82.48 716.032,81.82 714.76,81.82 C713.668,81.82 712.696,82.408 712.696,83.488 C712.696,85.456 715.948,85.132 715.948,86.452 C715.948,87.088 715.384,87.412 714.736,87.412 C713.608,87.412 712.936,86.68 712.936,86.68 L712.492,87.268 Z M718.3,88 L719.116,88 L719.116,84.976 L720.088,84.976 L722.104,88 L723.076,88 L720.772,84.616 L720.772,84.592 L722.872,81.964 L721.888,81.964 L720.076,84.268 L719.116,84.268 L719.116,79.564 L718.3,79.564 L718.3,88 Z M723.796,86.356 C723.796,87.556 724.84,88.144 725.848,88.144 C727.36,88.144 727.864,86.836 727.864,86.836 L727.888,86.836 C727.888,86.836 727.864,87.04 727.864,87.34 L727.864,88 L728.644,88 L728.644,84.136 C728.644,82.624 727.84,81.82 726.388,81.82 C725.032,81.82 724.24,82.504 724.24,82.504 L724.624,83.128 C724.624,83.128 725.332,82.552 726.328,82.552 C727.192,82.552 727.828,82.948 727.828,84.112 L727.828,84.268 L727.492,84.268 C726.448,84.268 723.796,84.316 723.796,86.356 L723.796,86.356 Z M724.636,86.308 C724.636,84.976 726.532,84.94 727.48,84.94 L727.828,84.94 L727.828,85.204 C727.828,86.248 727.132,87.448 725.98,87.448 C725.08,87.448 724.636,86.872 724.636,86.308 L724.636,86.308 Z M730.72,85.804 C730.72,87.82 732.124,88.048 732.82,88.048 C733.036,88.048 733.168,88.024 733.168,88.024 L733.168,87.292 C733.168,87.292 733.06,87.316 732.892,87.316 C732.436,87.316 731.536,87.136 731.536,85.72 L731.536,82.72 L733.048,82.72 L733.048,82.036 L731.536,82.036 L731.536,80.296 L730.732,80.296 L730.732,82.036 L729.928,82.036 L729.928,82.72 L730.72,82.72 L730.72,85.804 Z M734.74,85.804 C734.74,87.82 736.144,88.048 736.84,88.048 C737.056,88.048 737.188,88.024 737.188,88.024 L737.188,87.292 C737.188,87.292 737.08,87.316 736.912,87.316 C736.456,87.316 735.556,87.136 735.556,85.72 L735.556,82.72 L737.068,82.72 L737.068,82.036 L735.556,82.036 L735.556,80.296 L734.752,80.296 L734.752,82.036 L733.948,82.036 L733.948,82.72 L734.74,82.72 L734.74,85.804 Z" id="Halv-skatt-Copy" fill="#262626"></path>
            <g id="Rectangle-5-Copy-12">
                <use fill="black" fill-opacity="1" filter="url(#filter-2)" xlink:href="#path-1"></use>
                <use fill="#F5F5F5" fill-rule="evenodd" xlink:href="#path-1"></use>
            </g>
            <g id="Rectangle-5-Copy-13">
                <use fill="black" fill-opacity="1" filter="url(#filter-4)" xlink:href="#path-3"></use>
                <use fill="#F5F5F5" fill-rule="evenodd" xlink:href="#path-3"></use>
            </g>
            <g id="Rectangle-5-Copy-14">
                <use fill="black" fill-opacity="1" filter="url(#filter-6)" xlink:href="#path-5"></use>
                <use fill="#F5F5F5" fill-rule="evenodd" xlink:href="#path-5"></use>
            </g>
            <g id="Rectangle-5-Copy-15">
                <use fill="black" fill-opacity="1" filter="url(#filter-8)" xlink:href="#path-7"></use>
                <use fill="#F5F5F5" fill-rule="evenodd" xlink:href="#path-7"></use>
            </g>
            <path d="M15.434,52 L18.518,52 C20.09,52 21.458,51.232 21.458,49.528 C21.458,48.664 21.014,47.8 20.078,47.524 L20.078,47.5 C20.726,47.152 21.11,46.468 21.11,45.676 C21.11,44.272 20.018,43.48 18.482,43.48 L15.434,43.48 L15.434,52 Z M16.982,46.96 L16.982,44.812 L18.458,44.812 C19.178,44.812 19.538,45.256 19.538,45.868 C19.538,46.48 19.154,46.96 18.482,46.96 L16.982,46.96 Z M16.982,50.668 L16.982,48.208 L18.638,48.208 C19.418,48.208 19.874,48.724 19.874,49.432 C19.874,50.152 19.43,50.668 18.638,50.668 L16.982,50.668 Z M22.442,48.94 C22.442,50.824 23.942,52.144 25.814,52.144 C27.674,52.144 29.174,50.824 29.174,48.94 C29.174,47.068 27.674,45.736 25.802,45.736 C23.942,45.736 22.442,47.068 22.442,48.94 L22.442,48.94 Z M23.99,48.94 C23.99,47.812 24.818,47.032 25.814,47.032 C26.798,47.032 27.626,47.812 27.626,48.94 C27.626,50.08 26.798,50.848 25.814,50.848 C24.818,50.848 23.99,50.08 23.99,48.94 L23.99,48.94 Z M30.398,52 L31.922,52 L31.922,49.192 C31.922,48.904 31.946,48.628 32.03,48.376 C32.258,47.644 32.858,47.128 33.674,47.128 C34.454,47.128 34.646,47.632 34.646,48.376 L34.646,52 L36.158,52 L36.158,48.064 C36.158,46.444 35.39,45.736 34.034,45.736 C32.798,45.736 32.126,46.492 31.862,47.008 L31.838,47.008 C31.838,47.008 31.862,46.816 31.862,46.588 L31.862,45.88 L30.398,45.88 L30.398,52 Z M37.67,49.816 C37.67,51.484 38.486,52.144 39.794,52.144 C40.838,52.144 41.618,51.508 41.918,50.872 L41.942,50.872 C41.942,50.872 41.918,51.064 41.918,51.304 L41.918,52 L43.382,52 L43.382,45.88 L41.858,45.88 L41.858,48.688 C41.858,49.78 41.246,50.752 40.142,50.752 C39.386,50.752 39.194,50.248 39.194,49.504 L39.194,45.88 L37.67,45.88 L37.67,49.816 Z M44.546,51.244 C44.546,51.244 45.398,52.144 46.922,52.144 C48.374,52.144 49.262,51.328 49.262,50.308 C49.262,48.34 46.286,48.448 46.286,47.584 C46.286,47.2 46.67,47.032 47.066,47.032 C48.002,47.032 48.566,47.56 48.566,47.56 L49.13,46.432 C49.13,46.432 48.458,45.736 47.078,45.736 C45.758,45.736 44.738,46.396 44.738,47.536 C44.738,49.504 47.714,49.384 47.714,50.296 C47.714,50.656 47.342,50.848 46.91,50.848 C45.914,50.848 45.242,50.176 45.242,50.176 L44.546,51.244 Z" id="Bonus" fill="#262626"></path>
            <path d="M22.598,181.636 C22.598,183.448 23.81,184.144 24.962,184.144 C26.126,184.144 27.338,183.46 27.338,181.636 L27.338,175.564 L24.446,175.564 L24.446,176.308 L26.51,176.308 L26.51,181.636 C26.51,182.944 25.718,183.376 24.974,183.376 C24.206,183.376 23.426,182.908 23.426,181.612 L23.426,181.3 L22.598,181.3 L22.598,181.636 Z M28.958,182.356 C28.958,183.556 30.002,184.144 31.01,184.144 C32.522,184.144 33.026,182.836 33.026,182.836 L33.05,182.836 C33.05,182.836 33.026,183.04 33.026,183.34 L33.026,184 L33.806,184 L33.806,180.136 C33.806,178.624 33.002,177.82 31.55,177.82 C30.194,177.82 29.402,178.504 29.402,178.504 L29.786,179.128 C29.786,179.128 30.494,178.552 31.49,178.552 C32.354,178.552 32.99,178.948 32.99,180.112 L32.99,180.268 L32.654,180.268 C31.61,180.268 28.958,180.316 28.958,182.356 L28.958,182.356 Z M29.798,182.308 C29.798,180.976 31.694,180.94 32.642,180.94 L32.99,180.94 L32.99,181.204 C32.99,182.248 32.294,183.448 31.142,183.448 C30.242,183.448 29.798,182.872 29.798,182.308 L29.798,182.308 Z M35.69,184 L36.506,184 L36.506,181.108 C36.506,180.82 36.53,180.544 36.602,180.292 C36.878,179.296 37.766,178.588 38.798,178.588 C39.962,178.588 40.106,179.428 40.106,180.376 L40.106,184 L40.922,184 L40.922,180.16 C40.922,178.672 40.394,177.82 38.906,177.82 C37.478,177.82 36.71,178.792 36.494,179.344 L36.47,179.344 C36.47,179.344 36.494,179.128 36.494,178.864 L36.494,177.964 L35.69,177.964 L35.69,184 Z" id="Jan" fill="#262626"></path>
            <path d="M279.324,184 L280.152,184 L280.62,178.096 C280.656,177.64 280.644,176.896 280.644,176.896 L280.668,176.896 C280.668,176.896 280.932,177.676 281.124,178.096 L283.104,182.428 L283.884,182.428 L285.864,178.096 C286.056,177.664 286.308,176.92 286.308,176.92 L286.332,176.92 C286.332,176.92 286.32,177.64 286.356,178.096 L286.824,184 L287.652,184 L286.98,175.564 L286.128,175.564 L283.92,180.52 C283.728,180.952 283.5,181.552 283.5,181.552 L283.476,181.552 C283.476,181.552 283.26,180.952 283.068,180.52 L280.86,175.564 L279.996,175.564 L279.324,184 Z M289.104,182.356 C289.104,183.556 290.148,184.144 291.156,184.144 C292.668,184.144 293.172,182.836 293.172,182.836 L293.196,182.836 C293.196,182.836 293.172,183.04 293.172,183.34 L293.172,184 L293.952,184 L293.952,180.136 C293.952,178.624 293.148,177.82 291.696,177.82 C290.34,177.82 289.548,178.504 289.548,178.504 L289.932,179.128 C289.932,179.128 290.64,178.552 291.636,178.552 C292.5,178.552 293.136,178.948 293.136,180.112 L293.136,180.268 L292.8,180.268 C291.756,180.268 289.104,180.316 289.104,182.356 L289.104,182.356 Z M289.944,182.308 C289.944,180.976 291.84,180.94 292.788,180.94 L293.136,180.94 L293.136,181.204 C293.136,182.248 292.44,183.448 291.288,183.448 C290.388,183.448 289.944,182.872 289.944,182.308 L289.944,182.308 Z M295.812,176.584 L296.664,176.584 L296.664,175.564 L295.812,175.564 L295.812,176.584 Z M295.836,184 L296.652,184 L296.652,177.964 L295.836,177.964 L295.836,184 Z" id="Mai" fill="#262626"></path>
            <path d="M534.52,183.064 C534.52,183.064 535.468,184.144 537.196,184.144 C538.78,184.144 539.752,183.124 539.752,181.864 C539.752,179.092 535.54,179.668 535.54,177.664 C535.54,176.92 536.236,176.212 537.316,176.212 C538.42,176.212 539.164,176.932 539.164,176.932 L539.572,176.236 C539.572,176.236 538.78,175.42 537.316,175.42 C535.756,175.42 534.688,176.476 534.688,177.688 C534.688,180.304 538.9,179.764 538.9,181.888 C538.9,182.8 538.144,183.352 537.22,183.352 C535.888,183.352 535.012,182.428 535.012,182.428 L534.52,183.064 Z M540.94,180.988 C540.94,182.848 542.296,184.144 544.096,184.144 C545.452,184.144 546.328,183.304 546.328,183.304 L545.956,182.68 C545.956,182.68 545.224,183.412 544.12,183.412 C542.872,183.412 541.816,182.572 541.78,181.024 L546.412,181.024 C546.412,181.024 546.436,180.748 546.436,180.604 C546.436,179.104 545.584,177.82 543.916,177.82 C542.284,177.82 540.94,179.008 540.94,180.988 L540.94,180.988 Z M541.816,180.352 C542.008,179.14 542.884,178.504 543.892,178.504 C544.792,178.504 545.56,179.092 545.608,180.352 L541.816,180.352 Z M547.996,186.4 L548.812,186.4 L548.812,183.52 C548.812,183.208 548.788,182.992 548.788,182.992 L548.812,182.992 C548.812,182.992 549.34,184.144 550.792,184.144 C552.352,184.144 553.492,182.896 553.492,180.988 C553.492,179.116 552.484,177.82 550.864,177.82 C549.268,177.82 548.776,179.02 548.776,179.02 L548.752,179.02 C548.752,179.02 548.776,178.816 548.776,178.552 L548.776,177.964 L547.996,177.964 L547.996,186.4 Z M548.788,181 C548.788,179.284 549.736,178.564 550.744,178.564 C551.872,178.564 552.652,179.512 552.652,180.988 C552.652,182.524 551.776,183.424 550.708,183.424 C549.46,183.424 548.788,182.212 548.788,181 L548.788,181 Z" id="Sep" fill="#262626"></path>
            <path d="M150.58,184 L151.408,184 L151.876,178.096 C151.912,177.64 151.9,176.896 151.9,176.896 L151.924,176.896 C151.924,176.896 152.188,177.676 152.38,178.096 L154.36,182.428 L155.14,182.428 L157.12,178.096 C157.312,177.664 157.564,176.92 157.564,176.92 L157.588,176.92 C157.588,176.92 157.576,177.64 157.612,178.096 L158.08,184 L158.908,184 L158.236,175.564 L157.384,175.564 L155.176,180.52 C154.984,180.952 154.756,181.552 154.756,181.552 L154.732,181.552 C154.732,181.552 154.516,180.952 154.324,180.52 L152.116,175.564 L151.252,175.564 L150.58,184 Z M160.36,182.356 C160.36,183.556 161.404,184.144 162.412,184.144 C163.924,184.144 164.428,182.836 164.428,182.836 L164.452,182.836 C164.452,182.836 164.428,183.04 164.428,183.34 L164.428,184 L165.208,184 L165.208,180.136 C165.208,178.624 164.404,177.82 162.952,177.82 C161.596,177.82 160.804,178.504 160.804,178.504 L161.188,179.128 C161.188,179.128 161.896,178.552 162.892,178.552 C163.756,178.552 164.392,178.948 164.392,180.112 L164.392,180.268 L164.056,180.268 C163.012,180.268 160.36,180.316 160.36,182.356 L160.36,182.356 Z M161.2,182.308 C161.2,180.976 163.096,180.94 164.044,180.94 L164.392,180.94 L164.392,181.204 C164.392,182.248 163.696,183.448 162.544,183.448 C161.644,183.448 161.2,182.872 161.2,182.308 L161.2,182.308 Z M167.092,184 L167.908,184 L167.908,181.456 C167.908,181.072 167.956,180.664 168.076,180.28 C168.34,179.392 168.976,178.72 169.828,178.72 C169.984,178.72 170.128,178.744 170.128,178.744 L170.128,177.94 C170.128,177.94 169.972,177.904 169.804,177.904 C168.856,177.904 168.184,178.6 167.896,179.512 L167.872,179.512 C167.872,179.512 167.896,179.296 167.896,179.032 L167.896,177.964 L167.092,177.964 L167.092,184 Z" id="Mar" fill="#262626"></path>
            <path d="M408.266,181.636 C408.266,183.448 409.478,184.144 410.63,184.144 C411.794,184.144 413.006,183.46 413.006,181.636 L413.006,175.564 L410.114,175.564 L410.114,176.308 L412.178,176.308 L412.178,181.636 C412.178,182.944 411.386,183.376 410.642,183.376 C409.874,183.376 409.094,182.908 409.094,181.612 L409.094,181.3 L408.266,181.3 L408.266,181.636 Z M415.034,181.804 C415.034,183.376 415.634,184.144 417.05,184.144 C418.382,184.144 419.174,183.208 419.414,182.62 L419.438,182.62 C419.438,182.62 419.414,182.836 419.414,183.1 L419.414,184 L420.206,184 L420.206,177.964 L419.39,177.964 L419.39,180.856 C419.39,182.164 418.538,183.376 417.158,183.376 C415.994,183.376 415.85,182.536 415.85,181.588 L415.85,177.964 L415.034,177.964 L415.034,181.804 Z M422.114,182.572 C422.114,183.892 423.002,184.048 423.506,184.048 C423.662,184.048 423.806,184.024 423.806,184.024 L423.806,183.292 C423.806,183.292 423.71,183.304 423.602,183.304 C423.29,183.304 422.93,183.184 422.93,182.392 L422.93,175.564 L422.114,175.564 L422.114,182.572 Z" id="Jul" fill="#262626"></path>
            <path d="M662.064,184 L662.892,184 L662.892,177.928 C662.892,177.484 662.82,176.788 662.82,176.788 L662.844,176.788 C662.844,176.788 663.252,177.508 663.54,177.928 L667.848,184 L668.652,184 L668.652,175.564 L667.824,175.564 L667.824,181.636 C667.824,182.08 667.896,182.776 667.896,182.776 L667.872,182.776 C667.872,182.776 667.464,182.056 667.176,181.636 L662.868,175.564 L662.064,175.564 L662.064,184 Z M670.416,180.952 C670.416,182.776 671.844,184.144 673.608,184.144 C675.372,184.144 676.8,182.776 676.8,180.952 C676.8,179.164 675.372,177.82 673.608,177.82 C671.844,177.82 670.416,179.164 670.416,180.952 L670.416,180.952 Z M671.256,180.952 C671.256,179.584 672.312,178.564 673.608,178.564 C674.904,178.564 675.96,179.584 675.96,180.952 C675.96,182.356 674.904,183.412 673.608,183.412 C672.312,183.412 671.256,182.356 671.256,180.952 L671.256,180.952 Z M679.812,184 L680.7,184 L683.004,177.964 L682.152,177.964 L680.484,182.392 C680.364,182.704 680.268,183.112 680.268,183.112 L680.244,183.112 C680.244,183.112 680.148,182.692 680.04,182.392 L678.36,177.964 L677.496,177.964 L679.812,184 Z" id="Nov" fill="#262626"></path>
            <path d="M87.288,184 L88.116,184 L88.116,180.22 L91.212,180.22 L91.212,179.476 L88.116,179.476 L88.116,176.308 L91.728,176.308 L91.728,175.564 L87.288,175.564 L87.288,184 Z M92.796,180.988 C92.796,182.848 94.152,184.144 95.952,184.144 C97.308,184.144 98.184,183.304 98.184,183.304 L97.812,182.68 C97.812,182.68 97.08,183.412 95.976,183.412 C94.728,183.412 93.672,182.572 93.636,181.024 L98.268,181.024 C98.268,181.024 98.292,180.748 98.292,180.604 C98.292,179.104 97.44,177.82 95.772,177.82 C94.14,177.82 92.796,179.008 92.796,180.988 L92.796,180.988 Z M93.672,180.352 C93.864,179.14 94.74,178.504 95.748,178.504 C96.648,178.504 97.416,179.092 97.464,180.352 L93.672,180.352 Z M99.852,184 L100.644,184 L100.644,183.46 C100.644,183.172 100.62,182.968 100.62,182.968 L100.644,182.968 C100.644,182.968 101.184,184.144 102.624,184.144 C104.208,184.144 105.348,182.896 105.348,180.988 C105.348,179.116 104.34,177.82 102.72,177.82 C101.172,177.82 100.668,178.984 100.668,178.984 L100.644,178.984 C100.644,178.984 100.668,178.768 100.668,178.492 L100.668,175.564 L99.852,175.564 L99.852,184 Z M100.644,181 C100.644,179.284 101.592,178.564 102.6,178.564 C103.728,178.564 104.508,179.512 104.508,180.988 C104.508,182.524 103.632,183.424 102.564,183.424 C101.268,183.424 100.644,182.212 100.644,181 L100.644,181 Z" id="Feb" fill="#262626"></path>
            <path d="M342.19,181.636 C342.19,183.448 343.402,184.144 344.554,184.144 C345.718,184.144 346.93,183.46 346.93,181.636 L346.93,175.564 L344.038,175.564 L344.038,176.308 L346.102,176.308 L346.102,181.636 C346.102,182.944 345.31,183.376 344.566,183.376 C343.798,183.376 343.018,182.908 343.018,181.612 L343.018,181.3 L342.19,181.3 L342.19,181.636 Z M348.958,181.804 C348.958,183.376 349.558,184.144 350.974,184.144 C352.306,184.144 353.098,183.208 353.338,182.62 L353.362,182.62 C353.362,182.62 353.338,182.836 353.338,183.1 L353.338,184 L354.13,184 L354.13,177.964 L353.314,177.964 L353.314,180.856 C353.314,182.164 352.462,183.376 351.082,183.376 C349.918,183.376 349.774,182.536 349.774,181.588 L349.774,177.964 L348.958,177.964 L348.958,181.804 Z M356.098,184 L356.914,184 L356.914,181.108 C356.914,180.82 356.938,180.544 357.01,180.292 C357.286,179.296 358.174,178.588 359.206,178.588 C360.37,178.588 360.514,179.428 360.514,180.376 L360.514,184 L361.33,184 L361.33,180.16 C361.33,178.672 360.802,177.82 359.314,177.82 C357.886,177.82 357.118,178.792 356.902,179.344 L356.878,179.344 C356.878,179.344 356.902,179.128 356.902,178.864 L356.902,177.964 L356.098,177.964 L356.098,184 Z" id="Jun" fill="#262626"></path>
            <path d="M598.682,179.728 C598.682,182.2 600.59,184.144 602.978,184.144 C605.366,184.144 607.274,182.2 607.274,179.728 C607.274,177.304 605.366,175.42 602.978,175.42 C600.59,175.42 598.682,177.304 598.682,179.728 L598.682,179.728 Z M599.546,179.728 C599.546,177.712 601.07,176.188 602.978,176.188 C604.874,176.188 606.41,177.712 606.41,179.728 C606.41,181.792 604.874,183.376 602.978,183.376 C601.07,183.376 599.546,181.792 599.546,179.728 L599.546,179.728 Z M608.906,184 L609.722,184 L609.722,180.976 L610.694,180.976 L612.71,184 L613.682,184 L611.378,180.616 L611.378,180.592 L613.478,177.964 L612.494,177.964 L610.682,180.268 L609.722,180.268 L609.722,175.564 L608.906,175.564 L608.906,184 Z M615.158,181.804 C615.158,183.82 616.562,184.048 617.258,184.048 C617.474,184.048 617.606,184.024 617.606,184.024 L617.606,183.292 C617.606,183.292 617.498,183.316 617.33,183.316 C616.874,183.316 615.974,183.136 615.974,181.72 L615.974,178.72 L617.486,178.72 L617.486,178.036 L615.974,178.036 L615.974,176.296 L615.17,176.296 L615.17,178.036 L614.366,178.036 L614.366,178.72 L615.158,178.72 L615.158,181.804 Z" id="Okt" fill="#262626"></path>
            <path d="M220.994,184 L221.87,184 L218.774,175.564 L217.886,175.564 L214.79,184 L215.666,184 L216.626,181.312 L220.022,181.312 L220.994,184 Z M218.342,176.44 C218.342,176.44 218.522,177.136 218.666,177.532 L219.77,180.592 L216.866,180.592 L217.994,177.532 C218.138,177.136 218.318,176.44 218.318,176.44 L218.342,176.44 Z M223.01,186.4 L223.826,186.4 L223.826,183.52 C223.826,183.208 223.802,182.992 223.802,182.992 L223.826,182.992 C223.826,182.992 224.354,184.144 225.806,184.144 C227.366,184.144 228.506,182.896 228.506,180.988 C228.506,179.116 227.498,177.82 225.878,177.82 C224.282,177.82 223.79,179.02 223.79,179.02 L223.766,179.02 C223.766,179.02 223.79,178.816 223.79,178.552 L223.79,177.964 L223.01,177.964 L223.01,186.4 Z M223.802,181 C223.802,179.284 224.75,178.564 225.758,178.564 C226.886,178.564 227.666,179.512 227.666,180.988 C227.666,182.524 226.79,183.424 225.722,183.424 C224.474,183.424 223.802,182.212 223.802,181 L223.802,181 Z M230.078,184 L230.894,184 L230.894,181.456 C230.894,181.072 230.942,180.664 231.062,180.28 C231.326,179.392 231.962,178.72 232.814,178.72 C232.97,178.72 233.114,178.744 233.114,178.744 L233.114,177.94 C233.114,177.94 232.958,177.904 232.79,177.904 C231.842,177.904 231.17,178.6 230.882,179.512 L230.858,179.512 C230.858,179.512 230.882,179.296 230.882,179.032 L230.882,177.964 L230.078,177.964 L230.078,184 Z" id="Apr" fill="#262626"></path>
            <path d="M475.644,184 L476.52,184 L473.424,175.564 L472.536,175.564 L469.44,184 L470.316,184 L471.276,181.312 L474.672,181.312 L475.644,184 Z M472.992,176.44 C472.992,176.44 473.172,177.136 473.316,177.532 L474.42,180.592 L471.516,180.592 L472.644,177.532 C472.788,177.136 472.968,176.44 472.968,176.44 L472.992,176.44 Z M477.576,181.804 C477.576,183.376 478.176,184.144 479.592,184.144 C480.924,184.144 481.716,183.208 481.956,182.62 L481.98,182.62 C481.98,182.62 481.956,182.836 481.956,183.1 L481.956,184 L482.748,184 L482.748,177.964 L481.932,177.964 L481.932,180.856 C481.932,182.164 481.08,183.376 479.7,183.376 C478.536,183.376 478.392,182.536 478.392,181.588 L478.392,177.964 L477.576,177.964 L477.576,181.804 Z M485.172,185.368 L484.86,186.04 C485.448,186.34 486.144,186.52 486.84,186.52 C488.316,186.52 489.732,185.776 489.732,183.856 L489.732,177.964 L488.94,177.964 L488.94,178.624 C488.94,178.756 488.952,178.828 488.952,178.828 L488.928,178.828 C488.928,178.828 488.532,177.82 486.936,177.82 C485.316,177.82 484.32,179.056 484.32,180.868 C484.32,182.68 485.388,183.964 487.008,183.964 C487.944,183.964 488.556,183.58 488.916,182.908 L488.94,182.908 C488.94,182.908 488.916,183.112 488.916,183.34 L488.916,183.892 C488.916,185.236 487.98,185.788 486.804,185.788 C485.916,185.788 485.172,185.368 485.172,185.368 L485.172,185.368 Z M487.14,183.232 C485.94,183.232 485.16,182.296 485.16,180.856 C485.16,179.416 485.844,178.564 487.02,178.564 C488.088,178.564 488.928,179.104 488.928,180.868 C488.928,182.644 488.088,183.232 487.14,183.232 L487.14,183.232 Z" id="Aug" fill="#262626"></path>
            <path d="M726.808,184 L729.532,184 C732.064,184 733.768,182.464 733.768,179.776 C733.768,177.112 732.064,175.564 729.532,175.564 L726.808,175.564 L726.808,184 Z M727.636,183.256 L727.636,176.308 L729.448,176.308 C731.512,176.308 732.904,177.532 732.904,179.776 C732.904,182.032 731.524,183.256 729.448,183.256 L727.636,183.256 Z M735.028,180.988 C735.028,182.848 736.384,184.144 738.184,184.144 C739.54,184.144 740.416,183.304 740.416,183.304 L740.044,182.68 C740.044,182.68 739.312,183.412 738.208,183.412 C736.96,183.412 735.904,182.572 735.868,181.024 L740.5,181.024 C740.5,181.024 740.524,180.748 740.524,180.604 C740.524,179.104 739.672,177.82 738.004,177.82 C736.372,177.82 735.028,179.008 735.028,180.988 L735.028,180.988 Z M735.904,180.352 C736.096,179.14 736.972,178.504 737.98,178.504 C738.88,178.504 739.648,179.092 739.696,180.352 L735.904,180.352 Z M741.592,183.268 C741.592,183.268 742.36,184.144 743.824,184.144 C745.036,184.144 745.888,183.436 745.888,182.452 C745.888,180.46 742.636,180.82 742.636,179.488 C742.636,178.816 743.224,178.552 743.836,178.552 C744.832,178.552 745.348,179.104 745.348,179.104 L745.72,178.48 C745.72,178.48 745.132,177.82 743.86,177.82 C742.768,177.82 741.796,178.408 741.796,179.488 C741.796,181.456 745.048,181.132 745.048,182.452 C745.048,183.088 744.484,183.412 743.836,183.412 C742.708,183.412 742.036,182.68 742.036,182.68 L741.592,183.268 Z" id="Des" fill="#262626"></path>
            <path d="M207.434,52 L210.518,52 C212.09,52 213.458,51.232 213.458,49.528 C213.458,48.664 213.014,47.8 212.078,47.524 L212.078,47.5 C212.726,47.152 213.11,46.468 213.11,45.676 C213.11,44.272 212.018,43.48 210.482,43.48 L207.434,43.48 L207.434,52 Z M208.982,46.96 L208.982,44.812 L210.458,44.812 C211.178,44.812 211.538,45.256 211.538,45.868 C211.538,46.48 211.154,46.96 210.482,46.96 L208.982,46.96 Z M208.982,50.668 L208.982,48.208 L210.638,48.208 C211.418,48.208 211.874,48.724 211.874,49.432 C211.874,50.152 211.43,50.668 210.638,50.668 L208.982,50.668 Z M214.442,48.94 C214.442,50.824 215.942,52.144 217.814,52.144 C219.674,52.144 221.174,50.824 221.174,48.94 C221.174,47.068 219.674,45.736 217.802,45.736 C215.942,45.736 214.442,47.068 214.442,48.94 L214.442,48.94 Z M215.99,48.94 C215.99,47.812 216.818,47.032 217.814,47.032 C218.798,47.032 219.626,47.812 219.626,48.94 C219.626,50.08 218.798,50.848 217.814,50.848 C216.818,50.848 215.99,50.08 215.99,48.94 L215.99,48.94 Z M222.398,52 L223.922,52 L223.922,49.192 C223.922,48.904 223.946,48.628 224.03,48.376 C224.258,47.644 224.858,47.128 225.674,47.128 C226.454,47.128 226.646,47.632 226.646,48.376 L226.646,52 L228.158,52 L228.158,48.064 C228.158,46.444 227.39,45.736 226.034,45.736 C224.798,45.736 224.126,46.492 223.862,47.008 L223.838,47.008 C223.838,47.008 223.862,46.816 223.862,46.588 L223.862,45.88 L222.398,45.88 L222.398,52 Z M229.67,49.816 C229.67,51.484 230.486,52.144 231.794,52.144 C232.838,52.144 233.618,51.508 233.918,50.872 L233.942,50.872 C233.942,50.872 233.918,51.064 233.918,51.304 L233.918,52 L235.382,52 L235.382,45.88 L233.858,45.88 L233.858,48.688 C233.858,49.78 233.246,50.752 232.142,50.752 C231.386,50.752 231.194,50.248 231.194,49.504 L231.194,45.88 L229.67,45.88 L229.67,49.816 Z M236.546,51.244 C236.546,51.244 237.398,52.144 238.922,52.144 C240.374,52.144 241.262,51.328 241.262,50.308 C241.262,48.34 238.286,48.448 238.286,47.584 C238.286,47.2 238.67,47.032 239.066,47.032 C240.002,47.032 240.566,47.56 240.566,47.56 L241.13,46.432 C241.13,46.432 240.458,45.736 239.078,45.736 C237.758,45.736 236.738,46.396 236.738,47.536 C236.738,49.504 239.714,49.384 239.714,50.296 C239.714,50.656 239.342,50.848 238.91,50.848 C237.914,50.848 237.242,50.176 237.242,50.176 L236.546,51.244 Z" id="Bonus-Copy" fill="#262626"></path>
            <path d="M399.434,52 L402.518,52 C404.09,52 405.458,51.232 405.458,49.528 C405.458,48.664 405.014,47.8 404.078,47.524 L404.078,47.5 C404.726,47.152 405.11,46.468 405.11,45.676 C405.11,44.272 404.018,43.48 402.482,43.48 L399.434,43.48 L399.434,52 Z M400.982,46.96 L400.982,44.812 L402.458,44.812 C403.178,44.812 403.538,45.256 403.538,45.868 C403.538,46.48 403.154,46.96 402.482,46.96 L400.982,46.96 Z M400.982,50.668 L400.982,48.208 L402.638,48.208 C403.418,48.208 403.874,48.724 403.874,49.432 C403.874,50.152 403.43,50.668 402.638,50.668 L400.982,50.668 Z M406.442,48.94 C406.442,50.824 407.942,52.144 409.814,52.144 C411.674,52.144 413.174,50.824 413.174,48.94 C413.174,47.068 411.674,45.736 409.802,45.736 C407.942,45.736 406.442,47.068 406.442,48.94 L406.442,48.94 Z M407.99,48.94 C407.99,47.812 408.818,47.032 409.814,47.032 C410.798,47.032 411.626,47.812 411.626,48.94 C411.626,50.08 410.798,50.848 409.814,50.848 C408.818,50.848 407.99,50.08 407.99,48.94 L407.99,48.94 Z M414.398,52 L415.922,52 L415.922,49.192 C415.922,48.904 415.946,48.628 416.03,48.376 C416.258,47.644 416.858,47.128 417.674,47.128 C418.454,47.128 418.646,47.632 418.646,48.376 L418.646,52 L420.158,52 L420.158,48.064 C420.158,46.444 419.39,45.736 418.034,45.736 C416.798,45.736 416.126,46.492 415.862,47.008 L415.838,47.008 C415.838,47.008 415.862,46.816 415.862,46.588 L415.862,45.88 L414.398,45.88 L414.398,52 Z M421.67,49.816 C421.67,51.484 422.486,52.144 423.794,52.144 C424.838,52.144 425.618,51.508 425.918,50.872 L425.942,50.872 C425.942,50.872 425.918,51.064 425.918,51.304 L425.918,52 L427.382,52 L427.382,45.88 L425.858,45.88 L425.858,48.688 C425.858,49.78 425.246,50.752 424.142,50.752 C423.386,50.752 423.194,50.248 423.194,49.504 L423.194,45.88 L421.67,45.88 L421.67,49.816 Z M428.546,51.244 C428.546,51.244 429.398,52.144 430.922,52.144 C432.374,52.144 433.262,51.328 433.262,50.308 C433.262,48.34 430.286,48.448 430.286,47.584 C430.286,47.2 430.67,47.032 431.066,47.032 C432.002,47.032 432.566,47.56 432.566,47.56 L433.13,46.432 C433.13,46.432 432.458,45.736 431.078,45.736 C429.758,45.736 428.738,46.396 428.738,47.536 C428.738,49.504 431.714,49.384 431.714,50.296 C431.714,50.656 431.342,50.848 430.91,50.848 C429.914,50.848 429.242,50.176 429.242,50.176 L428.546,51.244 Z" id="Bonus-Copy-2" fill="#262626"></path>
            <path d="M329.224,44 L330.052,44 L330.052,40.22 L333.148,40.22 L333.148,39.476 L330.052,39.476 L330.052,36.308 L333.664,36.308 L333.664,35.564 L329.224,35.564 L329.224,44 Z M334.732,40.988 C334.732,42.848 336.088,44.144 337.888,44.144 C339.244,44.144 340.12,43.304 340.12,43.304 L339.748,42.68 C339.748,42.68 339.016,43.412 337.912,43.412 C336.664,43.412 335.608,42.572 335.572,41.024 L340.204,41.024 C340.204,41.024 340.228,40.748 340.228,40.604 C340.228,39.104 339.376,37.82 337.708,37.82 C336.076,37.82 334.732,39.008 334.732,40.988 L334.732,40.988 Z M335.608,40.352 C335.8,39.14 336.676,38.504 337.684,38.504 C338.584,38.504 339.352,39.092 339.4,40.352 L335.608,40.352 Z M341.788,44 L342.604,44 L342.604,41.456 C342.604,41.072 342.652,40.664 342.772,40.28 C343.036,39.392 343.672,38.72 344.524,38.72 C344.68,38.72 344.824,38.744 344.824,38.744 L344.824,37.94 C344.824,37.94 344.668,37.904 344.5,37.904 C343.552,37.904 342.88,38.6 342.592,39.512 L342.568,39.512 C342.568,39.512 342.592,39.296 342.592,39.032 L342.592,37.964 L341.788,37.964 L341.788,44 Z M346.036,36.584 L346.888,36.584 L346.888,35.564 L346.036,35.564 L346.036,36.584 Z M346.06,44 L346.876,44 L346.876,37.964 L346.06,37.964 L346.06,44 Z M348.424,40.988 C348.424,42.848 349.78,44.144 351.58,44.144 C352.936,44.144 353.812,43.304 353.812,43.304 L353.44,42.68 C353.44,42.68 352.708,43.412 351.604,43.412 C350.356,43.412 349.3,42.572 349.264,41.024 L353.896,41.024 C353.896,41.024 353.92,40.748 353.92,40.604 C353.92,39.104 353.068,37.82 351.4,37.82 C349.768,37.82 348.424,39.008 348.424,40.988 L348.424,40.988 Z M349.3,40.352 C349.492,39.14 350.368,38.504 351.376,38.504 C352.276,38.504 353.044,39.092 353.092,40.352 L349.3,40.352 Z M355.744,40.964 L359.152,40.964 L359.152,40.22 L355.744,40.22 L355.744,40.964 Z M328.984,58.4 L329.8,58.4 L329.8,55.52 C329.8,55.208 329.776,54.992 329.776,54.992 L329.8,54.992 C329.8,54.992 330.328,56.144 331.78,56.144 C333.34,56.144 334.48,54.896 334.48,52.988 C334.48,51.116 333.472,49.82 331.852,49.82 C330.256,49.82 329.764,51.02 329.764,51.02 L329.74,51.02 C329.74,51.02 329.764,50.816 329.764,50.552 L329.764,49.964 L328.984,49.964 L328.984,58.4 Z M329.776,53 C329.776,51.284 330.724,50.564 331.732,50.564 C332.86,50.564 333.64,51.512 333.64,52.988 C333.64,54.524 332.764,55.424 331.696,55.424 C330.448,55.424 329.776,54.212 329.776,53 L329.776,53 Z M335.632,52.988 C335.632,54.848 336.988,56.144 338.788,56.144 C340.144,56.144 341.02,55.304 341.02,55.304 L340.648,54.68 C340.648,54.68 339.916,55.412 338.812,55.412 C337.564,55.412 336.508,54.572 336.472,53.024 L341.104,53.024 C341.104,53.024 341.128,52.748 341.128,52.604 C341.128,51.104 340.276,49.82 338.608,49.82 C336.976,49.82 335.632,51.008 335.632,52.988 L335.632,52.988 Z M336.508,52.352 C336.7,51.14 337.576,50.504 338.584,50.504 C339.484,50.504 340.252,51.092 340.3,52.352 L336.508,52.352 Z M342.688,56 L343.504,56 L343.504,53.108 C343.504,52.82 343.528,52.544 343.6,52.292 C343.876,51.296 344.764,50.588 345.796,50.588 C346.96,50.588 347.104,51.428 347.104,52.376 L347.104,56 L347.92,56 L347.92,52.16 C347.92,50.672 347.392,49.82 345.904,49.82 C344.476,49.82 343.708,50.792 343.492,51.344 L343.468,51.344 C343.468,51.344 343.492,51.128 343.492,50.864 L343.492,49.964 L342.688,49.964 L342.688,56 Z M350.26,57.368 L349.948,58.04 C350.536,58.34 351.232,58.52 351.928,58.52 C353.404,58.52 354.82,57.776 354.82,55.856 L354.82,49.964 L354.028,49.964 L354.028,50.624 C354.028,50.756 354.04,50.828 354.04,50.828 L354.016,50.828 C354.016,50.828 353.62,49.82 352.024,49.82 C350.404,49.82 349.408,51.056 349.408,52.868 C349.408,54.68 350.476,55.964 352.096,55.964 C353.032,55.964 353.644,55.58 354.004,54.908 L354.028,54.908 C354.028,54.908 354.004,55.112 354.004,55.34 L354.004,55.892 C354.004,57.236 353.068,57.788 351.892,57.788 C351.004,57.788 350.26,57.368 350.26,57.368 L350.26,57.368 Z M352.228,55.232 C351.028,55.232 350.248,54.296 350.248,52.856 C350.248,51.416 350.932,50.564 352.108,50.564 C353.176,50.564 354.016,51.104 354.016,52.868 C354.016,54.644 353.176,55.232 352.228,55.232 L352.228,55.232 Z M356.368,52.988 C356.368,54.848 357.724,56.144 359.524,56.144 C360.88,56.144 361.756,55.304 361.756,55.304 L361.384,54.68 C361.384,54.68 360.652,55.412 359.548,55.412 C358.3,55.412 357.244,54.572 357.208,53.024 L361.84,53.024 C361.84,53.024 361.864,52.748 361.864,52.604 C361.864,51.104 361.012,49.82 359.344,49.82 C357.712,49.82 356.368,51.008 356.368,52.988 L356.368,52.988 Z M357.244,52.352 C357.436,51.14 358.312,50.504 359.32,50.504 C360.22,50.504 360.988,51.092 361.036,52.352 L357.244,52.352 Z M363.424,56 L364.24,56 L364.24,53.456 C364.24,53.072 364.288,52.664 364.408,52.28 C364.672,51.392 365.308,50.72 366.16,50.72 C366.316,50.72 366.46,50.744 366.46,50.744 L366.46,49.94 C366.46,49.94 366.304,49.904 366.136,49.904 C365.188,49.904 364.516,50.6 364.228,51.512 L364.204,51.512 C364.204,51.512 364.228,51.296 364.228,51.032 L364.228,49.964 L363.424,49.964 L363.424,56 Z" id="Ferie-penger-Copy-2" fill="#262626"></path>
            <path d="M591.434,52 L594.518,52 C596.09,52 597.458,51.232 597.458,49.528 C597.458,48.664 597.014,47.8 596.078,47.524 L596.078,47.5 C596.726,47.152 597.11,46.468 597.11,45.676 C597.11,44.272 596.018,43.48 594.482,43.48 L591.434,43.48 L591.434,52 Z M592.982,46.96 L592.982,44.812 L594.458,44.812 C595.178,44.812 595.538,45.256 595.538,45.868 C595.538,46.48 595.154,46.96 594.482,46.96 L592.982,46.96 Z M592.982,50.668 L592.982,48.208 L594.638,48.208 C595.418,48.208 595.874,48.724 595.874,49.432 C595.874,50.152 595.43,50.668 594.638,50.668 L592.982,50.668 Z M598.442,48.94 C598.442,50.824 599.942,52.144 601.814,52.144 C603.674,52.144 605.174,50.824 605.174,48.94 C605.174,47.068 603.674,45.736 601.802,45.736 C599.942,45.736 598.442,47.068 598.442,48.94 L598.442,48.94 Z M599.99,48.94 C599.99,47.812 600.818,47.032 601.814,47.032 C602.798,47.032 603.626,47.812 603.626,48.94 C603.626,50.08 602.798,50.848 601.814,50.848 C600.818,50.848 599.99,50.08 599.99,48.94 L599.99,48.94 Z M606.398,52 L607.922,52 L607.922,49.192 C607.922,48.904 607.946,48.628 608.03,48.376 C608.258,47.644 608.858,47.128 609.674,47.128 C610.454,47.128 610.646,47.632 610.646,48.376 L610.646,52 L612.158,52 L612.158,48.064 C612.158,46.444 611.39,45.736 610.034,45.736 C608.798,45.736 608.126,46.492 607.862,47.008 L607.838,47.008 C607.838,47.008 607.862,46.816 607.862,46.588 L607.862,45.88 L606.398,45.88 L606.398,52 Z M613.67,49.816 C613.67,51.484 614.486,52.144 615.794,52.144 C616.838,52.144 617.618,51.508 617.918,50.872 L617.942,50.872 C617.942,50.872 617.918,51.064 617.918,51.304 L617.918,52 L619.382,52 L619.382,45.88 L617.858,45.88 L617.858,48.688 C617.858,49.78 617.246,50.752 616.142,50.752 C615.386,50.752 615.194,50.248 615.194,49.504 L615.194,45.88 L613.67,45.88 L613.67,49.816 Z M620.546,51.244 C620.546,51.244 621.398,52.144 622.922,52.144 C624.374,52.144 625.262,51.328 625.262,50.308 C625.262,48.34 622.286,48.448 622.286,47.584 C622.286,47.2 622.67,47.032 623.066,47.032 C624.002,47.032 624.566,47.56 624.566,47.56 L625.13,46.432 C625.13,46.432 624.458,45.736 623.078,45.736 C621.758,45.736 620.738,46.396 620.738,47.536 C620.738,49.504 623.714,49.384 623.714,50.296 C623.714,50.656 623.342,50.848 622.91,50.848 C621.914,50.848 621.242,50.176 621.242,50.176 L620.546,51.244 Z" id="Bonus-Copy-3" fill="#262626"></path>
            <g id="Group-3" transform="translate(328.000000, 4.000000)">
                <rect id="bg" x="0" y="0" width="16" height="16"></rect>
                <g id="Group" transform="translate(1.250000, 1.250000)">
                    <mask id="mask-10" fill="white">
                        <use xlink:href="#path-9"></use>
                    </mask>
                    <g id="mask"></g>
                    <path d="M7.25,1.77468762 L7.25,-0.25 L6.25,-0.25 L6.25,1.77468762 C6.41445312,1.75835972 6.5812503,1.75 6.75,1.75 C6.9187497,1.75 7.08554688,1.75835972 7.25,1.77468762 Z M3.58563412,2.87852734 L2.15380592,1.44669914 L1.44669914,2.15380592 L2.87852734,3.58563412 C3.09010902,3.32708008 3.32708008,3.09010902 3.58563412,2.87852734 Z M1.77468762,6.25 L-0.25,6.25 L-0.25,7.25 L1.77468762,7.25 C1.75835972,7.08554688 1.75,6.9187497 1.75,6.75 C1.75,6.5812503 1.75835972,6.41445312 1.77468762,6.25 Z M2.87852734,9.91436588 L1.44669914,11.3461941 L2.15380592,12.0533009 L3.58563412,10.6214727 C3.32708008,10.409891 3.09010902,10.1729199 2.87852734,9.91436588 Z M6.25,11.7253124 L6.25,13.75 L7.25,13.75 L7.25,11.7253124 C7.08554688,11.7416403 6.9187497,11.75 6.75,11.75 C6.5812503,11.75 6.41445312,11.7416403 6.25,11.7253124 Z M9.91436588,10.6214727 L11.3461941,12.0533009 L12.0533009,11.3461941 L10.6214727,9.91436588 C10.409891,10.1729199 10.1729199,10.409891 9.91436588,10.6214727 Z M11.7253124,7.25 L13.75,7.25 L13.75,6.25 L11.7253124,6.25 C11.7416403,6.41445312 11.75,6.5812503 11.75,6.75 C11.75,6.9187497 11.7416403,7.08554688 11.7253124,7.25 Z M10.6214727,3.58563412 L12.0533009,2.15380592 L11.3461941,1.44669914 L9.91436588,2.87852734 C10.1729199,3.09010902 10.409891,3.32708008 10.6214727,3.58563412 Z M9.75,6.75 C9.75,5.09314575 8.40685425,3.75 6.75,3.75 C5.09314575,3.75 3.75,5.09314575 3.75,6.75 C3.75,8.40685425 5.09314575,9.75 6.75,9.75 C8.40685425,9.75 9.75,8.40685425 9.75,6.75 Z M2.75,6.75 C2.75,4.540861 4.540861,2.75 6.75,2.75 C8.959139,2.75 10.75,4.540861 10.75,6.75 C10.75,8.959139 8.959139,10.75 6.75,10.75 C4.540861,10.75 2.75,8.959139 2.75,6.75 Z" id="Combined-Shape" fill="#262626" mask="url(#mask-10)"></path>
                </g>
            </g>
            <g id="Group-2" transform="translate(712.000000, 36.000000)">
                <rect id="bg" x="0" y="0" width="16" height="16"></rect>
                <g id="Group" transform="translate(1.750000, 1.250000)" fill="#262626">
                    <path d="M12.3361156,3.82932037 L10.3675306,4.96588343 L11.9540904,5.75035235 L11.5108638,6.64676196 L9.32669765,5.56680864 L7.26367505,6.75789529 L9.29934755,7.93319136 L11.4835137,6.85323804 L11.9267403,7.74964765 L10.3401805,8.53411657 L12.3298769,9.68286831 C12.257801,9.83188298 12.1797585,9.97935704 12.0956715,10.125 C12.0115845,10.270643 11.9228895,10.4119668 11.8298769,10.5488937 L9.84018055,9.40014197 L9.95409041,11.1663775 L8.95616362,11.2307368 L8.79934755,8.79921676 L6.75,7.6160254 L6.75,10.2324081 L8.7773501,11.5839749 L8.2226499,12.4160251 L6.75,11.4342585 L6.75,13.481762 C6.58491156,13.4938498 6.41817401,13.5 6.25,13.5 C6.18395936,13.5 6.11814023,13.4990516 6.05255549,13.4971677 C5.95149766,13.4937047 5.85061978,13.4879753 5.75,13.4800007 L5.75,11.4342585 L4.2773501,12.4160251 L3.7226499,11.5839749 L5.75,10.2324081 L5.75,7.63181599 L3.5114962,8.92421676 L3.35468012,11.3557368 L2.35675333,11.2913775 L2.4706632,9.52514197 L0.697473172,10.5488937 C0.604460636,10.4119668 0.515765626,10.270643 0.431678623,10.125 C0.347591619,9.97935704 0.269549081,9.83188298 0.197473172,9.68286831 L1.9706632,8.65911657 L0.384103431,7.87464765 L0.827330025,6.97823804 L3.0114962,8.05819136 L5.26367505,6.75789529 L2.9841461,5.44180864 L0.799979927,6.52176196 L0.356753333,5.62535235 L1.9433131,4.84088343 L0.170123074,3.81713169 C0.242198982,3.66811702 0.320241521,3.52064296 0.404328524,3.375 C0.488415528,3.22935704 0.577110538,3.08803319 0.670123074,2.95110629 L2.4433131,3.97485803 L2.32940324,2.2086225 L3.32733003,2.14426318 L3.4841461,4.57578324 L5.75,5.8839746 L5.75,3.51759188 L3.7226499,2.16602515 L4.2773501,1.33397485 L5.75,2.31574145 L5.75,0.0190587703 C5.81487687,0.0140215495 5.87975922,0.00993195791 5.94462661,0.00678452265 C6.04585386,0.00227748048 6.14766096,0 6.25,0 C6.41817401,0 6.58491156,0.00615020731 6.75,0.0182379753 L6.75,2.31574145 L8.2226499,1.33397485 L8.7773501,2.16602515 L6.75,3.51759188 L6.75,5.89976518 L8.82669765,4.70078324 L8.98351372,2.26926318 L9.98144051,2.3336225 L9.86753065,4.09985803 L11.8386528,2.96183012 C12.0264618,3.23933793 12.1925322,3.52943226 12.3361156,3.82932037 Z" id="Combined-Shape"></path>
                </g>
            </g>
        </g>
    </g>
</svg>