<?xml version="1.0" encoding="UTF-8" standalone="no"?>
<svg width="384px" height="320px" viewBox="0 0 384 320" version="1.1" xmlns="http://www.w3.org/2000/svg" xmlns:xlink="http://www.w3.org/1999/xlink">
    <!-- Generator: Sketch 39.1 (31720) - http://www.bohemiancoding.com/sketch -->
    <title>graph_salary_small</title>
    <desc>Created with Sketch.</desc>
    <defs></defs>
    <g id="Page-1" stroke="none" stroke-width="1" fill="none" fill-rule="evenodd">
        <g id="graph_salary_small">
            <g id="salary_labels-copy">
                <polyline id="graph_path_tekna" stroke-opacity="0.5" stroke="#262626" stroke-width="2" points="16 252 32 244.800003 48 235.199997 64 223.199997 80 208.800003 96 196.800003 112 184.800003 128 168 144 156 160 151.199997 176 129.599998 192 122.400002 208 108 224 93.5999985 240 100.800003 256 88.8000031 272 72 288 67.2000008 304 55.2000008 320 55 336 55.2000008"></polyline>
                <polyline id="graph_line_average" stroke="#F5F5F5" stroke-width="4" stroke-linecap="round" stroke-linejoin="round" opacity="0.75" points="15.9999994 252 31.9999994 244 47.9999994 235 63.9999994 223 79.9999994 211 95.9999994 196 111.999999 182 127.999999 168 143.999999 156 159.999999 144 175.999999 132 191.999999 122 207.999999 112 223.999999 103 239.999999 91 255.999999 84 271.999999 76 287.999999 67 304 60 319.999999 55 336 50"></polyline>
                <g id="graph_points_employees" transform="translate(8.000000, 76.000000)" fill="#F5F5F5" opacity="0.25">
                    <circle id="Oval-Copy-21" cx="8" cy="171" r="8"></circle>
                    <circle id="Oval-Copy-23" cx="8" cy="171" r="8"></circle>
                    <circle id="Oval-Copy-24" cx="40" cy="169" r="8"></circle>
                    <circle id="Oval-Copy-25" cx="56" cy="147" r="8"></circle>
                    <circle id="Oval-Copy-27" cx="72" cy="135" r="16"></circle>
                    <circle id="Oval-Copy-28" cx="72" cy="135" r="12"></circle>
                    <circle id="Oval-Copy-26" cx="72" cy="135" r="8"></circle>
                    <circle id="Oval-Copy-29" cx="88" cy="154" r="8"></circle>
                    <circle id="Oval-Copy-32" cx="104" cy="87" r="8"></circle>
                    <circle id="Oval-Copy-40" cx="120" cy="92" r="8"></circle>
                    <circle id="Oval-Copy-33" cx="120" cy="92" r="16"></circle>
                    <circle id="Oval-Copy-33" cx="120" cy="92" r="12"></circle>
                    <circle id="Oval-Copy-33" cx="136" cy="68" r="8"></circle>
                    <circle id="Oval-Copy-34" cx="136" cy="80" r="8"></circle>
                    <circle id="Oval-Copy-35" cx="152" cy="13" r="8"></circle>
                    <circle id="Oval-Copy-36" cx="152" cy="20" r="8"></circle>
                    <circle id="Oval-Copy-37" cx="168" cy="27" r="8"></circle>
                    <circle id="Oval-Copy-38" cx="184" cy="27" r="8"></circle>
                    <circle id="Oval-Copy-39" cx="328" cy="8" r="8"></circle>
                    <circle id="Oval-Copy-30" cx="88" cy="135" r="8"></circle>
                    <circle id="Oval-Copy-31" cx="88" cy="120.800003" r="8"></circle>
                    <circle id="Oval-Copy-22" cx="8" cy="180.800003" r="8"></circle>
                </g>
            </g>
            <g id="label_y" transform="translate(15.500000, 0.000000)">
                <g id="lines" transform="translate(0.000000, 63.000000)" fill="#FFFFFF" opacity="0.2">
                    <rect id="Rectangle-Copy-5" x="0" y="200" width="332.5" height="1"></rect>
                    <rect id="Rectangle-Copy-5" x="0" y="100" width="332.5" height="1"></rect>
                    <rect id="Rectangle-Copy-5" x="0" y="0" width="332.5" height="1"></rect>
                </g>
                <text id="1-000-k" font-family="MuseoSans-700, Museo Sans" font-size="12" font-weight="500" line-spacing="16" fill="#F5F5F5">
                    <tspan x="327.256" y="63">1 000 k</tspan>
                </text>
                <text id="750-k" font-family="MuseoSans-700, Museo Sans" font-size="12" font-weight="500" line-spacing="16" fill="#F5F5F5">
                    <tspan x="338.056" y="163">750 k</tspan>
                </text>
                <text id="500-k" font-family="MuseoSans-700, Museo Sans" font-size="12" font-weight="500" line-spacing="16" fill="#F5F5F5">
                    <tspan x="337.036" y="263">500 k</tspan>
                </text>
            </g>
            <g id="label_x" transform="translate(0.000000, 288.000000)" fill="#F5F5F5">
                <g id="2015" transform="translate(16.000000, 0.000000)">
                    <rect id="Rectangle-Copy-5" x="0" y="0" width="2" height="12"></rect>
                    <text font-family="MuseoSans-700, Museo Sans" font-size="12" font-weight="500" line-spacing="16">
                        <tspan x="6" y="11">2015</tspan>
                    </text>
                </g>
                <g id="2010" transform="translate(96.000000, 0.000000)">
                    <rect id="Rectangle-Copy-5" x="0" y="0" width="2" height="12"></rect>
                    <text font-family="MuseoSans-700, Museo Sans" font-size="12" font-weight="500" line-spacing="16">
                        <tspan x="6" y="11">2010</tspan>
                    </text>
                </g>
                <g id="2005" transform="translate(176.000000, 0.000000)">
                    <rect id="Rectangle-Copy-5" x="0" y="0" width="2" height="12"></rect>
                    <text font-family="MuseoSans-700, Museo Sans" font-size="12" font-weight="500" line-spacing="16">
                        <tspan x="6" y="11">2005</tspan>
                    </text>
                </g>
                <g id="2000" transform="translate(255.500000, 0.000000)">
                    <rect id="Rectangle-Copy-5" x="0.5" y="0" width="2" height="12"></rect>
                    <text font-family="MuseoSans-700, Museo Sans" font-size="12" font-weight="500" line-spacing="16">
                        <tspan x="6.5" y="11">2000</tspan>
                    </text>
                </g>
                <g id="1995" transform="translate(336.000000, 0.000000)">
                    <rect id="Rectangle-Copy-5" x="0" y="0" width="2" height="12"></rect>
                    <text font-family="MuseoSans-700, Museo Sans" font-size="12" font-weight="500" line-spacing="16">
                        <tspan x="6" y="11">1995</tspan>
                    </text>
                </g>
            </g>
        </g>
    </g>
</svg>