<?xml version="1.0" encoding="UTF-8" standalone="no"?>
<svg width="768px" height="192px" viewBox="0 0 768 192" version="1.1" xmlns="http://www.w3.org/2000/svg" xmlns:xlink="http://www.w3.org/1999/xlink">
    <!-- Generator: Sketch 39.1 (31720) - http://www.bohemiancoding.com/sketch -->
    <title>graph_bonus_large</title>
    <desc>Created with Sketch.</desc>
    <defs>
        <rect id="path-1" x="4" y="32" width="56" height="32"></rect>
        <filter x="-50%" y="-50%" width="200%" height="200%" filterUnits="objectBoundingBox" id="filter-2">
            <feOffset dx="0" dy="2" in="SourceAlpha" result="shadowOffsetOuter1"></feOffset>
            <feGaussianBlur stdDeviation="1" in="shadowOffsetOuter1" result="shadowBlurOuter1"></feGaussianBlur>
            <feColorMatrix values="0 0 0 0 0.149019608   0 0 0 0 0.149019608   0 0 0 0 0.149019608  0 0 0 0.1 0" type="matrix" in="shadowBlurOuter1"></feColorMatrix>
        </filter>
        <rect id="path-3" x="196" y="32" width="56" height="32"></rect>
        <filter x="-50%" y="-50%" width="200%" height="200%" filterUnits="objectBoundingBox" id="filter-4">
            <feOffset dx="0" dy="2" in="SourceAlpha" result="shadowOffsetOuter1"></feOffset>
            <feGaussianBlur stdDeviation="1" in="shadowOffsetOuter1" result="shadowBlurOuter1"></feGaussianBlur>
            <feColorMatrix values="0 0 0 0 0.149019608   0 0 0 0 0.149019608   0 0 0 0 0.149019608  0 0 0 0.1 0" type="matrix" in="shadowBlurOuter1"></feColorMatrix>
        </filter>
        <rect id="path-5" x="388" y="32" width="56" height="32"></rect>
        <filter x="-50%" y="-50%" width="200%" height="200%" filterUnits="objectBoundingBox" id="filter-6">
            <feOffset dx="0" dy="2" in="SourceAlpha" result="shadowOffsetOuter1"></feOffset>
            <feGaussianBlur stdDeviation="1" in="shadowOffsetOuter1" result="shadowBlurOuter1"></feGaussianBlur>
            <feColorMatrix values="0 0 0 0 0.149019608   0 0 0 0 0.149019608   0 0 0 0 0.149019608  0 0 0 0.1 0" type="matrix" in="shadowBlurOuter1"></feColorMatrix>
        </filter>
        <rect id="path-7" x="580" y="32" width="56" height="32"></rect>
        <filter x="-50%" y="-50%" width="200%" height="200%" filterUnits="objectBoundingBox" id="filter-8">
            <feOffset dx="0" dy="2" in="SourceAlpha" result="shadowOffsetOuter1"></feOffset>
            <feGaussianBlur stdDeviation="1" in="shadowOffsetOuter1" result="shadowBlurOuter1"></feGaussianBlur>
            <feColorMatrix values="0 0 0 0 0.149019608   0 0 0 0 0.149019608   0 0 0 0 0.149019608  0 0 0 0.1 0" type="matrix" in="shadowBlurOuter1"></feColorMatrix>
        </filter>
    </defs>
    <g id="Page-1" stroke="none" stroke-width="1" fill="none" fill-rule="evenodd">
        <g id="graph_bonus_large">
            <rect id="Rectangle-5" fill="#FFBF3F" x="4" y="64" width="56" height="128"></rect>
            <rect id="Rectangle-5-Copy-3" fill="#FFBF3F" x="196" y="64" width="56" height="128"></rect>
            <rect id="Rectangle-5-Copy-6" fill="#FFBF3F" x="388" y="64" width="56" height="128"></rect>
            <rect id="Rectangle-5-Copy-9" fill="#FFBF3F" x="580" y="64" width="56" height="128"></rect>
            <rect id="Rectangle-5-Copy" fill="#FFBF3F" x="68" y="64" width="56" height="128"></rect>
            <rect id="Rectangle-5-Copy-4" fill="#FFBF3F" x="260" y="64" width="56" height="128"></rect>
            <rect id="Rectangle-5-Copy-7" fill="#FFBF3F" x="452" y="64" width="56" height="128"></rect>
            <rect id="Rectangle-5-Copy-10" fill="#FFBF3F" x="644" y="64" width="56" height="128"></rect>
            <rect id="Rectangle-5-Copy-2" fill="#FFBF3F" x="132" y="64" width="56" height="128"></rect>
            <rect id="Rectangle-5-Copy-5" fill="#FFBF3F" x="324" y="0" width="56" height="192"></rect>
            <rect id="Rectangle-5-Copy-8" fill="#FFBF3F" x="516" y="64" width="56" height="128"></rect>
            <rect id="Rectangle-5-Copy-11" fill="#FFBF3F" x="708" y="32" width="56" height="160"></rect>
            <g id="Rectangle-5-Copy-12">
                <use fill="black" fill-opacity="1" filter="url(#filter-2)" xlink:href="#path-1"></use>
                <use fill="#F5F5F5" fill-rule="evenodd" xlink:href="#path-1"></use>
            </g>
            <g id="Rectangle-5-Copy-13">
                <use fill="black" fill-opacity="1" filter="url(#filter-4)" xlink:href="#path-3"></use>
                <use fill="#F5F5F5" fill-rule="evenodd" xlink:href="#path-3"></use>
            </g>
            <g id="Rectangle-5-Copy-14">
                <use fill="black" fill-opacity="1" filter="url(#filter-6)" xlink:href="#path-5"></use>
                <use fill="#F5F5F5" fill-rule="evenodd" xlink:href="#path-5"></use>
            </g>
            <g id="Rectangle-5-Copy-15">
                <use fill="black" fill-opacity="1" filter="url(#filter-8)" xlink:href="#path-7"></use>
                <use fill="#F5F5F5" fill-rule="evenodd" xlink:href="#path-7"></use>
            </g>
            <path d="M15.434,52 L18.518,52 C20.09,52 21.458,51.232 21.458,49.528 C21.458,48.664 21.014,47.8 20.078,47.524 L20.078,47.5 C20.726,47.152 21.11,46.468 21.11,45.676 C21.11,44.272 20.018,43.48 18.482,43.48 L15.434,43.48 L15.434,52 Z M16.982,46.96 L16.982,44.812 L18.458,44.812 C19.178,44.812 19.538,45.256 19.538,45.868 C19.538,46.48 19.154,46.96 18.482,46.96 L16.982,46.96 Z M16.982,50.668 L16.982,48.208 L18.638,48.208 C19.418,48.208 19.874,48.724 19.874,49.432 C19.874,50.152 19.43,50.668 18.638,50.668 L16.982,50.668 Z M22.442,48.94 C22.442,50.824 23.942,52.144 25.814,52.144 C27.674,52.144 29.174,50.824 29.174,48.94 C29.174,47.068 27.674,45.736 25.802,45.736 C23.942,45.736 22.442,47.068 22.442,48.94 L22.442,48.94 Z M23.99,48.94 C23.99,47.812 24.818,47.032 25.814,47.032 C26.798,47.032 27.626,47.812 27.626,48.94 C27.626,50.08 26.798,50.848 25.814,50.848 C24.818,50.848 23.99,50.08 23.99,48.94 L23.99,48.94 Z M30.398,52 L31.922,52 L31.922,49.192 C31.922,48.904 31.946,48.628 32.03,48.376 C32.258,47.644 32.858,47.128 33.674,47.128 C34.454,47.128 34.646,47.632 34.646,48.376 L34.646,52 L36.158,52 L36.158,48.064 C36.158,46.444 35.39,45.736 34.034,45.736 C32.798,45.736 32.126,46.492 31.862,47.008 L31.838,47.008 C31.838,47.008 31.862,46.816 31.862,46.588 L31.862,45.88 L30.398,45.88 L30.398,52 Z M37.67,49.816 C37.67,51.484 38.486,52.144 39.794,52.144 C40.838,52.144 41.618,51.508 41.918,50.872 L41.942,50.872 C41.942,50.872 41.918,51.064 41.918,51.304 L41.918,52 L43.382,52 L43.382,45.88 L41.858,45.88 L41.858,48.688 C41.858,49.78 41.246,50.752 40.142,50.752 C39.386,50.752 39.194,50.248 39.194,49.504 L39.194,45.88 L37.67,45.88 L37.67,49.816 Z M44.546,51.244 C44.546,51.244 45.398,52.144 46.922,52.144 C48.374,52.144 49.262,51.328 49.262,50.308 C49.262,48.34 46.286,48.448 46.286,47.584 C46.286,47.2 46.67,47.032 47.066,47.032 C48.002,47.032 48.566,47.56 48.566,47.56 L49.13,46.432 C49.13,46.432 48.458,45.736 47.078,45.736 C45.758,45.736 44.738,46.396 44.738,47.536 C44.738,49.504 47.714,49.384 47.714,50.296 C47.714,50.656 47.342,50.848 46.91,50.848 C45.914,50.848 45.242,50.176 45.242,50.176 L44.546,51.244 Z" id="Bonus" fill="#262626"></path>
            <path d="M22.598,181.636 C22.598,183.448 23.81,184.144 24.962,184.144 C26.126,184.144 27.338,183.46 27.338,181.636 L27.338,175.564 L24.446,175.564 L24.446,176.308 L26.51,176.308 L26.51,181.636 C26.51,182.944 25.718,183.376 24.974,183.376 C24.206,183.376 23.426,182.908 23.426,181.612 L23.426,181.3 L22.598,181.3 L22.598,181.636 Z M28.958,182.356 C28.958,183.556 30.002,184.144 31.01,184.144 C32.522,184.144 33.026,182.836 33.026,182.836 L33.05,182.836 C33.05,182.836 33.026,183.04 33.026,183.34 L33.026,184 L33.806,184 L33.806,180.136 C33.806,178.624 33.002,177.82 31.55,177.82 C30.194,177.82 29.402,178.504 29.402,178.504 L29.786,179.128 C29.786,179.128 30.494,178.552 31.49,178.552 C32.354,178.552 32.99,178.948 32.99,180.112 L32.99,180.268 L32.654,180.268 C31.61,180.268 28.958,180.316 28.958,182.356 L28.958,182.356 Z M29.798,182.308 C29.798,180.976 31.694,180.94 32.642,180.94 L32.99,180.94 L32.99,181.204 C32.99,182.248 32.294,183.448 31.142,183.448 C30.242,183.448 29.798,182.872 29.798,182.308 L29.798,182.308 Z M35.69,184 L36.506,184 L36.506,181.108 C36.506,180.82 36.53,180.544 36.602,180.292 C36.878,179.296 37.766,178.588 38.798,178.588 C39.962,178.588 40.106,179.428 40.106,180.376 L40.106,184 L40.922,184 L40.922,180.16 C40.922,178.672 40.394,177.82 38.906,177.82 C37.478,177.82 36.71,178.792 36.494,179.344 L36.47,179.344 C36.47,179.344 36.494,179.128 36.494,178.864 L36.494,177.964 L35.69,177.964 L35.69,184 Z" id="Jan" fill="#262626"></path>
            <path d="M279.324,184 L280.152,184 L280.62,178.096 C280.656,177.64 280.644,176.896 280.644,176.896 L280.668,176.896 C280.668,176.896 280.932,177.676 281.124,178.096 L283.104,182.428 L283.884,182.428 L285.864,178.096 C286.056,177.664 286.308,176.92 286.308,176.92 L286.332,176.92 C286.332,176.92 286.32,177.64 286.356,178.096 L286.824,184 L287.652,184 L286.98,175.564 L286.128,175.564 L283.92,180.52 C283.728,180.952 283.5,181.552 283.5,181.552 L283.476,181.552 C283.476,181.552 283.26,180.952 283.068,180.52 L280.86,175.564 L279.996,175.564 L279.324,184 Z M289.104,182.356 C289.104,183.556 290.148,184.144 291.156,184.144 C292.668,184.144 293.172,182.836 293.172,182.836 L293.196,182.836 C293.196,182.836 293.172,183.04 293.172,183.34 L293.172,184 L293.952,184 L293.952,180.136 C293.952,178.624 293.148,177.82 291.696,177.82 C290.34,177.82 289.548,178.504 289.548,178.504 L289.932,179.128 C289.932,179.128 290.64,178.552 291.636,178.552 C292.5,178.552 293.136,178.948 293.136,180.112 L293.136,180.268 L292.8,180.268 C291.756,180.268 289.104,180.316 289.104,182.356 L289.104,182.356 Z M289.944,182.308 C289.944,180.976 291.84,180.94 292.788,180.94 L293.136,180.94 L293.136,181.204 C293.136,182.248 292.44,183.448 291.288,183.448 C290.388,183.448 289.944,182.872 289.944,182.308 L289.944,182.308 Z M295.812,176.584 L296.664,176.584 L296.664,175.564 L295.812,175.564 L295.812,176.584 Z M295.836,184 L296.652,184 L296.652,177.964 L295.836,177.964 L295.836,184 Z" id="Mai" fill="#262626"></path>
            <path d="M534.52,183.064 C534.52,183.064 535.468,184.144 537.196,184.144 C538.78,184.144 539.752,183.124 539.752,181.864 C539.752,179.092 535.54,179.668 535.54,177.664 C535.54,176.92 536.236,176.212 537.316,176.212 C538.42,176.212 539.164,176.932 539.164,176.932 L539.572,176.236 C539.572,176.236 538.78,175.42 537.316,175.42 C535.756,175.42 534.688,176.476 534.688,177.688 C534.688,180.304 538.9,179.764 538.9,181.888 C538.9,182.8 538.144,183.352 537.22,183.352 C535.888,183.352 535.012,182.428 535.012,182.428 L534.52,183.064 Z M540.94,180.988 C540.94,182.848 542.296,184.144 544.096,184.144 C545.452,184.144 546.328,183.304 546.328,183.304 L545.956,182.68 C545.956,182.68 545.224,183.412 544.12,183.412 C542.872,183.412 541.816,182.572 541.78,181.024 L546.412,181.024 C546.412,181.024 546.436,180.748 546.436,180.604 C546.436,179.104 545.584,177.82 543.916,177.82 C542.284,177.82 540.94,179.008 540.94,180.988 L540.94,180.988 Z M541.816,180.352 C542.008,179.14 542.884,178.504 543.892,178.504 C544.792,178.504 545.56,179.092 545.608,180.352 L541.816,180.352 Z M547.996,186.4 L548.812,186.4 L548.812,183.52 C548.812,183.208 548.788,182.992 548.788,182.992 L548.812,182.992 C548.812,182.992 549.34,184.144 550.792,184.144 C552.352,184.144 553.492,182.896 553.492,180.988 C553.492,179.116 552.484,177.82 550.864,177.82 C549.268,177.82 548.776,179.02 548.776,179.02 L548.752,179.02 C548.752,179.02 548.776,178.816 548.776,178.552 L548.776,177.964 L547.996,177.964 L547.996,186.4 Z M548.788,181 C548.788,179.284 549.736,178.564 550.744,178.564 C551.872,178.564 552.652,179.512 552.652,180.988 C552.652,182.524 551.776,183.424 550.708,183.424 C549.46,183.424 548.788,182.212 548.788,181 L548.788,181 Z" id="Sep" fill="#262626"></path>
            <path d="M150.58,184 L151.408,184 L151.876,178.096 C151.912,177.64 151.9,176.896 151.9,176.896 L151.924,176.896 C151.924,176.896 152.188,177.676 152.38,178.096 L154.36,182.428 L155.14,182.428 L157.12,178.096 C157.312,177.664 157.564,176.92 157.564,176.92 L157.588,176.92 C157.588,176.92 157.576,177.64 157.612,178.096 L158.08,184 L158.908,184 L158.236,175.564 L157.384,175.564 L155.176,180.52 C154.984,180.952 154.756,181.552 154.756,181.552 L154.732,181.552 C154.732,181.552 154.516,180.952 154.324,180.52 L152.116,175.564 L151.252,175.564 L150.58,184 Z M160.36,182.356 C160.36,183.556 161.404,184.144 162.412,184.144 C163.924,184.144 164.428,182.836 164.428,182.836 L164.452,182.836 C164.452,182.836 164.428,183.04 164.428,183.34 L164.428,184 L165.208,184 L165.208,180.136 C165.208,178.624 164.404,177.82 162.952,177.82 C161.596,177.82 160.804,178.504 160.804,178.504 L161.188,179.128 C161.188,179.128 161.896,178.552 162.892,178.552 C163.756,178.552 164.392,178.948 164.392,180.112 L164.392,180.268 L164.056,180.268 C163.012,180.268 160.36,180.316 160.36,182.356 L160.36,182.356 Z M161.2,182.308 C161.2,180.976 163.096,180.94 164.044,180.94 L164.392,180.94 L164.392,181.204 C164.392,182.248 163.696,183.448 162.544,183.448 C161.644,183.448 161.2,182.872 161.2,182.308 L161.2,182.308 Z M167.092,184 L167.908,184 L167.908,181.456 C167.908,181.072 167.956,180.664 168.076,180.28 C168.34,179.392 168.976,178.72 169.828,178.72 C169.984,178.72 170.128,178.744 170.128,178.744 L170.128,177.94 C170.128,177.94 169.972,177.904 169.804,177.904 C168.856,177.904 168.184,178.6 167.896,179.512 L167.872,179.512 C167.872,179.512 167.896,179.296 167.896,179.032 L167.896,177.964 L167.092,177.964 L167.092,184 Z" id="Mar" fill="#262626"></path>
            <path d="M408.266,181.636 C408.266,183.448 409.478,184.144 410.63,184.144 C411.794,184.144 413.006,183.46 413.006,181.636 L413.006,175.564 L410.114,175.564 L410.114,176.308 L412.178,176.308 L412.178,181.636 C412.178,182.944 411.386,183.376 410.642,183.376 C409.874,183.376 409.094,182.908 409.094,181.612 L409.094,181.3 L408.266,181.3 L408.266,181.636 Z M415.034,181.804 C415.034,183.376 415.634,184.144 417.05,184.144 C418.382,184.144 419.174,183.208 419.414,182.62 L419.438,182.62 C419.438,182.62 419.414,182.836 419.414,183.1 L419.414,184 L420.206,184 L420.206,177.964 L419.39,177.964 L419.39,180.856 C419.39,182.164 418.538,183.376 417.158,183.376 C415.994,183.376 415.85,182.536 415.85,181.588 L415.85,177.964 L415.034,177.964 L415.034,181.804 Z M422.114,182.572 C422.114,183.892 423.002,184.048 423.506,184.048 C423.662,184.048 423.806,184.024 423.806,184.024 L423.806,183.292 C423.806,183.292 423.71,183.304 423.602,183.304 C423.29,183.304 422.93,183.184 422.93,182.392 L422.93,175.564 L422.114,175.564 L422.114,182.572 Z" id="Jul" fill="#262626"></path>
            <path d="M662.064,184 L662.892,184 L662.892,177.928 C662.892,177.484 662.82,176.788 662.82,176.788 L662.844,176.788 C662.844,176.788 663.252,177.508 663.54,177.928 L667.848,184 L668.652,184 L668.652,175.564 L667.824,175.564 L667.824,181.636 C667.824,182.08 667.896,182.776 667.896,182.776 L667.872,182.776 C667.872,182.776 667.464,182.056 667.176,181.636 L662.868,175.564 L662.064,175.564 L662.064,184 Z M670.416,180.952 C670.416,182.776 671.844,184.144 673.608,184.144 C675.372,184.144 676.8,182.776 676.8,180.952 C676.8,179.164 675.372,177.82 673.608,177.82 C671.844,177.82 670.416,179.164 670.416,180.952 L670.416,180.952 Z M671.256,180.952 C671.256,179.584 672.312,178.564 673.608,178.564 C674.904,178.564 675.96,179.584 675.96,180.952 C675.96,182.356 674.904,183.412 673.608,183.412 C672.312,183.412 671.256,182.356 671.256,180.952 L671.256,180.952 Z M679.812,184 L680.7,184 L683.004,177.964 L682.152,177.964 L680.484,182.392 C680.364,182.704 680.268,183.112 680.268,183.112 L680.244,183.112 C680.244,183.112 680.148,182.692 680.04,182.392 L678.36,177.964 L677.496,177.964 L679.812,184 Z" id="Nov" fill="#262626"></path>
            <path d="M87.288,184 L88.116,184 L88.116,180.22 L91.212,180.22 L91.212,179.476 L88.116,179.476 L88.116,176.308 L91.728,176.308 L91.728,175.564 L87.288,175.564 L87.288,184 Z M92.796,180.988 C92.796,182.848 94.152,184.144 95.952,184.144 C97.308,184.144 98.184,183.304 98.184,183.304 L97.812,182.68 C97.812,182.68 97.08,183.412 95.976,183.412 C94.728,183.412 93.672,182.572 93.636,181.024 L98.268,181.024 C98.268,181.024 98.292,180.748 98.292,180.604 C98.292,179.104 97.44,177.82 95.772,177.82 C94.14,177.82 92.796,179.008 92.796,180.988 L92.796,180.988 Z M93.672,180.352 C93.864,179.14 94.74,178.504 95.748,178.504 C96.648,178.504 97.416,179.092 97.464,180.352 L93.672,180.352 Z M99.852,184 L100.644,184 L100.644,183.46 C100.644,183.172 100.62,182.968 100.62,182.968 L100.644,182.968 C100.644,182.968 101.184,184.144 102.624,184.144 C104.208,184.144 105.348,182.896 105.348,180.988 C105.348,179.116 104.34,177.82 102.72,177.82 C101.172,177.82 100.668,178.984 100.668,178.984 L100.644,178.984 C100.644,178.984 100.668,178.768 100.668,178.492 L100.668,175.564 L99.852,175.564 L99.852,184 Z M100.644,181 C100.644,179.284 101.592,178.564 102.6,178.564 C103.728,178.564 104.508,179.512 104.508,180.988 C104.508,182.524 103.632,183.424 102.564,183.424 C101.268,183.424 100.644,182.212 100.644,181 L100.644,181 Z" id="Feb" fill="#262626"></path>
            <path d="M342.19,181.636 C342.19,183.448 343.402,184.144 344.554,184.144 C345.718,184.144 346.93,183.46 346.93,181.636 L346.93,175.564 L344.038,175.564 L344.038,176.308 L346.102,176.308 L346.102,181.636 C346.102,182.944 345.31,183.376 344.566,183.376 C343.798,183.376 343.018,182.908 343.018,181.612 L343.018,181.3 L342.19,181.3 L342.19,181.636 Z M348.958,181.804 C348.958,183.376 349.558,184.144 350.974,184.144 C352.306,184.144 353.098,183.208 353.338,182.62 L353.362,182.62 C353.362,182.62 353.338,182.836 353.338,183.1 L353.338,184 L354.13,184 L354.13,177.964 L353.314,177.964 L353.314,180.856 C353.314,182.164 352.462,183.376 351.082,183.376 C349.918,183.376 349.774,182.536 349.774,181.588 L349.774,177.964 L348.958,177.964 L348.958,181.804 Z M356.098,184 L356.914,184 L356.914,181.108 C356.914,180.82 356.938,180.544 357.01,180.292 C357.286,179.296 358.174,178.588 359.206,178.588 C360.37,178.588 360.514,179.428 360.514,180.376 L360.514,184 L361.33,184 L361.33,180.16 C361.33,178.672 360.802,177.82 359.314,177.82 C357.886,177.82 357.118,178.792 356.902,179.344 L356.878,179.344 C356.878,179.344 356.902,179.128 356.902,178.864 L356.902,177.964 L356.098,177.964 L356.098,184 Z" id="Jun" fill="#262626"></path>
            <path d="M598.682,179.728 C598.682,182.2 600.59,184.144 602.978,184.144 C605.366,184.144 607.274,182.2 607.274,179.728 C607.274,177.304 605.366,175.42 602.978,175.42 C600.59,175.42 598.682,177.304 598.682,179.728 L598.682,179.728 Z M599.546,179.728 C599.546,177.712 601.07,176.188 602.978,176.188 C604.874,176.188 606.41,177.712 606.41,179.728 C606.41,181.792 604.874,183.376 602.978,183.376 C601.07,183.376 599.546,181.792 599.546,179.728 L599.546,179.728 Z M608.906,184 L609.722,184 L609.722,180.976 L610.694,180.976 L612.71,184 L613.682,184 L611.378,180.616 L611.378,180.592 L613.478,177.964 L612.494,177.964 L610.682,180.268 L609.722,180.268 L609.722,175.564 L608.906,175.564 L608.906,184 Z M615.158,181.804 C615.158,183.82 616.562,184.048 617.258,184.048 C617.474,184.048 617.606,184.024 617.606,184.024 L617.606,183.292 C617.606,183.292 617.498,183.316 617.33,183.316 C616.874,183.316 615.974,183.136 615.974,181.72 L615.974,178.72 L617.486,178.72 L617.486,178.036 L615.974,178.036 L615.974,176.296 L615.17,176.296 L615.17,178.036 L614.366,178.036 L614.366,178.72 L615.158,178.72 L615.158,181.804 Z" id="Okt" fill="#262626"></path>
            <path d="M220.994,184 L221.87,184 L218.774,175.564 L217.886,175.564 L214.79,184 L215.666,184 L216.626,181.312 L220.022,181.312 L220.994,184 Z M218.342,176.44 C218.342,176.44 218.522,177.136 218.666,177.532 L219.77,180.592 L216.866,180.592 L217.994,177.532 C218.138,177.136 218.318,176.44 218.318,176.44 L218.342,176.44 Z M223.01,186.4 L223.826,186.4 L223.826,183.52 C223.826,183.208 223.802,182.992 223.802,182.992 L223.826,182.992 C223.826,182.992 224.354,184.144 225.806,184.144 C227.366,184.144 228.506,182.896 228.506,180.988 C228.506,179.116 227.498,177.82 225.878,177.82 C224.282,177.82 223.79,179.02 223.79,179.02 L223.766,179.02 C223.766,179.02 223.79,178.816 223.79,178.552 L223.79,177.964 L223.01,177.964 L223.01,186.4 Z M223.802,181 C223.802,179.284 224.75,178.564 225.758,178.564 C226.886,178.564 227.666,179.512 227.666,180.988 C227.666,182.524 226.79,183.424 225.722,183.424 C224.474,183.424 223.802,182.212 223.802,181 L223.802,181 Z M230.078,184 L230.894,184 L230.894,181.456 C230.894,181.072 230.942,180.664 231.062,180.28 C231.326,179.392 231.962,178.72 232.814,178.72 C232.97,178.72 233.114,178.744 233.114,178.744 L233.114,177.94 C233.114,177.94 232.958,177.904 232.79,177.904 C231.842,177.904 231.17,178.6 230.882,179.512 L230.858,179.512 C230.858,179.512 230.882,179.296 230.882,179.032 L230.882,177.964 L230.078,177.964 L230.078,184 Z" id="Apr" fill="#262626"></path>
            <path d="M475.644,184 L476.52,184 L473.424,175.564 L472.536,175.564 L469.44,184 L470.316,184 L471.276,181.312 L474.672,181.312 L475.644,184 Z M472.992,176.44 C472.992,176.44 473.172,177.136 473.316,177.532 L474.42,180.592 L471.516,180.592 L472.644,177.532 C472.788,177.136 472.968,176.44 472.968,176.44 L472.992,176.44 Z M477.576,181.804 C477.576,183.376 478.176,184.144 479.592,184.144 C480.924,184.144 481.716,183.208 481.956,182.62 L481.98,182.62 C481.98,182.62 481.956,182.836 481.956,183.1 L481.956,184 L482.748,184 L482.748,177.964 L481.932,177.964 L481.932,180.856 C481.932,182.164 481.08,183.376 479.7,183.376 C478.536,183.376 478.392,182.536 478.392,181.588 L478.392,177.964 L477.576,177.964 L477.576,181.804 Z M485.172,185.368 L484.86,186.04 C485.448,186.34 486.144,186.52 486.84,186.52 C488.316,186.52 489.732,185.776 489.732,183.856 L489.732,177.964 L488.94,177.964 L488.94,178.624 C488.94,178.756 488.952,178.828 488.952,178.828 L488.928,178.828 C488.928,178.828 488.532,177.82 486.936,177.82 C485.316,177.82 484.32,179.056 484.32,180.868 C484.32,182.68 485.388,183.964 487.008,183.964 C487.944,183.964 488.556,183.58 488.916,182.908 L488.94,182.908 C488.94,182.908 488.916,183.112 488.916,183.34 L488.916,183.892 C488.916,185.236 487.98,185.788 486.804,185.788 C485.916,185.788 485.172,185.368 485.172,185.368 L485.172,185.368 Z M487.14,183.232 C485.94,183.232 485.16,182.296 485.16,180.856 C485.16,179.416 485.844,178.564 487.02,178.564 C488.088,178.564 488.928,179.104 488.928,180.868 C488.928,182.644 488.088,183.232 487.14,183.232 L487.14,183.232 Z" id="Aug" fill="#262626"></path>
            <path d="M726.808,184 L729.532,184 C732.064,184 733.768,182.464 733.768,179.776 C733.768,177.112 732.064,175.564 729.532,175.564 L726.808,175.564 L726.808,184 Z M727.636,183.256 L727.636,176.308 L729.448,176.308 C731.512,176.308 732.904,177.532 732.904,179.776 C732.904,182.032 731.524,183.256 729.448,183.256 L727.636,183.256 Z M735.028,180.988 C735.028,182.848 736.384,184.144 738.184,184.144 C739.54,184.144 740.416,183.304 740.416,183.304 L740.044,182.68 C740.044,182.68 739.312,183.412 738.208,183.412 C736.96,183.412 735.904,182.572 735.868,181.024 L740.5,181.024 C740.5,181.024 740.524,180.748 740.524,180.604 C740.524,179.104 739.672,177.82 738.004,177.82 C736.372,177.82 735.028,179.008 735.028,180.988 L735.028,180.988 Z M735.904,180.352 C736.096,179.14 736.972,178.504 737.98,178.504 C738.88,178.504 739.648,179.092 739.696,180.352 L735.904,180.352 Z M741.592,183.268 C741.592,183.268 742.36,184.144 743.824,184.144 C745.036,184.144 745.888,183.436 745.888,182.452 C745.888,180.46 742.636,180.82 742.636,179.488 C742.636,178.816 743.224,178.552 743.836,178.552 C744.832,178.552 745.348,179.104 745.348,179.104 L745.72,178.48 C745.72,178.48 745.132,177.82 743.86,177.82 C742.768,177.82 741.796,178.408 741.796,179.488 C741.796,181.456 745.048,181.132 745.048,182.452 C745.048,183.088 744.484,183.412 743.836,183.412 C742.708,183.412 742.036,182.68 742.036,182.68 L741.592,183.268 Z" id="Des" fill="#262626"></path>
            <path d="M207.434,52 L210.518,52 C212.09,52 213.458,51.232 213.458,49.528 C213.458,48.664 213.014,47.8 212.078,47.524 L212.078,47.5 C212.726,47.152 213.11,46.468 213.11,45.676 C213.11,44.272 212.018,43.48 210.482,43.48 L207.434,43.48 L207.434,52 Z M208.982,46.96 L208.982,44.812 L210.458,44.812 C211.178,44.812 211.538,45.256 211.538,45.868 C211.538,46.48 211.154,46.96 210.482,46.96 L208.982,46.96 Z M208.982,50.668 L208.982,48.208 L210.638,48.208 C211.418,48.208 211.874,48.724 211.874,49.432 C211.874,50.152 211.43,50.668 210.638,50.668 L208.982,50.668 Z M214.442,48.94 C214.442,50.824 215.942,52.144 217.814,52.144 C219.674,52.144 221.174,50.824 221.174,48.94 C221.174,47.068 219.674,45.736 217.802,45.736 C215.942,45.736 214.442,47.068 214.442,48.94 L214.442,48.94 Z M215.99,48.94 C215.99,47.812 216.818,47.032 217.814,47.032 C218.798,47.032 219.626,47.812 219.626,48.94 C219.626,50.08 218.798,50.848 217.814,50.848 C216.818,50.848 215.99,50.08 215.99,48.94 L215.99,48.94 Z M222.398,52 L223.922,52 L223.922,49.192 C223.922,48.904 223.946,48.628 224.03,48.376 C224.258,47.644 224.858,47.128 225.674,47.128 C226.454,47.128 226.646,47.632 226.646,48.376 L226.646,52 L228.158,52 L228.158,48.064 C228.158,46.444 227.39,45.736 226.034,45.736 C224.798,45.736 224.126,46.492 223.862,47.008 L223.838,47.008 C223.838,47.008 223.862,46.816 223.862,46.588 L223.862,45.88 L222.398,45.88 L222.398,52 Z M229.67,49.816 C229.67,51.484 230.486,52.144 231.794,52.144 C232.838,52.144 233.618,51.508 233.918,50.872 L233.942,50.872 C233.942,50.872 233.918,51.064 233.918,51.304 L233.918,52 L235.382,52 L235.382,45.88 L233.858,45.88 L233.858,48.688 C233.858,49.78 233.246,50.752 232.142,50.752 C231.386,50.752 231.194,50.248 231.194,49.504 L231.194,45.88 L229.67,45.88 L229.67,49.816 Z M236.546,51.244 C236.546,51.244 237.398,52.144 238.922,52.144 C240.374,52.144 241.262,51.328 241.262,50.308 C241.262,48.34 238.286,48.448 238.286,47.584 C238.286,47.2 238.67,47.032 239.066,47.032 C240.002,47.032 240.566,47.56 240.566,47.56 L241.13,46.432 C241.13,46.432 240.458,45.736 239.078,45.736 C237.758,45.736 236.738,46.396 236.738,47.536 C236.738,49.504 239.714,49.384 239.714,50.296 C239.714,50.656 239.342,50.848 238.91,50.848 C237.914,50.848 237.242,50.176 237.242,50.176 L236.546,51.244 Z" id="Bonus-Copy" fill="#262626"></path>
            <path d="M399.434,52 L402.518,52 C404.09,52 405.458,51.232 405.458,49.528 C405.458,48.664 405.014,47.8 404.078,47.524 L404.078,47.5 C404.726,47.152 405.11,46.468 405.11,45.676 C405.11,44.272 404.018,43.48 402.482,43.48 L399.434,43.48 L399.434,52 Z M400.982,46.96 L400.982,44.812 L402.458,44.812 C403.178,44.812 403.538,45.256 403.538,45.868 C403.538,46.48 403.154,46.96 402.482,46.96 L400.982,46.96 Z M400.982,50.668 L400.982,48.208 L402.638,48.208 C403.418,48.208 403.874,48.724 403.874,49.432 C403.874,50.152 403.43,50.668 402.638,50.668 L400.982,50.668 Z M406.442,48.94 C406.442,50.824 407.942,52.144 409.814,52.144 C411.674,52.144 413.174,50.824 413.174,48.94 C413.174,47.068 411.674,45.736 409.802,45.736 C407.942,45.736 406.442,47.068 406.442,48.94 L406.442,48.94 Z M407.99,48.94 C407.99,47.812 408.818,47.032 409.814,47.032 C410.798,47.032 411.626,47.812 411.626,48.94 C411.626,50.08 410.798,50.848 409.814,50.848 C408.818,50.848 407.99,50.08 407.99,48.94 L407.99,48.94 Z M414.398,52 L415.922,52 L415.922,49.192 C415.922,48.904 415.946,48.628 416.03,48.376 C416.258,47.644 416.858,47.128 417.674,47.128 C418.454,47.128 418.646,47.632 418.646,48.376 L418.646,52 L420.158,52 L420.158,48.064 C420.158,46.444 419.39,45.736 418.034,45.736 C416.798,45.736 416.126,46.492 415.862,47.008 L415.838,47.008 C415.838,47.008 415.862,46.816 415.862,46.588 L415.862,45.88 L414.398,45.88 L414.398,52 Z M421.67,49.816 C421.67,51.484 422.486,52.144 423.794,52.144 C424.838,52.144 425.618,51.508 425.918,50.872 L425.942,50.872 C425.942,50.872 425.918,51.064 425.918,51.304 L425.918,52 L427.382,52 L427.382,45.88 L425.858,45.88 L425.858,48.688 C425.858,49.78 425.246,50.752 424.142,50.752 C423.386,50.752 423.194,50.248 423.194,49.504 L423.194,45.88 L421.67,45.88 L421.67,49.816 Z M428.546,51.244 C428.546,51.244 429.398,52.144 430.922,52.144 C432.374,52.144 433.262,51.328 433.262,50.308 C433.262,48.34 430.286,48.448 430.286,47.584 C430.286,47.2 430.67,47.032 431.066,47.032 C432.002,47.032 432.566,47.56 432.566,47.56 L433.13,46.432 C433.13,46.432 432.458,45.736 431.078,45.736 C429.758,45.736 428.738,46.396 428.738,47.536 C428.738,49.504 431.714,49.384 431.714,50.296 C431.714,50.656 431.342,50.848 430.91,50.848 C429.914,50.848 429.242,50.176 429.242,50.176 L428.546,51.244 Z" id="Bonus-Copy-2" fill="#262626"></path>
            <path d="M337.024,44 L337.852,44 L337.852,40.22 L340.948,40.22 L340.948,39.476 L337.852,39.476 L337.852,36.308 L341.464,36.308 L341.464,35.564 L337.024,35.564 L337.024,44 Z M342.532,40.988 C342.532,42.848 343.888,44.144 345.688,44.144 C347.044,44.144 347.92,43.304 347.92,43.304 L347.548,42.68 C347.548,42.68 346.816,43.412 345.712,43.412 C344.464,43.412 343.408,42.572 343.372,41.024 L348.004,41.024 C348.004,41.024 348.028,40.748 348.028,40.604 C348.028,39.104 347.176,37.82 345.508,37.82 C343.876,37.82 342.532,39.008 342.532,40.988 L342.532,40.988 Z M343.408,40.352 C343.6,39.14 344.476,38.504 345.484,38.504 C346.384,38.504 347.152,39.092 347.2,40.352 L343.408,40.352 Z M349.588,44 L350.404,44 L350.404,41.456 C350.404,41.072 350.452,40.664 350.572,40.28 C350.836,39.392 351.472,38.72 352.324,38.72 C352.48,38.72 352.624,38.744 352.624,38.744 L352.624,37.94 C352.624,37.94 352.468,37.904 352.3,37.904 C351.352,37.904 350.68,38.6 350.392,39.512 L350.368,39.512 C350.368,39.512 350.392,39.296 350.392,39.032 L350.392,37.964 L349.588,37.964 L349.588,44 Z M353.836,36.584 L354.688,36.584 L354.688,35.564 L353.836,35.564 L353.836,36.584 Z M353.86,44 L354.676,44 L354.676,37.964 L353.86,37.964 L353.86,44 Z M356.224,40.988 C356.224,42.848 357.58,44.144 359.38,44.144 C360.736,44.144 361.612,43.304 361.612,43.304 L361.24,42.68 C361.24,42.68 360.508,43.412 359.404,43.412 C358.156,43.412 357.1,42.572 357.064,41.024 L361.696,41.024 C361.696,41.024 361.72,40.748 361.72,40.604 C361.72,39.104 360.868,37.82 359.2,37.82 C357.568,37.82 356.224,39.008 356.224,40.988 L356.224,40.988 Z M357.1,40.352 C357.292,39.14 358.168,38.504 359.176,38.504 C360.076,38.504 360.844,39.092 360.892,40.352 L357.1,40.352 Z M363.544,40.964 L366.952,40.964 L366.952,40.22 L363.544,40.22 L363.544,40.964 Z M333.628,62.4 L334.444,62.4 L334.444,59.52 C334.444,59.208 334.42,58.992 334.42,58.992 L334.444,58.992 C334.444,58.992 334.972,60.144 336.424,60.144 C337.984,60.144 339.124,58.896 339.124,56.988 C339.124,55.116 338.116,53.82 336.496,53.82 C334.9,53.82 334.408,55.02 334.408,55.02 L334.384,55.02 C334.384,55.02 334.408,54.816 334.408,54.552 L334.408,53.964 L333.628,53.964 L333.628,62.4 Z M334.42,57 C334.42,55.284 335.368,54.564 336.376,54.564 C337.504,54.564 338.284,55.512 338.284,56.988 C338.284,58.524 337.408,59.424 336.34,59.424 C335.092,59.424 334.42,58.212 334.42,57 L334.42,57 Z M340.276,56.988 C340.276,58.848 341.632,60.144 343.432,60.144 C344.788,60.144 345.664,59.304 345.664,59.304 L345.292,58.68 C345.292,58.68 344.56,59.412 343.456,59.412 C342.208,59.412 341.152,58.572 341.116,57.024 L345.748,57.024 C345.748,57.024 345.772,56.748 345.772,56.604 C345.772,55.104 344.92,53.82 343.252,53.82 C341.62,53.82 340.276,55.008 340.276,56.988 L340.276,56.988 Z M341.152,56.352 C341.344,55.14 342.22,54.504 343.228,54.504 C344.128,54.504 344.896,55.092 344.944,56.352 L341.152,56.352 Z M347.332,60 L348.148,60 L348.148,57.108 C348.148,56.82 348.172,56.544 348.244,56.292 C348.52,55.296 349.408,54.588 350.44,54.588 C351.604,54.588 351.748,55.428 351.748,56.376 L351.748,60 L352.564,60 L352.564,56.16 C352.564,54.672 352.036,53.82 350.548,53.82 C349.12,53.82 348.352,54.792 348.136,55.344 L348.112,55.344 C348.112,55.344 348.136,55.128 348.136,54.864 L348.136,53.964 L347.332,53.964 L347.332,60 Z M354.904,61.368 L354.592,62.04 C355.18,62.34 355.876,62.52 356.572,62.52 C358.048,62.52 359.464,61.776 359.464,59.856 L359.464,53.964 L358.672,53.964 L358.672,54.624 C358.672,54.756 358.684,54.828 358.684,54.828 L358.66,54.828 C358.66,54.828 358.264,53.82 356.668,53.82 C355.048,53.82 354.052,55.056 354.052,56.868 C354.052,58.68 355.12,59.964 356.74,59.964 C357.676,59.964 358.288,59.58 358.648,58.908 L358.672,58.908 C358.672,58.908 358.648,59.112 358.648,59.34 L358.648,59.892 C358.648,61.236 357.712,61.788 356.536,61.788 C355.648,61.788 354.904,61.368 354.904,61.368 L354.904,61.368 Z M356.872,59.232 C355.672,59.232 354.892,58.296 354.892,56.856 C354.892,55.416 355.576,54.564 356.752,54.564 C357.82,54.564 358.66,55.104 358.66,56.868 C358.66,58.644 357.82,59.232 356.872,59.232 L356.872,59.232 Z M361.012,56.988 C361.012,58.848 362.368,60.144 364.168,60.144 C365.524,60.144 366.4,59.304 366.4,59.304 L366.028,58.68 C366.028,58.68 365.296,59.412 364.192,59.412 C362.944,59.412 361.888,58.572 361.852,57.024 L366.484,57.024 C366.484,57.024 366.508,56.748 366.508,56.604 C366.508,55.104 365.656,53.82 363.988,53.82 C362.356,53.82 361.012,55.008 361.012,56.988 L361.012,56.988 Z M361.888,56.352 C362.08,55.14 362.956,54.504 363.964,54.504 C364.864,54.504 365.632,55.092 365.68,56.352 L361.888,56.352 Z M368.068,60 L368.884,60 L368.884,57.456 C368.884,57.072 368.932,56.664 369.052,56.28 C369.316,55.392 369.952,54.72 370.804,54.72 C370.96,54.72 371.104,54.744 371.104,54.744 L371.104,53.94 C371.104,53.94 370.948,53.904 370.78,53.904 C369.832,53.904 369.16,54.6 368.872,55.512 L368.848,55.512 C368.848,55.512 368.872,55.296 368.872,55.032 L368.872,53.964 L368.068,53.964 L368.068,60 Z" id="Ferie-penger" fill="#262626"></path>
            <path d="M725.212,76 L726.04,76 L726.04,72.148 L730.936,72.148 L730.936,76 L731.764,76 L731.764,67.564 L730.936,67.564 L730.936,71.404 L726.04,71.404 L726.04,67.564 L725.212,67.564 L725.212,76 Z M733.48,74.356 C733.48,75.556 734.524,76.144 735.532,76.144 C737.044,76.144 737.548,74.836 737.548,74.836 L737.572,74.836 C737.572,74.836 737.548,75.04 737.548,75.34 L737.548,76 L738.328,76 L738.328,72.136 C738.328,70.624 737.524,69.82 736.072,69.82 C734.716,69.82 733.924,70.504 733.924,70.504 L734.308,71.128 C734.308,71.128 735.016,70.552 736.012,70.552 C736.876,70.552 737.512,70.948 737.512,72.112 L737.512,72.268 L737.176,72.268 C736.132,72.268 733.48,72.316 733.48,74.356 L733.48,74.356 Z M734.32,74.308 C734.32,72.976 736.216,72.94 737.164,72.94 L737.512,72.94 L737.512,73.204 C737.512,74.248 736.816,75.448 735.664,75.448 C734.764,75.448 734.32,74.872 734.32,74.308 L734.32,74.308 Z M740.152,74.572 C740.152,75.892 741.04,76.048 741.544,76.048 C741.7,76.048 741.844,76.024 741.844,76.024 L741.844,75.292 C741.844,75.292 741.748,75.304 741.64,75.304 C741.328,75.304 740.968,75.184 740.968,74.392 L740.968,67.564 L740.152,67.564 L740.152,74.572 Z M744.664,76 L745.552,76 L747.856,69.964 L747.004,69.964 L745.336,74.392 C745.216,74.704 745.12,75.112 745.12,75.112 L745.096,75.112 C745.096,75.112 745,74.692 744.892,74.392 L743.212,69.964 L742.348,69.964 L744.664,76 Z M723.718,91.268 C723.718,91.268 724.486,92.144 725.95,92.144 C727.162,92.144 728.014,91.436 728.014,90.452 C728.014,88.46 724.762,88.82 724.762,87.488 C724.762,86.816 725.35,86.552 725.962,86.552 C726.958,86.552 727.474,87.104 727.474,87.104 L727.846,86.48 C727.846,86.48 727.258,85.82 725.986,85.82 C724.894,85.82 723.922,86.408 723.922,87.488 C723.922,89.456 727.174,89.132 727.174,90.452 C727.174,91.088 726.61,91.412 725.962,91.412 C724.834,91.412 724.162,90.68 724.162,90.68 L723.718,91.268 Z M729.526,92 L730.342,92 L730.342,88.976 L731.314,88.976 L733.33,92 L734.302,92 L731.998,88.616 L731.998,88.592 L734.098,85.964 L733.114,85.964 L731.302,88.268 L730.342,88.268 L730.342,83.564 L729.526,83.564 L729.526,92 Z M735.022,90.356 C735.022,91.556 736.066,92.144 737.074,92.144 C738.586,92.144 739.09,90.836 739.09,90.836 L739.114,90.836 C739.114,90.836 739.09,91.04 739.09,91.34 L739.09,92 L739.87,92 L739.87,88.136 C739.87,86.624 739.066,85.82 737.614,85.82 C736.258,85.82 735.466,86.504 735.466,86.504 L735.85,87.128 C735.85,87.128 736.558,86.552 737.554,86.552 C738.418,86.552 739.054,86.948 739.054,88.112 L739.054,88.268 L738.718,88.268 C737.674,88.268 735.022,88.316 735.022,90.356 L735.022,90.356 Z M735.862,90.308 C735.862,88.976 737.758,88.94 738.706,88.94 L739.054,88.94 L739.054,89.204 C739.054,90.248 738.358,91.448 737.206,91.448 C736.306,91.448 735.862,90.872 735.862,90.308 L735.862,90.308 Z M741.946,89.804 C741.946,91.82 743.35,92.048 744.046,92.048 C744.262,92.048 744.394,92.024 744.394,92.024 L744.394,91.292 C744.394,91.292 744.286,91.316 744.118,91.316 C743.662,91.316 742.762,91.136 742.762,89.72 L742.762,86.72 L744.274,86.72 L744.274,86.036 L742.762,86.036 L742.762,84.296 L741.958,84.296 L741.958,86.036 L741.154,86.036 L741.154,86.72 L741.946,86.72 L741.946,89.804 Z M745.966,89.804 C745.966,91.82 747.37,92.048 748.066,92.048 C748.282,92.048 748.414,92.024 748.414,92.024 L748.414,91.292 C748.414,91.292 748.306,91.316 748.138,91.316 C747.682,91.316 746.782,91.136 746.782,89.72 L746.782,86.72 L748.294,86.72 L748.294,86.036 L746.782,86.036 L746.782,84.296 L745.978,84.296 L745.978,86.036 L745.174,86.036 L745.174,86.72 L745.966,86.72 L745.966,89.804 Z" id="Halv-skatt" fill="#262626"></path>
            <path d="M591.434,52 L594.518,52 C596.09,52 597.458,51.232 597.458,49.528 C597.458,48.664 597.014,47.8 596.078,47.524 L596.078,47.5 C596.726,47.152 597.11,46.468 597.11,45.676 C597.11,44.272 596.018,43.48 594.482,43.48 L591.434,43.48 L591.434,52 Z M592.982,46.96 L592.982,44.812 L594.458,44.812 C595.178,44.812 595.538,45.256 595.538,45.868 C595.538,46.48 595.154,46.96 594.482,46.96 L592.982,46.96 Z M592.982,50.668 L592.982,48.208 L594.638,48.208 C595.418,48.208 595.874,48.724 595.874,49.432 C595.874,50.152 595.43,50.668 594.638,50.668 L592.982,50.668 Z M598.442,48.94 C598.442,50.824 599.942,52.144 601.814,52.144 C603.674,52.144 605.174,50.824 605.174,48.94 C605.174,47.068 603.674,45.736 601.802,45.736 C599.942,45.736 598.442,47.068 598.442,48.94 L598.442,48.94 Z M599.99,48.94 C599.99,47.812 600.818,47.032 601.814,47.032 C602.798,47.032 603.626,47.812 603.626,48.94 C603.626,50.08 602.798,50.848 601.814,50.848 C600.818,50.848 599.99,50.08 599.99,48.94 L599.99,48.94 Z M606.398,52 L607.922,52 L607.922,49.192 C607.922,48.904 607.946,48.628 608.03,48.376 C608.258,47.644 608.858,47.128 609.674,47.128 C610.454,47.128 610.646,47.632 610.646,48.376 L610.646,52 L612.158,52 L612.158,48.064 C612.158,46.444 611.39,45.736 610.034,45.736 C608.798,45.736 608.126,46.492 607.862,47.008 L607.838,47.008 C607.838,47.008 607.862,46.816 607.862,46.588 L607.862,45.88 L606.398,45.88 L606.398,52 Z M613.67,49.816 C613.67,51.484 614.486,52.144 615.794,52.144 C616.838,52.144 617.618,51.508 617.918,50.872 L617.942,50.872 C617.942,50.872 617.918,51.064 617.918,51.304 L617.918,52 L619.382,52 L619.382,45.88 L617.858,45.88 L617.858,48.688 C617.858,49.78 617.246,50.752 616.142,50.752 C615.386,50.752 615.194,50.248 615.194,49.504 L615.194,45.88 L613.67,45.88 L613.67,49.816 Z M620.546,51.244 C620.546,51.244 621.398,52.144 622.922,52.144 C624.374,52.144 625.262,51.328 625.262,50.308 C625.262,48.34 622.286,48.448 622.286,47.584 C622.286,47.2 622.67,47.032 623.066,47.032 C624.002,47.032 624.566,47.56 624.566,47.56 L625.13,46.432 C625.13,46.432 624.458,45.736 623.078,45.736 C621.758,45.736 620.738,46.396 620.738,47.536 C620.738,49.504 623.714,49.384 623.714,50.296 C623.714,50.656 623.342,50.848 622.91,50.848 C621.914,50.848 621.242,50.176 621.242,50.176 L620.546,51.244 Z" id="Bonus-Copy-3" fill="#262626"></path>
            <g id="icon_snow" transform="translate(728.000000, 40.000000)">
                <rect id="bg" x="0" y="0" width="16" height="16"></rect>
                <path d="M4.8011334,10.4242168 L7.5,8.8660254 L7.5,11.9824081 L5.4726499,13.3339749 L6.0273501,14.1660251 L7.5,13.1842585 L7.5,15 L8.5,15 L8.5,13.1842585 L9.9726499,14.1660251 L10.5273501,13.3339749 L8.5,11.9824081 L8.5,8.8660254 L10.9823602,10.2992168 L11.1391763,12.7307368 L12.1371031,12.6663775 L12.0231932,10.900142 L13.8121778,11.9330127 L14.3121778,11.0669873 L12.5231932,10.0341166 L14.109753,9.24964765 L13.6665264,8.35323804 L11.4823602,9.43319136 L9,8 L11.4823602,6.56680864 L13.6665264,7.64676196 L14.109753,6.75035235 L12.5231932,5.96588343 L14.3121778,4.9330127 L13.8121778,4.0669873 L12.0231932,5.09985803 L12.1371031,3.3336225 L11.1391763,3.26926318 L10.9823602,5.70078324 L8.5,7.1339746 L8.5,4.26759188 L10.5273501,2.91602515 L9.9726499,2.08397485 L8.5,3.06574145 L8.5,1 L7.5,1 L7.5,3.06574145 L6.0273501,2.08397485 L5.4726499,2.91602515 L7.5,4.26759188 L7.5,7.1339746 L4.8011334,5.57578324 L4.64431732,3.14426318 L3.64639053,3.2086225 L3.7603004,4.97485803 L2.18782217,4.0669873 L1.68782217,4.9330127 L3.2603004,5.84088343 L1.67374063,6.62535235 L2.11696723,7.52176196 L4.3011334,6.44180864 L7,8 L4.3011334,9.55819136 L2.11696723,8.47823804 L1.67374063,9.37464765 L3.2603004,10.1591166 L1.68782217,11.0669873 L2.18782217,11.9330127 L3.7603004,11.025142 L3.64639053,12.7913775 L4.64431732,12.8557368 L4.8011334,10.4242168 Z" id="Combined-Shape" fill="#262626"></path>
            </g>
            <g id="icon_sun" transform="translate(344.000000, 8.000000)">
                <rect id="bg" x="0" y="0" width="16" height="16"></rect>
                <g id="Group" transform="translate(1.000000, 1.000000)" fill="#262626">
                    <path d="M1.42895882,5.57104118 L1.33226763e-15,7 L1.42895882,8.42895882 C1.31211812,7.97207803 1.25,7.49329325 1.25,7 C1.25,6.50670675 1.31211812,6.02792197 1.42895882,5.57104118 Z M5.57104118,1.42895882 L7,1.77635684e-15 L8.42895882,1.42895882 C7.97207803,1.31211812 7.49329325,1.25 7,1.25 C6.50670675,1.25 6.02792197,1.31211812 5.57104118,1.42895882 Z M12.5710412,5.57104118 L14,7 L12.5710412,8.42895882 C12.6878819,7.97207803 12.75,7.49329325 12.75,7 C12.75,6.50670675 12.6878819,6.02792197 12.5710412,5.57104118 Z M8.42895882,12.5710412 L7,14 L5.57104118,12.5710412 C6.02792197,12.6878819 6.50670675,12.75 7,12.75 C7.49329325,12.75 7.97207803,12.6878819 8.42895882,12.5710412 Z" id="Combined-Shape"></path>
                    <path d="M4.15853331,2 L2,2 L2,4.15853331 C2.51201283,3.25950542 3.25950542,2.51201283 4.15853331,2 Z M9.84146669,2 L12,2 L12,4.15853331 C11.4879872,3.25950542 10.7404946,2.51201283 9.84146669,2 Z M12,9.84146669 L12,12 L9.84146669,12 C10.7404946,11.4879872 11.4879872,10.7404946 12,9.84146669 Z M4.15853331,12 L2,12 L2,9.84146669 C2.51201283,10.7404946 3.25950542,11.4879872 4.15853331,12 Z" id="Combined-Shape"></path>
                    <g id="Group-3" transform="translate(2.000000, 2.000000)">
                        <path d="M9,5 C9,2.790861 7.209139,1 5,1 C2.790861,1 1,2.790861 1,5 C1,7.209139 2.790861,9 5,9 C7.209139,9 9,7.209139 9,5 Z M0,5 C0,2.23857625 2.23857625,0 5,0 C7.76142375,0 10,2.23857625 10,5 C10,7.76142375 7.76142375,10 5,10 C2.23857625,10 0,7.76142375 0,5 Z" id="Oval"></path>
                    </g>
                </g>
            </g>
        </g>
    </g>
</svg>