<?xml version="1.0" encoding="UTF-8"?>
<svg width="768px" height="320px" viewBox="0 0 768 320" version="1.1" xmlns="http://www.w3.org/2000/svg" xmlns:xlink="http://www.w3.org/1999/xlink">
    <!-- Generator: Sketch 39.1 (31720) - http://www.bohemiancoding.com/sketch -->
    <title>salary_labels</title>
    <desc>Created with Sketch.</desc>
    <defs></defs>
    <g id="Page-1" stroke="none" stroke-width="1" fill="none" fill-rule="evenodd">
        <g id="salary_labels">
            <g id="bg" fill="#59CBE8">
                <rect id="Rectangle-Copy-122" x="0" y="0" width="704" height="288"></rect>
            </g>
            <polyline id="graph_line_average" stroke="#000000" stroke-width="8" stroke-linecap="round" stroke-linejoin="round" opacity="0.4" points="31.9999988 252 63.9999988 244 95.9999988 235 127.999999 223 159.999999 211 191.999999 196 223.999999 182 255.999999 168 287.999999 156 319.999999 144 351.999999 132 383.999999 122 415.999999 112 447.999999 103 479.999999 91 511.999999 84 543.999999 76 575.999999 67 608 60 639.999999 55 672 50"></polyline>
            <g id="graph_points_employees" transform="translate(24.000000, 76.000000)" fill="#000000" opacity="0.2">
                <circle id="Oval-Copy-21" cx="8" cy="171" r="8"></circle>
                <circle id="Oval-Copy-23" cx="8" cy="171" r="8"></circle>
                <circle id="Oval-Copy-24" cx="72" cy="169" r="8"></circle>
                <circle id="Oval-Copy-25" cx="104" cy="147" r="8"></circle>
                <circle id="Oval-Copy-27" cx="136" cy="135" r="16"></circle>
                <circle id="Oval-Copy-28" cx="136" cy="135" r="12"></circle>
                <circle id="Oval-Copy-26" cx="136" cy="135" r="8"></circle>
                <circle id="Oval-Copy-29" cx="168" cy="154" r="8"></circle>
                <circle id="Oval-Copy-32" cx="200" cy="87" r="8"></circle>
                <circle id="Oval-Copy-33" cx="232" cy="92" r="16"></circle>
                <circle id="Oval-Copy-33" cx="232" cy="92" r="12"></circle>
                <circle id="Oval-Copy-33" cx="264" cy="68" r="8"></circle>
                <circle id="Oval-Copy-34" cx="264" cy="80" r="8"></circle>
                <circle id="Oval-Copy-35" cx="296" cy="13" r="8"></circle>
                <circle id="Oval-Copy-36" cx="296" cy="20" r="8"></circle>
                <circle id="Oval-Copy-37" cx="328" cy="27" r="8"></circle>
                <circle id="Oval-Copy-38" cx="360" cy="27" r="8"></circle>
                <circle id="Oval-Copy-39" cx="648" cy="8" r="8"></circle>
                <circle id="Oval-Copy-30" cx="168" cy="135" r="8"></circle>
                <circle id="Oval-Copy-31" cx="168" cy="120.800003" r="8"></circle>
                <circle id="Oval-Copy-22" cx="8" cy="180.800003" r="8"></circle>
            </g>
            <g id="graph_points_tekna" transform="translate(28.000000, 51.000000)" fill="#FFFFFF">
                <circle id="Oval" cx="4" cy="201" r="4"></circle>
                <circle id="Oval-Copy" cx="36" cy="193.800003" r="4"></circle>
                <circle id="Oval-Copy-6" cx="196" cy="133.800003" r="4"></circle>
                <circle id="Oval-Copy-11" cx="356" cy="71.4000015" r="4"></circle>
                <circle id="Oval-Copy-16" cx="516" cy="21" r="4"></circle>
                <circle id="Oval-Copy-3" cx="100" cy="172.199997" r="4"></circle>
                <circle id="Oval-Copy-7" cx="260" cy="105" r="4"></circle>
                <circle id="Oval-Copy-12" cx="420" cy="42.5999985" r="4"></circle>
                <circle id="Oval-Copy-17" cx="580" cy="4.20000076" r="4"></circle>
                <circle id="Oval-Copy-2" cx="68" cy="184.199997" r="4"></circle>
                <circle id="Oval-Copy-8" cx="228" cy="117" r="4"></circle>
                <circle id="Oval-Copy-13" cx="388" cy="57" r="4"></circle>
                <circle id="Oval-Copy-18" cx="548" cy="16.2000008" r="4"></circle>
                <circle id="Oval-Copy-4" cx="132" cy="157.800003" r="4"></circle>
                <circle id="Oval-Copy-9" cx="292" cy="100.199997" r="4"></circle>
                <circle id="Oval-Copy-14" cx="452" cy="49.8000031" r="4"></circle>
                <circle id="Oval-Copy-19" cx="612" cy="4" r="4"></circle>
                <circle id="Oval-Copy-5" cx="164" cy="145.800003" r="4"></circle>
                <circle id="Oval-Copy-10" cx="324" cy="78.5999985" r="4"></circle>
                <circle id="Oval-Copy-15" cx="484" cy="37.8000031" r="4"></circle>
                <circle id="Oval-Copy-20" cx="644" cy="4.20000076" r="4"></circle>
            </g>
            <g id="label_y" transform="translate(31.000000, 0.000000)">
                <rect id="bg" fill="#59CBE8" x="673" y="0" width="64" height="288"></rect>
                <g id="lines" transform="translate(0.000000, 63.000000)" fill="#FFFFFF" opacity="0.2">
                    <rect id="Rectangle-Copy-5" x="0" y="200" width="665" height="2"></rect>
                    <rect id="Rectangle-Copy-5" x="0" y="100" width="665" height="2"></rect>
                    <rect id="Rectangle-Copy-5" x="0" y="0" width="665" height="2"></rect>
                </g>
                <g id="1-000-000" transform="translate(673.000000, 53.000000)" fill="#FFFFFF">
                    <rect id="Rectangle" x="0" y="10" width="8" height="2"></rect>
                    <path d="M0.324,5 L2.928,5 L2.928,4.334 L2.004,4.334 L2.004,0.74 L1.326,0.74 L0.258,1.766 L0.714,2.246 L1.056,1.922 C1.194,1.784 1.242,1.682 1.242,1.682 L1.254,1.682 C1.254,1.682 1.248,1.826 1.248,1.97 L1.248,4.334 L0.324,4.334 L0.324,5 Z M6.414,5.072 C7.578,5.072 7.962,4.088 7.962,2.864 C7.962,1.64 7.578,0.668 6.414,0.668 C5.25,0.668 4.872,1.64 4.872,2.864 C4.872,4.088 5.25,5.072 6.414,5.072 L6.414,5.072 Z M6.414,4.364 C5.832,4.364 5.664,3.704 5.664,2.864 C5.664,2.036 5.832,1.382 6.414,1.382 C6.996,1.382 7.164,2.036 7.164,2.864 C7.164,3.704 6.996,4.364 6.414,4.364 L6.414,4.364 Z M10.188,5.072 C11.352,5.072 11.736,4.088 11.736,2.864 C11.736,1.64 11.352,0.668 10.188,0.668 C9.024,0.668 8.646,1.64 8.646,2.864 C8.646,4.088 9.024,5.072 10.188,5.072 L10.188,5.072 Z M10.188,4.364 C9.606,4.364 9.438,3.704 9.438,2.864 C9.438,2.036 9.606,1.382 10.188,1.382 C10.77,1.382 10.938,2.036 10.938,2.864 C10.938,3.704 10.77,4.364 10.188,4.364 L10.188,4.364 Z M13.962,5.072 C15.126,5.072 15.51,4.088 15.51,2.864 C15.51,1.64 15.126,0.668 13.962,0.668 C12.798,0.668 12.42,1.64 12.42,2.864 C12.42,4.088 12.798,5.072 13.962,5.072 L13.962,5.072 Z M13.962,4.364 C13.38,4.364 13.212,3.704 13.212,2.864 C13.212,2.036 13.38,1.382 13.962,1.382 C14.544,1.382 14.712,2.036 14.712,2.864 C14.712,3.704 14.544,4.364 13.962,4.364 L13.962,4.364 Z M19.194,5.072 C20.358,5.072 20.742,4.088 20.742,2.864 C20.742,1.64 20.358,0.668 19.194,0.668 C18.03,0.668 17.652,1.64 17.652,2.864 C17.652,4.088 18.03,5.072 19.194,5.072 L19.194,5.072 Z M19.194,4.364 C18.612,4.364 18.444,3.704 18.444,2.864 C18.444,2.036 18.612,1.382 19.194,1.382 C19.776,1.382 19.944,2.036 19.944,2.864 C19.944,3.704 19.776,4.364 19.194,4.364 L19.194,4.364 Z M22.968,5.072 C24.132,5.072 24.516,4.088 24.516,2.864 C24.516,1.64 24.132,0.668 22.968,0.668 C21.804,0.668 21.426,1.64 21.426,2.864 C21.426,4.088 21.804,5.072 22.968,5.072 L22.968,5.072 Z M22.968,4.364 C22.386,4.364 22.218,3.704 22.218,2.864 C22.218,2.036 22.386,1.382 22.968,1.382 C23.55,1.382 23.718,2.036 23.718,2.864 C23.718,3.704 23.55,4.364 22.968,4.364 L22.968,4.364 Z M26.742,5.072 C27.906,5.072 28.29,4.088 28.29,2.864 C28.29,1.64 27.906,0.668 26.742,0.668 C25.578,0.668 25.2,1.64 25.2,2.864 C25.2,4.088 25.578,5.072 26.742,5.072 L26.742,5.072 Z M26.742,4.364 C26.16,4.364 25.992,3.704 25.992,2.864 C25.992,2.036 26.16,1.382 26.742,1.382 C27.324,1.382 27.492,2.036 27.492,2.864 C27.492,3.704 27.324,4.364 26.742,4.364 L26.742,4.364 Z"></path>
                </g>
                <g id="750-000" transform="translate(673.000000, 153.000000)" fill="#FFFFFF">
                    <rect id="Rectangle-Copy-3" x="0" y="10" width="8" height="2"></rect>
                    <path d="M0.468,5 L1.272,5 L3.138,1.28 L3.138,0.74 L0.21,0.74 L0.21,1.406 L2.028,1.406 C2.238,1.406 2.322,1.394 2.322,1.394 L2.322,1.406 C2.322,1.406 2.196,1.532 2.064,1.796 L0.468,5 Z M3.522,4.496 C3.522,4.496 3.984,5.072 4.884,5.072 C5.772,5.072 6.42,4.448 6.42,3.608 C6.42,2.84 5.862,2.21 4.92,2.21 C4.662,2.21 4.464,2.306 4.464,2.306 L4.452,2.306 C4.452,2.306 4.47,2.222 4.482,2.108 L4.548,1.406 L6.12,1.406 L6.12,0.74 L3.882,0.74 L3.684,2.9 L4.11,3.056 C4.11,3.056 4.392,2.876 4.77,2.876 C5.256,2.876 5.628,3.17 5.628,3.614 C5.628,4.064 5.238,4.34 4.824,4.34 C4.272,4.34 3.918,3.914 3.918,3.914 L3.522,4.496 Z M8.562,5.072 C9.726,5.072 10.11,4.088 10.11,2.864 C10.11,1.64 9.726,0.668 8.562,0.668 C7.398,0.668 7.02,1.64 7.02,2.864 C7.02,4.088 7.398,5.072 8.562,5.072 L8.562,5.072 Z M8.562,4.364 C7.98,4.364 7.812,3.704 7.812,2.864 C7.812,2.036 7.98,1.382 8.562,1.382 C9.144,1.382 9.312,2.036 9.312,2.864 C9.312,3.704 9.144,4.364 8.562,4.364 L8.562,4.364 Z M13.794,5.072 C14.958,5.072 15.342,4.088 15.342,2.864 C15.342,1.64 14.958,0.668 13.794,0.668 C12.63,0.668 12.252,1.64 12.252,2.864 C12.252,4.088 12.63,5.072 13.794,5.072 L13.794,5.072 Z M13.794,4.364 C13.212,4.364 13.044,3.704 13.044,2.864 C13.044,2.036 13.212,1.382 13.794,1.382 C14.376,1.382 14.544,2.036 14.544,2.864 C14.544,3.704 14.376,4.364 13.794,4.364 L13.794,4.364 Z M17.568,5.072 C18.732,5.072 19.116,4.088 19.116,2.864 C19.116,1.64 18.732,0.668 17.568,0.668 C16.404,0.668 16.026,1.64 16.026,2.864 C16.026,4.088 16.404,5.072 17.568,5.072 L17.568,5.072 Z M17.568,4.364 C16.986,4.364 16.818,3.704 16.818,2.864 C16.818,2.036 16.986,1.382 17.568,1.382 C18.15,1.382 18.318,2.036 18.318,2.864 C18.318,3.704 18.15,4.364 17.568,4.364 L17.568,4.364 Z M21.342,5.072 C22.506,5.072 22.89,4.088 22.89,2.864 C22.89,1.64 22.506,0.668 21.342,0.668 C20.178,0.668 19.8,1.64 19.8,2.864 C19.8,4.088 20.178,5.072 21.342,5.072 L21.342,5.072 Z M21.342,4.364 C20.76,4.364 20.592,3.704 20.592,2.864 C20.592,2.036 20.76,1.382 21.342,1.382 C21.924,1.382 22.092,2.036 22.092,2.864 C22.092,3.704 21.924,4.364 21.342,4.364 L21.342,4.364 Z"></path>
                </g>
                <g id="500-000" transform="translate(673.000000, 253.000000)" fill="#FFFFFF">
                    <rect id="Rectangle-Copy-5" x="0" y="10" width="8" height="2"></rect>
                    <path d="M0.258,4.496 C0.258,4.496 0.72,5.072 1.62,5.072 C2.508,5.072 3.156,4.448 3.156,3.608 C3.156,2.84 2.598,2.21 1.656,2.21 C1.398,2.21 1.2,2.306 1.2,2.306 L1.188,2.306 C1.188,2.306 1.206,2.222 1.218,2.108 L1.284,1.406 L2.856,1.406 L2.856,0.74 L0.618,0.74 L0.42,2.9 L0.846,3.056 C0.846,3.056 1.128,2.876 1.506,2.876 C1.992,2.876 2.364,3.17 2.364,3.614 C2.364,4.064 1.974,4.34 1.56,4.34 C1.008,4.34 0.654,3.914 0.654,3.914 L0.258,4.496 Z M5.298,5.072 C6.462,5.072 6.846,4.088 6.846,2.864 C6.846,1.64 6.462,0.668 5.298,0.668 C4.134,0.668 3.756,1.64 3.756,2.864 C3.756,4.088 4.134,5.072 5.298,5.072 L5.298,5.072 Z M5.298,4.364 C4.716,4.364 4.548,3.704 4.548,2.864 C4.548,2.036 4.716,1.382 5.298,1.382 C5.88,1.382 6.048,2.036 6.048,2.864 C6.048,3.704 5.88,4.364 5.298,4.364 L5.298,4.364 Z M9.072,5.072 C10.236,5.072 10.62,4.088 10.62,2.864 C10.62,1.64 10.236,0.668 9.072,0.668 C7.908,0.668 7.53,1.64 7.53,2.864 C7.53,4.088 7.908,5.072 9.072,5.072 L9.072,5.072 Z M9.072,4.364 C8.49,4.364 8.322,3.704 8.322,2.864 C8.322,2.036 8.49,1.382 9.072,1.382 C9.654,1.382 9.822,2.036 9.822,2.864 C9.822,3.704 9.654,4.364 9.072,4.364 L9.072,4.364 Z M14.304,5.072 C15.468,5.072 15.852,4.088 15.852,2.864 C15.852,1.64 15.468,0.668 14.304,0.668 C13.14,0.668 12.762,1.64 12.762,2.864 C12.762,4.088 13.14,5.072 14.304,5.072 L14.304,5.072 Z M14.304,4.364 C13.722,4.364 13.554,3.704 13.554,2.864 C13.554,2.036 13.722,1.382 14.304,1.382 C14.886,1.382 15.054,2.036 15.054,2.864 C15.054,3.704 14.886,4.364 14.304,4.364 L14.304,4.364 Z M18.078,5.072 C19.242,5.072 19.626,4.088 19.626,2.864 C19.626,1.64 19.242,0.668 18.078,0.668 C16.914,0.668 16.536,1.64 16.536,2.864 C16.536,4.088 16.914,5.072 18.078,5.072 L18.078,5.072 Z M18.078,4.364 C17.496,4.364 17.328,3.704 17.328,2.864 C17.328,2.036 17.496,1.382 18.078,1.382 C18.66,1.382 18.828,2.036 18.828,2.864 C18.828,3.704 18.66,4.364 18.078,4.364 L18.078,4.364 Z M21.852,5.072 C23.016,5.072 23.4,4.088 23.4,2.864 C23.4,1.64 23.016,0.668 21.852,0.668 C20.688,0.668 20.31,1.64 20.31,2.864 C20.31,4.088 20.688,5.072 21.852,5.072 L21.852,5.072 Z M21.852,4.364 C21.27,4.364 21.102,3.704 21.102,2.864 C21.102,2.036 21.27,1.382 21.852,1.382 C22.434,1.382 22.602,2.036 22.602,2.864 C22.602,3.704 22.434,4.364 21.852,4.364 L21.852,4.364 Z"></path>
                </g>
            </g>
            <g id="label_x" transform="translate(0.000000, 24.000000)">
                <rect id="bg" fill="#59CBE8" x="0" y="264" width="768" height="32"></rect>
                <g id="lines" transform="translate(31.000000, 0.000000)" fill="#FFFFFF" opacity="0.2">
                    <rect id="Rectangle-Copy-6" x="640" y="0" width="2" height="256"></rect>
                    <rect id="Rectangle-Copy-7" x="0" y="0" width="2" height="256"></rect>
                    <rect id="Rectangle-Copy-8" x="160" y="0" width="2" height="256"></rect>
                    <rect id="Rectangle-Copy-6" x="480" y="0" width="2" height="256"></rect>
                    <rect id="Rectangle-Copy-6" x="320" y="0" width="2" height="256"></rect>
                </g>
                <g id="2015" transform="translate(31.000000, 264.000000)" fill="#FFFFFF">
                    <rect id="Rectangle-Copy-5" x="0" y="0" width="2" height="8"></rect>
                    <path d="M6.336,8 L9.162,8 L9.162,7.334 L7.17,7.334 C7.188,6.53 9.096,6.296 9.096,4.928 C9.096,4.124 8.46,3.668 7.71,3.668 C6.69,3.668 6.3,4.52 6.3,4.52 L6.876,4.904 C6.876,4.904 7.146,4.4 7.644,4.4 C8.004,4.4 8.292,4.622 8.292,4.994 C8.292,5.84 6.3,6.086 6.3,7.622 C6.3,7.742 6.318,7.862 6.336,8 L6.336,8 Z M11.364,8.072 C12.528,8.072 12.912,7.088 12.912,5.864 C12.912,4.64 12.528,3.668 11.364,3.668 C10.2,3.668 9.822,4.64 9.822,5.864 C9.822,7.088 10.2,8.072 11.364,8.072 L11.364,8.072 Z M11.364,7.364 C10.782,7.364 10.614,6.704 10.614,5.864 C10.614,5.036 10.782,4.382 11.364,4.382 C11.946,4.382 12.114,5.036 12.114,5.864 C12.114,6.704 11.946,7.364 11.364,7.364 L11.364,7.364 Z M13.578,8 L16.182,8 L16.182,7.334 L15.258,7.334 L15.258,3.74 L14.58,3.74 L13.512,4.766 L13.968,5.246 L14.31,4.922 C14.448,4.784 14.496,4.682 14.496,4.682 L14.508,4.682 C14.508,4.682 14.502,4.826 14.502,4.97 L14.502,7.334 L13.578,7.334 L13.578,8 Z M16.584,7.496 C16.584,7.496 17.046,8.072 17.946,8.072 C18.834,8.072 19.482,7.448 19.482,6.608 C19.482,5.84 18.924,5.21 17.982,5.21 C17.724,5.21 17.526,5.306 17.526,5.306 L17.514,5.306 C17.514,5.306 17.532,5.222 17.544,5.108 L17.61,4.406 L19.182,4.406 L19.182,3.74 L16.944,3.74 L16.746,5.9 L17.172,6.056 C17.172,6.056 17.454,5.876 17.832,5.876 C18.318,5.876 18.69,6.17 18.69,6.614 C18.69,7.064 18.3,7.34 17.886,7.34 C17.334,7.34 16.98,6.914 16.98,6.914 L16.584,7.496 Z"></path>
                </g>
                <g id="2010" transform="translate(191.000000, 264.000000)" fill="#FFFFFF">
                    <rect id="Rectangle-Copy-5" x="0" y="0" width="2" height="8"></rect>
                    <path d="M6.336,8 L9.162,8 L9.162,7.334 L7.17,7.334 C7.188,6.53 9.096,6.296 9.096,4.928 C9.096,4.124 8.46,3.668 7.71,3.668 C6.69,3.668 6.3,4.52 6.3,4.52 L6.876,4.904 C6.876,4.904 7.146,4.4 7.644,4.4 C8.004,4.4 8.292,4.622 8.292,4.994 C8.292,5.84 6.3,6.086 6.3,7.622 C6.3,7.742 6.318,7.862 6.336,8 L6.336,8 Z M11.364,8.072 C12.528,8.072 12.912,7.088 12.912,5.864 C12.912,4.64 12.528,3.668 11.364,3.668 C10.2,3.668 9.822,4.64 9.822,5.864 C9.822,7.088 10.2,8.072 11.364,8.072 L11.364,8.072 Z M11.364,7.364 C10.782,7.364 10.614,6.704 10.614,5.864 C10.614,5.036 10.782,4.382 11.364,4.382 C11.946,4.382 12.114,5.036 12.114,5.864 C12.114,6.704 11.946,7.364 11.364,7.364 L11.364,7.364 Z M13.578,8 L16.182,8 L16.182,7.334 L15.258,7.334 L15.258,3.74 L14.58,3.74 L13.512,4.766 L13.968,5.246 L14.31,4.922 C14.448,4.784 14.496,4.682 14.496,4.682 L14.508,4.682 C14.508,4.682 14.502,4.826 14.502,4.97 L14.502,7.334 L13.578,7.334 L13.578,8 Z M18.21,8.072 C19.374,8.072 19.758,7.088 19.758,5.864 C19.758,4.64 19.374,3.668 18.21,3.668 C17.046,3.668 16.668,4.64 16.668,5.864 C16.668,7.088 17.046,8.072 18.21,8.072 L18.21,8.072 Z M18.21,7.364 C17.628,7.364 17.46,6.704 17.46,5.864 C17.46,5.036 17.628,4.382 18.21,4.382 C18.792,4.382 18.96,5.036 18.96,5.864 C18.96,6.704 18.792,7.364 18.21,7.364 L18.21,7.364 Z"></path>
                </g>
                <g id="2005" transform="translate(351.000000, 264.000000)" fill="#FFFFFF">
                    <rect id="Rectangle-Copy-5" x="0" y="0" width="2" height="8"></rect>
                    <path d="M6.336,8 L9.162,8 L9.162,7.334 L7.17,7.334 C7.188,6.53 9.096,6.296 9.096,4.928 C9.096,4.124 8.46,3.668 7.71,3.668 C6.69,3.668 6.3,4.52 6.3,4.52 L6.876,4.904 C6.876,4.904 7.146,4.4 7.644,4.4 C8.004,4.4 8.292,4.622 8.292,4.994 C8.292,5.84 6.3,6.086 6.3,7.622 C6.3,7.742 6.318,7.862 6.336,8 L6.336,8 Z M11.364,8.072 C12.528,8.072 12.912,7.088 12.912,5.864 C12.912,4.64 12.528,3.668 11.364,3.668 C10.2,3.668 9.822,4.64 9.822,5.864 C9.822,7.088 10.2,8.072 11.364,8.072 L11.364,8.072 Z M11.364,7.364 C10.782,7.364 10.614,6.704 10.614,5.864 C10.614,5.036 10.782,4.382 11.364,4.382 C11.946,4.382 12.114,5.036 12.114,5.864 C12.114,6.704 11.946,7.364 11.364,7.364 L11.364,7.364 Z M15.138,8.072 C16.302,8.072 16.686,7.088 16.686,5.864 C16.686,4.64 16.302,3.668 15.138,3.668 C13.974,3.668 13.596,4.64 13.596,5.864 C13.596,7.088 13.974,8.072 15.138,8.072 L15.138,8.072 Z M15.138,7.364 C14.556,7.364 14.388,6.704 14.388,5.864 C14.388,5.036 14.556,4.382 15.138,4.382 C15.72,4.382 15.888,5.036 15.888,5.864 C15.888,6.704 15.72,7.364 15.138,7.364 L15.138,7.364 Z M17.286,7.496 C17.286,7.496 17.748,8.072 18.648,8.072 C19.536,8.072 20.184,7.448 20.184,6.608 C20.184,5.84 19.626,5.21 18.684,5.21 C18.426,5.21 18.228,5.306 18.228,5.306 L18.216,5.306 C18.216,5.306 18.234,5.222 18.246,5.108 L18.312,4.406 L19.884,4.406 L19.884,3.74 L17.646,3.74 L17.448,5.9 L17.874,6.056 C17.874,6.056 18.156,5.876 18.534,5.876 C19.02,5.876 19.392,6.17 19.392,6.614 C19.392,7.064 19.002,7.34 18.588,7.34 C18.036,7.34 17.682,6.914 17.682,6.914 L17.286,7.496 Z"></path>
                </g>
                <g id="2000" transform="translate(512.000000, 264.000000)" fill="#FFFFFF">
                    <rect id="Rectangle-Copy-5" x="0" y="0" width="2" height="8"></rect>
                    <path d="M6.336,8 L9.162,8 L9.162,7.334 L7.17,7.334 C7.188,6.53 9.096,6.296 9.096,4.928 C9.096,4.124 8.46,3.668 7.71,3.668 C6.69,3.668 6.3,4.52 6.3,4.52 L6.876,4.904 C6.876,4.904 7.146,4.4 7.644,4.4 C8.004,4.4 8.292,4.622 8.292,4.994 C8.292,5.84 6.3,6.086 6.3,7.622 C6.3,7.742 6.318,7.862 6.336,8 L6.336,8 Z M11.364,8.072 C12.528,8.072 12.912,7.088 12.912,5.864 C12.912,4.64 12.528,3.668 11.364,3.668 C10.2,3.668 9.822,4.64 9.822,5.864 C9.822,7.088 10.2,8.072 11.364,8.072 L11.364,8.072 Z M11.364,7.364 C10.782,7.364 10.614,6.704 10.614,5.864 C10.614,5.036 10.782,4.382 11.364,4.382 C11.946,4.382 12.114,5.036 12.114,5.864 C12.114,6.704 11.946,7.364 11.364,7.364 L11.364,7.364 Z M15.138,8.072 C16.302,8.072 16.686,7.088 16.686,5.864 C16.686,4.64 16.302,3.668 15.138,3.668 C13.974,3.668 13.596,4.64 13.596,5.864 C13.596,7.088 13.974,8.072 15.138,8.072 L15.138,8.072 Z M15.138,7.364 C14.556,7.364 14.388,6.704 14.388,5.864 C14.388,5.036 14.556,4.382 15.138,4.382 C15.72,4.382 15.888,5.036 15.888,5.864 C15.888,6.704 15.72,7.364 15.138,7.364 L15.138,7.364 Z M18.912,8.072 C20.076,8.072 20.46,7.088 20.46,5.864 C20.46,4.64 20.076,3.668 18.912,3.668 C17.748,3.668 17.37,4.64 17.37,5.864 C17.37,7.088 17.748,8.072 18.912,8.072 L18.912,8.072 Z M18.912,7.364 C18.33,7.364 18.162,6.704 18.162,5.864 C18.162,5.036 18.33,4.382 18.912,4.382 C19.494,4.382 19.662,5.036 19.662,5.864 C19.662,6.704 19.494,7.364 18.912,7.364 L18.912,7.364 Z"></path>
                </g>
                <g id="1995" transform="translate(671.000000, 264.000000)" fill="#FFFFFF">
                    <rect id="Rectangle-Copy-5" x="0" y="0" width="2" height="8"></rect>
                    <path d="M6.324,8 L8.928,8 L8.928,7.334 L8.004,7.334 L8.004,3.74 L7.326,3.74 L6.258,4.766 L6.714,5.246 L7.056,4.922 C7.194,4.784 7.242,4.682 7.242,4.682 L7.254,4.682 C7.254,4.682 7.248,4.826 7.248,4.97 L7.248,7.334 L6.324,7.334 L6.324,8 Z M10.416,8.072 C11.736,8.072 12.378,6.806 12.378,5.69 C12.378,4.406 11.622,3.668 10.734,3.668 C9.888,3.668 9.33,4.31 9.33,5.096 C9.33,5.864 9.852,6.524 10.692,6.524 C10.998,6.524 11.346,6.398 11.496,6.224 L11.508,6.224 C11.4,6.806 11.04,7.364 10.368,7.364 C10.044,7.364 9.774,7.226 9.774,7.226 L9.546,7.892 C9.546,7.892 9.876,8.072 10.416,8.072 L10.416,8.072 Z M10.878,5.888 C10.362,5.888 10.092,5.528 10.092,5.096 C10.092,4.694 10.338,4.382 10.734,4.382 C11.178,4.382 11.574,4.892 11.574,5.426 C11.574,5.684 11.262,5.888 10.878,5.888 L10.878,5.888 Z M14.04,8.072 C15.36,8.072 16.002,6.806 16.002,5.69 C16.002,4.406 15.246,3.668 14.358,3.668 C13.512,3.668 12.954,4.31 12.954,5.096 C12.954,5.864 13.476,6.524 14.316,6.524 C14.622,6.524 14.97,6.398 15.12,6.224 L15.132,6.224 C15.024,6.806 14.664,7.364 13.992,7.364 C13.668,7.364 13.398,7.226 13.398,7.226 L13.17,7.892 C13.17,7.892 13.5,8.072 14.04,8.072 L14.04,8.072 Z M14.502,5.888 C13.986,5.888 13.716,5.528 13.716,5.096 C13.716,4.694 13.962,4.382 14.358,4.382 C14.802,4.382 15.198,4.892 15.198,5.426 C15.198,5.684 14.886,5.888 14.502,5.888 L14.502,5.888 Z M16.578,7.496 C16.578,7.496 17.04,8.072 17.94,8.072 C18.828,8.072 19.476,7.448 19.476,6.608 C19.476,5.84 18.918,5.21 17.976,5.21 C17.718,5.21 17.52,5.306 17.52,5.306 L17.508,5.306 C17.508,5.306 17.526,5.222 17.538,5.108 L17.604,4.406 L19.176,4.406 L19.176,3.74 L16.938,3.74 L16.74,5.9 L17.166,6.056 C17.166,6.056 17.448,5.876 17.826,5.876 C18.312,5.876 18.684,6.17 18.684,6.614 C18.684,7.064 18.294,7.34 17.88,7.34 C17.328,7.34 16.974,6.914 16.974,6.914 L16.578,7.496 Z"></path>
                </g>
            </g>
            <g id="graph_legend" transform="translate(40.000000, 24.000000)">
                <circle id="Oval-Copy-40" fill="#FFFFFF" cx="4" cy="4" r="4"></circle>
                <circle id="Oval-Copy-41" fill="#000000" opacity="0.2" cx="4" cy="16" r="4"></circle>
                <rect id="Rectangle-2" fill="#000000" opacity="0.4" x="0" y="24" width="8" height="8"></rect>
                <path d="M17.56,6 L17.974,6 L17.974,2.154 L19.486,2.154 L19.486,1.782 L16.042,1.782 L16.042,2.154 L17.56,2.154 L17.56,6 Z M19.24,4.494 C19.24,5.424 19.918,6.072 20.818,6.072 C21.496,6.072 21.934,5.652 21.934,5.652 L21.748,5.34 C21.748,5.34 21.382,5.706 20.83,5.706 C20.206,5.706 19.678,5.286 19.66,4.512 L21.976,4.512 C21.976,4.512 21.988,4.374 21.988,4.302 C21.988,3.552 21.562,2.91 20.728,2.91 C19.912,2.91 19.24,3.504 19.24,4.494 L19.24,4.494 Z M19.678,4.176 C19.774,3.57 20.212,3.252 20.716,3.252 C21.166,3.252 21.55,3.546 21.574,4.176 L19.678,4.176 Z M22.768,6 L23.176,6 L23.176,4.488 L23.662,4.488 L24.67,6 L25.156,6 L24.004,4.308 L24.004,4.296 L25.054,2.982 L24.562,2.982 L23.656,4.134 L23.176,4.134 L23.176,1.782 L22.768,1.782 L22.768,6 Z M25.78,6 L26.188,6 L26.188,4.554 C26.188,4.41 26.2,4.272 26.236,4.146 C26.374,3.648 26.818,3.294 27.334,3.294 C27.916,3.294 27.988,3.714 27.988,4.188 L27.988,6 L28.396,6 L28.396,4.08 C28.396,3.336 28.132,2.91 27.388,2.91 C26.674,2.91 26.29,3.396 26.182,3.672 L26.17,3.672 C26.17,3.672 26.182,3.564 26.182,3.432 L26.182,2.982 L25.78,2.982 L25.78,6 Z M29.092,5.178 C29.092,5.778 29.614,6.072 30.118,6.072 C30.874,6.072 31.126,5.418 31.126,5.418 L31.138,5.418 C31.138,5.418 31.126,5.52 31.126,5.67 L31.126,6 L31.516,6 L31.516,4.068 C31.516,3.312 31.114,2.91 30.388,2.91 C29.71,2.91 29.314,3.252 29.314,3.252 L29.506,3.564 C29.506,3.564 29.86,3.276 30.358,3.276 C30.79,3.276 31.108,3.474 31.108,4.056 L31.108,4.134 L30.94,4.134 C30.418,4.134 29.092,4.158 29.092,5.178 L29.092,5.178 Z M29.512,5.154 C29.512,4.488 30.46,4.47 30.934,4.47 L31.108,4.47 L31.108,4.602 C31.108,5.124 30.76,5.724 30.184,5.724 C29.734,5.724 29.512,5.436 29.512,5.154 L29.512,5.154 Z M32.212,5.634 C32.212,5.634 32.596,6.072 33.328,6.072 C33.934,6.072 34.36,5.718 34.36,5.226 C34.36,4.23 32.734,4.41 32.734,3.744 C32.734,3.408 33.028,3.276 33.334,3.276 C33.832,3.276 34.09,3.552 34.09,3.552 L34.276,3.24 C34.276,3.24 33.982,2.91 33.346,2.91 C32.8,2.91 32.314,3.204 32.314,3.744 C32.314,4.728 33.94,4.566 33.94,5.226 C33.94,5.544 33.658,5.706 33.334,5.706 C32.77,5.706 32.434,5.34 32.434,5.34 L32.212,5.634 Z M36.7,5.286 C36.7,5.946 37.144,6.024 37.396,6.024 C37.474,6.024 37.546,6.012 37.546,6.012 L37.546,5.646 C37.546,5.646 37.498,5.652 37.444,5.652 C37.288,5.652 37.108,5.592 37.108,5.196 L37.108,1.782 L36.7,1.782 L36.7,5.286 Z M37.996,4.476 C37.996,4.986 38.218,5.424 38.566,5.712 L38.344,6.018 L38.59,6.198 L38.818,5.88 C39.046,6 39.31,6.072 39.592,6.072 C40.474,6.072 41.188,5.388 41.188,4.476 C41.188,4.002 40.984,3.588 40.66,3.306 L40.888,2.982 L40.642,2.802 L40.408,3.126 C40.168,2.988 39.892,2.91 39.592,2.91 C38.71,2.91 37.996,3.582 37.996,4.476 L37.996,4.476 Z M38.416,4.476 C38.416,3.792 38.944,3.282 39.592,3.282 C39.808,3.282 40.012,3.342 40.186,3.444 L38.794,5.388 C38.56,5.166 38.416,4.848 38.416,4.476 L38.416,4.476 Z M40.768,4.476 C40.768,5.178 40.24,5.706 39.592,5.706 C39.394,5.706 39.202,5.658 39.04,5.568 L40.426,3.63 C40.636,3.84 40.768,4.14 40.768,4.476 L40.768,4.476 Z M41.956,6 L42.364,6 L42.364,4.554 C42.364,4.41 42.376,4.272 42.412,4.146 C42.55,3.648 42.994,3.294 43.51,3.294 C44.092,3.294 44.164,3.714 44.164,4.188 L44.164,6 L44.572,6 L44.572,4.08 C44.572,3.336 44.308,2.91 43.564,2.91 C42.85,2.91 42.466,3.396 42.358,3.672 L42.346,3.672 C42.346,3.672 42.358,3.564 42.358,3.432 L42.358,2.982 L41.956,2.982 L41.956,6 Z M45.514,6 L45.922,6 L45.922,4.554 C45.922,4.41 45.934,4.272 45.97,4.146 C46.108,3.648 46.552,3.294 47.068,3.294 C47.65,3.294 47.722,3.714 47.722,4.188 L47.722,6 L48.13,6 L48.13,4.08 C48.13,3.336 47.866,2.91 47.122,2.91 C46.408,2.91 46.024,3.396 45.916,3.672 L45.904,3.672 C45.904,3.672 45.916,3.564 45.916,3.432 L45.916,2.982 L45.514,2.982 L45.514,6 Z M48.826,5.634 C48.826,5.634 49.21,6.072 49.942,6.072 C50.548,6.072 50.974,5.718 50.974,5.226 C50.974,4.23 49.348,4.41 49.348,3.744 C49.348,3.408 49.642,3.276 49.948,3.276 C50.446,3.276 50.704,3.552 50.704,3.552 L50.89,3.24 C50.89,3.24 50.596,2.91 49.96,2.91 C49.414,2.91 48.928,3.204 48.928,3.744 C48.928,4.728 50.554,4.566 50.554,5.226 C50.554,5.544 50.272,5.706 49.948,5.706 C49.384,5.706 49.048,5.34 49.048,5.34 L48.826,5.634 Z M51.484,5.634 C51.484,5.634 51.868,6.072 52.6,6.072 C53.206,6.072 53.632,5.718 53.632,5.226 C53.632,4.23 52.006,4.41 52.006,3.744 C52.006,3.408 52.3,3.276 52.606,3.276 C53.104,3.276 53.362,3.552 53.362,3.552 L53.548,3.24 C53.548,3.24 53.254,2.91 52.618,2.91 C52.072,2.91 51.586,3.204 51.586,3.744 C51.586,4.728 53.212,4.566 53.212,5.226 C53.212,5.544 52.93,5.706 52.606,5.706 C52.042,5.706 51.706,5.34 51.706,5.34 L51.484,5.634 Z M54.502,4.902 C54.502,5.91 55.204,6.024 55.552,6.024 C55.66,6.024 55.726,6.012 55.726,6.012 L55.726,5.646 C55.726,5.646 55.672,5.658 55.588,5.658 C55.36,5.658 54.91,5.568 54.91,4.86 L54.91,3.36 L55.666,3.36 L55.666,3.018 L54.91,3.018 L54.91,2.148 L54.508,2.148 L54.508,3.018 L54.106,3.018 L54.106,3.36 L54.502,3.36 L54.502,4.902 Z M56.152,5.178 C56.152,5.778 56.674,6.072 57.178,6.072 C57.934,6.072 58.186,5.418 58.186,5.418 L58.198,5.418 C58.198,5.418 58.186,5.52 58.186,5.67 L58.186,6 L58.576,6 L58.576,4.068 C58.576,3.312 58.174,2.91 57.448,2.91 C56.77,2.91 56.374,3.252 56.374,3.252 L56.566,3.564 C56.566,3.564 56.92,3.276 57.418,3.276 C57.85,3.276 58.168,3.474 58.168,4.056 L58.168,4.134 L58,4.134 C57.478,4.134 56.152,4.158 56.152,5.178 L56.152,5.178 Z M56.572,5.154 C56.572,4.488 57.52,4.47 57.994,4.47 L58.168,4.47 L58.168,4.602 C58.168,5.124 57.82,5.724 57.244,5.724 C56.794,5.724 56.572,5.436 56.572,5.154 L56.572,5.154 Z M59.614,4.902 C59.614,5.91 60.316,6.024 60.664,6.024 C60.772,6.024 60.838,6.012 60.838,6.012 L60.838,5.646 C60.838,5.646 60.784,5.658 60.7,5.658 C60.472,5.658 60.022,5.568 60.022,4.86 L60.022,3.36 L60.778,3.36 L60.778,3.018 L60.022,3.018 L60.022,2.148 L59.62,2.148 L59.62,3.018 L59.218,3.018 L59.218,3.36 L59.614,3.36 L59.614,4.902 Z M61.498,2.292 L61.924,2.292 L61.924,1.782 L61.498,1.782 L61.498,2.292 Z M61.51,6 L61.918,6 L61.918,2.982 L61.51,2.982 L61.51,6 Z M62.656,5.634 C62.656,5.634 63.04,6.072 63.772,6.072 C64.378,6.072 64.804,5.718 64.804,5.226 C64.804,4.23 63.178,4.41 63.178,3.744 C63.178,3.408 63.472,3.276 63.778,3.276 C64.276,3.276 64.534,3.552 64.534,3.552 L64.72,3.24 C64.72,3.24 64.426,2.91 63.79,2.91 C63.244,2.91 62.758,3.204 62.758,3.744 C62.758,4.728 64.384,4.566 64.384,5.226 C64.384,5.544 64.102,5.706 63.778,5.706 C63.214,5.706 62.878,5.34 62.878,5.34 L62.656,5.634 Z M65.674,4.902 C65.674,5.91 66.376,6.024 66.724,6.024 C66.832,6.024 66.898,6.012 66.898,6.012 L66.898,5.646 C66.898,5.646 66.844,5.658 66.76,5.658 C66.532,5.658 66.082,5.568 66.082,4.86 L66.082,3.36 L66.838,3.36 L66.838,3.018 L66.082,3.018 L66.082,2.148 L65.68,2.148 L65.68,3.018 L65.278,3.018 L65.278,3.36 L65.674,3.36 L65.674,4.902 Z M67.558,2.292 L67.984,2.292 L67.984,1.782 L67.558,1.782 L67.558,2.292 Z M67.57,6 L67.978,6 L67.978,2.982 L67.57,2.982 L67.57,6 Z M68.962,6 L69.37,6 L69.37,4.488 L69.856,4.488 L70.864,6 L71.35,6 L70.198,4.308 L70.198,4.296 L71.248,2.982 L70.756,2.982 L69.85,4.134 L69.37,4.134 L69.37,1.782 L68.962,1.782 L68.962,6 Z M71.974,6 L72.382,6 L72.382,4.488 L72.868,4.488 L73.876,6 L74.362,6 L73.21,4.308 L73.21,4.296 L74.26,2.982 L73.768,2.982 L72.862,4.134 L72.382,4.134 L72.382,1.782 L71.974,1.782 L71.974,6 Z" id="Teknas-lønnsstatisti" fill="#262626"></path>
                <path d="M16.612,30 L18.982,30 L18.982,29.628 L17.026,29.628 L17.026,25.782 L16.612,25.782 L16.612,30 Z M19.384,28.476 C19.384,28.986 19.606,29.424 19.954,29.712 L19.732,30.018 L19.978,30.198 L20.206,29.88 C20.434,30 20.698,30.072 20.98,30.072 C21.862,30.072 22.576,29.388 22.576,28.476 C22.576,28.002 22.372,27.588 22.048,27.306 L22.276,26.982 L22.03,26.802 L21.796,27.126 C21.556,26.988 21.28,26.91 20.98,26.91 C20.098,26.91 19.384,27.582 19.384,28.476 L19.384,28.476 Z M19.804,28.476 C19.804,27.792 20.332,27.282 20.98,27.282 C21.196,27.282 21.4,27.342 21.574,27.444 L20.182,29.388 C19.948,29.166 19.804,28.848 19.804,28.476 L19.804,28.476 Z M22.156,28.476 C22.156,29.178 21.628,29.706 20.98,29.706 C20.782,29.706 20.59,29.658 20.428,29.568 L21.814,27.63 C22.024,27.84 22.156,28.14 22.156,28.476 L22.156,28.476 Z M23.344,30 L23.752,30 L23.752,28.554 C23.752,28.41 23.764,28.272 23.8,28.146 C23.938,27.648 24.382,27.294 24.898,27.294 C25.48,27.294 25.552,27.714 25.552,28.188 L25.552,30 L25.96,30 L25.96,28.08 C25.96,27.336 25.696,26.91 24.952,26.91 C24.238,26.91 23.854,27.396 23.746,27.672 L23.734,27.672 C23.734,27.672 23.746,27.564 23.746,27.432 L23.746,26.982 L23.344,26.982 L23.344,30 Z M26.902,30 L27.31,30 L27.31,28.554 C27.31,28.41 27.322,28.272 27.358,28.146 C27.496,27.648 27.94,27.294 28.456,27.294 C29.038,27.294 29.11,27.714 29.11,28.188 L29.11,30 L29.518,30 L29.518,28.08 C29.518,27.336 29.254,26.91 28.51,26.91 C27.796,26.91 27.412,27.396 27.304,27.672 L27.292,27.672 C27.292,27.672 27.304,27.564 27.304,27.432 L27.304,26.982 L26.902,26.982 L26.902,30 Z M30.214,29.634 C30.214,29.634 30.598,30.072 31.33,30.072 C31.936,30.072 32.362,29.718 32.362,29.226 C32.362,28.23 30.736,28.41 30.736,27.744 C30.736,27.408 31.03,27.276 31.336,27.276 C31.834,27.276 32.092,27.552 32.092,27.552 L32.278,27.24 C32.278,27.24 31.984,26.91 31.348,26.91 C30.802,26.91 30.316,27.204 30.316,27.744 C30.316,28.728 31.942,28.566 31.942,29.226 C31.942,29.544 31.66,29.706 31.336,29.706 C30.772,29.706 30.436,29.34 30.436,29.34 L30.214,29.634 Z M33.118,30 L33.526,30 L33.526,28.488 L34.012,28.488 L35.02,30 L35.506,30 L34.354,28.308 L34.354,28.296 L35.404,26.982 L34.912,26.982 L34.006,28.134 L33.526,28.134 L33.526,25.782 L33.118,25.782 L33.118,30 Z M36.07,28.902 C36.07,29.688 36.37,30.072 37.078,30.072 C37.744,30.072 38.14,29.604 38.26,29.31 L38.272,29.31 C38.272,29.31 38.26,29.418 38.26,29.55 L38.26,30 L38.656,30 L38.656,26.982 L38.248,26.982 L38.248,28.428 C38.248,29.082 37.822,29.688 37.132,29.688 C36.55,29.688 36.478,29.268 36.478,28.794 L36.478,26.982 L36.07,26.982 L36.07,28.902 Z M39.64,30 L40.048,30 L40.048,28.728 C40.048,28.536 40.072,28.332 40.132,28.14 C40.264,27.696 40.582,27.36 41.008,27.36 C41.086,27.36 41.158,27.372 41.158,27.372 L41.158,26.97 C41.158,26.97 41.08,26.952 40.996,26.952 C40.522,26.952 40.186,27.3 40.042,27.756 L40.03,27.756 C40.03,27.756 40.042,27.648 40.042,27.516 L40.042,26.982 L39.64,26.982 L39.64,30 Z M42.52,30 L42.964,30 L44.116,26.982 L43.69,26.982 L42.856,29.196 C42.796,29.352 42.748,29.556 42.748,29.556 L42.736,29.556 C42.736,29.556 42.688,29.346 42.634,29.196 L41.794,26.982 L41.362,26.982 L42.52,30 Z M44.476,28.494 C44.476,29.424 45.154,30.072 46.054,30.072 C46.732,30.072 47.17,29.652 47.17,29.652 L46.984,29.34 C46.984,29.34 46.618,29.706 46.066,29.706 C45.442,29.706 44.914,29.286 44.896,28.512 L47.212,28.512 C47.212,28.512 47.224,28.374 47.224,28.302 C47.224,27.552 46.798,26.91 45.964,26.91 C45.148,26.91 44.476,27.504 44.476,28.494 L44.476,28.494 Z M44.914,28.176 C45.01,27.57 45.448,27.252 45.952,27.252 C46.402,27.252 46.786,27.546 46.81,28.176 L44.914,28.176 Z" id="Lønnskurve" fill="#262626"></path>
                <path d="M19.18,18 L19.618,18 L18.07,13.782 L17.626,13.782 L16.078,18 L16.516,18 L16.996,16.656 L18.694,16.656 L19.18,18 Z M17.854,14.22 C17.854,14.22 17.944,14.568 18.016,14.766 L18.568,16.296 L17.116,16.296 L17.68,14.766 C17.752,14.568 17.842,14.22 17.842,14.22 L17.854,14.22 Z M20.188,18 L20.596,18 L20.596,16.554 C20.596,16.41 20.608,16.272 20.644,16.146 C20.782,15.648 21.226,15.294 21.742,15.294 C22.324,15.294 22.396,15.714 22.396,16.188 L22.396,18 L22.804,18 L22.804,16.08 C22.804,15.336 22.54,14.91 21.796,14.91 C21.082,14.91 20.698,15.396 20.59,15.672 L20.578,15.672 C20.578,15.672 20.59,15.564 20.59,15.432 L20.59,14.982 L20.188,14.982 L20.188,18 Z M23.5,17.634 C23.5,17.634 23.884,18.072 24.616,18.072 C25.222,18.072 25.648,17.718 25.648,17.226 C25.648,16.23 24.022,16.41 24.022,15.744 C24.022,15.408 24.316,15.276 24.622,15.276 C25.12,15.276 25.378,15.552 25.378,15.552 L25.564,15.24 C25.564,15.24 25.27,14.91 24.634,14.91 C24.088,14.91 23.602,15.204 23.602,15.744 C23.602,16.728 25.228,16.566 25.228,17.226 C25.228,17.544 24.946,17.706 24.622,17.706 C24.058,17.706 23.722,17.34 23.722,17.34 L23.5,17.634 Z M26.158,17.178 C26.158,17.778 26.68,18.072 27.184,18.072 C27.94,18.072 28.192,17.418 28.192,17.418 L28.204,17.418 C28.204,17.418 28.192,17.52 28.192,17.67 L28.192,18 L28.582,18 L28.582,16.068 C28.582,15.312 28.18,14.91 27.454,14.91 C26.776,14.91 26.38,15.252 26.38,15.252 L26.572,15.564 C26.572,15.564 26.926,15.276 27.424,15.276 C27.856,15.276 28.174,15.474 28.174,16.056 L28.174,16.134 L28.006,16.134 C27.484,16.134 26.158,16.158 26.158,17.178 L26.158,17.178 Z M26.578,17.154 C26.578,16.488 27.526,16.47 28,16.47 L28.174,16.47 L28.174,16.602 C28.174,17.124 27.826,17.724 27.25,17.724 C26.8,17.724 26.578,17.436 26.578,17.154 L26.578,17.154 Z M29.62,16.902 C29.62,17.91 30.322,18.024 30.67,18.024 C30.778,18.024 30.844,18.012 30.844,18.012 L30.844,17.646 C30.844,17.646 30.79,17.658 30.706,17.658 C30.478,17.658 30.028,17.568 30.028,16.86 L30.028,15.36 L30.784,15.36 L30.784,15.018 L30.028,15.018 L30.028,14.148 L29.626,14.148 L29.626,15.018 L29.224,15.018 L29.224,15.36 L29.62,15.36 L29.62,16.902 Z M31.63,16.902 C31.63,17.91 32.332,18.024 32.68,18.024 C32.788,18.024 32.854,18.012 32.854,18.012 L32.854,17.646 C32.854,17.646 32.8,17.658 32.716,17.658 C32.488,17.658 32.038,17.568 32.038,16.86 L32.038,15.36 L32.794,15.36 L32.794,15.018 L32.038,15.018 L32.038,14.148 L31.636,14.148 L31.636,15.018 L31.234,15.018 L31.234,15.36 L31.63,15.36 L31.63,16.902 Z M33.316,16.494 C33.316,17.424 33.994,18.072 34.894,18.072 C35.572,18.072 36.01,17.652 36.01,17.652 L35.824,17.34 C35.824,17.34 35.458,17.706 34.906,17.706 C34.282,17.706 33.754,17.286 33.736,16.512 L36.052,16.512 C36.052,16.512 36.064,16.374 36.064,16.302 C36.064,15.552 35.638,14.91 34.804,14.91 C33.988,14.91 33.316,15.504 33.316,16.494 L33.316,16.494 Z M33.754,16.176 C33.85,15.57 34.288,15.252 34.792,15.252 C35.242,15.252 35.626,15.546 35.65,16.176 L33.754,16.176 Z M36.598,17.634 C36.598,17.634 36.982,18.072 37.714,18.072 C38.32,18.072 38.746,17.718 38.746,17.226 C38.746,16.23 37.12,16.41 37.12,15.744 C37.12,15.408 37.414,15.276 37.72,15.276 C38.218,15.276 38.476,15.552 38.476,15.552 L38.662,15.24 C38.662,15.24 38.368,14.91 37.732,14.91 C37.186,14.91 36.7,15.204 36.7,15.744 C36.7,16.728 38.326,16.566 38.326,17.226 C38.326,17.544 38.044,17.706 37.72,17.706 C37.156,17.706 36.82,17.34 36.82,17.34 L36.598,17.634 Z M41.086,17.286 C41.086,17.946 41.53,18.024 41.782,18.024 C41.86,18.024 41.932,18.012 41.932,18.012 L41.932,17.646 C41.932,17.646 41.884,17.652 41.83,17.652 C41.674,17.652 41.494,17.592 41.494,17.196 L41.494,13.782 L41.086,13.782 L41.086,17.286 Z M42.382,16.476 C42.382,16.986 42.604,17.424 42.952,17.712 L42.73,18.018 L42.976,18.198 L43.204,17.88 C43.432,18 43.696,18.072 43.978,18.072 C44.86,18.072 45.574,17.388 45.574,16.476 C45.574,16.002 45.37,15.588 45.046,15.306 L45.274,14.982 L45.028,14.802 L44.794,15.126 C44.554,14.988 44.278,14.91 43.978,14.91 C43.096,14.91 42.382,15.582 42.382,16.476 L42.382,16.476 Z M42.802,16.476 C42.802,15.792 43.33,15.282 43.978,15.282 C44.194,15.282 44.398,15.342 44.572,15.444 L43.18,17.388 C42.946,17.166 42.802,16.848 42.802,16.476 L42.802,16.476 Z M45.154,16.476 C45.154,17.178 44.626,17.706 43.978,17.706 C43.78,17.706 43.588,17.658 43.426,17.568 L44.812,15.63 C45.022,15.84 45.154,16.14 45.154,16.476 L45.154,16.476 Z M46.342,18 L46.75,18 L46.75,16.554 C46.75,16.41 46.762,16.272 46.798,16.146 C46.936,15.648 47.38,15.294 47.896,15.294 C48.478,15.294 48.55,15.714 48.55,16.188 L48.55,18 L48.958,18 L48.958,16.08 C48.958,15.336 48.694,14.91 47.95,14.91 C47.236,14.91 46.852,15.396 46.744,15.672 L46.732,15.672 C46.732,15.672 46.744,15.564 46.744,15.432 L46.744,14.982 L46.342,14.982 L46.342,18 Z M49.9,18 L50.308,18 L50.308,16.554 C50.308,16.41 50.32,16.272 50.356,16.146 C50.494,15.648 50.938,15.294 51.454,15.294 C52.036,15.294 52.108,15.714 52.108,16.188 L52.108,18 L52.516,18 L52.516,16.08 C52.516,15.336 52.252,14.91 51.508,14.91 C50.794,14.91 50.41,15.396 50.302,15.672 L50.29,15.672 C50.29,15.672 50.302,15.564 50.302,15.432 L50.302,14.982 L49.9,14.982 L49.9,18 Z" id="Ansattes-lønn" fill="#262626"></path>
            </g>
        </g>
    </g>
</svg>