<?xml version="1.0" encoding="UTF-8"?>
<svg width="604px" height="327px" viewBox="0 0 604 327" version="1.1" xmlns="http://www.w3.org/2000/svg" xmlns:xlink="http://www.w3.org/1999/xlink">
    <!-- Generator: Sketch 42 (36781) - http://www.bohemiancoding.com/sketch -->
    <title>20161221 Lønnstige 2017 v3_outlined</title>
    <desc>Created with Sketch.</desc>
    <defs>
        <polygon id="path-1" points="0 0.3445 603.75 0.3445 603.75 327.8445 0 327.8445"></polygon>
        <polygon id="path-3" points="0 0.3445 603.75 0.3445 603.75 327.8445 0 327.8445"></polygon>
        <polygon id="path-5" points="0 0.3445 603.75 0.3445 603.75 327.8445 0 327.8445"></polygon>
        <polygon id="path-7" points="0 0.3445 526.25 0.3445 526.25 285.3445 0 285.3445"></polygon>
        <polygon id="path-9" points="0 0.3445 526.25 0.3445 526.25 285.3445 0 285.3445"></polygon>
        <polygon id="path-11" points="0 0.3445 603.75 0.3445 603.75 327.8445 0 327.8445"></polygon>
        <polygon id="path-13" points="0 0.3445 603.75 0.3445 603.75 327.8445 0 327.8445"></polygon>
        <polygon id="path-15" points="0 0.3445 603.75 0.3445 603.75 327.8445 0 327.8445"></polygon>
        <polygon id="path-17" points="0 0.3445 603.75 0.3445 603.75 327.8445 0 327.8445"></polygon>
        <polygon id="path-19" points="0 0.3445 603.75 0.3445 603.75 327.8445 0 327.8445"></polygon>
        <polygon id="path-21" points="0 0.3445 603.75 0.3445 603.75 327.8445 0 327.8445"></polygon>
        <polygon id="path-23" points="0 0.3445 603.75 0.3445 603.75 327.8445 0 327.8445"></polygon>
        <polygon id="path-25" points="0 0.3445 603.75 0.3445 603.75 327.8445 0 327.8445"></polygon>
        <polygon id="path-27" points="0 0.3445 603.75 0.3445 603.75 327.8445 0 327.8445"></polygon>
        <polygon id="path-29" points="0 0.3445 571.25 0.3445 571.25 284.0945 0 284.0945"></polygon>
        <polygon id="path-31" points="0 0.3445 571.25 0.3445 571.25 284.0945 0 284.0945"></polygon>
        <polygon id="path-33" points="0 0.3445 571.25 0.3445 571.25 284.0945 0 284.0945"></polygon>
        <polygon id="path-35" points="0 0.3445 571.25 0.3445 571.25 284.0945 0 284.0945"></polygon>
        <polygon id="path-37" points="0 0.3445 571.25 0.3445 571.25 284.0945 0 284.0945"></polygon>
        <polygon id="path-39" points="0 0.3445 571.25 0.3445 571.25 284.0945 0 284.0945"></polygon>
        <polygon id="path-41" points="0 0.3445 571.25 0.3445 571.25 284.0945 0 284.0945"></polygon>
        <polygon id="path-43" points="0 0.3445 571.25 0.3445 571.25 284.0945 0 284.0945"></polygon>
        <polygon id="path-45" points="0 0.3445 571.25 0.3445 571.25 284.0945 0 284.0945"></polygon>
        <polygon id="path-47" points="0 0.3445 571.25 0.3445 571.25 284.0945 0 284.0945"></polygon>
        <polygon id="path-49" points="0 0.3445 571.25 0.3445 571.25 284.0945 0 284.0945"></polygon>
        <polygon id="path-51" points="0 0.3445 571.25 0.3445 571.25 284.0945 0 284.0945"></polygon>
        <polygon id="path-53" points="0 0.3445 571.25 0.3445 571.25 284.0945 0 284.0945"></polygon>
        <polygon id="path-55" points="0 0.3445 571.25 0.3445 571.25 284.0945 0 284.0945"></polygon>
        <polygon id="path-57" points="0 0.3445 571.25 0.3445 571.25 284.0945 0 284.0945"></polygon>
        <polygon id="path-59" points="0 0.3445 571.25 0.3445 571.25 284.0945 0 284.0945"></polygon>
        <polygon id="path-61" points="0 0.3445 571.25 0.3445 571.25 284.0945 0 284.0945"></polygon>
        <polygon id="path-63" points="0 0.3445 571.25 0.3445 571.25 284.0945 0 284.0945"></polygon>
        <polygon id="path-65" points="0 0.3445 571.25 0.3445 571.25 284.0945 0 284.0945"></polygon>
        <polygon id="path-67" points="0 0.3445 571.25 0.3445 571.25 284.0945 0 284.0945"></polygon>
        <polygon id="path-69" points="0 0.3445 571.25 0.3445 571.25 284.0945 0 284.0945"></polygon>
        <polygon id="path-71" points="0 0.3445 571.25 0.3445 571.25 284.0945 0 284.0945"></polygon>
        <polygon id="path-73" points="0 0.3445 571.25 0.3445 571.25 284.0945 0 284.0945"></polygon>
        <polygon id="path-75" points="0 0.3445 571.25 0.3445 571.25 284.0945 0 284.0945"></polygon>
        <polygon id="path-77" points="0 0.3445 571.25 0.3445 571.25 284.0945 0 284.0945"></polygon>
        <polygon id="path-79" points="0 0.3445 571.25 0.3445 571.25 284.0945 0 284.0945"></polygon>
    </defs>
    <g id="Page-1" stroke="none" stroke-width="1" fill="none" fill-rule="evenodd">
        <g id="20161221-Lønnstige-2017-v3_outlined" transform="translate(-1.000000, -3.000000)">
            <g id="g3344" transform="translate(302.518988, 165.314250) scale(-1, 1) rotate(-180.000000) translate(-302.518988, -165.314250) translate(0.018988, 0.814250)">
                
                <g id="g3358" transform="translate(0.000000, 0.000000)">
                    <g id="g3360-Clipped">
                        <mask id="mask-2" fill="white">
                            <use xlink:href="#path-1"></use>
                        </mask>
                        <g id="path3364"></g>
                        <g id="g3360" mask="url(#mask-2)" stroke-opacity="0.25100002" stroke-linejoin="round">
                            <g transform="translate(27.500000, 121.250000)" id="g3366">
                                <g transform="translate(263.597150, 94.829306) scale(-1, 1) rotate(-180.000000) translate(-263.597150, -94.829306) translate(0.802850, 0.344362)">
                                    <path d="M0,188.96979 L525.588599,188.96979 M0,93.9697865 L525.588599,93.9697865 M0,0 L525.588599,0" id="path3368" stroke="#FFFFFF" stroke-width="1.25000004"></path>
                                </g>
                            </g>
                        </g>
                    </g>
                </g>
                <g id="g3370" transform="translate(0.000000, 0.000000)">
                    <g id="g3372-Clipped">
                        <mask id="mask-4" fill="white">
                            <use xlink:href="#path-3"></use>
                        </mask>
                        <g id="path3376"></g>
                        <g id="g3372" mask="url(#mask-4)" stroke-opacity="0.25100002" stroke-linejoin="round">
                            <g transform="translate(27.500000, 26.250000)" id="g3378">
                                <g transform="translate(263.597150, 0.948652) scale(-1, 1) rotate(-180.000000) translate(-263.597150, -0.948652) translate(0.802850, 0.886152)">
                                    <path id="path3380" stroke="#FFFFFF" stroke-width="1.25000004"></path>
                                </g>
                            </g>
                        </g>
                    </g>
                </g>
                <g id="g3382" transform="translate(0.000000, 0.000000)">
                    <g id="g3384-Clipped">
                        <mask id="mask-6" fill="white">
                            <use xlink:href="#path-5"></use>
                        </mask>
                        <g id="path3388"></g>
                        <g id="g3384" mask="url(#mask-6)" stroke-opacity="0.25100002" stroke-linejoin="round">
                            <g transform="translate(75.000000, 23.750000)" id="g3390">
                                <g transform="translate(239.987570, 3.386357) scale(-1, 1) rotate(-180.000000) translate(-239.987570, -3.386357) translate(1.083625, 0.253089)">
                                    <path d="M477.807791,0 L477.807791,6.26653563 M358.91635,0 L358.91635,6.26653563 M238.916346,0 L238.916346,6.26653563 M118.916342,0 L118.916342,6.26653563 M0,0 L0,6.26653563" id="path3392" stroke="#FFFFFF" stroke-width="1.25000004"></path>
                                </g>
                            </g>
                        </g>
                    </g>
                </g>
                <g id="g3394" transform="translate(27.500000, 26.250000)">
                    <g id="g3396-Clipped">
                        <mask id="mask-8" fill="white">
                            <use xlink:href="#path-7"></use>
                        </mask>
                        <g id="path3400"></g>
                        <g id="g3396" mask="url(#mask-8)" stroke-linecap="round" stroke-opacity="0.50199998" stroke-linejoin="round">
                            <g transform="translate(23.750000, 18.750000)" id="g3402">
                                <g transform="translate(251.792372, 120.616787) scale(-1, 1) rotate(-180.000000) translate(-251.792372, -120.616787) translate(0.943250, 1.031448)">
                                    <polyline id="path3404" stroke="#002060" stroke-width="1.87500006" points="0 239.170677 24.0567921 231.107685 47.8067929 218.607684 71.5567936 208.607684 95.3067944 196.107683 119.056795 176.107683 142.806796 159.857682 167.806797 149.857682 191.556797 131.107681 215.306798 116.107681 239.056799 104.857681 262.8068 88.60768 286.556801 78.6076797 310.306801 62.3576792 334.056802 46.1076786 357.806803 46.1076786 382.806804 39.8576784 406.556804 29.8576781 430.306805 6.10767736 454.056806 1.1076772 477.806807 0 501.698244 1.1076772"></polyline>
                                </g>
                            </g>
                        </g>
                    </g>
                </g>
                <g id="g3406" transform="translate(27.500000, 26.250000)">
                    <g id="g3408-Clipped">
                        <mask id="mask-10" fill="white">
                            <use xlink:href="#path-9"></use>
                        </mask>
                        <g id="path3412"></g>
                        <g id="g3408" mask="url(#mask-10)" stroke-linecap="round" stroke-opacity="0.8" stroke-linejoin="round">
                            <g transform="translate(23.750000, 18.750000)" id="g3414">
                                <g transform="translate(251.792372, 121.488356) scale(-1, 1) rotate(-180.000000) translate(-251.792372, -121.488356) translate(0.943250, 1.031463)">
                                    <polyline id="path3416" stroke="#FFFFFF" stroke-width="3.43750011" points="0 240.913787 24.0567921 234.100795 47.8067929 221.600794 71.5567936 210.350794 95.3067944 196.600794 119.056795 179.100793 142.806796 162.850793 167.806797 146.600792 191.556797 132.850792 215.306798 117.850791 239.056799 104.100791 262.8068 90.3507903 286.556801 77.8507899 310.306801 66.6007895 334.056802 54.1007891 357.806803 45.3507889 382.806804 35.3507885 406.556804 26.6007883 430.306805 16.6007879 454.056806 9.10078769 477.806807 4.10078753 501.698244 0"></polyline>
                                </g>
                            </g>
                        </g>
                    </g>
                </g>
                <g id="g3418" transform="translate(0.000000, 0.000000)">
                    <g id="g3420-Clipped">
                        <mask id="mask-12" fill="white">
                            <use xlink:href="#path-11"></use>
                        </mask>
                        <g id="path3424"></g>
                        <g id="g3420" mask="url(#mask-12)">
                            <g transform="translate(565.000000, 23.000000)" id="g3426">
                                <g transform="translate(0.593375, 0.636250)">
                                    <g id="text3428" transform="translate(10.000000, 4.000000) scale(-1, 1) rotate(-180.000000) translate(-10.000000, -4.000000) translate(-0.000000, 0.500000)" fill="#FFFFFF">
                                        <path d="M0.98828125,4.57421875 C1.03515648,4.97526242 1.22135254,5.2526034 1.546875,5.40625 C1.7135425,5.48437539 1.90624891,5.5234375 2.125,5.5234375 C2.54166875,5.5234375 2.85025941,5.39062633 3.05078125,5.125 C3.25130309,4.85937367 3.3515625,4.56510578 3.3515625,4.2421875 C3.3515625,3.85156055 3.23242307,3.54948023 2.99414062,3.3359375 C2.75585818,3.12239477 2.47005375,3.015625 2.13671875,3.015625 C1.89453004,3.015625 1.68684982,3.06249953 1.51367187,3.15625 C1.34049393,3.25000047 1.19270895,3.3802075 1.0703125,3.546875 L0.4609375,3.51171875 L0.88671875,0.5 L3.79296875,0.5 L3.79296875,1.1796875 L1.4140625,1.1796875 L1.17578125,2.734375 C1.30599023,2.63541617 1.42968691,2.56119816 1.546875,2.51171875 C1.75520937,2.42578082 1.99609238,2.3828125 2.26953125,2.3828125 C2.78255465,2.3828125 3.21744613,2.54817543 3.57421875,2.87890625 C3.93099137,3.20963707 4.109375,3.62890371 4.109375,4.13671875 C4.109375,4.66536723 3.94596518,5.1315084 3.61914062,5.53515625 C3.29231607,5.9388041 2.77083691,6.140625 2.0546875,6.140625 C1.59895605,6.140625 1.19596529,6.01237107 0.845703125,5.75585937 C0.495440957,5.49934768 0.299479375,5.10547141 0.2578125,4.57421875 L0.98828125,4.57421875 Z M8.18359375,1.30078125 C8.433595,1.76172105 8.55859375,2.39322516 8.55859375,3.1953125 C8.55859375,3.95573297 8.44531363,4.58463293 8.21875,5.08203125 C7.89062336,5.79557648 7.35417039,6.15234375 6.609375,6.15234375 C5.93749664,6.15234375 5.43750164,5.86068 5.109375,5.27734375 C4.83593613,4.79036215 4.69921875,4.13672285 4.69921875,3.31640625 C4.69921875,2.68098641 4.78124918,2.13541895 4.9453125,1.6796875 C5.2526057,0.830724922 5.80858973,0.40625 6.61328125,0.40625 C7.3372432,0.40625 7.86067547,0.704424102 8.18359375,1.30078125 Z M7.4765625,5.02734375 C7.69270941,4.70442547 7.80078125,4.10286898 7.80078125,3.22265625 C7.80078125,2.58723641 7.72265703,2.06445518 7.56640625,1.65429687 C7.41015547,1.24413857 7.10677309,1.0390625 6.65625,1.0390625 C6.24218543,1.0390625 5.93945408,1.23372201 5.74804687,1.62304687 C5.55663967,2.01237174 5.4609375,2.58593371 5.4609375,3.34375 C5.4609375,3.91406535 5.5221348,4.3723941 5.64453125,4.71875 C5.83203219,5.24739848 6.15234148,5.51171875 6.60546875,5.51171875 C6.97005391,5.51171875 7.26041559,5.35026203 7.4765625,5.02734375 Z M12.6328125,1.30078125 C12.8828137,1.76172105 13.0078125,2.39322516 13.0078125,3.1953125 C13.0078125,3.95573297 12.8945324,4.58463293 12.6679687,5.08203125 C12.3398421,5.79557648 11.8033891,6.15234375 11.0585937,6.15234375 C10.3867154,6.15234375 9.88672039,5.86068 9.55859375,5.27734375 C9.28515488,4.79036215 9.1484375,4.13672285 9.1484375,3.31640625 C9.1484375,2.68098641 9.23046793,2.13541895 9.39453125,1.6796875 C9.70182445,0.830724922 10.2578085,0.40625 11.0625,0.40625 C11.786462,0.40625 12.3098942,0.704424102 12.6328125,1.30078125 Z M11.9257812,5.02734375 C12.1419282,4.70442547 12.25,4.10286898 12.25,3.22265625 C12.25,2.58723641 12.1718758,2.06445518 12.015625,1.65429687 C11.8593742,1.24413857 11.5559918,1.0390625 11.1054687,1.0390625 C10.6914042,1.0390625 10.3886728,1.23372201 10.1972656,1.62304687 C10.0058584,2.01237174 9.91015625,2.58593371 9.91015625,3.34375 C9.91015625,3.91406535 9.97135355,4.3723941 10.09375,4.71875 C10.2812509,5.24739848 10.6015602,5.51171875 11.0546875,5.51171875 C11.4192727,5.51171875 11.7096343,5.35026203 11.9257812,5.02734375 Z M16.0703125,0.26171875 L16.7460937,0.26171875 L16.7460937,3.59375 L18.5507812,1.81640625 L19.4492187,1.81640625 L17.8476562,3.3828125 L19.5390625,6 L18.640625,6 L17.3359375,3.890625 L16.7460937,4.4296875 L16.7460937,6 L16.0703125,6 L16.0703125,0.26171875 Z" id="tspan3430"></path>
                                    </g>
                                </g>
                            </g>
                        </g>
                    </g>
                </g>
                <g id="g3432" transform="translate(0.000000, 0.000000)">
                    <g id="g3434-Clipped">
                        <mask id="mask-14" fill="white">
                            <use xlink:href="#path-13"></use>
                        </mask>
                        <g id="path3438"></g>
                        <g id="g3434" mask="url(#mask-14)">
                            <g transform="translate(565.000000, 118.000000)" id="g3440">
                                <g transform="translate(0.593500, 0.112250)">
                                    <g id="text3442" transform="translate(10.000000, 4.000000) scale(-1, 1) rotate(-180.000000) translate(-10.000000, -4.000000) translate(0.000000, 0.500000)" fill="#FFFFFF">
                                        <path d="M4.18359375,0.5 L4.18359375,1.11328125 C4.00390535,1.28776129 3.76497545,1.59114367 3.46679688,2.0234375 C3.1686183,2.45573133 2.90494906,2.9218725 2.67578125,3.421875 C2.44921762,3.9088566 2.27734434,4.35286258 2.16015625,4.75390625 C2.08463504,5.01172004 1.98697977,5.42708047 1.8671875,6 L1.08984375,6 C1.26692797,4.93228633 1.65754906,3.86979695 2.26171875,2.8125 C2.61849137,2.19270523 2.99348762,1.65755434 3.38671875,1.20703125 L0.29296875,1.20703125 L0.29296875,0.5 L4.18359375,0.5 Z M8.18359375,1.30078125 C8.433595,1.76172105 8.55859375,2.39322516 8.55859375,3.1953125 C8.55859375,3.95573297 8.44531363,4.58463293 8.21875,5.08203125 C7.89062336,5.79557648 7.35417039,6.15234375 6.609375,6.15234375 C5.93749664,6.15234375 5.43750164,5.86068 5.109375,5.27734375 C4.83593613,4.79036215 4.69921875,4.13672285 4.69921875,3.31640625 C4.69921875,2.68098641 4.78124918,2.13541895 4.9453125,1.6796875 C5.2526057,0.830724922 5.80858973,0.40625 6.61328125,0.40625 C7.3372432,0.40625 7.86067547,0.704424102 8.18359375,1.30078125 Z M7.4765625,5.02734375 C7.69270941,4.70442547 7.80078125,4.10286898 7.80078125,3.22265625 C7.80078125,2.58723641 7.72265703,2.06445518 7.56640625,1.65429687 C7.41015547,1.24413857 7.10677309,1.0390625 6.65625,1.0390625 C6.24218543,1.0390625 5.93945408,1.23372201 5.74804688,1.62304687 C5.55663967,2.01237174 5.4609375,2.58593371 5.4609375,3.34375 C5.4609375,3.91406535 5.5221348,4.3723941 5.64453125,4.71875 C5.83203219,5.24739848 6.15234148,5.51171875 6.60546875,5.51171875 C6.97005391,5.51171875 7.26041559,5.35026203 7.4765625,5.02734375 Z M12.6328125,1.30078125 C12.8828138,1.76172105 13.0078125,2.39322516 13.0078125,3.1953125 C13.0078125,3.95573297 12.8945324,4.58463293 12.6679688,5.08203125 C12.3398421,5.79557648 11.8033891,6.15234375 11.0585938,6.15234375 C10.3867154,6.15234375 9.88672039,5.86068 9.55859375,5.27734375 C9.28515488,4.79036215 9.1484375,4.13672285 9.1484375,3.31640625 C9.1484375,2.68098641 9.23046793,2.13541895 9.39453125,1.6796875 C9.70182445,0.830724922 10.2578085,0.40625 11.0625,0.40625 C11.786462,0.40625 12.3098942,0.704424102 12.6328125,1.30078125 Z M11.9257812,5.02734375 C12.1419282,4.70442547 12.25,4.10286898 12.25,3.22265625 C12.25,2.58723641 12.1718758,2.06445518 12.015625,1.65429687 C11.8593742,1.24413857 11.5559918,1.0390625 11.1054688,1.0390625 C10.6914042,1.0390625 10.3886728,1.23372201 10.1972656,1.62304687 C10.0058584,2.01237174 9.91015625,2.58593371 9.91015625,3.34375 C9.91015625,3.91406535 9.97135355,4.3723941 10.09375,4.71875 C10.2812509,5.24739848 10.6015602,5.51171875 11.0546875,5.51171875 C11.4192727,5.51171875 11.7096343,5.35026203 11.9257812,5.02734375 Z M16.0703125,0.26171875 L16.7460937,0.26171875 L16.7460937,3.59375 L18.5507812,1.81640625 L19.4492187,1.81640625 L17.8476562,3.3828125 L19.5390625,6 L18.640625,6 L17.3359375,3.890625 L16.7460937,4.4296875 L16.7460937,6 L16.0703125,6 L16.0703125,0.26171875 Z" id="tspan3444"></path>
                                    </g>
                                </g>
                            </g>
                        </g>
                    </g>
                </g>
                <g id="g3446" transform="translate(0.000000, 0.000000)">
                    <g id="g3448-Clipped">
                        <mask id="mask-16" fill="white">
                            <use xlink:href="#path-15"></use>
                        </mask>
                        <g id="path3452"></g>
                        <g id="g3448" mask="url(#mask-16)">
                            <g transform="translate(565.000000, 211.750000)" id="g3454">
                                <g transform="translate(0.593500, 0.838250)">
                                    <g id="text3456" transform="translate(10.000000, 4.000000) scale(-1, 1) rotate(-180.000000) translate(-10.000000, -4.000000) translate(0.000000, 0.500000)" fill="#FFFFFF">
                                        <path d="M1.0625,4.6484375 C1.08333344,5.03646027 1.23307152,5.30468676 1.51171875,5.453125 C1.65494863,5.53125039 1.81640535,5.5703125 1.99609375,5.5703125 C2.33203293,5.5703125 2.6184884,5.43033994 2.85546875,5.15039063 C3.0924491,4.87044131 3.26041617,4.30208762 3.359375,3.4453125 C3.20312422,3.69270957 3.00976678,3.86653596 2.77929688,3.96679688 C2.54882697,4.06705779 2.30078258,4.1171875 2.03515625,4.1171875 C1.49609105,4.1171875 1.06966303,3.94922043 0.755859375,3.61328125 C0.442055723,3.27734207 0.28515625,2.84505473 0.28515625,2.31640625 C0.28515625,1.80859121 0.440102617,1.36198109 0.75,0.9765625 C1.05989738,0.591143906 1.51692406,0.3984375 2.12109375,0.3984375 C2.93620199,0.3984375 3.49869637,0.765621328 3.80859375,1.5 C3.98046961,1.90364785 4.06640625,2.40885113 4.06640625,3.015625 C4.06640625,3.70052426 3.9635427,4.30728902 3.7578125,4.8359375 C3.41666496,5.71615023 2.83854574,6.15625 2.0234375,6.15625 C1.47655977,6.15625 1.06119934,6.01302227 0.77734375,5.7265625 C0.493488164,5.44010273 0.3515625,5.08073133 0.3515625,4.6484375 L1.0625,4.6484375 Z M2.89257812,3.22460938 C3.12304803,3.04101471 3.23828125,2.72005438 3.23828125,2.26171875 C3.23828125,1.85025836 3.13476666,1.5436208 2.92773438,1.34179688 C2.72070209,1.13997295 2.45703285,1.0390625 2.13671875,1.0390625 C1.79296703,1.0390625 1.5201833,1.15429572 1.31835938,1.38476563 C1.11653545,1.61523553 1.015625,1.92317516 1.015625,2.30859375 C1.015625,2.67317891 1.10416578,2.96288955 1.28125,3.17773438 C1.45833422,3.3925792 1.74088348,3.5 2.12890625,3.5 C2.40755348,3.5 2.66210822,3.40820404 2.89257812,3.22460938 Z M8.18359375,1.30078125 C8.433595,1.76172105 8.55859375,2.39322516 8.55859375,3.1953125 C8.55859375,3.95573297 8.44531363,4.58463293 8.21875,5.08203125 C7.89062336,5.79557648 7.35417039,6.15234375 6.609375,6.15234375 C5.93749664,6.15234375 5.43750164,5.86068 5.109375,5.27734375 C4.83593613,4.79036215 4.69921875,4.13672285 4.69921875,3.31640625 C4.69921875,2.68098641 4.78124918,2.13541895 4.9453125,1.6796875 C5.2526057,0.830724922 5.80858973,0.40625 6.61328125,0.40625 C7.3372432,0.40625 7.86067547,0.704424102 8.18359375,1.30078125 Z M7.4765625,5.02734375 C7.69270941,4.70442547 7.80078125,4.10286898 7.80078125,3.22265625 C7.80078125,2.58723641 7.72265703,2.06445518 7.56640625,1.65429688 C7.41015547,1.24413857 7.10677309,1.0390625 6.65625,1.0390625 C6.24218543,1.0390625 5.93945408,1.23372201 5.74804688,1.62304688 C5.55663967,2.01237174 5.4609375,2.58593371 5.4609375,3.34375 C5.4609375,3.91406535 5.5221348,4.3723941 5.64453125,4.71875 C5.83203219,5.24739848 6.15234148,5.51171875 6.60546875,5.51171875 C6.97005391,5.51171875 7.26041559,5.35026203 7.4765625,5.02734375 Z M12.6328125,1.30078125 C12.8828138,1.76172105 13.0078125,2.39322516 13.0078125,3.1953125 C13.0078125,3.95573297 12.8945324,4.58463293 12.6679688,5.08203125 C12.3398421,5.79557648 11.8033891,6.15234375 11.0585938,6.15234375 C10.3867154,6.15234375 9.88672039,5.86068 9.55859375,5.27734375 C9.28515488,4.79036215 9.1484375,4.13672285 9.1484375,3.31640625 C9.1484375,2.68098641 9.23046793,2.13541895 9.39453125,1.6796875 C9.70182445,0.830724922 10.2578085,0.40625 11.0625,0.40625 C11.786462,0.40625 12.3098942,0.704424102 12.6328125,1.30078125 Z M11.9257812,5.02734375 C12.1419282,4.70442547 12.25,4.10286898 12.25,3.22265625 C12.25,2.58723641 12.1718758,2.06445518 12.015625,1.65429688 C11.8593742,1.24413857 11.5559918,1.0390625 11.1054688,1.0390625 C10.6914042,1.0390625 10.3886728,1.23372201 10.1972656,1.62304688 C10.0058584,2.01237174 9.91015625,2.58593371 9.91015625,3.34375 C9.91015625,3.91406535 9.97135355,4.3723941 10.09375,4.71875 C10.2812509,5.24739848 10.6015602,5.51171875 11.0546875,5.51171875 C11.4192727,5.51171875 11.7096343,5.35026203 11.9257812,5.02734375 Z M16.0703125,0.26171875 L16.7460938,0.26171875 L16.7460938,3.59375 L18.5507812,1.81640625 L19.4492188,1.81640625 L17.8476562,3.3828125 L19.5390625,6 L18.640625,6 L17.3359375,3.890625 L16.7460938,4.4296875 L16.7460938,6 L16.0703125,6 L16.0703125,0.26171875 Z" id="tspan3458"></path>
                                    </g>
                                </g>
                            </g>
                        </g>
                    </g>
                </g>
                <g id="g3460" transform="translate(0.000000, 0.000000)">
                    <g id="g3462-Clipped">
                        <mask id="mask-18" fill="white">
                            <use xlink:href="#path-17"></use>
                        </mask>
                        <g id="path3466"></g>
                        <g id="g3462" mask="url(#mask-18)">
                            <g transform="translate(562.500000, 306.750000)" id="g3468">
                                <g transform="translate(0.524625, 0.314250)">
                                    <g id="text3470" transform="translate(13.500000, 4.000000) scale(-1, 1) rotate(-180.000000) translate(-13.500000, -4.000000) translate(0.000000, 0.500000)" fill="#FFFFFF">
                                        <path d="M0.765625,2.0390625 L0.765625,1.5 C1.27344004,1.45052059 1.62760316,1.36783912 1.828125,1.25195313 C2.02864684,1.13606713 2.17838492,0.861981328 2.27734375,0.4296875 L2.83203125,0.4296875 L2.83203125,6 L2.08203125,6 L2.08203125,2.0390625 L0.765625,2.0390625 Z M7.4375,2.0390625 L7.4375,1.5 C7.94531504,1.45052059 8.29947816,1.36783912 8.5,1.25195313 C8.70052184,1.13606713 8.85025992,0.861981328 8.94921875,0.4296875 L9.50390625,0.4296875 L9.50390625,6 L8.75390625,6 L8.75390625,2.0390625 L7.4375,2.0390625 Z M14.8554688,1.30078125 C15.10547,1.76172105 15.2304688,2.39322516 15.2304688,3.1953125 C15.2304688,3.95573297 15.1171886,4.58463293 14.890625,5.08203125 C14.5624984,5.79557648 14.0260454,6.15234375 13.28125,6.15234375 C12.6093716,6.15234375 12.1093766,5.86068 11.78125,5.27734375 C11.5078111,4.79036215 11.3710938,4.13672285 11.3710938,3.31640625 C11.3710938,2.68098641 11.4531242,2.13541895 11.6171875,1.6796875 C11.9244807,0.830724922 12.4804647,0.40625 13.2851562,0.40625 C14.0091182,0.40625 14.5325505,0.704424102 14.8554688,1.30078125 Z M14.1484375,5.02734375 C14.3645844,4.70442547 14.4726562,4.10286898 14.4726562,3.22265625 C14.4726562,2.58723641 14.394532,2.06445518 14.2382812,1.65429688 C14.0820305,1.24413857 13.7786481,1.0390625 13.328125,1.0390625 C12.9140604,1.0390625 12.6113291,1.23372201 12.4199219,1.62304688 C12.2285147,2.01237174 12.1328125,2.58593371 12.1328125,3.34375 C12.1328125,3.91406535 12.1940098,4.3723941 12.3164062,4.71875 C12.5039072,5.24739848 12.8242165,5.51171875 13.2773438,5.51171875 C13.6419289,5.51171875 13.9322906,5.35026203 14.1484375,5.02734375 Z M19.3046875,1.30078125 C19.5546888,1.76172105 19.6796875,2.39322516 19.6796875,3.1953125 C19.6796875,3.95573297 19.5664074,4.58463293 19.3398438,5.08203125 C19.0117171,5.79557648 18.4752641,6.15234375 17.7304688,6.15234375 C17.0585904,6.15234375 16.5585954,5.86068 16.2304688,5.27734375 C15.9570299,4.79036215 15.8203125,4.13672285 15.8203125,3.31640625 C15.8203125,2.68098641 15.9023429,2.13541895 16.0664062,1.6796875 C16.3736995,0.830724922 16.9296835,0.40625 17.734375,0.40625 C18.458337,0.40625 18.9817692,0.704424102 19.3046875,1.30078125 Z M18.5976562,5.02734375 C18.8138032,4.70442547 18.921875,4.10286898 18.921875,3.22265625 C18.921875,2.58723641 18.8437508,2.06445518 18.6875,1.65429688 C18.5312492,1.24413857 18.2278668,1.0390625 17.7773438,1.0390625 C17.3632792,1.0390625 17.0605478,1.23372201 16.8691406,1.62304688 C16.6777334,2.01237174 16.5820312,2.58593371 16.5820312,3.34375 C16.5820312,3.91406535 16.6432286,4.3723941 16.765625,4.71875 C16.9531259,5.24739848 17.2734352,5.51171875 17.7265625,5.51171875 C18.0911477,5.51171875 18.3815093,5.35026203 18.5976562,5.02734375 Z M22.7421875,0.26171875 L23.4179688,0.26171875 L23.4179688,3.59375 L25.2226562,1.81640625 L26.1210938,1.81640625 L24.5195312,3.3828125 L26.2109375,6 L25.3125,6 L24.0078125,3.890625 L23.4179688,4.4296875 L23.4179688,6 L22.7421875,6 L22.7421875,0.26171875 Z" id="tspan3472"></path>
                                    </g>
                                </g>
                            </g>
                        </g>
                    </g>
                </g>
                <g id="g3474" transform="translate(0.000000, 0.000000)">
                    <g id="g3476-Clipped">
                        <mask id="mask-20" fill="white">
                            <use xlink:href="#path-19"></use>
                        </mask>
                        <g id="path3480"></g>
                        <g id="g3476" mask="url(#mask-20)">
                            <g transform="translate(542.500000, 10.500000)" id="g3482">
                                <g transform="translate(0.144625, 0.869750)">
                                    <g id="text3484" transform="translate(9.000000, 4.000000) scale(-1, 1) rotate(-180.000000) translate(-9.000000, -4.000000) translate(0.000000, 0.500000)" fill="#FFFFFF">
                                        <path d="M0.765625,2.0390625 L0.765625,1.5 C1.27344004,1.45052059 1.62760316,1.36783912 1.828125,1.25195312 C2.02864684,1.13606713 2.17838492,0.861981328 2.27734375,0.4296875 L2.83203125,0.4296875 L2.83203125,6 L2.08203125,6 L2.08203125,2.0390625 L0.765625,2.0390625 Z M5.51171875,4.6484375 C5.53255219,5.03646027 5.68229027,5.30468676 5.9609375,5.453125 C6.10416738,5.53125039 6.2656241,5.5703125 6.4453125,5.5703125 C6.78125168,5.5703125 7.06770715,5.43033994 7.3046875,5.15039062 C7.54166785,4.87044131 7.70963492,4.30208762 7.80859375,3.4453125 C7.65234297,3.69270957 7.45898553,3.86653596 7.22851562,3.96679687 C6.99804572,4.06705779 6.75000133,4.1171875 6.484375,4.1171875 C5.9453098,4.1171875 5.51888178,3.94922043 5.20507812,3.61328125 C4.89127447,3.27734207 4.734375,2.84505473 4.734375,2.31640625 C4.734375,1.80859121 4.88932137,1.36198109 5.19921875,0.9765625 C5.50911613,0.591143906 5.96614281,0.3984375 6.5703125,0.3984375 C7.38542074,0.3984375 7.94791512,0.765621328 8.2578125,1.5 C8.42968836,1.90364785 8.515625,2.40885113 8.515625,3.015625 C8.515625,3.70052426 8.41276145,4.30728902 8.20703125,4.8359375 C7.86588371,5.71615023 7.28776449,6.15625 6.47265625,6.15625 C5.92577852,6.15625 5.51041809,6.01302227 5.2265625,5.7265625 C4.94270691,5.44010273 4.80078125,5.08073133 4.80078125,4.6484375 L5.51171875,4.6484375 Z M7.34179688,3.22460937 C7.57226678,3.04101471 7.6875,2.72005437 7.6875,2.26171875 C7.6875,1.85025836 7.58398541,1.5436208 7.37695312,1.34179687 C7.16992084,1.13997295 6.9062516,1.0390625 6.5859375,1.0390625 C6.24218578,1.0390625 5.96940205,1.15429572 5.76757812,1.38476562 C5.5657542,1.61523553 5.46484375,1.92317516 5.46484375,2.30859375 C5.46484375,2.67317891 5.55338453,2.96288955 5.73046875,3.17773437 C5.90755297,3.3925792 6.19010223,3.5 6.578125,3.5 C6.85677223,3.5 7.11132697,3.40820404 7.34179688,3.22460937 Z M9.9609375,4.6484375 C9.98177094,5.03646027 10.131509,5.30468676 10.4101562,5.453125 C10.5533861,5.53125039 10.7148429,5.5703125 10.8945312,5.5703125 C11.2304704,5.5703125 11.5169259,5.43033994 11.7539062,5.15039062 C11.9908866,4.87044131 12.1588537,4.30208762 12.2578125,3.4453125 C12.1015617,3.69270957 11.9082043,3.86653596 11.6777344,3.96679687 C11.4472645,4.06705779 11.1992201,4.1171875 10.9335938,4.1171875 C10.3945286,4.1171875 9.96810053,3.94922043 9.65429688,3.61328125 C9.34049322,3.27734207 9.18359375,2.84505473 9.18359375,2.31640625 C9.18359375,1.80859121 9.33854012,1.36198109 9.6484375,0.9765625 C9.95833488,0.591143906 10.4153616,0.3984375 11.0195312,0.3984375 C11.8346395,0.3984375 12.3971339,0.765621328 12.7070312,1.5 C12.8789071,1.90364785 12.9648438,2.40885113 12.9648438,3.015625 C12.9648438,3.70052426 12.8619802,4.30728902 12.65625,4.8359375 C12.3151025,5.71615023 11.7369832,6.15625 10.921875,6.15625 C10.3749973,6.15625 9.95963684,6.01302227 9.67578125,5.7265625 C9.39192566,5.44010273 9.25,5.08073133 9.25,4.6484375 L9.9609375,4.6484375 Z M11.7910156,3.22460937 C12.0214855,3.04101471 12.1367188,2.72005437 12.1367188,2.26171875 C12.1367188,1.85025836 12.0332042,1.5436208 11.8261719,1.34179687 C11.6191396,1.13997295 11.3554704,1.0390625 11.0351562,1.0390625 C10.6914045,1.0390625 10.4186208,1.15429572 10.2167969,1.38476562 C10.0149729,1.61523553 9.9140625,1.92317516 9.9140625,2.30859375 C9.9140625,2.67317891 10.0026033,2.96288955 10.1796875,3.17773437 C10.3567717,3.3925792 10.639321,3.5 11.0273438,3.5 C11.305991,3.5 11.5605457,3.40820404 11.7910156,3.22460937 Z M14.3359375,4.57421875 C14.3828127,4.97526242 14.5690088,5.2526034 14.8945312,5.40625 C15.0611987,5.48437539 15.2539052,5.5234375 15.4726562,5.5234375 C15.889325,5.5234375 16.1979157,5.39062633 16.3984375,5.125 C16.5989593,4.85937367 16.6992188,4.56510578 16.6992188,4.2421875 C16.6992188,3.85156055 16.5800793,3.54948023 16.3417969,3.3359375 C16.1035144,3.12239477 15.81771,3.015625 15.484375,3.015625 C15.2421863,3.015625 15.0345061,3.06249953 14.8613281,3.15625 C14.6881502,3.25000047 14.5403652,3.3802075 14.4179688,3.546875 L13.8085938,3.51171875 L14.234375,0.5 L17.140625,0.5 L17.140625,1.1796875 L14.7617188,1.1796875 L14.5234375,2.734375 C14.6536465,2.63541617 14.7773432,2.56119816 14.8945312,2.51171875 C15.1028656,2.42578082 15.3437486,2.3828125 15.6171875,2.3828125 C16.1302109,2.3828125 16.5651024,2.54817543 16.921875,2.87890625 C17.2786476,3.20963707 17.4570312,3.62890371 17.4570312,4.13671875 C17.4570312,4.66536723 17.2936214,5.1315084 16.9667969,5.53515625 C16.6399723,5.9388041 16.1184932,6.140625 15.4023438,6.140625 C14.9466123,6.140625 14.5436215,6.01237107 14.1933594,5.75585937 C13.8430972,5.49934768 13.6471356,5.10547141 13.6054688,4.57421875 L14.3359375,4.57421875 Z" id="tspan3486"></path>
                                    </g>
                                </g>
                            </g>
                        </g>
                    </g>
                </g>
                <g id="g3488" transform="translate(0.000000, 0.000000)">
                    <g id="g3490-Clipped">
                        <mask id="mask-22" fill="white">
                            <use xlink:href="#path-21"></use>
                        </mask>
                        <g id="path3494"></g>
                        <g id="g3490" mask="url(#mask-22)">
                            <g transform="translate(421.250000, 10.500000)" id="g3496">
                                <g transform="translate(0.955125, 0.869750)">
                                    <g id="text3498" transform="translate(9.000000, 4.000000) scale(-1, 1) rotate(-180.000000) translate(-9.000000, -4.000000) translate(0.000000, 0.500000)" fill="#FFFFFF">
                                        <path d="M0.548828125,4.7421875 C0.722006074,4.38541488 1.05989332,4.06119937 1.5625,3.76953125 L2.3125,3.3359375 C2.64843918,3.14062402 2.88411391,2.97395902 3.01953125,2.8359375 C3.23307398,2.61979059 3.33984375,2.37239723 3.33984375,2.09375 C3.33984375,1.76822754 3.24218848,1.50976658 3.046875,1.31835938 C2.85156152,1.12695217 2.59114746,1.03125 2.265625,1.03125 C1.78385176,1.03125 1.45052176,1.21353984 1.265625,1.578125 C1.16666617,1.77343848 1.11197922,2.0442691 1.1015625,2.390625 L0.38671875,2.390625 C0.394531289,1.9036434 0.484374141,1.50651195 0.65625,1.19921875 C0.960939023,0.657549375 1.49869406,0.38671875 2.26953125,0.38671875 C2.91015945,0.38671875 3.37825373,0.559894102 3.67382812,0.90625 C3.96940252,1.2526059 4.1171875,1.63801871 4.1171875,2.0625 C4.1171875,2.51041891 3.95963699,2.89322758 3.64453125,3.2109375 C3.46223867,3.39583426 3.13541902,3.61979035 2.6640625,3.8828125 L2.12890625,4.1796875 C1.87369664,4.3203132 1.67317781,4.45442645 1.52734375,4.58203125 C1.26692578,4.80859488 1.10286492,5.05989445 1.03515625,5.3359375 L4.08984375,5.3359375 L4.08984375,6 L0.25,6 C0.276041797,5.51822676 0.375650176,5.09896012 0.548828125,4.7421875 Z M8.18359375,1.30078125 C8.433595,1.76172105 8.55859375,2.39322516 8.55859375,3.1953125 C8.55859375,3.95573297 8.44531363,4.58463293 8.21875,5.08203125 C7.89062336,5.79557648 7.35417039,6.15234375 6.609375,6.15234375 C5.93749664,6.15234375 5.43750164,5.86068 5.109375,5.27734375 C4.83593613,4.79036215 4.69921875,4.13672285 4.69921875,3.31640625 C4.69921875,2.68098641 4.78124918,2.13541895 4.9453125,1.6796875 C5.2526057,0.830724922 5.80858973,0.40625 6.61328125,0.40625 C7.3372432,0.40625 7.86067547,0.704424102 8.18359375,1.30078125 Z M7.4765625,5.02734375 C7.69270941,4.70442547 7.80078125,4.10286898 7.80078125,3.22265625 C7.80078125,2.58723641 7.72265703,2.06445518 7.56640625,1.65429688 C7.41015547,1.24413857 7.10677309,1.0390625 6.65625,1.0390625 C6.24218543,1.0390625 5.93945408,1.23372201 5.74804688,1.62304688 C5.55663967,2.01237174 5.4609375,2.58593371 5.4609375,3.34375 C5.4609375,3.91406535 5.5221348,4.3723941 5.64453125,4.71875 C5.83203219,5.24739848 6.15234148,5.51171875 6.60546875,5.51171875 C6.97005391,5.51171875 7.26041559,5.35026203 7.4765625,5.02734375 Z M12.6328125,1.30078125 C12.8828138,1.76172105 13.0078125,2.39322516 13.0078125,3.1953125 C13.0078125,3.95573297 12.8945324,4.58463293 12.6679688,5.08203125 C12.3398421,5.79557648 11.8033891,6.15234375 11.0585938,6.15234375 C10.3867154,6.15234375 9.88672039,5.86068 9.55859375,5.27734375 C9.28515488,4.79036215 9.1484375,4.13672285 9.1484375,3.31640625 C9.1484375,2.68098641 9.23046793,2.13541895 9.39453125,1.6796875 C9.70182445,0.830724922 10.2578085,0.40625 11.0625,0.40625 C11.786462,0.40625 12.3098942,0.704424102 12.6328125,1.30078125 Z M11.9257812,5.02734375 C12.1419282,4.70442547 12.25,4.10286898 12.25,3.22265625 C12.25,2.58723641 12.1718758,2.06445518 12.015625,1.65429688 C11.8593742,1.24413857 11.5559918,1.0390625 11.1054688,1.0390625 C10.6914042,1.0390625 10.3886728,1.23372201 10.1972656,1.62304688 C10.0058584,2.01237174 9.91015625,2.58593371 9.91015625,3.34375 C9.91015625,3.91406535 9.97135355,4.3723941 10.09375,4.71875 C10.2812509,5.24739848 10.6015602,5.51171875 11.0546875,5.51171875 C11.4192727,5.51171875 11.7096343,5.35026203 11.9257812,5.02734375 Z M17.0820312,1.30078125 C17.3320325,1.76172105 17.4570312,2.39322516 17.4570312,3.1953125 C17.4570312,3.95573297 17.3437511,4.58463293 17.1171875,5.08203125 C16.7890609,5.79557648 16.2526079,6.15234375 15.5078125,6.15234375 C14.8359341,6.15234375 14.3359391,5.86068 14.0078125,5.27734375 C13.7343736,4.79036215 13.5976562,4.13672285 13.5976562,3.31640625 C13.5976562,2.68098641 13.6796867,2.13541895 13.84375,1.6796875 C14.1510432,0.830724922 14.7070272,0.40625 15.5117188,0.40625 C16.2356807,0.40625 16.759113,0.704424102 17.0820312,1.30078125 Z M16.375,5.02734375 C16.5911469,4.70442547 16.6992188,4.10286898 16.6992188,3.22265625 C16.6992188,2.58723641 16.6210945,2.06445518 16.4648438,1.65429688 C16.308593,1.24413857 16.0052106,1.0390625 15.5546875,1.0390625 C15.1406229,1.0390625 14.8378916,1.23372201 14.6464844,1.62304688 C14.4550772,2.01237174 14.359375,2.58593371 14.359375,3.34375 C14.359375,3.91406535 14.4205723,4.3723941 14.5429688,4.71875 C14.7304697,5.24739848 15.050779,5.51171875 15.5039062,5.51171875 C15.8684914,5.51171875 16.1588531,5.35026203 16.375,5.02734375 Z" id="tspan3500"></path>
                                    </g>
                                </g>
                            </g>
                        </g>
                    </g>
                </g>
                <g id="g3502" transform="translate(0.000000, 0.000000)">
                    <g id="g3504-Clipped">
                        <mask id="mask-24" fill="white">
                            <use xlink:href="#path-23"></use>
                        </mask>
                        <g id="path3508"></g>
                        <g id="g3504" mask="url(#mask-24)">
                            <g transform="translate(302.500000, 10.500000)" id="g3510">
                                <g transform="translate(0.562500, 0.869750)">
                                    <g id="text3512" transform="translate(9.000000, 4.000000) scale(-1, 1) rotate(-180.000000) translate(-9.000000, -4.000000) translate(0.000000, 0.500000)" fill="#FFFFFF">
                                        <path d="M0.548828125,4.7421875 C0.722006074,4.38541488 1.05989332,4.06119938 1.5625,3.76953125 L2.3125,3.3359375 C2.64843918,3.14062402 2.88411391,2.97395902 3.01953125,2.8359375 C3.23307398,2.61979059 3.33984375,2.37239723 3.33984375,2.09375 C3.33984375,1.76822754 3.24218848,1.50976658 3.046875,1.31835938 C2.85156152,1.12695217 2.59114746,1.03125 2.265625,1.03125 C1.78385176,1.03125 1.45052176,1.21353984 1.265625,1.578125 C1.16666617,1.77343848 1.11197922,2.0442691 1.1015625,2.390625 L0.38671875,2.390625 C0.394531289,1.9036434 0.484374141,1.50651195 0.65625,1.19921875 C0.960939023,0.657549375 1.49869406,0.38671875 2.26953125,0.38671875 C2.91015945,0.38671875 3.37825373,0.559894102 3.67382812,0.90625 C3.96940252,1.2526059 4.1171875,1.63801871 4.1171875,2.0625 C4.1171875,2.51041891 3.95963699,2.89322758 3.64453125,3.2109375 C3.46223867,3.39583426 3.13541902,3.61979035 2.6640625,3.8828125 L2.12890625,4.1796875 C1.87369664,4.3203132 1.67317781,4.45442645 1.52734375,4.58203125 C1.26692578,4.80859488 1.10286492,5.05989445 1.03515625,5.3359375 L4.08984375,5.3359375 L4.08984375,6 L0.25,6 C0.276041797,5.51822676 0.375650176,5.09896012 0.548828125,4.7421875 Z M8.18359375,1.30078125 C8.433595,1.76172105 8.55859375,2.39322516 8.55859375,3.1953125 C8.55859375,3.95573297 8.44531363,4.58463293 8.21875,5.08203125 C7.89062336,5.79557648 7.35417039,6.15234375 6.609375,6.15234375 C5.93749664,6.15234375 5.43750164,5.86068 5.109375,5.27734375 C4.83593613,4.79036215 4.69921875,4.13672285 4.69921875,3.31640625 C4.69921875,2.68098641 4.78124918,2.13541895 4.9453125,1.6796875 C5.2526057,0.830724922 5.80858973,0.40625 6.61328125,0.40625 C7.3372432,0.40625 7.86067547,0.704424102 8.18359375,1.30078125 Z M7.4765625,5.02734375 C7.69270941,4.70442547 7.80078125,4.10286898 7.80078125,3.22265625 C7.80078125,2.58723641 7.72265703,2.06445518 7.56640625,1.65429688 C7.41015547,1.24413857 7.10677309,1.0390625 6.65625,1.0390625 C6.24218543,1.0390625 5.93945408,1.23372201 5.74804688,1.62304688 C5.55663967,2.01237174 5.4609375,2.58593371 5.4609375,3.34375 C5.4609375,3.91406535 5.5221348,4.3723941 5.64453125,4.71875 C5.83203219,5.24739848 6.15234148,5.51171875 6.60546875,5.51171875 C6.97005391,5.51171875 7.26041559,5.35026203 7.4765625,5.02734375 Z M12.6328125,1.30078125 C12.8828138,1.76172105 13.0078125,2.39322516 13.0078125,3.1953125 C13.0078125,3.95573297 12.8945324,4.58463293 12.6679688,5.08203125 C12.3398421,5.79557648 11.8033891,6.15234375 11.0585938,6.15234375 C10.3867154,6.15234375 9.88672039,5.86068 9.55859375,5.27734375 C9.28515488,4.79036215 9.1484375,4.13672285 9.1484375,3.31640625 C9.1484375,2.68098641 9.23046793,2.13541895 9.39453125,1.6796875 C9.70182445,0.830724922 10.2578085,0.40625 11.0625,0.40625 C11.786462,0.40625 12.3098942,0.704424102 12.6328125,1.30078125 Z M11.9257812,5.02734375 C12.1419282,4.70442547 12.25,4.10286898 12.25,3.22265625 C12.25,2.58723641 12.1718758,2.06445518 12.015625,1.65429688 C11.8593742,1.24413857 11.5559918,1.0390625 11.1054688,1.0390625 C10.6914042,1.0390625 10.3886728,1.23372201 10.1972656,1.62304688 C10.0058584,2.01237174 9.91015625,2.58593371 9.91015625,3.34375 C9.91015625,3.91406535 9.97135355,4.3723941 10.09375,4.71875 C10.2812509,5.24739848 10.6015602,5.51171875 11.0546875,5.51171875 C11.4192727,5.51171875 11.7096343,5.35026203 11.9257812,5.02734375 Z M14.3359375,4.57421875 C14.3828127,4.97526242 14.5690088,5.2526034 14.8945312,5.40625 C15.0611987,5.48437539 15.2539052,5.5234375 15.4726562,5.5234375 C15.889325,5.5234375 16.1979157,5.39062633 16.3984375,5.125 C16.5989593,4.85937367 16.6992188,4.56510578 16.6992188,4.2421875 C16.6992188,3.85156055 16.5800793,3.54948023 16.3417969,3.3359375 C16.1035144,3.12239477 15.81771,3.015625 15.484375,3.015625 C15.2421863,3.015625 15.0345061,3.06249953 14.8613281,3.15625 C14.6881502,3.25000047 14.5403652,3.3802075 14.4179688,3.546875 L13.8085938,3.51171875 L14.234375,0.5 L17.140625,0.5 L17.140625,1.1796875 L14.7617188,1.1796875 L14.5234375,2.734375 C14.6536465,2.63541617 14.7773432,2.56119816 14.8945312,2.51171875 C15.1028656,2.42578082 15.3437486,2.3828125 15.6171875,2.3828125 C16.1302109,2.3828125 16.5651024,2.54817543 16.921875,2.87890625 C17.2786476,3.20963707 17.4570312,3.62890371 17.4570312,4.13671875 C17.4570312,4.66536723 17.2936214,5.1315084 16.9667969,5.53515625 C16.6399723,5.9388041 16.1184932,6.140625 15.4023438,6.140625 C14.9466123,6.140625 14.5436215,6.01237107 14.1933594,5.75585938 C13.8430972,5.49934768 13.6471356,5.10547141 13.6054688,4.57421875 L14.3359375,4.57421875 Z" id="tspan3514"></path>
                                    </g>
                                </g>
                            </g>
                        </g>
                    </g>
                </g>
                <g id="g3516" transform="translate(0.000000, 0.000000)">
                    <g id="g3518-Clipped">
                        <mask id="mask-26" fill="white">
                            <use xlink:href="#path-25"></use>
                        </mask>
                        <g id="path3522"></g>
                        <g id="g3518" mask="url(#mask-26)">
                            <g transform="translate(183.750000, 10.500000)" id="g3524">
                                <g transform="translate(0.232625, 0.869750)">
                                    <g id="text3526" transform="translate(9.000000, 4.000000) scale(-1, 1) rotate(-180.000000) translate(-9.000000, -4.000000) translate(0.000000, 0.500000)" fill="#FFFFFF">
                                        <path d="M0.548828125,4.7421875 C0.722006074,4.38541488 1.05989332,4.06119937 1.5625,3.76953125 L2.3125,3.3359375 C2.64843918,3.14062402 2.88411391,2.97395902 3.01953125,2.8359375 C3.23307398,2.61979059 3.33984375,2.37239723 3.33984375,2.09375 C3.33984375,1.76822754 3.24218848,1.50976658 3.046875,1.31835937 C2.85156152,1.12695217 2.59114746,1.03125 2.265625,1.03125 C1.78385176,1.03125 1.45052176,1.21353984 1.265625,1.578125 C1.16666617,1.77343848 1.11197922,2.0442691 1.1015625,2.390625 L0.38671875,2.390625 C0.394531289,1.9036434 0.484374141,1.50651195 0.65625,1.19921875 C0.960939023,0.657549375 1.49869406,0.38671875 2.26953125,0.38671875 C2.91015945,0.38671875 3.37825373,0.559894102 3.67382812,0.90625 C3.96940252,1.2526059 4.1171875,1.63801871 4.1171875,2.0625 C4.1171875,2.51041891 3.95963699,2.89322758 3.64453125,3.2109375 C3.46223867,3.39583426 3.13541902,3.61979035 2.6640625,3.8828125 L2.12890625,4.1796875 C1.87369664,4.3203132 1.67317781,4.45442645 1.52734375,4.58203125 C1.26692578,4.80859488 1.10286492,5.05989445 1.03515625,5.3359375 L4.08984375,5.3359375 L4.08984375,6 L0.25,6 C0.276041797,5.51822676 0.375650176,5.09896012 0.548828125,4.7421875 Z M8.18359375,1.30078125 C8.433595,1.76172105 8.55859375,2.39322516 8.55859375,3.1953125 C8.55859375,3.95573297 8.44531363,4.58463293 8.21875,5.08203125 C7.89062336,5.79557648 7.35417039,6.15234375 6.609375,6.15234375 C5.93749664,6.15234375 5.43750164,5.86068 5.109375,5.27734375 C4.83593613,4.79036215 4.69921875,4.13672285 4.69921875,3.31640625 C4.69921875,2.68098641 4.78124918,2.13541895 4.9453125,1.6796875 C5.2526057,0.830724922 5.80858973,0.40625 6.61328125,0.40625 C7.3372432,0.40625 7.86067547,0.704424102 8.18359375,1.30078125 Z M7.4765625,5.02734375 C7.69270941,4.70442547 7.80078125,4.10286898 7.80078125,3.22265625 C7.80078125,2.58723641 7.72265703,2.06445518 7.56640625,1.65429687 C7.41015547,1.24413857 7.10677309,1.0390625 6.65625,1.0390625 C6.24218543,1.0390625 5.93945408,1.23372201 5.74804688,1.62304687 C5.55663967,2.01237174 5.4609375,2.58593371 5.4609375,3.34375 C5.4609375,3.91406535 5.5221348,4.3723941 5.64453125,4.71875 C5.83203219,5.24739848 6.15234148,5.51171875 6.60546875,5.51171875 C6.97005391,5.51171875 7.26041559,5.35026203 7.4765625,5.02734375 Z M9.6640625,2.0390625 L9.6640625,1.5 C10.1718775,1.45052059 10.5260407,1.36783912 10.7265625,1.25195312 C10.9270843,1.13606713 11.0768224,0.861981328 11.1757812,0.4296875 L11.7304688,0.4296875 L11.7304688,6 L10.9804688,6 L10.9804688,2.0390625 L9.6640625,2.0390625 Z M17.0820312,1.30078125 C17.3320325,1.76172105 17.4570312,2.39322516 17.4570312,3.1953125 C17.4570312,3.95573297 17.3437511,4.58463293 17.1171875,5.08203125 C16.7890609,5.79557648 16.2526079,6.15234375 15.5078125,6.15234375 C14.8359341,6.15234375 14.3359391,5.86068 14.0078125,5.27734375 C13.7343736,4.79036215 13.5976562,4.13672285 13.5976562,3.31640625 C13.5976562,2.68098641 13.6796867,2.13541895 13.84375,1.6796875 C14.1510432,0.830724922 14.7070272,0.40625 15.5117188,0.40625 C16.2356807,0.40625 16.759113,0.704424102 17.0820312,1.30078125 Z M16.375,5.02734375 C16.5911469,4.70442547 16.6992188,4.10286898 16.6992188,3.22265625 C16.6992188,2.58723641 16.6210945,2.06445518 16.4648438,1.65429687 C16.308593,1.24413857 16.0052106,1.0390625 15.5546875,1.0390625 C15.1406229,1.0390625 14.8378916,1.23372201 14.6464844,1.62304687 C14.4550772,2.01237174 14.359375,2.58593371 14.359375,3.34375 C14.359375,3.91406535 14.4205723,4.3723941 14.5429688,4.71875 C14.7304697,5.24739848 15.050779,5.51171875 15.5039062,5.51171875 C15.8684914,5.51171875 16.1588531,5.35026203 16.375,5.02734375 Z" id="tspan3528"></path>
                                    </g>
                                </g>
                            </g>
                        </g>
                    </g>
                </g>
                <g id="g3530" transform="translate(0.000000, 0.000000)">
                    <g id="g3532-Clipped">
                        <mask id="mask-28" fill="white">
                            <use xlink:href="#path-27"></use>
                        </mask>
                        <g id="path3536"></g>
                        <g id="g3532" mask="url(#mask-28)">
                            <g transform="translate(64.750000, 10.500000)" id="g3538">
                                <g transform="translate(0.090000, 0.869750)">
                                    <g id="text3540" transform="translate(9.000000, 4.000000) scale(-1, 1) rotate(-180.000000) translate(-9.000000, -4.000000) translate(0.000000, 0.500000)" fill="#FFFFFF">
                                        <path d="M0.548828125,4.7421875 C0.722006074,4.38541488 1.05989332,4.06119937 1.5625,3.76953125 L2.3125,3.3359375 C2.64843918,3.14062402 2.88411391,2.97395902 3.01953125,2.8359375 C3.23307398,2.61979059 3.33984375,2.37239723 3.33984375,2.09375 C3.33984375,1.76822754 3.24218848,1.50976658 3.046875,1.31835937 C2.85156152,1.12695217 2.59114746,1.03125 2.265625,1.03125 C1.78385176,1.03125 1.45052176,1.21353984 1.265625,1.578125 C1.16666617,1.77343848 1.11197922,2.0442691 1.1015625,2.390625 L0.38671875,2.390625 C0.394531289,1.9036434 0.484374141,1.50651195 0.65625,1.19921875 C0.960939023,0.657549375 1.49869406,0.38671875 2.26953125,0.38671875 C2.91015945,0.38671875 3.37825373,0.559894102 3.67382812,0.90625 C3.96940252,1.2526059 4.1171875,1.63801871 4.1171875,2.0625 C4.1171875,2.51041891 3.95963699,2.89322758 3.64453125,3.2109375 C3.46223867,3.39583426 3.13541902,3.61979035 2.6640625,3.8828125 L2.12890625,4.1796875 C1.87369664,4.3203132 1.67317781,4.45442645 1.52734375,4.58203125 C1.26692578,4.80859488 1.10286492,5.05989445 1.03515625,5.3359375 L4.08984375,5.3359375 L4.08984375,6 L0.25,6 C0.276041797,5.51822676 0.375650176,5.09896012 0.548828125,4.7421875 Z M8.18359375,1.30078125 C8.433595,1.76172105 8.55859375,2.39322516 8.55859375,3.1953125 C8.55859375,3.95573297 8.44531363,4.58463293 8.21875,5.08203125 C7.89062336,5.79557648 7.35417039,6.15234375 6.609375,6.15234375 C5.93749664,6.15234375 5.43750164,5.86068 5.109375,5.27734375 C4.83593613,4.79036215 4.69921875,4.13672285 4.69921875,3.31640625 C4.69921875,2.68098641 4.78124918,2.13541895 4.9453125,1.6796875 C5.2526057,0.830724922 5.80858973,0.40625 6.61328125,0.40625 C7.3372432,0.40625 7.86067547,0.704424102 8.18359375,1.30078125 Z M7.4765625,5.02734375 C7.69270941,4.70442547 7.80078125,4.10286898 7.80078125,3.22265625 C7.80078125,2.58723641 7.72265703,2.06445518 7.56640625,1.65429687 C7.41015547,1.24413857 7.10677309,1.0390625 6.65625,1.0390625 C6.24218543,1.0390625 5.93945408,1.23372201 5.74804688,1.62304687 C5.55663967,2.01237174 5.4609375,2.58593371 5.4609375,3.34375 C5.4609375,3.91406535 5.5221348,4.3723941 5.64453125,4.71875 C5.83203219,5.24739848 6.15234148,5.51171875 6.60546875,5.51171875 C6.97005391,5.51171875 7.26041559,5.35026203 7.4765625,5.02734375 Z M9.6640625,2.0390625 L9.6640625,1.5 C10.1718775,1.45052059 10.5260407,1.36783912 10.7265625,1.25195312 C10.9270843,1.13606713 11.0768224,0.861981328 11.1757812,0.4296875 L11.7304688,0.4296875 L11.7304688,6 L10.9804688,6 L10.9804688,2.0390625 L9.6640625,2.0390625 Z M14.3359375,4.57421875 C14.3828127,4.97526242 14.5690088,5.2526034 14.8945312,5.40625 C15.0611987,5.48437539 15.2539052,5.5234375 15.4726562,5.5234375 C15.889325,5.5234375 16.1979157,5.39062633 16.3984375,5.125 C16.5989593,4.85937367 16.6992188,4.56510578 16.6992188,4.2421875 C16.6992188,3.85156055 16.5800793,3.54948023 16.3417969,3.3359375 C16.1035144,3.12239477 15.81771,3.015625 15.484375,3.015625 C15.2421863,3.015625 15.0345061,3.06249953 14.8613281,3.15625 C14.6881502,3.25000047 14.5403652,3.3802075 14.4179688,3.546875 L13.8085938,3.51171875 L14.234375,0.5 L17.140625,0.5 L17.140625,1.1796875 L14.7617188,1.1796875 L14.5234375,2.734375 C14.6536465,2.63541617 14.7773432,2.56119816 14.8945312,2.51171875 C15.1028656,2.42578082 15.3437486,2.3828125 15.6171875,2.3828125 C16.1302109,2.3828125 16.5651024,2.54817543 16.921875,2.87890625 C17.2786476,3.20963707 17.4570312,3.62890371 17.4570312,4.13671875 C17.4570312,4.66536723 17.2936214,5.1315084 16.9667969,5.53515625 C16.6399723,5.9388041 16.1184932,6.140625 15.4023438,6.140625 C14.9466123,6.140625 14.5436215,6.01237107 14.1933594,5.75585937 C13.8430972,5.49934768 13.6471356,5.10547141 13.6054688,4.57421875 L14.3359375,4.57421875 Z" id="tspan3542"></path>
                                    </g>
                                </g>
                            </g>
                        </g>
                    </g>
                </g>
                <g id="g3544" transform="translate(5.000000, 26.250000)">
                    <g id="g3546-Clipped">
                        <mask id="mask-30" fill="white">
                            <use xlink:href="#path-29"></use>
                        </mask>
                        <g id="path3550"></g>
                        <g id="g3546" mask="url(#mask-30)" fill-rule="nonzero">
                            <g transform="translate(233.750000, 110.000000)">
                                <path d="M0.112625,4.3 C0.112625,6.6295 2.001125,8.517875 4.330625,8.517875 C6.660125,8.517875 8.5485,6.6295 8.5485,4.3 C8.5485,1.9705 6.660125,0.082 4.330625,0.082 C2.001125,0.082 0.112625,1.9705 0.112625,4.3 Z" id="path3552" fill-opacity="0.50199998" fill="#FFFFFF"></path>
                                <path d="M4.330625,7.242625 L3.18075,7.0105 L2.2485,6.382 L1.62,5.449875 L1.387875,4.3 L1.62,3.150125 L2.2485,2.217875 L3.18075,1.589375 L4.330625,1.35725 L5.4805,1.589375 L6.412625,2.217875 L7.041125,3.150125 L7.27325,4.3 L7.041125,5.449875 L6.412625,6.382 L5.4805,7.0105 L4.330625,7.242625 Z M4.330625,8.517875 L5.972375,8.186375 L7.313125,7.2825 L8.217,5.94175 L8.5485,4.3 L8.217,2.658125 L7.313125,1.3175 L5.972375,0.4135 L4.330625,0.082 L2.68875,0.4135 L1.348125,1.3175 L0.444125,2.658125 L0.112625,4.3 L0.444125,5.94175 L1.348125,7.2825 L2.68875,8.186375 L4.330625,8.517875 Z" id="path3554" fill-opacity="0.05880001" fill="#D9D9D9"></path>
                            </g>
                        </g>
                    </g>
                </g>
                <g id="g3556" transform="translate(5.000000, 26.250000)">
                    <g id="g3558-Clipped">
                        <mask id="mask-32" fill="white">
                            <use xlink:href="#path-31"></use>
                        </mask>
                        <g id="path3562"></g>
                        <g id="g3558" mask="url(#mask-32)" fill-rule="nonzero">
                            <g transform="translate(15.000000, 6.250000)">
                                <path d="M0.5751,9.15675 C0.5751,13.81575 4.3519875,17.59275 9.011025,17.59275 C13.67005,17.59275 17.44695,13.81575 17.44695,9.15675 C17.44695,4.49775 13.67005,0.720875 9.011025,0.720875 C4.3519875,0.720875 0.5751,4.49775 0.5751,9.15675 Z" id="path3564" fill-opacity="0.50199998" fill="#FFFFFF"></path>
                                <path d="M9.011025,16.3175 L6.2193,15.753875 L3.9463875,14.221375 L2.4139375,11.9485 L1.8503125,9.15675 L2.4139375,6.365 L3.9463875,4.092125 L6.2193,2.55975 L9.011025,1.996125 L11.8027375,2.55975 L14.0756625,4.092125 L15.6081,6.365 L16.171725,9.15675 L15.6081,11.9485 L14.0756625,14.221375 L11.8027375,15.753875 L9.011025,16.3175 Z M9.011025,17.59275 L12.2946625,16.92975 L14.9761125,15.121875 L16.7840125,12.440375 L17.44695,9.15675 L16.7840125,5.873125 L14.9761125,3.191625 L12.2946625,1.38375 L9.011025,0.720875 L5.727375,1.38375 L3.045925,3.191625 L1.2380375,5.873125 L0.5751,9.15675 L1.2380375,12.440375 L3.045925,15.121875 L5.727375,16.92975 L9.011025,17.59275 Z" id="path3566" fill-opacity="0.05880001" fill="#D9D9D9"></path>
                            </g>
                        </g>
                    </g>
                </g>
                <g id="g3568" transform="translate(5.000000, 26.250000)">
                    <g id="g3570-Clipped">
                        <mask id="mask-34" fill="white">
                            <use xlink:href="#path-33"></use>
                        </mask>
                        <g id="path3574"></g>
                        <g id="g3570" mask="url(#mask-34)" fill-rule="nonzero">
                            <g transform="translate(328.750000, 201.250000)">
                                <path d="M0.25475,4.8795 C0.25475,7.209 2.143125,9.097375 4.472625,9.097375 C6.802125,9.097375 8.6905,7.209 8.6905,4.8795 C8.6905,2.55 6.802125,0.661625 4.472625,0.661625 C2.143125,0.661625 0.25475,2.55 0.25475,4.8795 Z" id="path3576" fill-opacity="0.50199998" fill="#FFFFFF"></path>
                                <path d="M4.472625,7.82225 L3.32275,7.59 L2.390625,6.9615 L1.762125,6.029375 L1.529875,4.8795 L1.762125,3.729625 L2.390625,2.7975 L3.32275,2.169 L4.472625,1.936875 L5.6225,2.169 L6.554625,2.7975 L7.183125,3.729625 L7.415375,4.8795 L7.183125,6.029375 L6.554625,6.9615 L5.6225,7.59 L4.472625,7.82225 Z M4.472625,9.097375 L6.114375,8.766 L7.455125,7.862 L8.359125,6.52125 L8.6905,4.8795 L8.359125,3.23775 L7.455125,1.897 L6.114375,0.993 L4.472625,0.661625 L2.830875,0.993 L1.490125,1.897 L0.586125,3.23775 L0.25475,4.8795 L0.586125,6.52125 L1.490125,7.862 L2.830875,8.766 L4.472625,9.097375 Z" id="path3578" fill-opacity="0.05880001" fill="#D9D9D9"></path>
                            </g>
                        </g>
                    </g>
                </g>
                <g id="g3580" transform="translate(5.000000, 26.250000)">
                    <g id="g3582-Clipped">
                        <mask id="mask-36" fill="white">
                            <use xlink:href="#path-35"></use>
                        </mask>
                        <g id="path3586"></g>
                        <g id="g3582" mask="url(#mask-36)" fill-rule="nonzero">
                            <g transform="translate(153.750000, 67.500000)">
                                <path d="M0.320125,13.835625 C0.320125,20.824125 5.9855,26.4895 12.974,26.4895 C19.9625,26.4895 25.627875,20.824125 25.627875,13.835625 C25.627875,6.847125 19.9625,1.18175 12.974,1.18175 C5.9855,1.18175 0.320125,6.847125 0.320125,13.835625 Z" id="path3588" fill-opacity="0.50199998" fill="#FFFFFF"></path>
                                <path d="M12.974,25.233125 L10.674375,25.00125 L8.594875,24.35575 L4.926875,21.88275 L2.453875,18.21475 L1.808375,16.13525 L1.5765,13.835625 L1.808375,11.535875 L2.453875,9.456375 L4.926875,5.7885 L8.594875,3.3155 L10.674375,2.669875 L12.974,2.438125 L15.27375,2.669875 L17.35325,3.3155 L21.021125,5.7885 L23.49425,9.456375 L24.13975,11.535875 L24.3715,13.835625 L24.13975,16.13525 L23.49425,18.21475 L21.021125,21.88275 L17.35325,24.35575 L15.27375,25.00125 L12.974,25.233125 Z M12.974,26.4895 L15.52425,26.232375 L17.8995,25.495 L21.921625,22.78325 L24.6335,18.761 L25.37075,16.38575 L25.627875,13.835625 L25.37075,11.285375 L24.6335,8.910125 L21.921625,4.888 L17.8995,2.176125 L15.52425,1.438875 L12.974,1.18175 L10.423875,1.438875 L8.048625,2.176125 L4.026375,4.888 L1.314625,8.910125 L0.57725,11.285375 L0.320125,13.835625 L0.57725,16.38575 L1.314625,18.761 L4.026375,22.78325 L8.048625,25.495 L10.423875,26.232375 L12.974,26.4895 Z" id="path3590" fill-opacity="0.05880001" fill="#D9D9D9"></path>
                            </g>
                        </g>
                    </g>
                </g>
                <g id="g3592" transform="translate(5.000000, 26.250000)">
                    <g id="g3594-Clipped">
                        <mask id="mask-38" fill="white">
                            <use xlink:href="#path-37"></use>
                        </mask>
                        <g id="path3598"></g>
                        <g id="g3594" mask="url(#mask-38)" fill-rule="nonzero">
                            <g transform="translate(137.500000, 60.000000)">
                                <path d="M1.220625,4.853375 C1.220625,7.18275 3.109125,9.07125 5.438625,9.07125 C7.768125,9.07125 9.6565,7.18275 9.6565,4.853375 C9.6565,2.523875 7.768125,0.635375 5.438625,0.635375 C3.109125,0.635375 1.220625,2.523875 1.220625,4.853375 Z" id="path3600" fill-opacity="0.50199998" fill="#FFFFFF"></path>
                                <path d="M5.438625,7.796 L4.28875,7.563875 L3.3565,6.935375 L2.728,6.00325 L2.495875,4.853375 L2.728,3.7035 L3.3565,2.77125 L4.28875,2.14275 L5.438625,1.910625 L6.5885,2.14275 L7.520625,2.77125 L8.149125,3.7035 L8.38125,4.853375 L8.149125,6.00325 L7.520625,6.935375 L6.5885,7.563875 L5.438625,7.796 Z M5.438625,9.07125 L7.080375,8.73975 L8.421125,7.835875 L9.325,6.495125 L9.6565,4.853375 L9.325,3.2115 L8.421125,1.87075 L7.080375,0.966875 L5.438625,0.635375 L3.79675,0.966875 L2.456125,1.87075 L1.552125,3.2115 L1.220625,4.853375 L1.552125,6.495125 L2.456125,7.835875 L3.79675,8.73975 L5.438625,9.07125 Z" id="path3602" fill-opacity="0.05880001" fill="#D9D9D9"></path>
                            </g>
                        </g>
                    </g>
                </g>
                <g id="g3604" transform="translate(5.000000, 26.250000)">
                    <g id="g3606-Clipped">
                        <mask id="mask-40" fill="white">
                            <use xlink:href="#path-39"></use>
                        </mask>
                        <g id="path3610"></g>
                        <g id="g3606" mask="url(#mask-40)" fill-rule="nonzero">
                            <g transform="translate(281.250000, 215.000000)">
                                <path d="M0.183625,5.257125 C0.183625,7.586625 2.072125,9.475125 4.401625,9.475125 C6.731125,9.475125 8.6195,7.586625 8.6195,5.257125 C8.6195,2.927625 6.731125,1.03925 4.401625,1.03925 C2.072125,1.03925 0.183625,2.927625 0.183625,5.257125 Z" id="path3612" fill-opacity="0.50199998" fill="#FFFFFF"></path>
                                <path d="M4.401625,8.199875 L3.25175,7.96775 L2.3195,7.33925 L1.691,6.407 L1.458875,5.257125 L1.691,4.10725 L2.3195,3.175125 L3.25175,2.546625 L4.401625,2.3145 L5.5515,2.546625 L6.483625,3.175125 L7.112125,4.10725 L7.34425,5.257125 L7.112125,6.407 L6.483625,7.33925 L5.5515,7.96775 L4.401625,8.199875 Z M4.401625,9.475125 L6.043375,9.143625 L7.384125,8.239625 L8.288,6.899 L8.6195,5.257125 L8.288,3.615375 L7.384125,2.274625 L6.043375,1.37075 L4.401625,1.03925 L2.75975,1.37075 L1.419125,2.274625 L0.515125,3.615375 L0.183625,5.257125 L0.515125,6.899 L1.419125,8.239625 L2.75975,9.143625 L4.401625,9.475125 Z" id="path3614" fill-opacity="0.05880001" fill="#D9D9D9"></path>
                            </g>
                        </g>
                    </g>
                </g>
                <g id="g3616" transform="translate(5.000000, 26.250000)">
                    <g id="g3618-Clipped">
                        <mask id="mask-42" fill="white">
                            <use xlink:href="#path-41"></use>
                        </mask>
                        <g id="path3622"></g>
                        <g id="g3618" mask="url(#mask-42)" fill-rule="nonzero">
                            <g transform="translate(225.000000, 115.000000)">
                                <path d="M0.42675,13.427625 C0.42675,20.416125 6.092125,26.0815 13.080625,26.0815 C20.069125,26.0815 25.7345,20.416125 25.7345,13.427625 C25.7345,6.439125 20.069125,0.77375 13.080625,0.77375 C6.092125,0.77375 0.42675,6.439125 0.42675,13.427625 Z" id="path3624" fill-opacity="0.50199998" fill="#FFFFFF"></path>
                                <path d="M13.080625,24.825125 L10.780875,24.59325 L8.701375,23.94775 L5.0335,21.47475 L2.5605,17.80675 L1.914875,15.727375 L1.683125,13.427625 L1.914875,11.127875 L2.5605,9.0485 L5.0335,5.3805 L8.701375,2.9075 L10.780875,2.262 L13.080625,2.030125 L15.38025,2.262 L17.45975,2.9075 L21.12775,5.3805 L23.60075,9.0485 L24.24625,11.127875 L24.478125,13.427625 L24.24625,15.727375 L23.60075,17.80675 L21.12775,21.47475 L17.45975,23.94775 L15.38025,24.59325 L13.080625,24.825125 Z M13.080625,26.0815 L15.63075,25.824375 L18.006,25.087125 L22.02825,22.37525 L24.74,18.353125 L25.477375,15.977875 L25.7345,13.427625 L25.477375,10.8775 L24.74,8.502125 L22.02825,4.48 L18.006,1.76825 L15.63075,1.030875 L13.080625,0.77375 L10.530375,1.030875 L8.155125,1.76825 L4.133,4.48 L1.421125,8.502125 L0.683875,10.8775 L0.42675,13.427625 L0.683875,15.977875 L1.421125,18.353125 L4.133,22.37525 L8.155125,25.087125 L10.530375,25.824375 L13.080625,26.0815 Z" id="path3626" fill-opacity="0.05880001" fill="#D9D9D9"></path>
                            </g>
                        </g>
                    </g>
                </g>
                <g id="g3628" transform="translate(5.000000, 26.250000)">
                    <g id="g3630-Clipped">
                        <mask id="mask-44" fill="white">
                            <use xlink:href="#path-43"></use>
                        </mask>
                        <g id="path3634"></g>
                        <g id="g3630" mask="url(#mask-44)" fill-rule="nonzero">
                            <g transform="translate(157.500000, 72.500000)">
                                <path d="M0.788125,8.835625 C0.788125,13.494625 4.565,17.2715 9.224,17.2715 C13.883,17.2715 17.66,13.494625 17.66,8.835625 C17.66,4.176625 13.883,0.399625 9.224,0.399625 C4.565,0.399625 0.788125,4.176625 0.788125,8.835625 Z" id="path3636" fill-opacity="0.50199998" fill="#FFFFFF"></path>
                                <path d="M9.224,15.996375 L6.43225,15.43275 L4.159375,13.90025 L2.627,11.627375 L2.063375,8.835625 L2.627,6.043875 L4.159375,3.771 L6.43225,2.2385 L9.224,1.674875 L12.01575,2.2385 L14.288625,3.771 L15.821125,6.043875 L16.38475,8.835625 L15.821125,11.627375 L14.288625,13.90025 L12.01575,15.43275 L9.224,15.996375 Z M9.224,17.2715 L12.507625,16.608625 L15.189125,14.80075 L16.997,12.11925 L17.66,8.835625 L16.997,5.552 L15.189125,2.8705 L12.507625,1.062625 L9.224,0.399625 L5.940375,1.062625 L3.258875,2.8705 L1.451,5.552 L0.788125,8.835625 L1.451,12.11925 L3.258875,14.80075 L5.940375,16.608625 L9.224,17.2715 Z" id="path3638" fill-opacity="0.05880001" fill="#D9D9D9"></path>
                            </g>
                        </g>
                    </g>
                </g>
                <g id="g3640" transform="translate(5.000000, 26.250000)">
                    <g id="g3642-Clipped">
                        <mask id="mask-46" fill="white">
                            <use xlink:href="#path-45"></use>
                        </mask>
                        <g id="path3646"></g>
                        <g id="g3642" mask="url(#mask-46)" fill-rule="nonzero">
                            <g transform="translate(257.500000, 168.750000)">
                                <path d="M0.148125,4.415 C0.148125,6.7445 2.0365,8.633 4.366,8.633 C6.6955,8.633 8.584,6.7445 8.584,4.415 C8.584,2.0855 6.6955,0.197125 4.366,0.197125 C2.0365,0.197125 0.148125,2.0855 0.148125,4.415 Z" id="path3648" fill-opacity="0.50199998" fill="#FFFFFF"></path>
                                <path d="M4.366,7.35775 L3.216125,7.125625 L2.284,6.497125 L1.6555,5.564875 L1.423375,4.415 L1.6555,3.265125 L2.284,2.333 L3.216125,1.7045 L4.366,1.472375 L5.515875,1.7045 L6.448125,2.333 L7.076625,3.265125 L7.30875,4.415 L7.076625,5.564875 L6.448125,6.497125 L5.515875,7.125625 L4.366,7.35775 Z M4.366,8.633 L6.007875,8.3015 L7.3485,7.3975 L8.2525,6.056875 L8.584,4.415 L8.2525,2.77325 L7.3485,1.4325 L6.007875,0.528625 L4.366,0.197125 L2.72425,0.528625 L1.3835,1.4325 L0.479625,2.77325 L0.148125,4.415 L0.479625,6.056875 L1.3835,7.3975 L2.72425,8.3015 L4.366,8.633 Z" id="path3650" fill-opacity="0.05880001" fill="#D9D9D9"></path>
                            </g>
                        </g>
                    </g>
                </g>
                <g id="g3652" transform="translate(5.000000, 26.250000)">
                    <g id="g3654-Clipped">
                        <mask id="mask-48" fill="white">
                            <use xlink:href="#path-47"></use>
                        </mask>
                        <g id="path3658"></g>
                        <g id="g3654" mask="url(#mask-48)" fill-rule="nonzero">
                            <g transform="translate(281.250000, 211.250000)">
                                <path d="M0.183625,4.297875 C0.183625,6.627375 2.072125,8.515875 4.401625,8.515875 C6.731125,8.515875 8.6195,6.627375 8.6195,4.297875 C8.6195,1.968375 6.731125,0.08 4.401625,0.08 C2.072125,0.08 0.183625,1.968375 0.183625,4.297875 Z" id="path3660" fill-opacity="0.50199998" fill="#FFFFFF"></path>
                                <path d="M4.401625,7.240625 L3.25175,7.0085 L2.3195,6.38 L1.691,5.44775 L1.458875,4.297875 L1.691,3.148 L2.3195,2.215875 L3.25175,1.587375 L4.401625,1.35525 L5.5515,1.587375 L6.483625,2.215875 L7.112125,3.148 L7.34425,4.297875 L7.112125,5.44775 L6.483625,6.38 L5.5515,7.0085 L4.401625,7.240625 Z M4.401625,8.515875 L6.043375,8.184375 L7.384125,7.280375 L8.288,5.93975 L8.6195,4.297875 L8.288,2.656125 L7.384125,1.315375 L6.043375,0.4115 L4.401625,0.08 L2.75975,0.4115 L1.419125,1.315375 L0.515125,2.656125 L0.183625,4.297875 L0.515125,5.93975 L1.419125,7.280375 L2.75975,8.184375 L4.401625,8.515875 Z" id="path3662" fill-opacity="0.05880001" fill="#D9D9D9"></path>
                            </g>
                        </g>
                    </g>
                </g>
                <g id="g3664" transform="translate(5.000000, 26.250000)">
                    <g id="g3666-Clipped">
                        <mask id="mask-50" fill="white">
                            <use xlink:href="#path-49"></use>
                        </mask>
                        <g id="path3670"></g>
                        <g id="g3666" mask="url(#mask-50)" fill-rule="nonzero">
                            <g transform="translate(162.500000, 76.250000)">
                                <path d="M0.006125,5.085625 C0.006125,7.415125 1.8945,9.3035 4.224,9.3035 C6.5535,9.3035 8.441875,7.415125 8.441875,5.085625 C8.441875,2.756125 6.5535,0.867625 4.224,0.867625 C1.8945,0.867625 0.006125,2.756125 0.006125,5.085625 Z" id="path3672" fill-opacity="0.50199998" fill="#FFFFFF"></path>
                                <path d="M4.224,8.02825 L3.074125,7.796125 L2.142,7.167625 L1.5135,6.2355 L1.281375,5.085625 L1.5135,3.93575 L2.142,3.0035 L3.074125,2.375 L4.224,2.142875 L5.373875,2.375 L6.306125,3.0035 L6.9345,3.93575 L7.16675,5.085625 L6.9345,6.2355 L6.306125,7.167625 L5.373875,7.796125 L4.224,8.02825 Z M4.224,9.3035 L5.865875,8.972 L7.2065,8.068125 L8.1105,6.727375 L8.441875,5.085625 L8.1105,3.44375 L7.2065,2.103125 L5.865875,1.199125 L4.224,0.867625 L2.58225,1.199125 L1.2415,2.103125 L0.337625,3.44375 L0.006125,5.085625 L0.337625,6.727375 L1.2415,8.068125 L2.58225,8.972 L4.224,9.3035 Z" id="path3674" fill-opacity="0.05880001" fill="#D9D9D9"></path>
                            </g>
                        </g>
                    </g>
                </g>
                <g id="g3676" transform="translate(5.000000, 26.250000)">
                    <g id="g3678-Clipped">
                        <mask id="mask-52" fill="white">
                            <use xlink:href="#path-51"></use>
                        </mask>
                        <g id="path3682"></g>
                        <g id="g3678" mask="url(#mask-52)" fill-rule="nonzero">
                            <g transform="translate(113.750000, 43.750000)">
                                <path d="M1.185125,4.621125 C1.185125,6.950625 3.0735,8.839 5.403,8.839 C7.7325,8.839 9.621,6.950625 9.621,4.621125 C9.621,2.291625 7.7325,0.40325 5.403,0.40325 C3.0735,0.40325 1.185125,2.291625 1.185125,4.621125 Z" id="path3684" fill-opacity="0.50199998" fill="#FFFFFF"></path>
                                <path d="M5.403,7.563875 L4.253125,7.331625 L3.321,6.703125 L2.6925,5.771 L2.460375,4.621125 L2.6925,3.47125 L3.321,2.539125 L4.253125,1.910625 L5.403,1.678375 L6.552875,1.910625 L7.485125,2.539125 L8.113625,3.47125 L8.34575,4.621125 L8.113625,5.771 L7.485125,6.703125 L6.552875,7.331625 L5.403,7.563875 Z M5.403,8.839 L7.044875,8.507625 L8.3855,7.603625 L9.2895,6.262875 L9.621,4.621125 L9.2895,2.979375 L8.3855,1.638625 L7.044875,0.734625 L5.403,0.40325 L3.76125,0.734625 L2.4205,1.638625 L1.516625,2.979375 L1.185125,4.621125 L1.516625,6.262875 L2.4205,7.603625 L3.76125,8.507625 L5.403,8.839 Z" id="path3686" fill-opacity="0.05880001" fill="#D9D9D9"></path>
                            </g>
                        </g>
                    </g>
                </g>
                <g id="g3688" transform="translate(5.000000, 26.250000)">
                    <g id="g3690-Clipped">
                        <mask id="mask-54" fill="white">
                            <use xlink:href="#path-53"></use>
                        </mask>
                        <g id="path3694"></g>
                        <g id="g3690" mask="url(#mask-54)" fill-rule="nonzero">
                            <g transform="translate(42.500000, 15.000000)">
                                <path d="M1.078625,5.115875 C1.078625,7.445375 2.967125,9.333875 5.2965,9.333875 C7.626,9.333875 9.5145,7.445375 9.5145,5.115875 C9.5145,2.786375 7.626,0.898 5.2965,0.898 C2.967125,0.898 1.078625,2.786375 1.078625,5.115875 Z" id="path3696" fill-opacity="0.50199998" fill="#FFFFFF"></path>
                                <path d="M5.2965,8.058625 L4.146625,7.8265 L3.2145,7.198 L2.586,6.26575 L2.353875,5.115875 L2.586,3.966 L3.2145,3.033875 L4.146625,2.405375 L5.2965,2.17325 L6.446375,2.405375 L7.378625,3.033875 L8.007125,3.966 L8.23925,5.115875 L8.007125,6.26575 L7.378625,7.198 L6.446375,7.8265 L5.2965,8.058625 Z M5.2965,9.333875 L6.938375,9.002375 L8.279125,8.0985 L9.183,6.75775 L9.5145,5.115875 L9.183,3.474125 L8.279125,2.133375 L6.938375,1.2295 L5.2965,0.898 L3.65475,1.2295 L2.314,2.133375 L1.410125,3.474125 L1.078625,5.115875 L1.410125,6.75775 L2.314,8.0985 L3.65475,9.002375 L5.2965,9.333875 Z" id="path3698" fill-opacity="0.05880001" fill="#D9D9D9"></path>
                            </g>
                        </g>
                    </g>
                </g>
                <g id="g3700" transform="translate(5.000000, 26.250000)">
                    <g id="g3702-Clipped">
                        <mask id="mask-56" fill="white">
                            <use xlink:href="#path-55"></use>
                        </mask>
                        <g id="path3706"></g>
                        <g id="g3702" mask="url(#mask-56)" fill-rule="nonzero">
                            <g transform="translate(82.500000, 26.250000)">
                                <path d="M0.213625,12.70275 C0.213625,19.69125 5.879,25.3565 12.8675,25.3565 C19.856,25.3565 25.521375,19.69125 25.521375,12.70275 C25.521375,5.71425 19.856,0.048875 12.8675,0.048875 C5.879,0.048875 0.213625,5.71425 0.213625,12.70275 Z" id="path3708" fill-opacity="0.50199998" fill="#FFFFFF"></path>
                                <path d="M12.8675,24.10025 L10.567875,23.868375 L8.488375,23.222875 L4.820375,20.749875 L2.347375,17.081875 L1.701875,15.002375 L1.47,12.70275 L1.701875,10.403 L2.347375,8.3235 L4.820375,4.655625 L8.488375,2.1825 L10.567875,1.537 L12.8675,1.30525 L15.16725,1.537 L17.24675,2.1825 L20.914625,4.655625 L23.387625,8.3235 L24.03325,10.403 L24.265,12.70275 L24.03325,15.002375 L23.387625,17.081875 L20.914625,20.749875 L17.24675,23.222875 L15.16725,23.868375 L12.8675,24.10025 Z M12.8675,25.3565 L15.41775,25.0995 L17.793,24.362125 L21.815125,21.650375 L24.527,17.628125 L25.26425,15.252875 L25.521375,12.70275 L25.26425,10.1525 L24.527,7.77725 L21.815125,3.755125 L17.793,1.04325 L15.41775,0.306 L12.8675,0.048875 L10.317375,0.306 L7.942125,1.04325 L3.919875,3.755125 L1.208125,7.77725 L0.47075,10.1525 L0.213625,12.70275 L0.47075,15.252875 L1.208125,17.628125 L3.919875,21.650375 L7.942125,24.362125 L10.317375,25.0995 L12.8675,25.3565 Z" id="path3710" fill-opacity="0.05880001" fill="#D9D9D9"></path>
                            </g>
                        </g>
                    </g>
                </g>
                <g id="g3712" transform="translate(5.000000, 26.250000)">
                    <g id="g3714-Clipped">
                        <mask id="mask-58" fill="white">
                            <use xlink:href="#path-57"></use>
                        </mask>
                        <g id="path3718"></g>
                        <g id="g3714" mask="url(#mask-58)" fill-rule="nonzero">
                            <g transform="translate(186.250000, 76.250000)">
                                <path d="M0.041625,5.085625 C0.041625,7.415125 1.93,9.3035 4.2595,9.3035 C6.589,9.3035 8.4775,7.415125 8.4775,5.085625 C8.4775,2.756125 6.589,0.867625 4.2595,0.867625 C1.93,0.867625 0.041625,2.756125 0.041625,5.085625 Z" id="path3720" fill-opacity="0.50199998" fill="#FFFFFF"></path>
                                <path d="M4.2595,8.02825 L3.109625,7.796125 L2.1775,7.167625 L1.549,6.2355 L1.316875,5.085625 L1.549,3.93575 L2.1775,3.0035 L3.109625,2.375 L4.2595,2.142875 L5.409375,2.375 L6.341625,3.0035 L6.970125,3.93575 L7.20225,5.085625 L6.970125,6.2355 L6.341625,7.167625 L5.409375,7.796125 L4.2595,8.02825 Z M4.2595,9.3035 L5.901375,8.972 L7.242125,8.068125 L8.146,6.727375 L8.4775,5.085625 L8.146,3.44375 L7.242125,2.103125 L5.901375,1.199125 L4.2595,0.867625 L2.61775,1.199125 L1.277,2.103125 L0.373125,3.44375 L0.041625,5.085625 L0.373125,6.727375 L1.277,8.068125 L2.61775,8.972 L4.2595,9.3035 Z" id="path3722" fill-opacity="0.05880001" fill="#D9D9D9"></path>
                            </g>
                        </g>
                    </g>
                </g>
                <g id="g3724" transform="translate(5.000000, 26.250000)">
                    <g id="g3726-Clipped">
                        <mask id="mask-60" fill="white">
                            <use xlink:href="#path-59"></use>
                        </mask>
                        <g id="path3730"></g>
                        <g id="g3726" mask="url(#mask-60)" fill-rule="nonzero">
                            <g transform="translate(305.000000, 185.000000)">
                                <path d="M0.21925,4.647375 C0.21925,6.976875 2.107625,8.86525 4.437125,8.86525 C6.766625,8.86525 8.655,6.976875 8.655,4.647375 C8.655,2.317875 6.766625,0.429375 4.437125,0.429375 C2.107625,0.429375 0.21925,2.317875 0.21925,4.647375 Z" id="path3732" fill-opacity="0.50199998" fill="#FFFFFF"></path>
                                <path d="M4.437125,7.59 L3.28725,7.357875 L2.355,6.729375 L1.726625,5.79725 L1.494375,4.647375 L1.726625,3.4975 L2.355,2.56525 L3.28725,1.93675 L4.437125,1.704625 L5.587,1.93675 L6.519125,2.56525 L7.147625,3.4975 L7.37975,4.647375 L7.147625,5.79725 L6.519125,6.729375 L5.587,7.357875 L4.437125,7.59 Z M4.437125,8.86525 L6.078875,8.53375 L7.419625,7.629875 L8.3235,6.289125 L8.655,4.647375 L8.3235,3.0055 L7.419625,1.66475 L6.078875,0.760875 L4.437125,0.429375 L2.79525,0.760875 L1.454625,1.66475 L0.550625,3.0055 L0.21925,4.647375 L0.550625,6.289125 L1.454625,7.629875 L2.79525,8.53375 L4.437125,8.86525 Z" id="path3734" fill-opacity="0.05880001" fill="#D9D9D9"></path>
                            </g>
                        </g>
                    </g>
                </g>
                <g id="g3736" transform="translate(5.000000, 26.250000)">
                    <g id="g3738-Clipped">
                        <mask id="mask-62" fill="white">
                            <use xlink:href="#path-61"></use>
                        </mask>
                        <g id="path3742"></g>
                        <g id="g3738" mask="url(#mask-62)" fill-rule="nonzero">
                            <g transform="translate(228.750000, 118.750000)">
                                <path d="M0.894625,9.677625 C0.894625,14.336625 4.671625,18.1135 9.330625,18.1135 C13.989625,18.1135 17.7665,14.336625 17.7665,9.677625 C17.7665,5.018625 13.989625,1.24175 9.330625,1.24175 C4.671625,1.24175 0.894625,5.018625 0.894625,9.677625 Z" id="path3744" fill-opacity="0.50199998" fill="#FFFFFF"></path>
                                <path d="M9.330625,16.838375 L6.538875,16.27475 L4.266,14.74225 L2.7335,12.469375 L2.169875,9.677625 L2.7335,6.885875 L4.266,4.613 L6.538875,3.0805 L9.330625,2.516875 L12.122375,3.0805 L14.39525,4.613 L15.92775,6.885875 L16.49125,9.677625 L15.92775,12.469375 L14.39525,14.74225 L12.122375,16.27475 L9.330625,16.838375 Z M9.330625,18.1135 L12.61425,17.450625 L15.29575,15.64275 L17.103625,12.96125 L17.7665,9.677625 L17.103625,6.394 L15.29575,3.7125 L12.61425,1.904625 L9.330625,1.24175 L6.047,1.904625 L3.3655,3.7125 L1.557625,6.394 L0.894625,9.677625 L1.557625,12.96125 L3.3655,15.64275 L6.047,17.450625 L9.330625,18.1135 Z" id="path3746" fill-opacity="0.05880001" fill="#D9D9D9"></path>
                            </g>
                        </g>
                    </g>
                </g>
                <g id="g3748" transform="translate(5.000000, 26.250000)">
                    <g id="g3750-Clipped">
                        <mask id="mask-64" fill="white">
                            <use xlink:href="#path-63"></use>
                        </mask>
                        <g id="path3754"></g>
                        <g id="g3750" mask="url(#mask-64)" fill-rule="nonzero">
                            <g transform="translate(210.000000, 132.500000)">
                                <path d="M0.077125,5.346 C0.077125,7.6755 1.965625,9.564 4.295125,9.564 C6.624625,9.564 8.513,7.6755 8.513,5.346 C8.513,3.0165 6.624625,1.128125 4.295125,1.128125 C1.965625,1.128125 0.077125,3.0165 0.077125,5.346 Z" id="path3756" fill-opacity="0.50199998" fill="#FFFFFF"></path>
                                <path d="M4.295125,8.28875 L3.14525,8.056625 L2.213,7.428125 L1.5845,6.495875 L1.352375,5.346 L1.5845,4.196125 L2.213,3.264 L3.14525,2.6355 L4.295125,2.403375 L5.445,2.6355 L6.377125,3.264 L7.005625,4.196125 L7.23775,5.346 L7.005625,6.495875 L6.377125,7.428125 L5.445,8.056625 L4.295125,8.28875 Z M4.295125,9.564 L5.936875,9.2325 L7.277625,8.3285 L8.1815,6.987875 L8.513,5.346 L8.1815,3.70425 L7.277625,2.3635 L5.936875,1.459625 L4.295125,1.128125 L2.65325,1.459625 L1.312625,2.3635 L0.408625,3.70425 L0.077125,5.346 L0.408625,6.987875 L1.312625,8.3285 L2.65325,9.2325 L4.295125,9.564 Z" id="path3758" fill-opacity="0.05880001" fill="#D9D9D9"></path>
                            </g>
                        </g>
                    </g>
                </g>
                <g id="g3760" transform="translate(5.000000, 26.250000)">
                    <g id="g3762-Clipped">
                        <mask id="mask-66" fill="white">
                            <use xlink:href="#path-65"></use>
                        </mask>
                        <g id="path3766"></g>
                        <g id="g3762" mask="url(#mask-66)" fill-rule="nonzero">
                            <g transform="translate(86.250000, 30.000000)">
                                <path d="M0.681625,8.95275 C0.681625,13.61175 4.4585,17.388625 9.1175,17.388625 C13.7765,17.388625 17.5535,13.61175 17.5535,8.95275 C17.5535,4.29375 13.7765,0.51675 9.1175,0.51675 C4.4585,0.51675 0.681625,4.29375 0.681625,8.95275 Z" id="path3768" fill-opacity="0.50199998" fill="#FFFFFF"></path>
                                <path d="M9.1175,16.113375 L6.32575,15.54975 L4.052875,14.017375 L2.520375,11.7445 L1.95675,8.95275 L2.520375,6.161 L4.052875,3.888125 L6.32575,2.355625 L9.1175,1.792 L11.90925,2.355625 L14.182125,3.888125 L15.714625,6.161 L16.27825,8.95275 L15.714625,11.7445 L14.182125,14.017375 L11.90925,15.54975 L9.1175,16.113375 Z M9.1175,17.388625 L12.401125,16.72575 L15.082625,14.917875 L16.8905,12.236375 L17.5535,8.95275 L16.8905,5.669125 L15.082625,2.987625 L12.401125,1.17975 L9.1175,0.51675 L5.833875,1.17975 L3.152375,2.987625 L1.3445,5.669125 L0.681625,8.95275 L1.3445,12.236375 L3.152375,14.917875 L5.833875,16.72575 L9.1175,17.388625 Z" id="path3770" fill-opacity="0.05880001" fill="#D9D9D9"></path>
                            </g>
                        </g>
                    </g>
                </g>
                <g id="g3772" transform="translate(5.000000, 26.250000)">
                    <g id="g3774-Clipped">
                        <mask id="mask-68" fill="white">
                            <use xlink:href="#path-67"></use>
                        </mask>
                        <g id="path3778"></g>
                        <g id="g3774" mask="url(#mask-68)" fill-rule="nonzero">
                            <g transform="translate(18.750000, 10.000000)">
                                <path d="M1.0431125,5.40675 C1.0431125,7.73625 2.9315375,9.624625 5.261025,9.624625 C7.5905125,9.624625 9.4789375,7.73625 9.4789375,5.40675 C9.4789375,3.07725 7.5905125,1.188875 5.261025,1.188875 C2.9315375,1.188875 1.0431125,3.07725 1.0431125,5.40675 Z" id="path3780" fill-opacity="0.50199998" fill="#FFFFFF"></path>
                                <path d="M5.261025,8.3495 L4.11115,8.11725 L3.178975,7.48875 L2.550475,6.556625 L2.318325,5.40675 L2.550475,4.256875 L3.178975,3.32475 L4.11115,2.69625 L5.261025,2.464125 L6.4109,2.69625 L7.343075,3.32475 L7.9715625,4.256875 L8.2037125,5.40675 L7.9715625,6.556625 L7.343075,7.48875 L6.4109,8.11725 L5.261025,8.3495 Z M5.261025,9.624625 L6.902825,9.29325 L8.2435375,8.38925 L9.147475,7.0485 L9.4789375,5.40675 L9.147475,3.765 L8.2435375,2.42425 L6.902825,1.52025 L5.261025,1.188875 L3.619225,1.52025 L2.2785125,2.42425 L1.374575,3.765 L1.0431125,5.40675 L1.374575,7.0485 L2.2785125,8.38925 L3.619225,9.29325 L5.261025,9.624625 Z" id="path3782" fill-opacity="0.05880001" fill="#D9D9D9"></path>
                            </g>
                        </g>
                    </g>
                </g>
                <g id="g3784" transform="translate(5.000000, 26.250000)">
                    <g id="g3786-Clipped">
                        <mask id="mask-70" fill="white">
                            <use xlink:href="#path-69"></use>
                        </mask>
                        <g id="path3790"></g>
                        <g id="g3786" mask="url(#mask-70)" fill-rule="nonzero">
                            <g transform="translate(328.750000, 177.500000)">
                                <path d="M0.25475,5.0835 C0.25475,7.412875 2.143125,9.301375 4.472625,9.301375 C6.802125,9.301375 8.6905,7.412875 8.6905,5.0835 C8.6905,2.754 6.802125,0.8655 4.472625,0.8655 C2.143125,0.8655 0.25475,2.754 0.25475,5.0835 Z" id="path3792" fill-opacity="0.50199998" fill="#FFFFFF"></path>
                                <path d="M4.472625,8.026125 L3.32275,7.794 L2.390625,7.1655 L1.762125,6.233375 L1.529875,5.0835 L1.762125,3.933625 L2.390625,3.001375 L3.32275,2.372875 L4.472625,2.14075 L5.6225,2.372875 L6.554625,3.001375 L7.183125,3.933625 L7.415375,5.0835 L7.183125,6.233375 L6.554625,7.1655 L5.6225,7.794 L4.472625,8.026125 Z M4.472625,9.301375 L6.114375,8.969875 L7.455125,8.066 L8.359125,6.72525 L8.6905,5.0835 L8.359125,3.441625 L7.455125,2.100875 L6.114375,1.197 L4.472625,0.8655 L2.830875,1.197 L1.490125,2.100875 L0.586125,3.441625 L0.25475,5.0835 L0.586125,6.72525 L1.490125,8.066 L2.830875,8.969875 L4.472625,9.301375 Z" id="path3794" fill-opacity="0.05880001" fill="#D9D9D9"></path>
                            </g>
                        </g>
                    </g>
                </g>
                <g id="g3796" transform="translate(5.000000, 26.250000)">
                    <g id="g3798-Clipped">
                        <mask id="mask-72" fill="white">
                            <use xlink:href="#path-71"></use>
                        </mask>
                        <g id="path3802"></g>
                        <g id="g3798" mask="url(#mask-72)" fill-rule="nonzero">
                            <g transform="translate(233.750000, 123.750000)">
                                <path d="M0.112625,4.677625 C0.112625,7.007125 2.001125,8.895625 4.330625,8.895625 C6.660125,8.895625 8.5485,7.007125 8.5485,4.677625 C8.5485,2.348125 6.660125,0.45975 4.330625,0.45975 C2.001125,0.45975 0.112625,2.348125 0.112625,4.677625 Z" id="path3804" fill-opacity="0.50199998" fill="#FFFFFF"></path>
                                <path d="M4.330625,7.620375 L3.18075,7.38825 L2.2485,6.75975 L1.62,5.8275 L1.387875,4.677625 L1.62,3.52775 L2.2485,2.595625 L3.18075,1.967125 L4.330625,1.735 L5.4805,1.967125 L6.412625,2.595625 L7.041125,3.52775 L7.27325,4.677625 L7.041125,5.8275 L6.412625,6.75975 L5.4805,7.38825 L4.330625,7.620375 Z M4.330625,8.895625 L5.972375,8.564125 L7.313125,7.660125 L8.217,6.3195 L8.5485,4.677625 L8.217,3.035875 L7.313125,1.695125 L5.972375,0.79125 L4.330625,0.45975 L2.68875,0.79125 L1.348125,1.695125 L0.444125,3.035875 L0.112625,4.677625 L0.444125,6.3195 L1.348125,7.660125 L2.68875,8.564125 L4.330625,8.895625 Z" id="path3806" fill-opacity="0.05880001" fill="#D9D9D9"></path>
                            </g>
                        </g>
                    </g>
                </g>
                <g id="g3808" transform="translate(5.000000, 26.250000)">
                    <g id="g3810-Clipped">
                        <mask id="mask-74" fill="white">
                            <use xlink:href="#path-73"></use>
                        </mask>
                        <g id="path3814"></g>
                        <g id="g3810" mask="url(#mask-74)" fill-rule="nonzero">
                            <g transform="translate(257.500000, 137.500000)">
                                <path d="M0.148125,5.05525 C0.148125,7.38475 2.0365,9.27325 4.366,9.27325 C6.6955,9.27325 8.584,7.38475 8.584,5.05525 C8.584,2.72575 6.6955,0.837375 4.366,0.837375 C2.0365,0.837375 0.148125,2.72575 0.148125,5.05525 Z" id="path3816" fill-opacity="0.50199998" fill="#FFFFFF"></path>
                                <path d="M4.366,7.998 L3.216125,7.765875 L2.284,7.137375 L1.6555,6.205125 L1.423375,5.05525 L1.6555,3.905375 L2.284,2.97325 L3.216125,2.34475 L4.366,2.112625 L5.515875,2.34475 L6.448125,2.97325 L7.076625,3.905375 L7.30875,5.05525 L7.076625,6.205125 L6.448125,7.137375 L5.515875,7.765875 L4.366,7.998 Z M4.366,9.27325 L6.007875,8.94175 L7.3485,8.03775 L8.2525,6.697125 L8.584,5.05525 L8.2525,3.4135 L7.3485,2.07275 L6.007875,1.168875 L4.366,0.837375 L2.72425,1.168875 L1.3835,2.07275 L0.479625,3.4135 L0.148125,5.05525 L0.479625,6.697125 L1.3835,8.03775 L2.72425,8.94175 L4.366,9.27325 Z" id="path3818" fill-opacity="0.05880001" fill="#D9D9D9"></path>
                            </g>
                        </g>
                    </g>
                </g>
                <g id="g3820" transform="translate(5.000000, 26.250000)">
                    <g id="g3822-Clipped">
                        <mask id="mask-76" fill="white">
                            <use xlink:href="#path-75"></use>
                        </mask>
                        <g id="path3826"></g>
                        <g id="g3822" mask="url(#mask-76)" fill-rule="nonzero">
                            <g transform="translate(186.250000, 92.500000)">
                                <path d="M0.041625,5.31775 C0.041625,7.64725 1.93,9.53575 4.2595,9.53575 C6.589,9.53575 8.4775,7.64725 8.4775,5.31775 C8.4775,2.98825 6.589,1.099875 4.2595,1.099875 C1.93,1.099875 0.041625,2.98825 0.041625,5.31775 Z" id="path3828" fill-opacity="0.50199998" fill="#FFFFFF"></path>
                                <path d="M4.2595,8.2605 L3.109625,8.028375 L2.1775,7.399875 L1.549,6.467625 L1.316875,5.31775 L1.549,4.167875 L2.1775,3.23575 L3.109625,2.60725 L4.2595,2.375125 L5.409375,2.60725 L6.341625,3.23575 L6.970125,4.167875 L7.20225,5.31775 L6.970125,6.467625 L6.341625,7.399875 L5.409375,8.028375 L4.2595,8.2605 Z M4.2595,9.53575 L5.901375,9.20425 L7.242125,8.300375 L8.146,6.959625 L8.4775,5.31775 L8.146,3.676 L7.242125,2.33525 L5.901375,1.431375 L4.2595,1.099875 L2.61775,1.431375 L1.277,2.33525 L0.373125,3.676 L0.041625,5.31775 L0.373125,6.959625 L1.277,8.300375 L2.61775,9.20425 L4.2595,9.53575 Z" id="path3830" fill-opacity="0.05880001" fill="#D9D9D9"></path>
                            </g>
                        </g>
                    </g>
                </g>
                <g id="g3832" transform="translate(5.000000, 26.250000)">
                    <g id="g3834-Clipped">
                        <mask id="mask-78" fill="white">
                            <use xlink:href="#path-77"></use>
                        </mask>
                        <g id="path3838"></g>
                        <g id="g3834" mask="url(#mask-78)" fill-rule="nonzero">
                            <g transform="translate(542.500000, 225.000000)">
                                <path d="M0.57425,4.675625 C0.57425,7.005125 2.462625,8.8935 4.792125,8.8935 C7.121625,8.8935 9.01,7.005125 9.01,4.675625 C9.01,2.346125 7.121625,0.457625 4.792125,0.457625 C2.462625,0.457625 0.57425,2.346125 0.57425,4.675625 Z" id="path3840" fill-opacity="0.50199998" fill="#FFFFFF"></path>
                                <path d="M4.792125,7.61825 L3.64225,7.386125 L2.710125,6.757625 L2.081625,5.8255 L1.8495,4.675625 L2.081625,3.52575 L2.710125,2.5935 L3.64225,1.965 L4.792125,1.732875 L5.942,1.965 L6.87425,2.5935 L7.502625,3.52575 L7.734875,4.675625 L7.502625,5.8255 L6.87425,6.757625 L5.942,7.386125 L4.792125,7.61825 Z M4.792125,8.8935 L6.434,8.562 L7.774625,7.658125 L8.678625,6.317375 L9.01,4.675625 L8.678625,3.03375 L7.774625,1.693 L6.434,0.789125 L4.792125,0.457625 L3.150375,0.789125 L1.809625,1.693 L0.90575,3.03375 L0.57425,4.675625 L0.90575,6.317375 L1.809625,7.658125 L3.150375,8.562 L4.792125,8.8935 Z" id="path3842" fill-opacity="0.05880001" fill="#D9D9D9"></path>
                            </g>
                        </g>
                    </g>
                </g>
                <g id="g3844" transform="translate(5.000000, 26.250000)">
                    <g id="g3846-Clipped">
                        <mask id="mask-80" fill="white">
                            <use xlink:href="#path-79"></use>
                        </mask>
                        <g id="path3850"></g>
                        <g id="g3846" mask="url(#mask-80)" fill-rule="nonzero">
                            <g transform="translate(90.000000, 33.750000)">
                                <path d="M1.149625,5.20275 C1.149625,7.53225 3.038,9.420625 5.3675,9.420625 C7.697,9.420625 9.585375,7.53225 9.585375,5.20275 C9.585375,2.87325 7.697,0.984875 5.3675,0.984875 C3.038,0.984875 1.149625,2.87325 1.149625,5.20275 Z" id="path3852" fill-opacity="0.50199998" fill="#FFFFFF"></path>
                                <path d="M5.3675,8.1455 L4.217625,7.91325 L3.2855,7.28475 L2.657,6.352625 L2.424875,5.20275 L2.657,4.052875 L3.2855,3.12075 L4.217625,2.49225 L5.3675,2.26 L6.517375,2.49225 L7.449625,3.12075 L8.078,4.052875 L8.31025,5.20275 L8.078,6.352625 L7.449625,7.28475 L6.517375,7.91325 L5.3675,8.1455 Z M5.3675,9.420625 L7.009375,9.08925 L8.35,8.18525 L9.254,6.8445 L9.585375,5.20275 L9.254,3.561 L8.35,2.22025 L7.009375,1.31625 L5.3675,0.984875 L3.72575,1.31625 L2.385,2.22025 L1.481,3.561 L1.149625,5.20275 L1.481,6.8445 L2.385,8.18525 L3.72575,9.08925 L5.3675,9.420625 Z" id="path3854" fill-opacity="0.05880001" fill="#D9D9D9"></path>
                            </g>
                        </g>
                    </g>
                </g>
            </g>
        </g>
    </g>
</svg>
