<?xml version="1.0" encoding="UTF-8"?>
<svg width="521px" height="305px" viewBox="0 0 521 305" version="1.1" xmlns="http://www.w3.org/2000/svg" xmlns:xlink="http://www.w3.org/1999/xlink" style="background: #59CBE8;">
    <!-- Generator: Sketch 48.2 (47327) - http://www.bohemiancoding.com/sketch -->
    <title>Lønnstige 2018</title>
    <desc>Created with Sketch.</desc>
    <defs></defs>
    <g id="Page-1" stroke="none" stroke-width="1" fill="none" fill-rule="evenodd">
        <g id="Artboard">
            <polyline id="Stroke-7" stroke-opacity="0.6314" stroke="#FFFFFF" stroke-width="4" stroke-linecap="round" stroke-linejoin="round" points="40 247 58.7665476 238.865775 77.4328531 229.186597 96.0991585 219.507418 114.765464 209.82824 133.431769 200.149062 152.098075 190.469883 170.76438 180.790705 189.430686 171.111527 208.096991 161.432348 226.763297 153.421994 245.429602 145.411639 264.095908 137.401285 282.762213 129.39093 301.428518 122.715635 320.094824 116.374104 338.761129 110.032574 357.427435 103.357278 376.427067 97.0157475 395.093373 90.6742169 413.759678 85.6677453 432.425983 80.9950386 451 76"></polyline>
            <path d="M30,261.997967 L460,261.997967 M30,229.644362 L460,229.644362 M30,197.58182 L460,197.58182 M30,165.185293 L460,165.185293 M30,132.788767 L460,132.788767 M30,100.726225 L460,100.726225 M30,68.3296981 L460,68.3296981 M30,36 L460,36" id="Stroke-5" stroke-opacity="0.102" stroke="#FFFFFF" stroke-linejoin="round"></path>
            <path d="M41.4642789,246.159381 C41.585186,246.201298 41.6899922,246.289225 41.7501957,246.41318 C41.8706028,246.661191 41.7666967,246.959701 41.5181821,247.079864 L39.7181764,247.949947 C39.4695618,248.07011 39.1705442,247.966515 39.0501372,247.718404 C38.9297301,247.470394 39.0336362,247.171983 39.2821508,247.05182 L41.0822565,246.181637 C41.2064638,246.121555 41.3433718,246.117464 41.4642789,246.159381 Z M45.0643903,244.419015 C45.1852973,244.460932 45.2902035,244.548859 45.350307,244.672914 C45.4707141,244.920925 45.366808,245.219436 45.1182934,245.339499 L43.3182877,246.209682 C43.0696731,246.329844 42.7706556,246.226149 42.6502485,245.978138 C42.5298415,245.730128 42.6337476,245.431617 42.8822621,245.311454 L44.6823678,244.441371 C44.8066751,244.38129 44.9434832,244.377098 45.0643903,244.419015 Z M48.6645016,242.678749 C48.7854087,242.720667 48.8903149,242.808593 48.9505184,242.932549 C49.0708255,243.180659 48.9670194,243.47907 48.7184048,243.599233 L46.9183991,244.469416 C46.6698845,244.589579 46.3707669,244.485883 46.2503599,244.237873 C46.1299528,243.989762 46.2338589,243.691351 46.4823735,243.571188 L48.2824792,242.701005 C48.4067865,242.640924 48.5436945,242.636832 48.6645016,242.678749 Z M52.2646129,240.938384 C52.38552,240.980301 52.4904262,241.068228 52.5506297,241.192283 C52.6709368,241.440293 52.5671307,241.738804 52.3185161,241.858867 L50.5185104,242.72905 C50.2699959,242.849213 49.9708783,242.745518 49.8504712,242.497507 C49.7301642,242.249496 49.8339703,241.950986 50.0825848,241.830922 L51.8825905,240.96074 C52.0068978,240.900658 52.1438059,240.896566 52.2646129,240.938384 Z M55.8648243,239.198118 C55.9856314,239.240035 56.0905376,239.327962 56.1507411,239.452017 C56.2711482,239.700027 56.1672421,239.998439 55.9187275,240.118601 L54.1186218,240.988784 C53.8701072,241.108947 53.5709896,241.005252 53.4505826,240.757241 C53.3302755,240.509131 53.4340816,240.21072 53.6826962,240.090557 L55.4827019,239.220374 C55.6070092,239.160293 55.7439172,239.156201 55.8648243,239.198118 Z M59.4384341,237.426215 C59.5604413,237.464838 59.6675475,237.54997 59.7310513,237.672329 C59.8580587,237.917046 59.7622531,238.218152 59.5170387,238.344902 L58.4846781,238.878249 L57.7187331,239.248419 C57.4702185,239.368582 57.171101,239.264886 57.0507939,239.016876 C56.9303869,238.768865 57.034293,238.470354 57.2828075,238.350291 L58.0487525,237.980022 L59.0571117,237.458651 C59.1797189,237.395276 59.3164269,237.387491 59.4384341,237.426215 Z M62.9906426,235.590437 C63.1125498,235.629061 63.2197561,235.714093 63.2832598,235.836552 C63.4102673,236.081269 63.3143616,236.382374 63.0691472,236.509124 L61.293043,237.427013 C61.0478286,237.553763 60.7461109,237.458052 60.6191034,237.213335 C60.4920959,236.968618 60.5880016,236.667512 60.833216,236.540762 L62.6093202,235.622873 C62.7319274,235.559498 62.8686355,235.551714 62.9906426,235.590437 Z M66.5428512,233.75456 C66.6647583,233.793284 66.7719646,233.878316 66.8354683,234.000674 C66.9624758,234.245491 66.8665702,234.546597 66.6213558,234.673347 L64.8452515,235.591236 C64.6000371,235.717986 64.2983194,235.622274 64.1713119,235.377557 C64.0443045,235.13284 64.1402101,234.831734 64.3854245,234.704985 L66.1615288,233.787096 C66.284136,233.723721 66.420844,233.715936 66.5428512,233.75456 Z M70.0949597,231.918783 C70.2169669,231.957506 70.3241732,232.042539 70.3876769,232.164897 C70.5145843,232.409614 70.4187787,232.71082 70.1735643,232.83747 L68.39746,233.755458 C68.1522456,233.882108 67.8505279,233.786497 67.7235205,233.54178 C67.596513,233.297063 67.6923186,232.995957 67.937633,232.869207 L69.7136373,231.951319 C69.8362445,231.887944 69.9730525,231.880159 70.0949597,231.918783 Z M73.6471682,230.083005 C73.7691754,230.121629 73.8763817,230.206761 73.9397854,230.32912 C74.0667929,230.573837 73.9709872,230.874943 73.7257728,231.001693 L71.9496686,231.919581 C71.7044542,232.046331 71.4026365,231.95072 71.275729,231.706003 C71.1487216,231.461286 71.2445272,231.16008 71.4897416,231.03333 L73.2658458,230.115441 C73.388453,230.052066 73.5252611,230.044382 73.6471682,230.083005 Z M76.862857,228.27158 C77.118272,228.166787 77.4103892,228.288646 77.5152953,228.543543 C77.6202015,228.79844 77.4981943,229.090065 77.2427793,229.194758 L77.1628746,229.225398 L75.5018771,230.083804 C75.2565627,230.210554 74.954845,230.114942 74.8278375,229.870225 C74.7009301,229.625408 74.7967357,229.324303 75.0419501,229.197553 L76.7030476,228.339147 L76.862857,228.27158 Z M80.5630742,226.754873 C80.8185892,226.65018 81.1107064,226.771939 81.2156125,227.026836 C81.3205187,227.281833 81.1985115,227.573358 80.9430965,227.678051 L79.0928879,228.436355 C78.8374729,228.541048 78.5453558,228.419289 78.4403496,228.164392 C78.3354435,227.909395 78.4575506,227.61787 78.7129656,227.513177 L80.5630742,226.754873 Z M84.2633915,225.238166 C84.5189065,225.133473 84.8110236,225.255232 84.9159298,225.510229 C85.0208359,225.765126 84.8988288,226.056651 84.6433138,226.161344 L82.7932052,226.919748 C82.5377902,227.024441 82.245573,226.902582 82.1406668,226.647685 C82.0357607,226.392788 82.1577679,226.101163 82.4132829,225.99647 L84.2633915,225.238166 Z M87.9637087,223.721459 C88.2191237,223.616766 88.5113408,223.738525 88.616247,223.993522 C88.7211532,224.248419 88.599046,224.539944 88.343631,224.644737 L86.4935224,225.403041 C86.2380074,225.507734 85.9458902,225.385974 85.8409841,225.130978 C85.7360779,224.876081 85.8580851,224.584556 86.1136001,224.479862 L87.9637087,223.721459 Z M91.6640259,222.204852 C91.9194409,222.100059 92.2115581,222.221918 92.3164642,222.476815 C92.4214704,222.731712 92.2993632,223.023337 92.0439482,223.12803 L90.1938396,223.886334 C89.9383246,223.991027 89.6462075,223.869267 89.5413013,223.61437 C89.4363952,223.359374 89.5584023,223.067849 89.8138173,222.963156 L91.6640259,222.204852 Z M95.3643432,220.688145 C95.6197582,220.583452 95.9118753,220.705211 96.0167815,220.960108 C96.1216876,221.215105 95.9996805,221.50663 95.7442655,221.611323 L93.8940568,222.369627 C93.6386418,222.47432 93.3465247,222.35256 93.2416185,222.097663 C93.1367124,221.842667 93.2587195,221.551142 93.5141345,221.446449 L95.3643432,220.688145 Z M99.3863793,219.057662 C99.5058863,219.103272 99.6078923,219.194393 99.6641956,219.320244 C99.7768022,219.571948 99.6635955,219.866965 99.4114807,219.979344 L97.5850735,220.793038 C97.3328587,220.905416 97.0372414,220.792439 96.9246348,220.540836 C96.8120281,220.289132 96.9252348,219.994015 97.1773496,219.881736 L99.0037568,219.068042 C99.1298642,219.011853 99.2667723,219.011953 99.3863793,219.057662 Z M103.039094,217.430174 C103.158601,217.475884 103.260707,217.567004 103.31701,217.692856 C103.429517,217.944459 103.31641,218.239577 103.064195,218.351955 L101.237788,219.165649 C100.985673,219.278028 100.689956,219.165051 100.577349,218.913447 C100.464843,218.661744 100.577949,218.366626 100.830164,218.254348 L102.656571,217.440653 C102.782579,217.384464 102.919587,217.384564 103.039094,217.430174 Z M106.691908,215.802786 C106.811415,215.848495 106.913421,215.939616 106.969724,216.065467 C107.082331,216.317071 106.969124,216.612188 106.71701,216.724567 L104.890602,217.538261 C104.638388,217.650639 104.34277,217.537662 104.230164,217.286059 C104.117557,217.034355 104.230764,216.739238 104.482878,216.626959 L106.309286,215.813265 C106.435393,215.757076 106.572401,215.757176 106.691908,215.802786 Z M110.344623,214.175397 C110.46413,214.221107 110.566236,214.312227 110.622539,214.438079 C110.735046,214.689682 110.621939,214.9848 110.369724,215.097178 L108.543317,215.910872 C108.291202,216.02325 107.995485,215.910273 107.882878,215.65867 C107.770371,215.406967 107.883478,215.111849 108.135693,214.999571 L109.9621,214.185876 C110.088108,214.129687 110.225116,214.129787 110.344623,214.175397 Z M113.997437,212.548008 C114.116944,212.593718 114.21895,212.684838 114.275253,212.81069 C114.38786,213.062294 114.274653,213.357411 114.022539,213.469789 L112.196131,214.283484 C111.943916,214.395862 111.648299,214.282885 111.535693,214.031281 C111.423086,213.779578 111.536293,213.48446 111.788407,213.372182 L113.614815,212.558488 C113.740922,212.502299 113.87793,212.502398 113.997437,212.548008 Z M117.415438,210.553045 C117.539245,210.584982 117.650952,210.664126 117.721056,210.782892 C117.861264,211.020323 117.782059,211.326219 117.544145,211.466143 L115.820944,212.479544 C115.58303,212.619467 115.276512,212.540324 115.136304,212.302892 C114.996096,212.065461 115.0753,211.759564 115.313214,211.61964 L117.036415,210.60624 C117.155422,210.536278 117.29153,210.521108 117.415438,210.553045 Z M120.86174,208.526245 C120.985647,208.558282 121.097354,208.637326 121.167458,208.756091 C121.307666,208.993523 121.228462,209.299419 120.990548,209.439343 L119.267346,210.452743 C119.029432,210.592667 118.722914,210.513623 118.582706,210.276192 C118.442498,210.03876 118.521703,209.732864 118.759617,209.59294 L120.482818,208.57954 C120.601725,208.509578 120.737833,208.494308 120.86174,208.526245 Z M124.308142,206.499544 C124.43195,206.531481 124.543656,206.610625 124.61376,206.729291 C124.753969,206.966722 124.674764,207.272619 124.43685,207.412543 L122.713649,208.425943 C122.475735,208.565867 122.169217,208.486823 122.029009,208.249391 C121.8888,208.01196 121.968005,207.706063 122.205919,207.566139 L123.92912,206.552739 C124.048127,206.482777 124.184235,206.467607 124.308142,206.499544 Z M127.754445,204.472744 C127.878352,204.504681 127.990058,204.583825 128.060163,204.70259 C128.200371,204.940022 128.121166,205.245918 127.883252,205.385842 L126.160051,206.399242 C125.922137,206.539166 125.615619,206.460022 125.475411,206.222591 C125.335203,205.985159 125.414407,205.679263 125.652321,205.539339 L127.375522,204.525939 C127.494429,204.455977 127.630537,204.440807 127.754445,204.472744 Z M131.200847,202.445944 C131.324754,202.47798 131.436361,202.557024 131.506465,202.67579 C131.646673,202.913221 131.567468,203.219118 131.329555,203.359042 L129.606353,204.372442 C129.368439,204.512366 129.061921,204.433322 128.921713,204.19589 C128.781505,203.958459 128.86071,203.652463 129.098624,203.512639 L130.821825,202.499238 C130.940832,202.429276 131.07694,202.414007 131.200847,202.445944 Z M134.759456,200.566452 C134.880163,200.608569 134.984869,200.696695 135.044873,200.82085 C135.16478,201.069061 135.060374,201.367372 134.811659,201.487036 L133.185763,202.267496 L133.052756,202.345641 C132.814842,202.485565 132.508324,202.406521 132.368115,202.16909 C132.227907,201.931658 132.307112,201.625762 132.545026,201.485838 L132.678034,201.407593 L134.377333,200.58801 C134.501741,200.528228 134.638649,200.524336 134.759456,200.566452 Z M138.362667,198.832674 C138.483475,198.874791 138.588181,198.962917 138.648184,199.087072 C138.768091,199.335282 138.663685,199.633593 138.41487,199.753257 L136.613265,200.620147 C136.36455,200.73981 136.065633,200.635616 135.945726,200.387406 C135.825718,200.139096 135.930225,199.840884 136.178939,199.721121 L137.980545,198.854231 C138.104952,198.794449 138.24186,198.790557 138.362667,198.832674 Z M141.965979,197.098895 C142.086786,197.141012 142.191492,197.229138 142.251396,197.353293 C142.371403,197.601503 142.266997,197.899815 142.018182,198.019479 L140.216576,198.886368 C139.967762,199.006032 139.668944,198.901837 139.548937,198.653627 C139.42903,198.405317 139.533436,198.107106 139.782251,197.987342 L141.583857,197.120453 C141.708264,197.060671 141.845172,197.056778 141.965979,197.098895 Z M145.56929,195.365117 C145.690098,195.407234 145.794804,195.49536 145.854707,195.619515 C145.974614,195.867725 145.870208,196.166036 145.621494,196.2857 L143.819788,197.152589 C143.571073,197.272253 143.272156,197.168059 143.152249,196.919849 C143.032342,196.671539 143.136748,196.373327 143.385562,196.253563 L145.187168,195.386674 C145.311575,195.326892 145.448483,195.323 145.56929,195.365117 Z M149.172502,193.631338 C149.293309,193.673455 149.398015,193.761581 149.458019,193.885736 C149.577926,194.133946 149.47352,194.432257 149.224805,194.551921 L147.423099,195.418811 C147.174385,195.538475 146.875467,195.43428 146.75556,195.18607 C146.635653,194.93776 146.740059,194.639548 146.988774,194.519785 L148.79048,193.652895 C148.914787,193.593113 149.051695,193.589221 149.172502,193.631338 Z M152.636305,191.748553 C152.761713,191.774103 152.87732,191.847358 152.953424,191.962332 C153.105633,192.192278 153.042229,192.501867 152.811816,192.653767 L151.815357,193.305481 L151.026411,193.685032 C150.777696,193.804796 150.478779,193.700502 150.358872,193.452291 C150.238965,193.203981 150.343371,192.90577 150.592085,192.786106 L151.381032,192.406455 L152.260583,191.82111 C152.37579,191.74516 152.510898,191.723004 152.636305,191.748553 Z M155.973801,189.547796 C156.099209,189.573346 156.214815,189.646701 156.29092,189.761674 C156.443129,189.991621 156.379825,190.30121 156.149412,190.45311 L154.480614,191.553438 C154.2502,191.705339 153.939982,191.642163 153.787773,191.412217 C153.635564,191.182271 153.698968,190.872682 153.929281,190.720782 L155.598079,189.620453 C155.713286,189.544403 155.848494,189.522247 155.973801,189.547796 Z M159.311397,187.347139 C159.436805,187.372689 159.552411,187.446044 159.628516,187.561017 C159.780725,187.790963 159.717321,188.100452 159.486908,188.252453 L157.81821,189.352781 C157.587796,189.504681 157.277578,189.441406 157.125369,189.21146 C156.97306,188.981514 157.036464,188.672025 157.266877,188.520025 L158.935675,187.419696 C159.050882,187.343746 159.18599,187.321589 159.311397,187.347139 Z M162.648893,185.146482 C162.774301,185.172031 162.889907,185.245287 162.966012,185.36026 C163.118221,185.590206 163.054917,185.899795 162.824503,186.051695 L161.155706,187.152024 C160.925292,187.304024 160.615074,187.240749 160.462865,187.010803 C160.310656,186.780857 160.37406,186.471267 160.604373,186.319367 L162.273171,185.219039 C162.388378,185.143088 162.523586,185.120932 162.648893,185.146482 Z M165.986489,182.945725 C166.111796,182.971374 166.227403,183.044629 166.303608,183.159603 C166.455817,183.389549 166.392413,183.699138 166.161999,183.851038 L164.493201,184.951367 C164.262888,185.103267 163.95267,185.040092 163.800461,184.810145 C163.648152,184.580199 163.711556,184.27061 163.941969,184.11871 L165.610767,183.018381 C165.725974,182.942431 165.861082,182.920175 165.986489,182.945725 Z M169.323985,180.745067 C169.449392,180.770617 169.564999,180.843972 169.641104,180.958945 C169.793313,181.188892 169.729909,181.498381 169.499495,181.650381 L167.830797,182.750709 C167.600384,182.90261 167.290166,182.839335 167.137957,182.609388 C166.985748,182.379442 167.049051,182.069953 167.279465,181.917953 L168.948263,180.817624 C169.06347,180.741674 169.198578,180.719518 169.323985,180.745067 Z M172.933297,178.922264 C173.053504,178.966178 173.15691,179.055801 173.215013,179.180754 C173.33132,179.430761 173.222514,179.727475 172.972099,179.843546 L171.157993,180.684088 C170.907478,180.800159 170.610161,180.691573 170.493854,180.441566 C170.377547,180.191659 170.486353,179.894945 170.736768,179.778874 L172.550974,178.938233 C172.676182,178.880247 172.81309,178.878351 172.933297,178.922264 Z M176.56151,177.241082 C176.681717,177.284995 176.785123,177.374619 176.843326,177.499572 C176.959533,177.749579 176.850827,178.046293 176.600312,178.162364 L174.786206,179.002905 C174.535691,179.118976 174.238374,179.010391 174.122067,178.760484 C174.00576,178.510477 174.114566,178.213763 174.365081,178.097692 L176.179187,177.25715 C176.304395,177.199065 176.441403,177.197268 176.56151,177.241082 Z M180.189823,175.559999 C180.30993,175.603913 180.413336,175.693536 180.471539,175.818489 C180.587846,176.068496 180.47904,176.36521 180.228525,176.481281 L178.414419,177.321823 C178.164004,177.437894 177.866687,177.329308 177.75038,177.079301 C177.634073,176.829394 177.742779,176.53268 177.993294,176.416609 L179.8074,175.575968 C179.932708,175.517982 180.069616,175.516086 180.189823,175.559999 Z M183.818036,173.878917 C183.938243,173.92273 184.041649,174.012353 184.099752,174.137407 C184.216059,174.387314 184.107253,174.684028 183.856838,174.800099 L182.042732,175.64064 C181.792217,175.756711 181.4949,175.648126 181.378593,175.398219 C181.262286,175.148212 181.371092,174.851498 181.621607,174.735427 L183.435713,173.894885 C183.560921,173.8369 183.697829,173.835003 183.818036,173.878917 Z M187.446349,172.197734 C187.566456,172.241648 187.669862,172.331271 187.728065,172.456224 C187.844372,172.706231 187.735566,173.002945 187.485051,173.119016 L185.670945,173.959558 C185.42043,174.075629 185.123113,173.967043 185.006806,173.717036 C184.890499,173.467129 184.999305,173.170415 185.24982,173.054344 L187.063926,172.213803 C187.189134,172.155717 187.326142,172.153921 187.446349,172.197734 Z M190.886851,170.262753 C191.011558,170.291496 191.125265,170.367646 191.198469,170.484515 C191.344878,170.718254 191.273674,171.026047 191.03946,171.172158 L189.34336,172.230071 C189.109247,172.376082 188.800728,172.305122 188.65432,172.071384 C188.508011,171.837645 188.579215,171.529753 188.813329,171.383741 L190.509429,170.325828 C190.626536,170.252773 190.762144,170.23401 190.886851,170.262753 Z M194.27905,168.146928 C194.403757,168.175671 194.517464,168.251821 194.590668,168.368691 C194.737077,168.602429 194.665873,168.910222 194.431659,169.056334 L192.735559,170.114246 C192.501346,170.260258 192.192828,170.189298 192.046519,169.955559 C191.90021,169.72182 191.971315,169.413928 192.205528,169.267916 L193.901628,168.210004 C194.018735,168.136948 194.154343,168.118185 194.27905,168.146928 Z M197.671249,166.031103 C197.795957,166.059847 197.909663,166.135996 197.982867,166.252866 C198.129176,166.486605 198.058072,166.794397 197.823858,166.940509 L196.127759,167.998421 C195.893545,168.144433 195.585027,168.073473 195.438718,167.839734 C195.29231,167.605996 195.363514,167.298103 195.597727,167.152091 L197.293827,166.094179 C197.410934,166.021123 197.546542,166.00236 197.671249,166.031103 Z M201.063448,163.915279 C201.188156,163.944022 201.301862,164.020172 201.375067,164.137041 C201.521375,164.37078 201.450171,164.678672 201.216057,164.824684 L199.519958,165.882597 C199.285744,166.028608 198.977226,165.957648 198.830917,165.72391 C198.684509,165.490171 198.755713,165.182278 198.989927,165.036267 L200.686026,163.978354 C200.803133,163.905298 200.938741,163.886535 201.063448,163.915279 Z M204.455647,161.799454 C204.580355,161.828197 204.694061,161.904347 204.767266,162.021216 C204.913574,162.254955 204.84237,162.562848 204.608256,162.708859 L202.912157,163.766772 C202.677943,163.912883 202.369425,163.841824 202.223116,163.608085 C202.076708,163.374346 202.147912,163.066554 202.382126,162.920442 L204.078225,161.86253 C204.195332,161.789474 204.33094,161.770711 204.455647,161.799454 Z M207.932752,159.72874 C208.051559,159.776147 208.152264,159.868864 208.206668,159.995514 C208.315374,160.248814 208.197867,160.542135 207.943952,160.650721 L207.829346,160.699724 L206.304356,161.650947 C206.070142,161.797059 205.761624,161.725999 205.615316,161.49226 C205.468907,161.258522 205.540111,160.950729 205.774325,160.804617 L207.332016,159.833035 C207.353718,159.819461 207.376519,159.807585 207.40002,159.797505 L207.550029,159.733431 C207.676937,159.679138 207.813945,159.681334 207.932752,159.72874 Z M211.609467,158.156144 C211.728374,158.20355 211.82898,158.296267 211.883384,158.422917 C211.99219,158.676217 211.874583,158.969638 211.620768,159.078124 L209.78236,159.864472 C209.528545,159.972958 209.234628,159.85569 209.125822,159.60239 C209.017015,159.34899 209.134622,159.055669 209.388437,158.947083 L211.226845,158.160834 C211.353752,158.106542 211.49076,158.108737 211.609467,158.156144 Z M215.286283,156.583547 C215.40509,156.631053 215.505796,156.72367 215.560199,156.850321 C215.669006,157.103621 215.551399,157.397042 215.297584,157.505627 L213.459176,158.291876 C213.205361,158.400462 212.911444,158.283093 212.802637,158.029793 C212.693831,157.776493 212.811438,157.483072 213.065253,157.374486 L214.903661,156.588238 C215.030568,156.533945 215.167476,156.536141 215.286283,156.583547 Z M218.963099,155.01105 C219.081906,155.058457 219.182612,155.151074 219.237015,155.277724 C219.345822,155.531124 219.228215,155.824445 218.9744,155.933031 L217.135992,156.719279 C216.882177,156.827865 216.58816,156.710496 216.479453,156.457196 C216.370647,156.203896 216.488254,155.910575 216.742069,155.801989 L218.580377,155.015641 C218.707384,154.961348 218.844292,154.963544 218.963099,155.01105 Z M222.639915,153.438453 C222.758722,153.48586 222.859428,153.578577 222.913831,153.705227 C223.022537,153.958527 222.905031,154.251848 222.651216,154.360434 L220.812808,155.146682 C220.558893,155.255268 220.264976,155.1379 220.156169,154.8846 C220.047463,154.631299 220.16497,154.337978 220.418785,154.229393 L222.257193,153.443044 C222.3841,153.388851 222.521108,153.391047 222.639915,153.438453 Z M226.316731,151.865857 C226.435538,151.913263 226.536244,152.00598 226.590547,152.13263 C226.699353,152.38593 226.581746,152.679252 226.327931,152.787837 L224.489624,153.574186 C224.235709,153.682671 223.941791,153.565403 223.832985,153.312003 C223.724179,153.058703 223.841786,152.765382 224.0956,152.656796 L225.934008,151.870547 C226.060916,151.816255 226.197924,151.81845 226.316731,151.865857 Z M229.698429,150.454043 C229.957045,150.357334 230.245261,150.488076 230.342267,150.746066 C230.439173,151.004157 230.308165,151.29179 230.04965,151.388599 L228.17684,152.089416 C227.918325,152.186224 227.630108,152.055482 227.533102,151.797392 C227.436097,151.539301 227.567104,151.251669 227.825719,151.15496 L229.698429,150.454043 Z M233.444049,149.052309 C233.702564,148.9556 233.990781,149.086342 234.087787,149.344333 C234.184693,149.602423 234.053685,149.890056 233.79517,149.986865 L231.92236,150.687682 C231.663845,150.784491 231.375628,150.653749 231.278622,150.395658 C231.181716,150.137567 231.312724,149.849935 231.571239,149.753226 L233.444049,149.052309 Z M237.189569,147.650575 C237.448084,147.553866 237.736301,147.684608 237.833307,147.942599 C237.930313,148.200689 237.799305,148.488322 237.54069,148.585131 L235.66798,149.285948 C235.409365,149.382757 235.121148,149.252015 235.024142,148.993924 C234.927236,148.735833 235.058244,148.448201 235.316759,148.351492 L237.189569,147.650575 Z M240.935089,146.248841 C241.193704,146.152132 241.481921,146.282874 241.578827,146.540865 C241.675833,146.798956 241.544825,147.086588 241.28621,147.183397 L239.4135,147.884214 C239.154885,147.981023 238.866668,147.850281 238.769662,147.59219 C238.672756,147.334199 238.803764,147.046567 239.062279,146.949758 L240.935089,146.248841 Z M244.680609,144.847207 C244.939224,144.750398 245.227441,144.88114 245.324447,145.139131 C245.421352,145.397222 245.290345,145.684854 245.03173,145.781663 L243.15902,146.48248 C242.900404,146.579289 242.612187,146.448547 242.515182,146.190456 C242.418276,145.932465 242.549284,145.644833 242.807899,145.548024 L244.680609,144.847207 Z M248.498933,142.911726 C248.62184,142.947057 248.731447,143.029095 248.798251,143.149657 C248.932058,143.390781 248.844553,143.694482 248.602939,143.827919 L246.853136,144.794711 C246.611522,144.928147 246.307204,144.840919 246.173497,144.599795 C246.039689,144.358671 246.127094,144.05497 246.368708,143.921534 L248.118611,142.954742 C248.239418,142.888073 248.375926,142.876496 248.498933,142.911726 Z M251.998639,140.978342 C252.121646,141.013572 252.231152,141.09571 252.298056,141.216272 C252.431764,141.457396 252.344359,141.760997 252.102745,141.894534 L250.352842,142.861226 C250.111228,142.994663 249.80701,142.907435 249.673202,142.666311 C249.539494,142.425187 249.626899,142.121586 249.868513,141.988049 L251.618416,141.021357 C251.739223,140.954589 251.875631,140.943012 251.998639,140.978342 Z M255.498444,139.044857 C255.621451,139.080188 255.730958,139.162226 255.797862,139.282788 C255.931569,139.523912 255.844164,139.827613 255.60255,139.961049 L253.852647,140.927742 C253.611033,141.061278 253.306715,140.97405 253.173007,140.732926 C253.0393,140.491802 253.126705,140.188101 253.368319,140.054665 L255.118222,139.087872 C255.239029,139.021204 255.375437,139.009627 255.498444,139.044857 Z M258.998249,137.111373 C259.121157,137.146703 259.230763,137.228741 259.297567,137.349303 C259.431375,137.590427 259.34387,137.894128 259.102256,138.027565 L257.352453,138.994357 C257.110839,139.127794 256.806521,139.040566 256.672813,138.799442 C256.539005,138.558317 256.62641,138.254617 256.868024,138.12118 L258.617927,137.154488 C258.738734,137.087719 258.875242,137.076142 258.998249,137.111373 Z M262.498055,135.177988 C262.620962,135.213218 262.730469,135.295356 262.797372,135.415918 C262.93118,135.657043 262.843675,135.960743 262.602061,136.09418 L260.852158,137.060872 C260.610544,137.194409 260.306326,137.107081 260.172518,136.865957 C260.038811,136.624833 260.126216,136.321232 260.36783,136.187695 L262.117733,135.221003 C262.23854,135.154235 262.375048,135.142658 262.498055,135.177988 Z M266.137369,133.456086 C266.256876,133.501696 266.358982,133.592816 266.415285,133.718668 C266.527791,133.970371 266.414685,134.265389 266.16247,134.377767 L264.336063,135.191461 C264.083948,135.30384 263.788231,135.190863 263.675624,134.939259 C263.563117,134.687556 263.676224,134.392438 263.928439,134.28016 L265.754846,133.466465 C265.880853,133.410276 266.017862,133.410376 266.137369,133.456086 Z M269.790183,131.828697 C269.90969,131.874307 270.011696,131.965428 270.067999,132.091279 C270.180606,132.342983 270.067399,132.638 269.815284,132.750379 L267.988877,133.564073 C267.736662,133.676451 267.441045,133.563474 267.328438,133.311871 C267.215832,133.060167 267.329039,132.76505 267.581253,132.652771 L269.407561,131.839077 C269.533668,131.782888 269.670676,131.782988 269.790183,131.828697 Z M273.442897,130.201309 C273.562404,130.246919 273.66451,130.338039 273.720814,130.463891 C273.83332,130.715594 273.720214,131.010612 273.467999,131.12299 L271.641692,131.936684 C271.389477,132.049063 271.09376,131.936085 270.981253,131.684482 C270.868646,131.432779 270.981753,131.137661 271.233968,131.025383 L273.060375,130.211688 C273.186482,130.155499 273.32339,130.155599 273.442897,130.201309 Z M277.095712,128.57392 C277.215219,128.61953 277.317325,128.71065 277.373528,128.836502 C277.486135,129.088205 277.373028,129.383223 277.120813,129.495601 L275.294406,130.309296 C275.042291,130.421674 274.746574,130.308697 274.633967,130.057093 C274.521461,129.80539 274.634567,129.510273 274.886782,129.397994 L276.713189,128.5843 C276.839197,128.528111 276.976205,128.52821 277.095712,128.57392 Z M280.748426,126.946432 C280.867933,126.992142 280.970039,127.083262 281.026343,127.209114 C281.138849,127.460817 281.025743,127.755835 280.773528,127.868213 L278.947121,128.681907 C278.695006,128.794285 278.399288,128.681308 278.286782,128.429605 C278.174175,128.178002 278.287282,127.882884 278.539497,127.770606 L280.365904,126.956811 C280.492011,126.900722 280.628919,126.900822 280.748426,126.946432 Z M284.256532,125.721649 C284.526548,125.663963 284.792364,125.835524 284.850267,126.104992 C284.90807,126.37456 284.73616,126.639837 284.466045,126.697523 L282.51033,127.115798 C282.240314,127.173484 281.974498,127.001922 281.916695,126.732354 C281.858791,126.462886 282.030802,126.19761 282.300817,126.139923 L284.256532,125.721649 Z M288.167962,124.885199 C288.437978,124.827414 288.703793,124.999075 288.761697,125.268543 C288.8195,125.538011 288.64759,125.803288 288.377574,125.861074 L286.421759,126.279348 C286.151744,126.337034 285.885928,126.165373 285.828125,125.895905 C285.770221,125.626437 285.942231,125.36116 286.212247,125.303374 L288.167962,124.885199 Z M292.079391,124.04875 C292.349507,123.990964 292.615323,124.162625 292.673126,124.432094 C292.73103,124.701562 292.55902,124.966838 292.289004,125.024624 L290.333289,125.442799 C290.063173,125.500585 289.797458,125.328924 289.739554,125.059456 C289.681651,124.789987 289.853661,124.524711 290.123677,124.466925 L292.079391,124.04875 Z M295.990821,123.212301 C296.260937,123.154515 296.526753,123.326176 296.584556,123.595644 C296.642459,123.865112 296.470449,124.130389 296.200433,124.188175 L294.244719,124.60635 C293.974603,124.664136 293.708887,124.492474 293.650984,124.223006 C293.59308,123.953538 293.76509,123.688261 294.035106,123.630476 L295.990821,123.212301 Z M299.902251,122.375752 C300.172367,122.318065 300.438182,122.489727 300.495986,122.759195 C300.553889,123.028663 300.381879,123.29394 300.111863,123.351726 L298.156148,123.7699 C297.886032,123.827686 297.620317,123.656025 297.562413,123.386557 C297.50451,123.117089 297.67652,122.851812 297.946536,122.794026 L299.902251,122.375752 Z M303.64007,121.17033 C303.900085,121.077613 304.186202,121.212946 304.279108,121.472434 C304.372013,121.732022 304.236505,122.017558 303.97639,122.110275 L302.092779,122.781551 C301.832764,122.874268 301.546647,122.739035 301.453742,122.479447 C301.360836,122.219959 301.496344,121.934422 301.75646,121.841705 L303.64007,121.17033 Z M307.407291,119.82768 C307.667307,119.734963 307.953423,119.870196 308.046329,120.129784 C308.139234,120.389272 308.003726,120.674808 307.743611,120.767525 L305.860001,121.4389 C305.599885,121.531617 305.313768,121.396284 305.220963,121.136796 C305.128058,120.877209 305.263565,120.591672 305.523681,120.498955 L307.407291,119.82768 Z M311.174412,118.48493 C311.434528,118.392312 311.720645,118.527545 311.81355,118.787033 C311.906355,119.046621 311.770848,119.332158 311.510832,119.424875 L309.627222,120.09615 C309.367106,120.188867 309.08099,120.053634 308.988084,119.794046 C308.895279,119.534558 309.030787,119.249022 309.290802,119.156305 L311.174412,118.48493 Z M314.941634,117.142279 C315.201749,117.049562 315.487866,117.184795 315.580671,117.444383 C315.673577,117.703871 315.538069,117.989507 315.277953,118.082124 L313.394343,118.7535 C313.134328,118.846217 312.848211,118.710983 312.755305,118.451396 C312.6624,118.191808 312.797908,117.906271 313.058023,117.813654 L314.941634,117.142279 Z M318.708855,115.799529 C318.96887,115.706912 319.254987,115.842145 319.347892,116.101633 C319.440798,116.36122 319.30529,116.646757 319.045175,116.739474 L317.161564,117.410849 C316.901549,117.503466 316.615432,117.368233 316.522526,117.108745 C316.429621,116.849158 316.565129,116.563621 316.825244,116.470904 L318.708855,115.799529 Z M332.840284,115.750625 L334.840002,115.786255 C335.116118,115.791145 335.335931,116.018597 335.331031,116.294153 C335.32613,116.569709 335.098317,116.789076 334.822201,116.784186 L332.822383,116.748456 C332.546267,116.743566 332.326454,116.516215 332.331355,116.240658 C332.336355,115.965102 332.564168,115.745735 332.840284,115.750625 Z M328.84065,115.679366 L330.840467,115.714996 C331.116583,115.719886 331.336396,115.947237 331.331496,116.222794 C331.326496,116.49835 331.098682,116.717817 330.822566,116.712827 L328.822749,116.677197 C328.546632,116.672307 328.326819,116.444955 328.33172,116.169399 C328.33672,115.893843 328.564533,115.674476 328.84065,115.679366 Z M324.841015,115.608107 L326.840832,115.643736 C327.116948,115.648627 327.336761,115.875978 327.331861,116.151534 C327.326961,116.42709 327.099047,116.646557 326.823031,116.641567 L324.823214,116.605938 C324.547098,116.601047 324.327285,116.373696 324.332185,116.09814 C324.337085,115.822583 324.564899,115.603116 324.841015,115.608107 Z M338.907941,115.600222 C339.030448,115.637149 339.138854,115.720684 339.204058,115.842245 C339.334466,116.085165 339.24286,116.387568 338.999346,116.517712 L338.497217,116.786182 C338.421912,116.826402 338.337507,116.846762 338.252102,116.845265 L336.822018,116.819815 C336.545902,116.814825 336.325989,116.587474 336.330989,116.311918 C336.33589,116.036362 336.563703,115.816994 336.839819,115.821885 L338.139796,115.845039 L338.527118,115.637948 C338.648825,115.572876 338.785433,115.563195 338.907941,115.600222 Z M320.84138,115.536847 L322.841197,115.572477 C323.117314,115.577367 323.337227,115.804719 323.332226,116.080275 C323.327326,116.355831 323.099513,116.575198 322.823396,116.570308 L320.823579,116.534678 C320.547463,116.529788 320.32765,116.302337 320.33255,116.02678 C320.33745,115.751224 320.565364,115.531857 320.84138,115.536847 Z M342.434048,113.715042 C342.556555,113.751969 342.664961,113.835604 342.730165,113.957065 C342.860573,114.199985 342.768967,114.502389 342.525453,114.632532 L340.762449,115.575172 C340.519035,115.705315 340.215917,115.613795 340.08551,115.370875 C339.955102,115.127954 340.046807,114.825551 340.290222,114.695408 L342.053225,113.752768 C342.174932,113.687696 342.31154,113.678015 342.434048,113.715042 Z M345.960155,111.829862 C346.082662,111.86679 346.191068,111.950425 346.256272,112.071885 C346.38668,112.314806 346.295074,112.617209 346.05156,112.747352 L344.288556,113.689992 C344.045142,113.820135 343.742124,113.728715 343.611617,113.485695 C343.481209,113.242774 343.572914,112.940371 343.816329,112.810228 L345.579332,111.867688 C345.701039,111.802616 345.837647,111.792935 345.960155,111.829862 Z M349.486362,109.944683 C349.608769,109.98161 349.717175,110.065245 349.782379,110.186705 C349.912787,110.429626 349.821181,110.732029 349.577767,110.862172 L347.814663,111.804812 C347.571249,111.934955 347.268231,111.843535 347.137824,111.600615 C347.007416,111.357594 347.099021,111.055191 347.342436,110.925048 L349.105539,109.982508 C349.227246,109.917436 349.363854,109.907756 349.486362,109.944683 Z M353.012469,108.059503 C353.134976,108.09643 353.243282,108.180065 353.308486,108.301525 C353.438894,108.544446 353.347288,108.846949 353.103874,108.977092 L351.34077,109.919632 C351.097356,110.049775 350.794338,109.958356 350.663931,109.715435 C350.533523,109.472514 350.625128,109.170011 350.868543,109.039868 L352.631646,108.097328 C352.753353,108.032257 352.889961,108.022576 353.012469,108.059503 Z M356.538576,106.174323 C356.661083,106.21135 356.769489,106.294885 356.834693,106.416345 C356.965101,106.659266 356.873395,106.961769 356.629981,107.091912 L354.866978,108.034452 C354.623563,108.164595 354.320445,108.073176 354.190038,107.830255 C354.05963,107.587335 354.151235,107.284832 354.39475,107.154688 L356.157753,106.212148 C356.27946,106.147077 356.416068,106.137396 356.538576,106.174323 Z M359.85027,103.998117 C359.975777,104.023168 360.091684,104.095924 360.168189,104.210598 C360.321398,104.439946 360.259294,104.749734 360.029581,104.902632 L358.365383,106.009848 C358.135569,106.162646 357.825151,106.100768 357.671942,105.871421 C357.518733,105.642073 357.580837,105.332285 357.81065,105.179386 L359.474848,104.072171 C359.589755,103.995722 359.724763,103.973067 359.85027,103.998117 Z M363.178665,101.783687 C363.304173,101.808738 363.42008,101.881494 363.496584,101.996168 C363.649793,102.225515 363.587689,102.535304 363.357976,102.688202 L361.693778,103.795417 C361.463965,103.948216 361.153547,103.886338 361.000338,103.656991 C360.847129,103.427643 360.909232,103.117854 361.139046,102.964956 L362.803243,101.857741 C362.91815,101.781292 363.053158,101.758637 363.178665,101.783687 Z M366.507061,99.5692572 C366.632568,99.5943077 366.748475,99.6670642 366.82498,99.7817379 C366.978189,100.011085 366.916085,100.320874 366.686371,100.473772 L365.022074,101.580987 C364.79236,101.733886 364.481942,101.671908 364.328733,101.44256 C364.175524,101.213213 364.237628,100.903424 364.467441,100.750526 L366.131639,99.643311 C366.246546,99.5668619 366.381553,99.5442066 366.507061,99.5692572 Z M369.835456,97.3548271 C369.960964,97.3798776 370.07687,97.4526341 370.153475,97.5673078 C370.306584,97.7966552 370.24448,98.1064438 370.014767,98.2593421 L368.350569,99.3665572 C368.120756,99.5193557 367.810337,99.4574778 367.657128,99.2281303 C367.503919,98.9987829 367.566023,98.6889943 367.795837,98.536096 L369.460034,97.4288809 C369.574941,97.3524318 369.709949,97.3297765 369.835456,97.3548271 Z M373.163852,95.140397 C373.289259,95.1654475 373.405166,95.2382039 373.48187,95.3528776 C373.635079,95.5822251 373.572976,95.8920137 373.343162,96.044912 L371.678964,97.1521271 C371.449151,97.3049255 371.138733,97.2430476 370.985524,97.0137002 C370.832315,96.7843528 370.894418,96.4745641 371.124232,96.3216659 L372.78843,95.2144508 C372.903336,95.1380017 373.038344,95.1153464 373.163852,95.140397 Z M376.412142,93.1528192 C376.685458,93.113896 376.938773,93.303422 376.977776,93.5762835 C377.016878,93.8490453 376.826967,94.1018464 376.553551,94.1408694 L376.110025,94.2040447 L375.00736,94.937697 C374.777546,95.0904954 374.467128,95.0286175 374.313919,94.7992701 C374.16071,94.5699227 374.222814,94.260134 374.452627,94.1072358 L375.649598,93.3109072 C375.711701,93.2695887 375.782405,93.2426419 375.85631,93.2320628 L376.412142,93.1528192 Z M380.372175,92.5882333 C380.645491,92.5493101 380.898806,92.7388361 380.937908,93.0116977 C380.97691,93.2845592 380.786999,93.5372605 380.513583,93.5762835 L378.533567,93.8585266 C378.260151,93.8975495 378.006936,93.7079238 377.967834,93.435162 C377.928831,93.1623005 378.118743,92.9094993 378.392159,92.8705761 L380.372175,92.5882333 Z M384.332207,92.0236474 C384.605523,91.9847243 384.858838,92.1742503 384.89794,92.4471118 C384.936943,92.7199733 384.747032,92.9726747 384.473616,93.0116977 L382.493599,93.2939407 C382.220183,93.3329637 381.966968,93.1433379 381.927866,92.8705761 C381.888864,92.5977146 382.078775,92.3449135 382.352191,92.3059903 L384.332207,92.0236474 Z M388.29224,91.4591614 C388.565556,91.4201384 388.818871,91.6097642 388.857973,91.8825259 C388.896975,92.1553875 388.707064,92.4081886 388.433648,92.4471118 L386.453632,92.7294546 C386.180216,92.7683778 385.927001,92.5788518 385.887899,92.3059903 C385.848896,92.0331287 386.038807,91.7804274 386.312224,91.7414044 L388.29224,91.4591614 Z M392.252272,90.8945755 C392.525588,90.8555525 392.778903,91.0451783 392.818005,91.3179401 C392.857008,91.5908016 392.667097,91.8436027 392.393681,91.8825259 L390.413664,92.1648688 C390.140248,92.203792 389.887033,92.014266 389.847931,91.7414044 C389.808929,91.4685429 389.99884,91.2158415 390.272256,91.1768186 L392.252272,90.8945755 Z M396.064396,89.5825646 C396.190603,89.6035232 396.30881,89.672587 396.389115,89.7847656 C396.549625,90.009023 396.497521,90.320708 396.272808,90.4808919 L394.883927,91.4709381 C394.818723,91.5174464 394.743318,91.5475869 394.664014,91.5588646 L394.373697,91.6002829 C394.100281,91.6392061 393.847066,91.4496801 393.807964,91.1768186 C393.768961,90.9040568 393.958872,90.6512557 394.232288,90.6122327 L394.401798,90.5880804 L395.691574,89.6686946 C395.803881,89.5886526 395.938189,89.561606 396.064396,89.5825646 Z M399.319587,87.2621437 C399.445795,87.2832021 399.564001,87.3522658 399.644206,87.4643446 C399.804716,87.6886021 399.752713,88.000287 399.527999,88.1604709 L397.900404,89.3206814 C397.675691,89.4808653 397.363372,89.4288679 397.202863,89.2046104 C397.042353,88.980353 397.094457,88.6687679 397.31917,88.5084842 L398.946665,87.3483735 C399.059072,87.2682316 399.19338,87.241185 399.319587,87.2621437 Z M402.574678,84.9418225 C402.700986,84.9627811 402.819193,85.0318449 402.899397,85.1440235 C403.059907,85.3682809 403.007904,85.6798661 402.78319,85.8401498 L401.155595,87.0002604 C400.930882,87.1604443 400.618563,87.1085468 400.458054,86.8842893 C400.297545,86.6600318 400.349548,86.3483469 400.574261,86.188163 L402.201856,85.0279525 C402.314263,84.9479105 402.448471,84.9208639 402.574678,84.9418225 Z M405.829869,82.6214015 C405.956077,82.64246 406.074284,82.7115237 406.154488,82.8236025 C406.314998,83.04786 406.262995,83.3595449 406.038282,83.5197288 L404.410686,84.6799393 C404.185973,84.8401232 403.873654,84.7881258 403.713145,84.5638683 C403.552636,84.3396109 403.604739,84.027926 403.829352,83.8677421 L405.456947,82.7076314 C405.569354,82.6274895 405.703562,82.6004429 405.829869,82.6214015 Z M409.08496,80.3010804 C409.211168,80.322039 409.329375,80.3911028 409.409579,80.5032814 C409.570089,80.7275388 409.518086,81.039124 409.293373,81.1993079 L407.665777,82.3595183 C407.441064,82.5197022 407.128746,82.4678047 406.968236,82.2435472 C406.807727,82.0192897 406.85983,81.7076048 407.084543,81.5474209 L408.712139,80.3872104 C408.824445,80.3071684 408.958753,80.280022 409.08496,80.3010804 Z M429.987388,79.0456578 L431.976204,79.2582383 C432.25072,79.2875804 432.449532,79.5335949 432.42013,79.8075543 C432.390729,80.0816135 432.144214,80.280022 431.869598,80.2505801 L429.880881,80.0379996 C429.606265,80.0086575 429.407553,79.7626429 429.436955,79.4885838 C429.466357,79.2146244 429.712871,79.0162159 429.987388,79.0456578 Z M426.009954,78.6202972 L427.998771,78.8329775 C428.273287,78.8623196 428.472099,79.1082343 428.442697,79.3822935 C428.413295,79.6563527 428.166781,79.8546613 427.892165,79.8253192 L425.903448,79.6126389 C425.628832,79.5832968 425.43012,79.3373821 425.459522,79.0633229 C425.488923,78.7892638 425.735438,78.5909551 426.009954,78.6202972 Z M422.032521,78.1950364 L424.021237,78.4077167 C424.295853,78.4370588 424.494565,78.6829735 424.465163,78.9570327 C424.435762,79.2310919 424.189247,79.4294005 423.914731,79.4000584 L421.926014,79.1873781 C421.651398,79.158036 421.452686,78.9121213 421.482088,78.6380621 C421.51149,78.364003 421.757904,78.1656943 422.032521,78.1950364 Z M435.635119,78.1865531 C435.900835,78.1113016 436.177251,78.2652977 436.252555,78.5304745 C436.32796,78.7956512 436.173651,79.0715068 435.907935,79.1466585 L433.983622,79.6911839 C433.718007,79.7663356 433.44149,79.6123395 433.366186,79.3471628 C433.290881,79.0820859 433.445191,78.8061305 433.710906,78.7309788 L435.635119,78.1865531 Z M412.340052,77.9806594 C412.466259,78.0017179 412.584466,78.0707816 412.664771,78.1828604 C412.82528,78.4071179 412.773177,78.7188028 412.548464,78.8789867 L410.920968,80.0391972 C410.696155,80.1993811 410.383837,80.1473837 410.223427,79.9231262 C410.062918,79.6988688 410.114921,79.3871839 410.339634,79.227 L411.96723,78.0668893 C412.079536,77.9867474 412.213844,77.9597008 412.340052,77.9806594 Z M418.055087,77.7697756 L420.043804,77.9823561 C420.31832,78.0116982 420.517132,78.2577127 420.48773,78.5317719 C420.458328,78.8057313 420.211814,79.0041397 419.937198,78.9746978 L417.948481,78.7621173 C417.673865,78.7327752 417.475153,78.4867607 417.504555,78.2128013 C417.533956,77.9387422 417.780471,77.7403337 418.055087,77.7697756 Z M414.077554,77.344415 L416.06627,77.5570953 C416.340886,77.5864374 416.539598,77.8323521 416.510196,78.1064113 C416.480795,78.3804705 416.23438,78.5787791 415.959764,78.549437 L413.971047,78.3367567 C413.696431,78.3074146 413.497719,78.0614999 413.527121,77.7874407 C413.556523,77.5133816 413.802937,77.3150729 414.077554,77.344415 Z M439.483745,77.0975022 C439.749361,77.0223505 440.025777,77.1763466 440.101181,77.4415234 C440.176486,77.7067001 440.022177,77.9825557 439.756461,78.0577074 L437.832148,78.6022329 C437.566532,78.6773845 437.290016,78.5233884 437.214712,78.2582117 C437.139407,77.9931348 437.293716,77.7171794 437.559432,77.6420277 L439.483745,77.0975022 Z M443.332271,76.0085511 C443.597887,75.9333994 443.874303,76.0873956 443.949707,76.3525723 C444.025012,76.617749 443.870703,76.8936046 443.604987,76.9687563 L441.680674,77.5132818 C441.415058,77.5884335 441.138642,77.4344373 441.063238,77.1692606 C440.987933,76.9040839 441.142242,76.6282283 441.407958,76.5530766 L443.332271,76.0085511 Z M447.180797,74.9196 C447.446412,74.8444483 447.722929,74.9984445 447.798233,75.2636212 C447.873538,75.5286981 447.719228,75.8046535 447.453513,75.8798052 L445.5292,76.4243307 C445.263584,76.4994824 444.987168,76.3454862 444.911764,76.0803095 C444.836459,75.8151328 444.990768,75.5392772 445.256484,75.4641255 L447.180797,74.9196 Z M450.363484,74.0190771 C450.629199,73.9438256 450.905616,74.0979215 450.98092,74.3629984 C451.056224,74.6281751 450.901915,74.9040308 450.6362,74.9792823 L449.377826,75.3352798 C449.11211,75.4105313 448.835694,75.2565351 448.76039,74.9913584 C448.684985,74.7261817 448.839294,74.4503261 449.10501,74.3751744 L450.363484,74.0190771 Z" id="Fill-9" fill="#3D4542"></path>
            <text id="600-k" font-family="MuseoSans-500, Museo Sans" font-size="7.9999992" font-weight="normal" letter-spacing="-0.00239999976" fill="#FFFFFF">
                <tspan x="469" y="231">6</tspan>
                <tspan x="473.7896" y="231">00</tspan>
                <tspan x="483.789599" y="231" letter-spacing="-0.00079999992"> </tspan>
                <tspan x="485.844798" y="231">k</tspan>
            </text>
            <text id="700-k" font-family="MuseoSans-500, Museo Sans" font-size="7.9999992" font-weight="normal" letter-spacing="-0.00239999976" fill="#FFFFFF">
                <tspan x="469" y="198">7</tspan>
                <tspan x="473.2296" y="198">00</tspan>
                <tspan x="483.229599" y="198" letter-spacing="-0.00079999992"> </tspan>
                <tspan x="485.284798" y="198">k</tspan>
            </text>
            <text id="800-k" font-family="MuseoSans-500, Museo Sans" font-size="7.9999992" font-weight="normal" letter-spacing="-0.00079999992" fill="#FFFFFF">
                <tspan x="469" y="166">8</tspan>
                <tspan x="473.8552" y="166">00</tspan>
                <tspan x="483.855199" y="166"> </tspan>
                <tspan x="485.910398" y="166">k</tspan>
            </text>
            <text id="900-k" font-family="MuseoSans-500, Museo Sans" font-size="7.9999992" font-weight="normal" letter-spacing="-0.00239999976" fill="#FFFFFF">
                <tspan x="469" y="134">9</tspan>
                <tspan x="473.7896" y="134">00</tspan>
                <tspan x="483.789599" y="134" letter-spacing="-0.00079999992"> </tspan>
                <tspan x="485.844798" y="134">k</tspan>
            </text>
            <text id="1-000-k" font-family="MuseoSans-500, Museo Sans" font-size="7.9999992" font-weight="normal" letter-spacing="-0.00239999976" fill="#FFFFFF">
                <tspan x="467" y="102">1</tspan>
                <tspan x="470.9096" y="102" letter-spacing="-0.00079999992"> </tspan>
                <tspan x="472.964799" y="102">000</tspan>
                <tspan x="487.964798" y="102" letter-spacing="-0.00079999992"> </tspan>
                <tspan x="490.019998" y="102">k</tspan>
            </text>
            <text id="1-100-k" font-family="MuseoSans-500, Museo Sans" font-size="7.9999992" font-weight="normal" letter-spacing="-0.00239999976" fill="#FFFFFF">
                <tspan x="467" y="69">1</tspan>
                <tspan x="470.9096" y="69" letter-spacing="-0.00079999992"> </tspan>
                <tspan x="472.964799" y="69">100</tspan>
                <tspan x="486.874398" y="69" letter-spacing="-0.00079999992"> </tspan>
                <tspan x="488.929598" y="69">k</tspan>
            </text>
            <text id="1-200-k" font-family="MuseoSans-500, Museo Sans" font-size="7.9999992" font-weight="normal" letter-spacing="-0.00239999976" fill="#FFFFFF">
                <tspan x="467" y="37">1</tspan>
                <tspan x="470.9096" y="37" letter-spacing="-0.00079999992"> 200</tspan>
                <tspan x="487.539998" y="37" letter-spacing="-0.00079999992"> </tspan>
                <tspan x="489.595198" y="37">k</tspan>
            </text>
            <path d="M35,44 L60,44.0000787" id="Stroke-31" stroke="#FFFFFF" stroke-width="4" stroke-linecap="round" stroke-linejoin="round"></path>
            <text id="Blank" font-family="MuseoSans-500, Museo Sans" font-size="8.9999991" font-weight="normal" letter-spacing="-0.00089999991" fill="#FFFFFF">
                <tspan x="66" y="47">B</tspan>
                <tspan x="71.7050994" y="47">l</tspan>
                <tspan x="74.0900992" y="47" letter-spacing="-0.00179999982">an</tspan>
                <tspan x="84.2654982" y="47">k</tspan>
            </text>
            <path d="M59.3129771,56.0001 L60.5038168,56.0001 C60.7778092,56.0001 61,56.2239776 61,56.50005 C61,56.7762224 60.7778092,57 60.5038168,57 L59.3129771,57 C59.0389847,57 58.8167939,56.7762224 58.8167939,56.50005 C58.8167939,56.2239776 59.0389847,56.0001 59.3129771,56.0001 Z M55.3435115,56.0001 L57.3282443,56.0001 C57.6022366,56.0001 57.8244275,56.2239776 57.8244275,56.50005 C57.8244275,56.7762224 57.6022366,57 57.3282443,57 L55.3435115,57 C55.0695191,57 54.8473282,56.7761224 54.8473282,56.50005 C54.8473282,56.2239776 55.0695191,56.0001 55.3435115,56.0001 Z M51.3740458,56.0001 L53.3587786,56.0001 C53.632771,56.0001 53.8549618,56.2239776 53.8549618,56.50005 C53.8549618,56.7761224 53.632771,57 53.3587786,57 L51.3740458,57 C51.1000534,57 50.8778626,56.7761224 50.8778626,56.50005 C50.8778626,56.2238776 51.1000534,56.0001 51.3740458,56.0001 Z M47.4045802,56.0001 L49.389313,56.0001 C49.6633053,56.0001 49.8854962,56.2238776 49.8854962,56.50005 C49.8854962,56.7761224 49.6633053,57 49.389313,57 L47.4045802,57 C47.1305878,57 46.9083969,56.7761224 46.9083969,56.50005 C46.9083969,56.2238776 47.1305878,56.0001 47.4045802,56.0001 Z M43.4351145,56.0001 L45.4198473,56.0001 C45.6938397,56.0001 45.9160305,56.2238776 45.9160305,56.50005 C45.9160305,56.7761224 45.6938397,57 45.4198473,57 L43.4351145,57 C43.1611221,57 42.9389313,56.7761224 42.9389313,56.50005 C42.9389313,56.2238776 43.1611221,56.0001 43.4351145,56.0001 Z M39.4656489,56.0001 L41.4503817,56.0001 C41.724374,56.0001 41.9465649,56.2238776 41.9465649,56.50005 C41.9465649,56.7761224 41.724374,57 41.4503817,57 L39.4656489,57 C39.1916565,57 38.9694656,56.7761224 38.9694656,56.50005 C38.9694656,56.2238776 39.1916565,56.0001 39.4656489,56.0001 Z M35.4961832,56 L37.480916,56 C37.7549084,56.0001 37.9770992,56.2238776 37.9770992,56.50005 C37.9770992,56.7761224 37.7549084,57 37.480916,56.9999 L35.4961832,56.9999 C35.2221908,56.9999 35,56.7761224 35,56.49995 C35,56.2238776 35.2221908,56 35.4961832,56 Z" id="Fill-34" fill="#3D4542"></path>
            <text id="Tekna" font-family="MuseoSans-500, Museo Sans" font-size="8.9999991" font-weight="normal" letter-spacing="-0.00179999982" fill="#FFFFFF">
                <tspan x="66" y="59">T</tspan>
                <tspan x="70.5521995" y="59">e</tspan>
                <tspan x="75.547199" y="59" letter-spacing="0.00089999991">k</tspan>
                <tspan x="80.2820986" y="59">n</tspan>
                <tspan x="85.707298" y="59">a</tspan>
            </text>
            <path d="M185,171.5 C185,169.014638 187.014737,167 189.5,167 C191.985263,167 194,169.014638 194,171.5 C194,173.985263 191.985263,176 189.5,176 C187.014737,176 185,173.985263 185,171.5 Z" id="Fill-37" fill-opacity="0.502" fill="#FFFFFF"></path>
            <path d="M112,211.5 C112,210.119189 113.119298,209 114.5,209 C115.880702,209 117,210.119189 117,211.5 C117,212.880702 115.880702,214 114.5,214 C113.119298,214 112,212.880702 112,211.5 Z" id="Fill-39" fill-opacity="0.502" fill="#FFFFFF"></path>
            <path d="M411,116.5 C411,115.119298 412.119298,114 413.5,114 C414.880702,114 416,115.119298 416,116.5 C416,117.880702 414.880702,119 413.5,119 C412.119298,119 411,117.880702 411,116.5 Z" id="Fill-41" fill-opacity="0.502" fill="#FFFFFF"></path>
            <path d="M143,190.999951 C143,186.029353 147.02943,182 152,182 C156.97057,182 161,186.029353 161,190.999951 C161,195.970548 156.97057,200 152,200 C147.02943,200 143,195.970548 143,190.999951 Z" id="Fill-45" fill-opacity="0.502" fill="#FFFFFF"></path>
            <path d="M281,107.5 C281,106.119298 282.119298,105 283.5,105 C284.880811,105 286,106.119298 286,107.5 C286,108.880702 284.880811,110 283.5,110 C282.119298,110 281,108.880702 281,107.5 Z" id="Fill-47" fill-opacity="0.502" fill="#FFFFFF"></path>
            <path d="M129,202.5 C129,200.014737 131.014737,198 133.5,198 C135.985263,198 138,200.014737 138,202.5 C138,204.985263 135.985263,207 133.5,207 C131.014737,207 129,204.985263 129,202.5 Z" id="Fill-49" fill-opacity="0.502" fill="#FFFFFF"></path>
            <path d="M243,65.5 C243,64.1192982 244.119298,63 245.5,63 C246.880702,63 248,64.1192982 248,65.5 C248,66.8807018 246.880702,68 245.5,68 C244.119298,68 243,66.8807018 243,65.5 Z" id="Fill-51" fill-opacity="0.502" fill="#FFFFFF"></path>
            <path d="M199,161.999951 C199,157.029452 203.029452,153 208.000049,153 C212.970548,153 217,157.029452 217,161.999951 C217,166.970548 212.970548,171 208.000049,171 C203.029452,171 199,166.970548 199,161.999951 Z" id="Fill-53" fill-opacity="0.502" fill="#FFFFFF"></path>
            <path d="M225,120.5 C225,119.119298 226.119298,118 227.5,118 C228.880811,118 230,119.119298 230,120.5 C230,121.880702 228.880811,123 227.5,123 C226.119298,123 225,121.880702 225,120.5 Z" id="Fill-55" fill-opacity="0.502" fill="#FFFFFF"></path>
            <path d="M243,68.5 C243,67.1192982 244.119298,66 245.5,66 C246.880702,66 248,67.1192982 248,68.5 C248,69.8807018 246.880702,71 245.5,71 C244.119298,71 243,69.8807018 243,68.5 Z" id="Fill-57" fill-opacity="0.502" fill="#FFFFFF"></path>
            <path d="M94,219.5 C94,218.119189 95.1192982,217 96.5,217 C97.8807018,217 99,218.119189 99,219.5 C99,220.880702 97.8807018,222 96.5,222 C95.1192982,222 94,220.880702 94,219.5 Z" id="Fill-61" fill-opacity="0.502" fill="#FFFFFF"></path>
            <path d="M91,220.5 C91,218.014737 93.0147368,216 95.5,216 C97.9852632,216 100,218.014737 100,220.5 C100,222.985263 97.9852632,225 95.5,225 C93.0147368,225 91,222.985263 91,220.5 Z" id="Fill-63" fill-opacity="0.502" fill="#FFFFFF"></path>
            <path d="M187,120.5 C187,119.119298 188.119298,118 189.5,118 C190.880702,118 192,119.119298 192,120.5 C192,121.880702 190.880702,123 189.5,123 C188.119298,123 187,121.880702 187,120.5 Z" id="Fill-65" fill-opacity="0.502" fill="#FFFFFF"></path>
            <path d="M281,128.5 C281,127.119298 282.119298,126 283.5,126 C284.880811,126 286,127.119298 286,128.5 C286,129.880702 284.880811,131 283.5,131 C282.119298,131 281,129.880702 281,128.5 Z" id="Fill-69" fill-opacity="0.502" fill="#FFFFFF"></path>
            <path d="M168,181.5 C168,180.119298 169.119298,179 170.5,179 C171.880702,179 173,180.119298 173,181.5 C173,182.880702 171.880702,184 170.5,184 C169.119298,184 168,182.880702 168,181.5 Z" id="Fill-71" fill-opacity="0.502" fill="#FFFFFF"></path>
            <path d="M449,82.5 C449,81.1192982 450.119298,80 451.5,80 C452.880702,80 454,81.1192982 454,82.5 C454,83.8808114 452.880702,85 451.5,85 C450.119298,85 449,83.8808114 449,82.5 Z" id="Fill-73" fill-opacity="0.502" fill="#FFFFFF"></path>
            <path d="M187,172.5 C187,171.119298 188.119298,170 189.5,170 C190.880702,170 192,171.119298 192,172.5 C192,173.880702 190.880702,175 189.5,175 C188.119298,175 187,173.880702 187,172.5 Z" id="Fill-75" fill-opacity="0.502" fill="#FFFFFF"></path>
            <path d="M145,191 C145,187.133989 148.134012,184 152.000051,184 C155.865988,184 159,187.133989 159,191 C159,194.866011 155.865988,198 152.000051,198 C148.134012,198 145,194.866011 145,191 Z" id="Fill-77" fill-opacity="0.502" fill="#FFFFFF"></path>
            <path d="M131,202.5 C131,201.119298 132.119298,200 133.5,200 C134.880702,200 136,201.119298 136,202.5 C136,203.880702 134.880702,205 133.5,205 C132.119298,205 131,203.880702 131,202.5 Z" id="Fill-79" fill-opacity="0.502" fill="#FFFFFF"></path>
            <path d="M201,161.999949 C201,158.134012 204.134012,155 208.000051,155 C211.865988,155 215,158.134012 215,161.999949 C215,165.865988 211.865988,169 208.000051,169 C204.134012,169 201,165.865988 201,161.999949 Z" id="Fill-81" fill-opacity="0.502" fill="#FFFFFF"></path>
            <path d="M94,220.5 C94,219.119298 95.1192982,218 96.5,218 C97.8807018,218 99,219.119298 99,220.5 C99,221.880702 97.8807018,223 96.5,223 C95.1192982,223 94,221.880702 94,220.5 Z" id="Fill-83" fill-opacity="0.502" fill="#FFFFFF"></path>
            <path d="M148,191.5 C148,189.014737 150.014638,187 152.5,187 C154.985263,187 157,189.014737 157,191.5 C157,193.985263 154.985263,196 152.5,196 C150.014638,196 148,193.985263 148,191.5 Z" id="Fill-87" fill-opacity="0.749" fill="#FFFFFF"></path>
            <path d="M204,162.5 C204,160.014737 206.014737,158 208.5,158 C210.985263,158 213,160.014737 213,162.5 C213,164.985362 210.985263,167 208.5,167 C206.014737,167 204,164.985362 204,162.5 Z" id="Fill-89" fill-opacity="0.749" fill="#FFFFFF"></path>
            <path d="M150,191.5 C150,190.119298 151.119298,189 152.5,189 C153.880702,189 155,190.119298 155,191.5 C155,192.880702 153.880702,194 152.5,194 C151.119298,194 150,192.880702 150,191.5 Z" id="Fill-91" fill="#FFFFFF"></path>
            <path d="M206,162.5 C206,161.119298 207.119298,160 208.5,160 C209.880702,160 211,161.119298 211,162.5 C211,163.880811 209.880702,165 208.5,165 C207.119298,165 206,163.880811 206,162.5 Z" id="Fill-93" fill="#FFFFFF"></path>
            <text id="2017" font-family="MuseoSans-500, Museo Sans" font-size="7.9999992" font-weight="normal" letter-spacing="-0.00079999992" fill="#FFFFFF">
                <tspan x="31" y="273">2</tspan>
                <tspan x="35.5751995" y="273">0</tspan>
                <tspan x="40.575199" y="273" letter-spacing="-0.00239999976">1</tspan>
                <tspan x="44.4847987" y="273">7</tspan>
            </text>
            <text id="2015" font-family="MuseoSans-500, Museo Sans" font-size="7.9999992" font-weight="normal" letter-spacing="-0.00079999992" fill="#FFFFFF">
                <tspan x="68" y="273">2</tspan>
                <tspan x="72.5751995" y="273">0</tspan>
                <tspan x="77.575199" y="273" letter-spacing="-0.00239999976">1</tspan>
                <tspan x="81.4847987" y="273">5</tspan>
            </text>
            <text id="2013" font-family="MuseoSans-500, Museo Sans" font-size="7.9999992" font-weight="normal" letter-spacing="-0.00079999992" fill="#FFFFFF">
                <tspan x="105" y="273">2</tspan>
                <tspan x="109.5752" y="273">0</tspan>
                <tspan x="114.575199" y="273" letter-spacing="-0.00239999976">1</tspan>
                <tspan x="118.484799" y="273">3</tspan>
            </text>
            <text id="2011" font-family="MuseoSans-500, Museo Sans" font-size="7.9999992" font-weight="normal" letter-spacing="-0.00079999992" fill="#FFFFFF">
                <tspan x="143" y="273">2</tspan>
                <tspan x="147.5752" y="273">0</tspan>
                <tspan x="152.575199" y="273" letter-spacing="-0.00239999976">1</tspan>
                <tspan x="156.484799" y="273">1</tspan>
            </text>
            <text id="2009" font-family="MuseoSans-500, Museo Sans" font-size="7.9999992" font-weight="normal" letter-spacing="-0.00079999992" fill="#FFFFFF">
                <tspan x="179" y="273">2</tspan>
                <tspan x="183.5752" y="273">009</tspan>
            </text>
            <text id="2007" font-family="MuseoSans-500, Museo Sans" font-size="7.9999992" font-weight="normal" letter-spacing="-0.00079999992" fill="#FFFFFF">
                <tspan x="217" y="273">2</tspan>
                <tspan x="221.5752" y="273">007</tspan>
            </text>
            <text id="2005" font-family="MuseoSans-500, Museo Sans" font-size="7.9999992" font-weight="normal" letter-spacing="-0.00079999992" fill="#FFFFFF">
                <tspan x="254" y="273">2</tspan>
                <tspan x="258.5752" y="273">005</tspan>
            </text>
            <text id="2003" font-family="MuseoSans-500, Museo Sans" font-size="7.9999992" font-weight="normal" letter-spacing="-0.00079999992" fill="#FFFFFF">
                <tspan x="292" y="273">2</tspan>
                <tspan x="296.5752" y="273">003</tspan>
            </text>
            <text id="2001" font-family="MuseoSans-500, Museo Sans" font-size="7.9999992" font-weight="normal" letter-spacing="-0.00079999992" fill="#FFFFFF">
                <tspan x="329" y="273">2</tspan>
                <tspan x="333.5752" y="273">001</tspan>
            </text>
            <text id="1999" font-family="MuseoSans-500, Museo Sans" font-size="7.9999992" font-weight="normal" letter-spacing="-0.0003" fill="#FFFFFF">
                <tspan x="367" y="273">1999</tspan>
            </text>
            <text id="1997" font-family="MuseoSans-500, Museo Sans" font-size="7.9999992" font-weight="normal" letter-spacing="-0.0003" fill="#FFFFFF">
                <tspan x="404" y="273">1997</tspan>
            </text>
            <text id="1995" font-family="MuseoSans-500, Museo Sans" font-size="7.9999992" font-weight="normal" letter-spacing="-0.0003" fill="#FFFFFF">
                <tspan x="442" y="273">1995</tspan>
            </text>
            <text id="500-k" font-family="MuseoSans-500, Museo Sans" font-size="7.9999992" font-weight="normal" letter-spacing="0.00079999992" fill="#FFFFFF">
                <tspan x="469" y="263">5</tspan>
                <tspan x="473.5048" y="263">00</tspan>
                <tspan x="483.504799" y="263" letter-spacing="-0.00079999992"> </tspan>
                <tspan x="485.559998" y="263">k</tspan>
            </text>
            <path d="M38,243.5 C38,242.119298 39.1192982,241 40.5,241 C41.8807018,241 43,242.119298 43,243.5 C43,244.880811 41.8807018,246 40.5,246 C39.1192982,246 38,244.880811 38,243.5 Z" id="Fill-43" fill-opacity="0.502" fill="#FFFFFF"></path>
            <path d="M56,240.5 C56,239.119189 57.1191886,238 58.5,238 C59.8807018,238 61,239.119189 61,240.5 C61,241.880702 59.8807018,243 58.5,243 C57.1191886,243 56,241.880702 56,240.5 Z" id="Fill-59" fill-opacity="0.502" fill="#FFFFFF"></path>
            <path d="M35,246.5 C35,244.014737 37.0147368,242 39.5,242 C41.9852632,242 44,244.014737 44,246.5 C44,248.985263 41.9852632,251 39.5,251 C37.0147368,251 35,248.985263 35,246.5 Z" id="Fill-67" fill-opacity="0.502" fill="#FFFFFF"></path>
            <path d="M38,246.5 C38,245.119298 39.1192982,244 40.5,244 C41.8807018,244 43,245.119298 43,246.5 C43,247.880702 41.8807018,249 40.5,249 C39.1192982,249 38,247.880702 38,246.5 Z" id="Fill-85" fill-opacity="0.502" fill="#FFFFFF"></path>
        </g>
    </g>
</svg>
